<?xml version="1.0" encoding="UTF-8" standalone="no"?>
<svg
   xmlns:ooo="http://xml.openoffice.org/svg/export"
   xmlns:dc="http://purl.org/dc/elements/1.1/"
   xmlns:cc="http://creativecommons.org/ns#"
   xmlns:rdf="http://www.w3.org/1999/02/22-rdf-syntax-ns#"
   xmlns:svg="http://www.w3.org/2000/svg"
   xmlns="http://www.w3.org/2000/svg"
   style="fill-rule:evenodd;stroke-width:28.22200012;stroke-linejoin:round"
   id="svg75"
   xml:space="preserve"
   preserveAspectRatio="xMidYMid"
   viewBox="0 0 438.00001 469.00001"
   height="4.6900001mm"
   width="4.3800001mm"
   version="1.2"><metadata
   id="metadata79"><rdf:RDF><cc:Work
       rdf:about=""><dc:format>image/svg+xml</dc:format><dc:type
         rdf:resource="http://purl.org/dc/dcmitype/StillImage" /></cc:Work></rdf:RDF></metadata>
 <defs
   id="defs8"
   class="ClipPathGroup">
  <clipPath
   clipPathUnits="userSpaceOnUse"
   id="presentation_clip_path">
   <rect
   id="rect2"
   height="29700"
   width="21000"
   y="0"
   x="0" />
  </clipPath>
  <clipPath
   clipPathUnits="userSpaceOnUse"
   id="presentation_clip_path_shrink">
   <rect
   id="rect5"
   height="29641"
   width="20958"
   y="29"
   x="21" />
  </clipPath>
 </defs>
 <defs
   id="defs12"
   class="TextShapeIndex">
  <g
   id="g10"
   ooo:id-list="id3"
   ooo:slide="id1" />
 </defs>
 <defs
   id="defs44"
   class="EmbeddedBulletChars">
  <g
   transform="matrix(4.8828125e-4,0,0,-4.8828125e-4,0,0)"
   id="bullet-char-template-57356">
   <path
   id="path14"
   d="M 580,1141 1163,571 580,0 -4,571 Z" />
  </g>
  <g
   transform="matrix(4.8828125e-4,0,0,-4.8828125e-4,0,0)"
   id="bullet-char-template-57354">
   <path
   id="path17"
   d="M 8,1128 H 1137 V 0 H 8 Z" />
  </g>
  <g
   transform="matrix(4.8828125e-4,0,0,-4.8828125e-4,0,0)"
   id="bullet-char-template-10146">
   <path
   id="path20"
   d="M 174,0 602,739 174,1481 1456,739 Z M 1358,739 309,1346 659,739 Z" />
  </g>
  <g
   transform="matrix(4.8828125e-4,0,0,-4.8828125e-4,0,0)"
   id="bullet-char-template-10132">
   <path
   id="path23"
   d="M 2015,739 1276,0 H 717 l 543,543 H 174 v 393 h 1086 l -543,545 h 557 z" />
  </g>
  <g
   transform="matrix(4.8828125e-4,0,0,-4.8828125e-4,0,0)"
   id="bullet-char-template-10007">
   <path
   id="path26"
   d="m 0,-2 c -7,16 -16,29 -25,39 l 381,530 c -94,256 -141,385 -141,387 0,25 13,38 40,38 9,0 21,-2 34,-5 21,4 42,12 65,25 l 27,-13 111,-251 280,301 64,-25 24,25 c 21,-10 41,-24 62,-43 C 886,937 835,863 770,784 769,783 710,716 594,584 L 774,223 c 0,-27 -21,-55 -63,-84 l 16,-20 C 717,90 699,76 672,76 641,76 570,178 457,381 L 164,-76 c -22,-34 -53,-51 -92,-51 -42,0 -63,17 -64,51 -7,9 -10,24 -10,44 0,9 1,19 2,30 z" />
  </g>
  <g
   transform="matrix(4.8828125e-4,0,0,-4.8828125e-4,0,0)"
   id="bullet-char-template-10004">
   <path
   id="path29"
   d="M 285,-33 C 182,-33 111,30 74,156 52,228 41,333 41,471 c 0,78 14,145 41,201 34,71 87,106 158,106 53,0 88,-31 106,-94 l 23,-176 c 8,-64 28,-97 59,-98 l 735,706 c 11,11 33,17 66,17 42,0 63,-15 63,-46 V 965 c 0,-36 -10,-64 -30,-84 L 442,47 C 390,-6 338,-33 285,-33 Z" />
  </g>
  <g
   transform="matrix(4.8828125e-4,0,0,-4.8828125e-4,0,0)"
   id="bullet-char-template-9679">
   <path
   id="path32"
   d="M 813,0 C 632,0 489,54 383,161 276,268 223,411 223,592 c 0,181 53,324 160,431 106,107 249,161 430,161 179,0 323,-54 432,-161 108,-107 162,-251 162,-431 0,-180 -54,-324 -162,-431 C 1136,54 992,0 813,0 Z" />
  </g>
  <g
   transform="matrix(4.8828125e-4,0,0,-4.8828125e-4,0,0)"
   id="bullet-char-template-8226">
   <path
   id="path35"
   d="m 346,457 c -73,0 -137,26 -191,78 -54,51 -81,114 -81,188 0,73 27,136 81,188 54,52 118,78 191,78 73,0 134,-26 185,-79 51,-51 77,-114 77,-187 0,-75 -25,-137 -76,-188 -50,-52 -112,-78 -186,-78 z" />
  </g>
  <g
   transform="matrix(4.8828125e-4,0,0,-4.8828125e-4,0,0)"
   id="bullet-char-template-8211">
   <path
   id="path38"
   d="M -4,459 H 1135 V 606 H -4 Z" />
  </g>
  <g
   transform="matrix(4.8828125e-4,0,0,-4.8828125e-4,0,0)"
   id="bullet-char-template-61548">
   <path
   id="path41"
   d="m 173,740 c 0,163 58,303 173,419 116,115 255,173 419,173 163,0 302,-58 418,-173 116,-116 174,-256 174,-419 0,-163 -58,-303 -174,-418 C 1067,206 928,148 765,148 601,148 462,206 346,322 231,437 173,577 173,740 Z" />
  </g>
 </defs>
 <defs
   id="defs46"
   class="TextEmbeddedBitmaps" />
 <g
   transform="translate(-10281,-14615)"
   id="g51">
  <g
   class="Master_Slide"
   id="id2">
   <g
   class="Background"
   id="bg-id2" />
   <g
   class="BackgroundObjects"
   id="bo-id2" />
  </g>
 </g>
 <g
   transform="translate(-10281,-14615)"
   id="g73"
   class="SlideGroup">
  <g
   id="g71">
   <g
   id="container-id1">
    <g
   clip-path="url(#presentation_clip_path)"
   class="Slide"
   id="id1">
     <g
   id="g67"
   class="Page">
      <g
   id="g65"
   class="Graphic">
       <g
   id="id3">
        <rect
   style="fill:none;stroke:none"
   id="rect53"
   height="469"
   width="438"
   y="14615"
   x="10281"
   class="BoundingBox" />
        <defs
   id="defs58">
         <clipPath
   clipPathUnits="userSpaceOnUse"
   id="clip_path_1">
          <path
   id="path55"
   d="m 10281,14615 h 437 v 468 h -437 z" />
         </clipPath>
        </defs>
        <g
   id="g62"
   clip-path="url(#clip_path_1)">
         <path
   style="fill:none;stroke:#006b33;stroke-width:63;stroke-linejoin:miter"
   id="path60"
   d="m 10312,14646 198,375 177,-375" />
        </g>
       </g>
      </g>
     </g>
    </g>
   </g>
  </g>
 </g>
</svg>