<?xml version="1.0" encoding="UTF-8" standalone="no"?>
<svg viewBox="0.015625 -0.6875 0.671875 0.6875"
 xmlns="http://www.w3.org/2000/svg" xmlns:xlink="http://www.w3.org/1999/xlink"  version="1.2" baseProfile="tiny">
<title>Qt SVG Document</title>
<desc>Generated with Qt</desc>
<defs>
</defs>
<g fill="none" stroke="black" stroke-width="1" fill-rule="evenodd" stroke-linecap="square" stroke-linejoin="bevel" >

<g fill="#267300" fill-opacity="1" stroke="none" transform="matrix(1,0,0,1,0,0)"
font-family="ESRI Default Marker" font-size="1.03125" font-weight="400" font-style="normal" 
>
<path vector-effect="none" fill-rule="nonzero" d="M0.6875,-0.34375 C0.6875,-0.291667 0.679688,-0.244792 0.664063,-0.203125 C0.648438,-0.161458 0.625,-0.125 0.59375,-0.09375 C0.5625,-0.0625 0.526042,-0.0390625 0.484375,-0.0234375 C0.442708,-0.0078125 0.395833,0 0.34375,0 C0.302083,0 0.260417,-0.0078125 0.21875,-0.0234375 C0.177083,-0.0390625 0.140625,-0.0625 0.109375,-0.09375 C0.078125,-0.125 0.0546875,-0.161458 0.0390625,-0.203125 C0.0234375,-0.244792 0.015625,-0.291667 0.015625,-0.34375 C0.015625,-0.385417 0.0234375,-0.427083 0.0390625,-0.46875 C0.0546875,-0.510417 0.078125,-0.546875 0.109375,-0.578125 C0.140625,-0.609375 0.177083,-0.635417 0.21875,-0.65625 C0.260417,-0.677083 0.302083,-0.6875 0.34375,-0.6875 C0.395833,-0.6875 0.442708,-0.677083 0.484375,-0.65625 C0.526042,-0.635417 0.5625,-0.609375 0.59375,-0.578125 C0.625,-0.546875 0.648438,-0.510417 0.664063,-0.46875 C0.679688,-0.427083 0.6875,-0.385417 0.6875,-0.34375 "/>
</g>
</g>
</svg>
