<?xml version="1.0" encoding="UTF-8" standalone="no"?>
<svg viewBox="0 -4.90625 4.90625 4.90625"
 xmlns="http://www.w3.org/2000/svg" xmlns:xlink="http://www.w3.org/1999/xlink"  version="1.2" baseProfile="tiny">
<title>Qt SVG Document</title>
<desc>Generated with Qt</desc>
<defs>
</defs>
<g fill="none" stroke="black" stroke-width="1" fill-rule="evenodd" stroke-linecap="square" stroke-linejoin="bevel" >

<g fill="#000000" fill-opacity="1" stroke="none" transform="matrix(1,0,0,1,0,0)"
font-family="ESRI Default Marker" font-size="5" font-weight="400" font-style="normal" 
>
<path vector-effect="none" fill-rule="nonzero" d="M4.90625,-2.45313 C4.90625,-2.11979 4.84115,-1.80208 4.71094,-1.5 C4.58073,-1.19792 4.40625,-0.9375 4.1875,-0.71875 C3.96875,-0.5 3.70833,-0.325521 3.40625,-0.195313 C3.10417,-0.0651042 2.78646,0 2.45313,0 C2.11979,0 1.80208,-0.0651042 1.5,-0.195313 C1.19792,-0.325521 0.9375,-0.5 0.71875,-0.71875 C0.5,-0.9375 0.325521,-1.19792 0.195313,-1.5 C0.0651042,-1.80208 0,-2.11979 0,-2.45313 C0,-2.78646 0.0651042,-3.10417 0.195313,-3.40625 C0.325521,-3.70833 0.5,-3.96875 0.71875,-4.1875 C0.9375,-4.40625 1.19792,-4.58073 1.5,-4.71094 C1.80208,-4.84115 2.11979,-4.90625 2.45313,-4.90625 C2.78646,-4.90625 3.10417,-4.84115 3.40625,-4.71094 C3.70833,-4.58073 3.96875,-4.40625 4.1875,-4.1875 C4.40625,-3.96875 4.58073,-3.70833 4.71094,-3.40625 C4.84115,-3.10417 4.90625,-2.78646 4.90625,-2.45313 M4.76563,-2.45313 C4.76563,-2.76563 4.70313,-3.0625 4.57813,-3.34375 C4.45313,-3.625 4.28646,-3.86979 4.07813,-4.07813 C3.86979,-4.28646 3.625,-4.45313 3.34375,-4.57813 C3.0625,-4.70313 2.76563,-4.76563 2.45313,-4.76563 C2.13021,-4.76563 1.83073,-4.70313 1.55469,-4.57813 C1.27865,-4.45313 1.03385,-4.28646 0.820313,-4.07813 C0.606771,-3.86979 0.440104,-3.625 0.320313,-3.34375 C0.200521,-3.0625 0.140625,-2.76563 0.140625,-2.45313 C0.140625,-2.13021 0.200521,-1.83073 0.320313,-1.55469 C0.440104,-1.27865 0.606771,-1.03385 0.820313,-0.820313 C1.03385,-0.606771 1.27865,-0.440104 1.55469,-0.320313 C1.83073,-0.200521 2.13021,-0.140625 2.45313,-0.140625 C2.76563,-0.140625 3.0625,-0.200521 3.34375,-0.320313 C3.625,-0.440104 3.86979,-0.606771 4.07813,-0.820313 C4.28646,-1.03385 4.45313,-1.27865 4.57813,-1.55469 C4.70313,-1.83073 4.76563,-2.13021 4.76563,-2.45313 "/>
</g>
</g>
</svg>
