<?xml version="1.0" encoding="UTF-8" standalone="no"?>
<svg viewBox="0 -15.4063 15.4063 15.4063"
 xmlns="http://www.w3.org/2000/svg" xmlns:xlink="http://www.w3.org/1999/xlink"  version="1.2" baseProfile="tiny">
<title>Qt SVG Document</title>
<desc>Generated with Qt</desc>
<defs>
</defs>
<g fill="none" stroke="black" stroke-width="1" fill-rule="evenodd" stroke-linecap="square" stroke-linejoin="bevel" >

<g fill="#000000" fill-opacity="1" stroke="none" transform="matrix(1,0,0,1,0,0)"
font-family="ESRI Default Marker" font-size="16" font-weight="400" font-style="normal" 
>
<path vector-effect="none" fill-rule="nonzero" d="M15.4063,-7.70313 C15.4063,-6.64063 15.2031,-5.64063 14.7969,-4.70313 C14.3906,-3.76563 13.8411,-2.94792 13.1484,-2.25 C12.4557,-1.55208 11.638,-1.0026 10.6953,-0.601563 C9.7526,-0.200521 8.75521,0 7.70313,0 C6.64063,0 5.64063,-0.200521 4.70313,-0.601563 C3.76563,-1.0026 2.94792,-1.55208 2.25,-2.25 C1.55208,-2.94792 1.0026,-3.76563 0.601563,-4.70313 C0.200521,-5.64063 0,-6.64063 0,-7.70313 C0,-8.75521 0.200521,-9.7526 0.601563,-10.6953 C1.0026,-11.638 1.55208,-12.4557 2.25,-13.1484 C2.94792,-13.8411 3.76563,-14.3906 4.70313,-14.7969 C5.64063,-15.2031 6.64063,-15.4063 7.70313,-15.4063 C8.75521,-15.4063 9.7526,-15.2031 10.6953,-14.7969 C11.638,-14.3906 12.4557,-13.8411 13.1484,-13.1484 C13.8411,-12.4557 14.3906,-11.638 14.7969,-10.6953 C15.2031,-9.7526 15.4063,-8.75521 15.4063,-7.70313 M14.9688,-7.70313 C14.9688,-8.70313 14.776,-9.64323 14.3906,-10.5234 C14.0052,-11.4036 13.4844,-12.1719 12.8281,-12.8281 C12.1719,-13.4844 11.4036,-14.0052 10.5234,-14.3906 C9.64323,-14.776 8.70313,-14.9688 7.70313,-14.9688 C6.70313,-14.9688 5.76302,-14.776 4.88281,-14.3906 C4.0026,-14.0052 3.23177,-13.4844 2.57031,-12.8281 C1.90885,-12.1719 1.38802,-11.4036 1.00781,-10.5234 C0.627604,-9.64323 0.4375,-8.70313 0.4375,-7.70313 C0.4375,-6.70313 0.627604,-5.76302 1.00781,-4.88281 C1.38802,-4.0026 1.90885,-3.23177 2.57031,-2.57031 C3.23177,-1.90885 4.0026,-1.38802 4.88281,-1.00781 C5.76302,-0.627604 6.70313,-0.4375 7.70313,-0.4375 C8.70313,-0.4375 9.64323,-0.627604 10.5234,-1.00781 C11.4036,-1.38802 12.1719,-1.90885 12.8281,-2.57031 C13.4844,-3.23177 14.0052,-4.0026 14.3906,-4.88281 C14.776,-5.76302 14.9688,-6.70313 14.9688,-7.70313 "/>
</g>
</g>
</svg>
