<?xml version="1.0" encoding="UTF-8" standalone="no"?>
<svg viewBox="0.0625 -4.76563 4.76563 4.76563"
 xmlns="http://www.w3.org/2000/svg" xmlns:xlink="http://www.w3.org/1999/xlink"  version="1.2" baseProfile="tiny">
<title>Qt SVG Document</title>
<desc>Generated with Qt</desc>
<defs>
</defs>
<g fill="none" stroke="black" stroke-width="1" fill-rule="evenodd" stroke-linecap="square" stroke-linejoin="bevel" >

<g fill="#70a800" fill-opacity="1" stroke="none" transform="matrix(1,0,0,1,0,0)"
font-family="ESRI Default Marker" font-size="5" font-weight="400" font-style="normal" 
>
<path vector-effect="none" fill-rule="nonzero" d="M4.82813,-2.375 C4.82813,-2.05208 4.76563,-1.74479 4.64063,-1.45313 C4.51563,-1.16146 4.34375,-0.908854 4.125,-0.695313 C3.90625,-0.481771 3.65365,-0.3125 3.36719,-0.1875 C3.08073,-0.0625 2.77083,0 2.4375,0 C2.11458,0 1.80729,-0.0625 1.51563,-0.1875 C1.22396,-0.3125 0.971354,-0.481771 0.757813,-0.695313 C0.544271,-0.908854 0.375,-1.16146 0.25,-1.45313 C0.125,-1.74479 0.0625,-2.05208 0.0625,-2.375 C0.0625,-2.70833 0.125,-3.01823 0.25,-3.30469 C0.375,-3.59115 0.544271,-3.84375 0.757813,-4.0625 C0.971354,-4.28125 1.22396,-4.45313 1.51563,-4.57813 C1.80729,-4.70313 2.11458,-4.76563 2.4375,-4.76563 C2.77083,-4.76563 3.08073,-4.70313 3.36719,-4.57813 C3.65365,-4.45313 3.90625,-4.28125 4.125,-4.0625 C4.34375,-3.84375 4.51563,-3.59115 4.64063,-3.30469 C4.76563,-3.01823 4.82813,-2.70833 4.82813,-2.375 "/>
</g>
</g>
</svg>
