<?xml version="1.0" encoding="UTF-8" standalone="no"?>
<svg viewBox="0 -4.92188 4.92188 4.92188"
 xmlns="http://www.w3.org/2000/svg" xmlns:xlink="http://www.w3.org/1999/xlink"  version="1.2" baseProfile="tiny">
<title>Qt SVG Document</title>
<desc>Generated with Qt</desc>
<defs>
</defs>
<g fill="none" stroke="black" stroke-width="1" fill-rule="evenodd" stroke-linecap="square" stroke-linejoin="bevel" >

<g fill="#70a800" fill-opacity="1" stroke="none" transform="matrix(1,0,0,1,0,0)"
font-family="ESRI Enviro Hazard Analysis" font-size="4" font-weight="400" font-style="normal" 
>
<path vector-effect="none" fill-rule="nonzero" d="M0.53125,-3.64063 C0.53125,-3.64063 0.609375,-3.63021 0.765625,-3.60938 L0.78125,-3.65625 C0.802083,-3.77083 0.84375,-3.94271 0.90625,-4.17188 C1.02083,-4.44271 1.20833,-4.57813 1.46875,-4.57813 C1.6875,-4.57813 1.88021,-4.46875 2.04688,-4.25 C2.07813,-4.29167 2.11198,-4.33333 2.14844,-4.375 C2.1849,-4.41667 2.22917,-4.46875 2.28125,-4.53125 C2.52083,-4.79167 2.77083,-4.92188 3.03125,-4.92188 C3.25,-4.92188 3.43229,-4.83333 3.57813,-4.65625 C3.69271,-4.5 3.76563,-4.30208 3.79688,-4.0625 L3.98438,-4.0625 C4.01563,-4.0625 4.04688,-4.0625 4.07813,-4.0625 C4.10938,-4.0625 4.13542,-4.05729 4.15625,-4.04688 C4.29167,-4.02604 4.39583,-4 4.46875,-3.96875 C4.57292,-3.91667 4.67708,-3.80208 4.78125,-3.625 C4.875,-3.45833 4.92188,-3.3125 4.92188,-3.1875 C4.92188,-2.88542 4.75521,-2.59896 4.42188,-2.32813 C4.60938,-2.25521 4.73958,-2.15365 4.8125,-2.02344 C4.88542,-1.89323 4.92188,-1.71875 4.92188,-1.5 C4.92188,-1.23958 4.85417,-1.01042 4.71875,-0.8125 C4.5625,-0.59375 4.35417,-0.484375 4.09375,-0.484375 C3.90625,-0.484375 3.71354,-0.552083 3.51563,-0.6875 C3.43229,-0.510417 3.26563,-0.348958 3.01563,-0.203125 C2.79688,-0.0677083 2.60417,0 2.4375,0 C2.21875,0 2.03125,-0.09375 1.875,-0.28125 C1.72917,-0.447917 1.63542,-0.661458 1.59375,-0.921875 L1.53125,-0.875 C1.46875,-0.8125 1.41927,-0.765625 1.38281,-0.734375 C1.34635,-0.703125 1.31771,-0.682292 1.29688,-0.671875 C1.20313,-0.609375 1.09896,-0.578125 0.984375,-0.578125 C0.703125,-0.578125 0.46875,-0.661458 0.28125,-0.828125 C0.09375,-0.994792 0,-1.20833 0,-1.46875 C0,-1.625 0.0416667,-1.78646 0.125,-1.95313 C0.208333,-2.11979 0.317708,-2.26563 0.453125,-2.39063 L0.171875,-2.76563 C0.0572917,-2.93229 0,-3.07292 0,-3.1875 C0,-3.48958 0.177083,-3.64063 0.53125,-3.64063 "/>
</g>
</g>
</svg>
