<?xml version="1.0" encoding="UTF-8" standalone="no"?>
<svg viewBox="0 -23 23.1094 23"
 xmlns="http://www.w3.org/2000/svg" xmlns:xlink="http://www.w3.org/1999/xlink"  version="1.2" baseProfile="tiny">
<title>Qt SVG Document</title>
<desc>Generated with Qt</desc>
<defs>
</defs>
<g fill="none" stroke="black" stroke-width="1" fill-rule="evenodd" stroke-linecap="square" stroke-linejoin="bevel" >

<g fill="#000000" fill-opacity="1" stroke="none" transform="matrix(1,0,0,1,0,0)"
font-family="ESRI Default Marker" font-size="25" font-weight="400" font-style="normal" 
>
<path vector-effect="none" fill-rule="nonzero" d="M23.1094,-13.5313 L23.1094,-9.40625 L16.5938,-9.40625 L21.1875,-4.8125 L18.2188,-1.84375 L13.6563,-6.4375 L13.6563,0 L9.4375,0 L9.4375,-6.4375 L4.89063,-1.84375 L1.92188,-4.8125 L6.46875,-9.40625 L0,-9.40625 L0,-13.5313 L6.46875,-13.5313 L1.875,-18.125 L4.85938,-21.0938 L9.4375,-16.5 L9.4375,-23 L13.6563,-23 L13.6563,-16.5 L18.25,-21.0938 L21.1875,-18.125 L16.5938,-13.5313 L23.1094,-13.5313 M22.375,-12.875 L14.8906,-12.875 L20.2031,-18.1875 L18.25,-20.1406 L12.9375,-14.8594 L12.9375,-22.3438 L10.1719,-22.3438 L10.1719,-14.8125 L4.85938,-20.1406 L2.90625,-18.1875 L8.21875,-12.875 L0.71875,-12.875 L0.71875,-10.0625 L8.21875,-10.0625 L2.9375,-4.76563 L4.89063,-2.82813 L10.1719,-8.125 L10.1719,-0.65625 L12.9375,-0.65625 L12.9375,-8.125 L18.2188,-2.82813 L20.1719,-4.76563 L14.8906,-10.0625 L22.375,-10.0625 L22.375,-12.875"/>
</g>
</g>
</svg>
