<?xml version="1.0" encoding="UTF-8" standalone="no"?>
<svg viewBox="0 -9.8125 9.8125 9.8125"
 xmlns="http://www.w3.org/2000/svg" xmlns:xlink="http://www.w3.org/1999/xlink"  version="1.2" baseProfile="tiny">
<title>Qt SVG Document</title>
<desc>Generated with Qt</desc>
<defs>
</defs>
<g fill="none" stroke="black" stroke-width="1" fill-rule="evenodd" stroke-linecap="square" stroke-linejoin="bevel" >

<g fill="#ff0000" fill-opacity="1" stroke="none" transform="matrix(1,0,0,1,0,0)"
font-family="ESRI Default Marker" font-size="10" font-weight="400" font-style="normal" 
>
<path vector-effect="none" fill-rule="nonzero" d="M9.8125,-4.90625 C9.8125,-4.22917 9.68229,-3.59115 9.42188,-2.99219 C9.16146,-2.39323 8.8099,-1.8724 8.36719,-1.42969 C7.92448,-0.986979 7.40365,-0.638021 6.80469,-0.382813 C6.20573,-0.127604 5.57292,0 4.90625,0 C4.22917,0 3.59115,-0.127604 2.99219,-0.382813 C2.39323,-0.638021 1.8724,-0.986979 1.42969,-1.42969 C0.986979,-1.8724 0.638021,-2.39323 0.382813,-2.99219 C0.127604,-3.59115 0,-4.22917 0,-4.90625 C0,-5.57292 0.127604,-6.20573 0.382813,-6.80469 C0.638021,-7.40365 0.986979,-7.92448 1.42969,-8.36719 C1.8724,-8.8099 2.39323,-9.16146 2.99219,-9.42188 C3.59115,-9.68229 4.22917,-9.8125 4.90625,-9.8125 C5.57292,-9.8125 6.20573,-9.68229 6.80469,-9.42188 C7.40365,-9.16146 7.92448,-8.8099 8.36719,-8.36719 C8.8099,-7.92448 9.16146,-7.40365 9.42188,-6.80469 C9.68229,-6.20573 9.8125,-5.57292 9.8125,-4.90625 M9.53125,-4.90625 C9.53125,-5.54167 9.40885,-6.13802 9.16406,-6.69531 C8.91927,-7.2526 8.58594,-7.74219 8.16406,-8.16406 C7.74219,-8.58594 7.2526,-8.91927 6.69531,-9.16406 C6.13802,-9.40885 5.54167,-9.53125 4.90625,-9.53125 C4.27083,-9.53125 3.67188,-9.40885 3.10938,-9.16406 C2.54688,-8.91927 2.05729,-8.58594 1.64063,-8.16406 C1.22396,-7.74219 0.893229,-7.2526 0.648438,-6.69531 C0.403646,-6.13802 0.28125,-5.54167 0.28125,-4.90625 C0.28125,-4.27083 0.403646,-3.67188 0.648438,-3.10938 C0.893229,-2.54688 1.22396,-2.05729 1.64063,-1.64063 C2.05729,-1.22396 2.54688,-0.893229 3.10938,-0.648438 C3.67188,-0.403646 4.27083,-0.28125 4.90625,-0.28125 C5.54167,-0.28125 6.13802,-0.403646 6.69531,-0.648438 C7.2526,-0.893229 7.74219,-1.22396 8.16406,-1.64063 C8.58594,-2.05729 8.91927,-2.54688 9.16406,-3.10938 C9.40885,-3.67188 9.53125,-4.27083 9.53125,-4.90625 "/>
</g>
</g>
</svg>
