<?xml version="1.0" encoding="UTF-8" standalone="no"?>
<svg viewBox="0 -14 14 14"
 xmlns="http://www.w3.org/2000/svg" xmlns:xlink="http://www.w3.org/1999/xlink"  version="1.2" baseProfile="tiny">
<title>Qt SVG Document</title>
<desc>Generated with Qt</desc>
<defs>
</defs>
<g fill="none" stroke="black" stroke-width="1" fill-rule="evenodd" stroke-linecap="square" stroke-linejoin="bevel" >

<g fill="#267300" fill-opacity="1" stroke="none" transform="matrix(1,0,0,1,0,0)"
font-family="ESRI Enviro Hazard Analysis" font-size="10" font-weight="400" font-style="normal" 
>
<path vector-effect="none" fill-rule="nonzero" d="M1.85938,-6.54688 C1.49479,-6.30729 1.1875,-5.96354 0.9375,-5.51563 C0.697917,-5.07813 0.578125,-4.64583 0.578125,-4.21875 C0.578125,-3.63542 0.791667,-3.15625 1.21875,-2.78125 C1.65625,-2.39583 2.19792,-2.20313 2.84375,-2.20313 C3.13542,-2.20313 3.44792,-2.34375 3.78125,-2.625 C3.91667,-2.72917 4.04948,-2.84115 4.17969,-2.96094 C4.3099,-3.08073 4.44271,-3.20313 4.57813,-3.32813 C4.65104,-3.35938 4.72396,-3.375 4.79688,-3.375 C4.96354,-3.375 5.04688,-3.27083 5.04688,-3.0625 C5.04688,-2.40625 5.21875,-1.84375 5.5625,-1.375 C5.9375,-0.84375 6.39583,-0.578125 6.9375,-0.578125 C7.38542,-0.578125 7.92708,-0.786458 8.5625,-1.20313 C9.19792,-1.63021 9.52604,-2.02083 9.54688,-2.375 C9.54688,-2.58333 9.625,-2.6875 9.78125,-2.6875 C9.84375,-2.6875 9.92188,-2.65625 10.0156,-2.59375 C10.5677,-2.15625 11.0833,-1.9375 11.5625,-1.9375 C12.125,-1.9375 12.5781,-2.1875 12.9219,-2.6875 C13.2552,-3.125 13.4219,-3.67188 13.4219,-4.32813 C13.4219,-4.90104 13.3177,-5.33594 13.1094,-5.63281 C12.901,-5.92969 12.5313,-6.15104 12,-6.29688 C11.8333,-6.33854 11.75,-6.42708 11.75,-6.5625 C11.75,-6.65625 11.8021,-6.74479 11.9063,-6.82813 C12.9167,-7.47396 13.4219,-8.21354 13.4219,-9.04688 C13.4219,-9.26563 13.3021,-9.57813 13.0625,-9.98438 C12.8333,-10.3802 12.5938,-10.6458 12.3438,-10.7813 C12.0938,-10.9167 11.4948,-10.9844 10.5469,-10.9844 C10.349,-10.9844 10.25,-11.0833 10.25,-11.2813 C10.25,-11.8542 10.1094,-12.349 9.82813,-12.7656 C9.49479,-13.2031 9.08854,-13.4219 8.60938,-13.4219 C8.09896,-13.4219 7.64063,-13.2344 7.23438,-12.8594 C7.06771,-12.6719 6.90104,-12.4844 6.73438,-12.2969 C6.56771,-12.1094 6.40365,-11.9245 6.24219,-11.7422 C6.08073,-11.5599 5.94271,-11.4688 5.82813,-11.4688 C5.76563,-11.4688 5.57292,-11.6302 5.25,-11.9531 C4.92708,-12.276 4.58333,-12.4375 4.21875,-12.4375 C3.70833,-12.4375 3.34375,-12.2083 3.125,-11.75 C3.05208,-11.5833 2.95313,-11.1406 2.82813,-10.4219 C2.71354,-9.94271 2.55729,-9.70313 2.35938,-9.70313 L1.59375,-9.78125 C1.19792,-9.78125 0.929688,-9.73177 0.789063,-9.63281 C0.648438,-9.53385 0.578125,-9.33854 0.578125,-9.04688 C0.578125,-8.76563 0.807292,-8.34896 1.26563,-7.79688 C1.72396,-7.22396 1.95313,-6.86979 1.95313,-6.73438 C1.95313,-6.66146 1.92188,-6.59896 1.85938,-6.54688 M0,-9.04688 C0,-9.93229 0.265625,-10.375 0.796875,-10.375 C1.32813,-10.375 1.64063,-10.3698 1.73438,-10.3594 C1.82813,-10.349 1.97917,-10.3281 2.1875,-10.2969 L2.20313,-10.3594 C2.25521,-10.6823 2.36979,-11.1771 2.54688,-11.8438 C2.84896,-12.6458 3.40625,-13.0469 4.21875,-13.0469 C4.86458,-13.0469 5.41146,-12.7604 5.85938,-12.1875 C6.17188,-12.5313 6.41927,-12.8073 6.60156,-13.0156 C6.78385,-13.224 6.91667,-13.3594 7,-13.4219 C7.47917,-13.8073 8.01563,-14 8.60938,-14 C9.23438,-14 9.76563,-13.7396 10.2031,-13.2188 C10.5677,-12.75 10.776,-12.1979 10.8281,-11.5625 L10.9844,-11.5625 C11.7552,-11.5625 12.3021,-11.474 12.625,-11.2969 C12.9688,-11.1302 13.2813,-10.7917 13.5625,-10.2813 C13.8542,-9.80208 14,-9.39063 14,-9.04688 C14,-8.15104 13.5677,-7.36458 12.7031,-6.6875 C13.5677,-6.27083 14,-5.48438 14,-4.32813 C14,-3.56771 13.8073,-2.90625 13.4219,-2.34375 C12.9531,-1.6875 12.3333,-1.35938 11.5625,-1.35938 C11.0313,-1.35938 10.5104,-1.53125 10,-1.875 C9.76042,-1.375 9.29688,-0.9375 8.60938,-0.5625 C7.97396,-0.1875 7.41667,0 6.9375,0 C6.27083,0 5.71354,-0.265625 5.26563,-0.796875 C4.85938,-1.25521 4.60417,-1.82292 4.5,-2.5 L4.46875,-2.45313 C4.29167,-2.29688 4.14323,-2.16927 4.02344,-2.07031 C3.90365,-1.97135 3.81771,-1.90104 3.76563,-1.85938 C3.49479,-1.70313 3.1875,-1.625 2.84375,-1.625 C2.03125,-1.625 1.35417,-1.86719 0.8125,-2.35156 C0.270833,-2.83594 0,-3.45833 0,-4.21875 C0,-4.67708 0.117188,-5.14323 0.351563,-5.61719 C0.585938,-6.09115 0.880208,-6.49479 1.23438,-6.82813 C1.10938,-6.98438 0.981771,-7.14844 0.851563,-7.32031 C0.721354,-7.49219 0.588542,-7.66667 0.453125,-7.84375 C0.151042,-8.29167 0,-8.69271 0,-9.04688 "/>
</g>
</g>
</svg>
