<?xml version="1.0" encoding="UTF-8" standalone="no"?>
<svg viewBox="0.328125 -5.09375 4.875 5.17188"
 xmlns="http://www.w3.org/2000/svg" xmlns:xlink="http://www.w3.org/1999/xlink"  version="1.2" baseProfile="tiny">
<title>Qt SVG Document</title>
<desc>Generated with Qt</desc>
<defs>
</defs>
<g fill="none" stroke="black" stroke-width="1" fill-rule="evenodd" stroke-linecap="square" stroke-linejoin="bevel" >

<g fill="#000000" fill-opacity="1" stroke="none" transform="matrix(1,0,0,1,0,0)"
font-family="Arial Black" font-size="5.5" font-weight="400" font-style="normal" 
>
<path vector-effect="none" fill-rule="nonzero" d="M3.84375,-2.04688 L5.20313,-1.64063 C5.10938,-1.25521 4.96615,-0.934896 4.77344,-0.679688 C4.58073,-0.424479 4.33854,-0.234375 4.04688,-0.109375 C3.75521,0.015625 3.38542,0.078125 2.9375,0.078125 C2.39583,0.078125 1.95052,0 1.60156,-0.15625 C1.2526,-0.3125 0.953125,-0.588542 0.703125,-0.984375 C0.453125,-1.38021 0.328125,-1.89063 0.328125,-2.51563 C0.328125,-3.34896 0.549479,-3.98698 0.992188,-4.42969 C1.4349,-4.8724 2.05729,-5.09375 2.85938,-5.09375 C3.49479,-5.09375 3.99219,-4.96615 4.35156,-4.71094 C4.71094,-4.45573 4.97917,-4.0625 5.15625,-3.53125 L3.79688,-3.23438 C3.74479,-3.39063 3.69271,-3.5 3.64063,-3.5625 C3.55729,-3.6875 3.45313,-3.78125 3.32813,-3.84375 C3.20313,-3.90625 3.0625,-3.9375 2.90625,-3.9375 C2.55208,-3.9375 2.28125,-3.79688 2.09375,-3.51563 C1.95833,-3.30729 1.89063,-2.97917 1.89063,-2.53125 C1.89063,-1.96875 1.97396,-1.58594 2.14063,-1.38281 C2.30729,-1.17969 2.54167,-1.07813 2.84375,-1.07813 C3.14583,-1.07813 3.3724,-1.16146 3.52344,-1.32813 C3.67448,-1.49479 3.78125,-1.73438 3.84375,-2.04688 "/>
</g>
</g>
</svg>
