<?xml version="1.0" encoding="UTF-8" standalone="no"?>
<svg viewBox="0.484375 -33.3125 33.2813 33.3125"
 xmlns="http://www.w3.org/2000/svg" xmlns:xlink="http://www.w3.org/1999/xlink"  version="1.2" baseProfile="tiny">
<title>Qt SVG Document</title>
<desc>Generated with Qt</desc>
<defs>
</defs>
<g fill="none" stroke="black" stroke-width="1" fill-rule="evenodd" stroke-linecap="square" stroke-linejoin="bevel" >

<g fill="#d4d0c8" fill-opacity="0" stroke="none" transform="matrix(1,0,0,1,0,0)"
font-family="ESRI Default Marker" font-size="36" font-weight="400" font-style="normal" 
>
<path vector-effect="none" fill-rule="nonzero" d="M33.7656,-16.6563 C33.7656,-14.3438 33.3307,-12.1823 32.4609,-10.1719 C31.5911,-8.16146 30.3984,-6.39583 28.8828,-4.875 C27.3672,-3.35417 25.5964,-2.16146 23.5703,-1.29688 C21.5443,-0.432292 19.3854,0 17.0938,0 C14.7813,0 12.6198,-0.432292 10.6094,-1.29688 C8.59896,-2.16146 6.84375,-3.35417 5.34375,-4.875 C3.84375,-6.39583 2.65885,-8.16146 1.78906,-10.1719 C0.919271,-12.1823 0.484375,-14.3438 0.484375,-16.6563 C0.484375,-18.9479 0.919271,-21.1042 1.78906,-23.125 C2.65885,-25.1458 3.84375,-26.9167 5.34375,-28.4375 C6.84375,-29.9583 8.59896,-31.151 10.6094,-32.0156 C12.6198,-32.8802 14.7813,-33.3125 17.0938,-33.3125 C19.3854,-33.3125 21.5443,-32.8802 23.5703,-32.0156 C25.5964,-31.151 27.3672,-29.9583 28.8828,-28.4375 C30.3984,-26.9167 31.5911,-25.1458 32.4609,-23.125 C33.3307,-21.1042 33.7656,-18.9479 33.7656,-16.6563 "/>
</g>
</g>
</svg>
