<?xml version="1.0" encoding="UTF-8" standalone="no"?>
<svg viewBox="0.1875 -12.25 12.2188 12.25"
 xmlns="http://www.w3.org/2000/svg" xmlns:xlink="http://www.w3.org/1999/xlink"  version="1.2" baseProfile="tiny">
<title>Qt SVG Document</title>
<desc>Generated with Qt</desc>
<defs>
</defs>
<g fill="none" stroke="black" stroke-width="1" fill-rule="evenodd" stroke-linecap="square" stroke-linejoin="bevel" >

<g fill="#ff0000" fill-opacity="1" stroke="none" transform="matrix(1,0,0,1,0,0)"
font-family="ESRI Default Marker" font-size="13" font-weight="400" font-style="normal" 
>
<path vector-effect="none" fill-rule="nonzero" d="M12.4063,-6.125 C12.4063,-5.27083 12.2474,-4.47396 11.9297,-3.73438 C11.612,-2.99479 11.1745,-2.34635 10.6172,-1.78906 C10.0599,-1.23177 9.40885,-0.794271 8.66406,-0.476563 C7.91927,-0.158854 7.125,0 6.28125,0 C5.42708,0 4.63281,-0.158854 3.89844,-0.476563 C3.16406,-0.794271 2.52083,-1.23177 1.96875,-1.78906 C1.41667,-2.34635 0.981771,-2.99479 0.664063,-3.73438 C0.346354,-4.47396 0.1875,-5.27083 0.1875,-6.125 C0.1875,-6.95833 0.346354,-7.7474 0.664063,-8.49219 C0.981771,-9.23698 1.41667,-9.89063 1.96875,-10.4531 C2.52083,-11.0156 3.16406,-11.4557 3.89844,-11.7734 C4.63281,-12.0911 5.42708,-12.25 6.28125,-12.25 C7.125,-12.25 7.91927,-12.0911 8.66406,-11.7734 C9.40885,-11.4557 10.0599,-11.0156 10.6172,-10.4531 C11.1745,-9.89063 11.612,-9.23698 11.9297,-8.49219 C12.2474,-7.7474 12.4063,-6.95833 12.4063,-6.125 "/>
</g>
</g>
</svg>
