<?xml version="1.0" encoding="UTF-8" standalone="no"?>
<svg viewBox="0 -13.7969 13.7969 13.7969"
 xmlns="http://www.w3.org/2000/svg" xmlns:xlink="http://www.w3.org/1999/xlink"  version="1.2" baseProfile="tiny">
<title>Qt SVG Document</title>
<desc>Generated with Qt</desc>
<defs>
</defs>
<g fill="none" stroke="black" stroke-width="1" fill-rule="evenodd" stroke-linecap="square" stroke-linejoin="bevel" >

<g fill="#70a800" fill-opacity="1" stroke="none" transform="matrix(1,0,0,1,0,0)"
font-family="ESRI Enviro Hazard Analysis" font-size="10" font-weight="400" font-style="normal" 
>
<path vector-effect="none" fill-rule="nonzero" d="M1.5,-10.1875 C1.48958,-10.1875 1.70833,-10.1615 2.15625,-10.1094 L2.20313,-10.25 C2.24479,-10.5833 2.35938,-11.0677 2.54688,-11.7031 C2.84896,-12.4635 3.375,-12.8438 4.125,-12.8438 C4.71875,-12.8438 5.25521,-12.5365 5.73438,-11.9219 C5.81771,-12.0156 5.91406,-12.125 6.02344,-12.25 C6.13281,-12.375 6.26042,-12.5208 6.40625,-12.6875 C7.07292,-13.4271 7.77083,-13.7969 8.5,-13.7969 C9.11458,-13.7969 9.61979,-13.5469 10.0156,-13.0469 C10.349,-12.6198 10.5573,-12.0573 10.6406,-11.3594 L11.1406,-11.3594 C11.2448,-11.3594 11.3385,-11.3594 11.4219,-11.3594 C11.5052,-11.3594 11.5781,-11.3542 11.6406,-11.3438 C12.0156,-11.2917 12.3021,-11.2135 12.5,-11.1094 C12.8125,-10.9531 13.1094,-10.6302 13.3906,-10.1406 C13.6615,-9.67188 13.7969,-9.27083 13.7969,-8.9375 C13.7969,-8.07292 13.3333,-7.27604 12.4063,-6.54688 C12.9271,-6.31771 13.2891,-6.01823 13.4922,-5.64844 C13.6953,-5.27865 13.7969,-4.80208 13.7969,-4.21875 C13.7969,-3.46875 13.6042,-2.82292 13.2188,-2.28125 C12.7813,-1.66667 12.1979,-1.35938 11.4688,-1.35938 C10.9271,-1.35938 10.3906,-1.54688 9.85938,-1.92188 C9.61979,-1.41146 9.15625,-0.958333 8.46875,-0.5625 C7.83333,-0.1875 7.29167,0 6.84375,0 C6.21875,0 5.68229,-0.260417 5.23438,-0.78125 C4.83854,-1.26042 4.58333,-1.86458 4.46875,-2.59375 L4.29688,-2.4375 C4.13021,-2.28125 3.98958,-2.15625 3.875,-2.0625 C3.76042,-1.96875 3.67708,-1.90104 3.625,-1.85938 C3.35417,-1.70313 3.05729,-1.625 2.73438,-1.625 C1.96354,-1.625 1.3125,-1.86458 0.78125,-2.34375 C0.260417,-2.8125 0,-3.40625 0,-4.125 C0,-4.5625 0.114583,-5.01563 0.34375,-5.48438 C0.572917,-5.95313 0.885417,-6.35938 1.28125,-6.70313 L0.484375,-7.73438 C0.161458,-8.20313 0,-8.60417 0,-8.9375 C0,-9.77083 0.5,-10.1875 1.5,-10.1875 "/>
</g>
</g>
</svg>
