<?xml version="1.0" encoding="UTF-8" standalone="no"?>
<svg viewBox="0 -25 25 25"
 xmlns="http://www.w3.org/2000/svg" xmlns:xlink="http://www.w3.org/1999/xlink"  version="1.2" baseProfile="tiny">
<title>Qt SVG Document</title>
<desc>Generated with Qt</desc>
<defs>
</defs>
<g fill="none" stroke="black" stroke-width="1" fill-rule="evenodd" stroke-linecap="square" stroke-linejoin="bevel" >

<g fill="#000000" fill-opacity="1" stroke="none" transform="matrix(1,0,0,1,0,0)"
font-family="ESRI Enviro Hazard Analysis" font-size="18" font-weight="400" font-style="normal" 
>
<path vector-effect="none" fill-rule="nonzero" d="M3.32813,-11.6875 C2.68229,-11.25 2.13021,-10.6406 1.67188,-9.85938 C1.24479,-9.07813 1.03125,-8.30208 1.03125,-7.53125 C1.03125,-6.48958 1.41146,-5.63542 2.17188,-4.96875 C2.96354,-4.27083 3.93229,-3.92188 5.07813,-3.92188 C5.59896,-3.92188 6.15625,-4.17188 6.75,-4.67188 C6.98958,-4.86979 7.22917,-5.07552 7.46875,-5.28906 C7.70833,-5.5026 7.94792,-5.71354 8.1875,-5.92188 C8.30208,-5.99479 8.43229,-6.03125 8.57813,-6.03125 C8.85938,-6.03125 9,-5.84375 9,-5.46875 C9,-4.30208 9.3125,-3.30208 9.9375,-2.46875 C10.6042,-1.51042 11.4219,-1.03125 12.3906,-1.03125 C13.1823,-1.03125 14.1458,-1.40104 15.2813,-2.14063 C16.4271,-2.90104 17.0104,-3.60417 17.0313,-4.25 C17.0313,-4.60417 17.1771,-4.78125 17.4688,-4.78125 C17.5833,-4.78125 17.724,-4.73438 17.8906,-4.64063 C18.8698,-3.85938 19.7865,-3.46875 20.6406,-3.46875 C21.6406,-3.46875 22.4531,-3.90625 23.0781,-4.78125 C23.6719,-5.57292 23.9688,-6.55208 23.9688,-7.71875 C23.9688,-8.73958 23.7839,-9.51823 23.4141,-10.0547 C23.0443,-10.5911 22.3854,-10.9896 21.4375,-11.25 C21.125,-11.3229 20.9688,-11.4792 20.9688,-11.7188 C20.9688,-11.8854 21.0625,-12.0417 21.25,-12.1875 C23.0625,-13.3542 23.9688,-14.6719 23.9688,-16.1406 C23.9688,-16.5469 23.7552,-17.1094 23.3281,-17.8281 C22.9219,-18.5365 22.4948,-19.0104 22.0469,-19.25 C21.5885,-19.4896 20.5156,-19.6094 18.8281,-19.6094 C18.474,-19.6094 18.2969,-19.7865 18.2969,-20.1406 C18.2969,-21.1719 18.0417,-22.0573 17.5313,-22.7969 C16.9375,-23.5781 16.2135,-23.9688 15.3594,-23.9688 C14.4531,-23.9688 13.6458,-23.6354 12.9375,-22.9688 C12.625,-22.6354 12.3203,-22.3021 12.0234,-21.9688 C11.7266,-21.6354 11.4349,-21.3021 11.1484,-20.9688 C10.862,-20.6354 10.6094,-20.4688 10.3906,-20.4688 C10.2969,-20.4688 9.95833,-20.7604 9.375,-21.3438 C8.79167,-21.9271 8.17708,-22.2188 7.53125,-22.2188 C6.63542,-22.2188 5.98438,-21.8021 5.57813,-20.9688 C5.45313,-20.6875 5.27083,-19.901 5.03125,-18.6094 C4.84375,-17.7552 4.57292,-17.3281 4.21875,-17.3281 L2.85938,-17.4688 C2.14063,-17.4688 1.65625,-17.3802 1.40625,-17.2031 C1.15625,-17.026 1.03125,-16.6719 1.03125,-16.1406 C1.03125,-15.6406 1.4375,-14.9063 2.25,-13.9375 C3.08333,-12.9063 3.5,-12.2708 3.5,-12.0313 C3.5,-11.8958 3.44271,-11.7813 3.32813,-11.6875 M0,-16.1406 C0,-17.7448 0.476563,-18.5469 1.42969,-18.5469 C2.38281,-18.5469 2.94271,-18.5339 3.10938,-18.5078 C3.27604,-18.4818 3.53646,-18.4427 3.89063,-18.3906 L3.92188,-18.5 C4.02604,-19.0729 4.22917,-19.9531 4.53125,-21.1406 C5.08333,-22.5781 6.08333,-23.2969 7.53125,-23.2969 C8.67708,-23.2969 9.65625,-22.7813 10.4688,-21.75 C11.0104,-22.375 11.4479,-22.8724 11.7813,-23.2422 C12.1146,-23.612 12.3542,-23.8542 12.5,-23.9688 C13.3542,-24.6563 14.3073,-25 15.3594,-25 C16.474,-25 17.4271,-24.5365 18.2188,-23.6094 C18.8646,-22.776 19.2344,-21.7865 19.3281,-20.6406 L19.6094,-20.6406 C20.9948,-20.6406 21.974,-20.4896 22.5469,-20.1875 C23.1615,-19.875 23.7188,-19.2656 24.2188,-18.3594 C24.7396,-17.5052 25,-16.7656 25,-16.1406 C25,-14.5469 24.2292,-13.1458 22.6875,-11.9375 C24.2292,-11.1979 25,-9.79167 25,-7.71875 C25,-6.35417 24.6563,-5.17188 23.9688,-4.17188 C23.1354,-3.00521 22.026,-2.42188 20.6406,-2.42188 C19.6927,-2.42188 18.7656,-2.73438 17.8594,-3.35938 C17.4323,-2.45313 16.599,-1.66667 15.3594,-1 C14.2448,-0.333333 13.2552,0 12.3906,0 C11.2031,0 10.2031,-0.473958 9.39063,-1.42188 C8.68229,-2.23438 8.22917,-3.25 8.03125,-4.46875 L7.96875,-4.39063 C7.65625,-4.10938 7.39323,-3.8776 7.17969,-3.69531 C6.96615,-3.51302 6.8125,-3.39063 6.71875,-3.32813 C6.23958,-3.03646 5.69271,-2.89063 5.07813,-2.89063 C3.61979,-2.89063 2.40885,-3.32552 1.44531,-4.19531 C0.481771,-5.0651 0,-6.17708 0,-7.53125 C0,-8.34375 0.208333,-9.17188 0.625,-10.0156 C1.04167,-10.8594 1.57292,-11.5833 2.21875,-12.1875 C1.97917,-12.4688 1.74479,-12.763 1.51563,-13.0703 C1.28646,-13.3776 1.05729,-13.6875 0.828125,-14 C0.276042,-14.8125 0,-15.526 0,-16.1406 "/>
</g>
</g>
</svg>
