<?xml version="1.0" encoding="UTF-8" standalone="no"?>
<svg viewBox="0 -17.5 17.5 17.5"
 xmlns="http://www.w3.org/2000/svg" xmlns:xlink="http://www.w3.org/1999/xlink"  version="1.2" baseProfile="tiny">
<title>Qt SVG Document</title>
<desc>Generated with Qt</desc>
<defs>
</defs>
<g fill="none" stroke="black" stroke-width="1" fill-rule="evenodd" stroke-linecap="square" stroke-linejoin="bevel" >

<g fill="#000000" fill-opacity="1" stroke="none" transform="matrix(1,0,0,1,0,0)"
font-family="ESRI Default Marker" font-size="18" font-weight="400" font-style="normal" 
>
<path vector-effect="none" fill-rule="nonzero" d="M0,-8.75 C0,-9.94792 0.229167,-11.0807 0.6875,-12.1484 C1.14583,-13.2161 1.77083,-14.1458 2.5625,-14.9375 C3.35417,-15.7292 4.28385,-16.3542 5.35156,-16.8125 C6.41927,-17.2708 7.55208,-17.5 8.75,-17.5 C9.94792,-17.5 11.0807,-17.2708 12.1484,-16.8125 C13.2161,-16.3542 14.1458,-15.7292 14.9375,-14.9375 C15.7292,-14.1458 16.3542,-13.2161 16.8125,-12.1484 C17.2708,-11.0807 17.5,-9.94792 17.5,-8.75 C17.5,-7.55208 17.2708,-6.41927 16.8125,-5.35156 C16.3542,-4.28385 15.7292,-3.35417 14.9375,-2.5625 C14.1458,-1.77083 13.2161,-1.14583 12.1484,-0.6875 C11.0807,-0.229167 9.94792,0 8.75,0 C7.55208,0 6.41927,-0.229167 5.35156,-0.6875 C4.28385,-1.14583 3.35417,-1.77083 2.5625,-2.5625 C1.77083,-3.35417 1.14583,-4.28385 0.6875,-5.35156 C0.229167,-6.41927 0,-7.55208 0,-8.75 M3.78125,-1.78125 L3.96875,-1.92188 C4.67708,-1.44271 5.42448,-1.07292 6.21094,-0.8125 C6.9974,-0.552083 7.84375,-0.421875 8.75,-0.421875 C9.66667,-0.421875 10.5339,-0.559896 11.3516,-0.835938 C12.1693,-1.11198 12.9271,-1.5 13.625,-2 L13.7188,-1.92188 L13.6719,-2.04688 C14.724,-2.79688 15.5547,-3.7474 16.1641,-4.89844 C16.7734,-6.04948 17.0781,-7.33333 17.0781,-8.75 C17.0781,-9.22917 17.0365,-9.69531 16.9531,-10.1484 C16.8698,-10.6016 16.75,-11.0417 16.5938,-11.4688 L16.8438,-11.6406 L16.5469,-11.6406 C16.2448,-12.4323 15.8359,-13.1615 15.3203,-13.8281 C14.8047,-14.4948 14.2083,-15.0677 13.5313,-15.5469 C12.8542,-16.026 12.112,-16.401 11.3047,-16.6719 C10.4974,-16.9427 9.64583,-17.0781 8.75,-17.0781 L8.71875,-17.0781 C7.82292,-17.0781 6.97135,-16.9427 6.16406,-16.6719 C5.35677,-16.401 4.61458,-16.026 3.9375,-15.5469 C3.26042,-15.0677 2.66927,-14.4948 2.16406,-13.8281 C1.65885,-13.1615 1.25521,-12.4323 0.953125,-11.6406 L0.796875,-11.6406 L0.90625,-11.5469 C0.583333,-10.6615 0.421875,-9.72917 0.421875,-8.75 C0.421875,-7.33333 0.731771,-6.04688 1.35156,-4.89063 C1.97135,-3.73438 2.80208,-2.77083 3.84375,-2 L3.78125,-1.78125 M8.75,-17.0781 L8.71875,-17.0781 L6.95313,-11.6406 L0.953125,-11.6406 L0.90625,-11.5469 L5.67188,-7.84375 L3.84375,-2 C3.86458,-1.97917 3.90625,-1.95313 3.96875,-1.92188 L8.75,-5.53125 L13.625,-2 L13.6719,-2.04688 L11.9219,-7.84375 L16.5938,-11.4688 C16.5833,-11.4896 16.5781,-11.5156 16.5781,-11.5469 C16.5781,-11.599 16.5677,-11.6302 16.5469,-11.6406 L10.5156,-11.6406 L8.75,-17.0781"/>
</g>
</g>
</svg>
