<?xml version="1.0" encoding="UTF-8" standalone="no"?>
<svg viewBox="0.203125 -13.6094 13.5781 13.6094"
 xmlns="http://www.w3.org/2000/svg" xmlns:xlink="http://www.w3.org/1999/xlink"  version="1.2" baseProfile="tiny">
<title>Qt SVG Document</title>
<desc>Generated with Qt</desc>
<defs>
</defs>
<g fill="none" stroke="black" stroke-width="1" fill-rule="evenodd" stroke-linecap="square" stroke-linejoin="bevel" >

<g fill="#73ffdf" fill-opacity="1" stroke="none" transform="matrix(1,0,0,1,0,0)"
font-family="ESRI Default Marker" font-size="15" font-weight="400" font-style="normal" 
>
<path vector-effect="none" fill-rule="nonzero" d="M13.7813,-6.79688 C13.7813,-5.84896 13.6042,-4.96615 13.25,-4.14844 C12.8958,-3.33073 12.4089,-2.61198 11.7891,-1.99219 C11.1693,-1.3724 10.4453,-0.885417 9.61719,-0.53125 C8.78906,-0.177083 7.91146,0 6.98438,0 C6.03646,0 5.15104,-0.177083 4.32813,-0.53125 C3.50521,-0.885417 2.78906,-1.3724 2.17969,-1.99219 C1.57031,-2.61198 1.08854,-3.33073 0.734375,-4.14844 C0.380208,-4.96615 0.203125,-5.84896 0.203125,-6.79688 C0.203125,-7.73438 0.380208,-8.61719 0.734375,-9.44531 C1.08854,-10.2734 1.57031,-10.9974 2.17969,-11.6172 C2.78906,-12.237 3.50521,-12.724 4.32813,-13.0781 C5.15104,-13.4323 6.03646,-13.6094 6.98438,-13.6094 C7.91146,-13.6094 8.78906,-13.4323 9.61719,-13.0781 C10.4453,-12.724 11.1693,-12.237 11.7891,-11.6172 C12.4089,-10.9974 12.8958,-10.2734 13.25,-9.44531 C13.6042,-8.61719 13.7813,-7.73438 13.7813,-6.79688 "/>
</g>
</g>
</svg>
