<?xml version="1.0" encoding="UTF-8" standalone="no"?>
<svg viewBox="0.34375 -23.125 23.0781 23.125"
 xmlns="http://www.w3.org/2000/svg" xmlns:xlink="http://www.w3.org/1999/xlink"  version="1.2" baseProfile="tiny">
<title>Qt SVG Document</title>
<desc>Generated with Qt</desc>
<defs>
</defs>
<g fill="none" stroke="black" stroke-width="1" fill-rule="evenodd" stroke-linecap="square" stroke-linejoin="bevel" >

<g fill="#ffaa00" fill-opacity="1" stroke="none" transform="matrix(1,0,0,1,0,0)"
font-family="ESRI Default Marker" font-size="25" font-weight="400" font-style="normal" 
>
<path vector-effect="none" fill-rule="nonzero" d="M23.4219,-11.5625 C23.4219,-9.94792 23.1224,-8.44531 22.5234,-7.05469 C21.9245,-5.66406 21.0964,-4.4401 20.0391,-3.38281 C18.9818,-2.32552 17.7526,-1.4974 16.3516,-0.898438 C14.9505,-0.299479 13.4531,0 11.8594,0 C10.2552,0 8.75521,-0.299479 7.35938,-0.898438 C5.96354,-1.4974 4.74479,-2.32552 3.70313,-3.38281 C2.66146,-4.4401 1.84115,-5.66406 1.24219,-7.05469 C0.643229,-8.44531 0.34375,-9.94792 0.34375,-11.5625 C0.34375,-13.1458 0.643229,-14.6406 1.24219,-16.0469 C1.84115,-17.4531 2.66146,-18.6823 3.70313,-19.7344 C4.74479,-20.7865 5.96354,-21.6146 7.35938,-22.2188 C8.75521,-22.8229 10.2552,-23.125 11.8594,-23.125 C13.4531,-23.125 14.9505,-22.8229 16.3516,-22.2188 C17.7526,-21.6146 18.9818,-20.7865 20.0391,-19.7344 C21.0964,-18.6823 21.9245,-17.4531 22.5234,-16.0469 C23.1224,-14.6406 23.4219,-13.1458 23.4219,-11.5625 "/>
</g>
</g>
</svg>
