<?xml version="1.0" encoding="UTF-8" standalone="no"?>
<svg viewBox="0 -12.6094 12.6094 12.6094"
 xmlns="http://www.w3.org/2000/svg" xmlns:xlink="http://www.w3.org/1999/xlink"  version="1.2" baseProfile="tiny">
<title>Qt SVG Document</title>
<desc>Generated with Qt</desc>
<defs>
</defs>
<g fill="none" stroke="black" stroke-width="1" fill-rule="evenodd" stroke-linecap="square" stroke-linejoin="bevel" >

<g fill="#000000" fill-opacity="1" stroke="none" transform="matrix(1,0,0,1,0,0)"
font-family="ESRI Default Marker" font-size="13" font-weight="400" font-style="normal" 
>
<path vector-effect="none" fill-rule="nonzero" d="M12.6094,-6.29688 C12.6094,-5.43229 12.4427,-4.61719 12.1094,-3.85156 C11.776,-3.08594 11.3255,-2.41667 10.7578,-1.84375 C10.1901,-1.27083 9.52083,-0.820313 8.75,-0.492188 C7.97917,-0.164063 7.16146,0 6.29688,0 C5.43229,0 4.61719,-0.164063 3.85156,-0.492188 C3.08594,-0.820313 2.41667,-1.27083 1.84375,-1.84375 C1.27083,-2.41667 0.820313,-3.08594 0.492188,-3.85156 C0.164063,-4.61719 0,-5.43229 0,-6.29688 C0,-7.16146 0.164063,-7.97917 0.492188,-8.75 C0.820313,-9.52083 1.27083,-10.1901 1.84375,-10.7578 C2.41667,-11.3255 3.08594,-11.776 3.85156,-12.1094 C4.61719,-12.4427 5.43229,-12.6094 6.29688,-12.6094 C7.16146,-12.6094 7.97917,-12.4427 8.75,-12.1094 C9.52083,-11.776 10.1901,-11.3255 10.7578,-10.7578 C11.3255,-10.1901 11.776,-9.52083 12.1094,-8.75 C12.4427,-7.97917 12.6094,-7.16146 12.6094,-6.29688 M12.25,-6.29688 C12.25,-7.11979 12.0938,-7.89063 11.7813,-8.60938 C11.4688,-9.32813 11.0417,-9.95833 10.5,-10.5 C9.95833,-11.0417 9.32813,-11.4688 8.60938,-11.7813 C7.89063,-12.0938 7.11979,-12.25 6.29688,-12.25 C5.48438,-12.25 4.71875,-12.0938 4,-11.7813 C3.28125,-11.4688 2.65104,-11.0417 2.10938,-10.5 C1.56771,-9.95833 1.14063,-9.32813 0.828125,-8.60938 C0.515625,-7.89063 0.359375,-7.11979 0.359375,-6.29688 C0.359375,-5.48438 0.515625,-4.71875 0.828125,-4 C1.14063,-3.28125 1.56771,-2.65104 2.10938,-2.10938 C2.65104,-1.56771 3.28125,-1.14063 4,-0.828125 C4.71875,-0.515625 5.48438,-0.359375 6.29688,-0.359375 C7.11979,-0.359375 7.89063,-0.515625 8.60938,-0.828125 C9.32813,-1.14063 9.95833,-1.56771 10.5,-2.10938 C11.0417,-2.65104 11.4688,-3.28125 11.7813,-4 C12.0938,-4.71875 12.25,-5.48438 12.25,-6.29688 "/>
</g>
</g>
</svg>
