<?xml version="1.0" encoding="UTF-8" standalone="no"?>
<svg viewBox="0.140625 -9.53125 9.51563 9.53125"
 xmlns="http://www.w3.org/2000/svg" xmlns:xlink="http://www.w3.org/1999/xlink"  version="1.2" baseProfile="tiny">
<title>Qt SVG Document</title>
<desc>Generated with Qt</desc>
<defs>
</defs>
<g fill="none" stroke="black" stroke-width="1" fill-rule="evenodd" stroke-linecap="square" stroke-linejoin="bevel" >

<g fill="#737300" fill-opacity="1" stroke="none" transform="matrix(1,0,0,1,0,0)"
font-family="ESRI Default Marker" font-size="10" font-weight="400" font-style="normal" 
>
<path vector-effect="none" fill-rule="nonzero" d="M9.65625,-4.76563 C9.65625,-4.09896 9.53125,-3.47917 9.28125,-2.90625 C9.03125,-2.33333 8.6901,-1.83073 8.25781,-1.39844 C7.82552,-0.966146 7.32031,-0.625 6.74219,-0.375 C6.16406,-0.125 5.54688,0 4.89063,0 C4.22396,0 3.60417,-0.125 3.03125,-0.375 C2.45833,-0.625 1.95573,-0.966146 1.52344,-1.39844 C1.09115,-1.83073 0.752604,-2.33333 0.507813,-2.90625 C0.263021,-3.47917 0.140625,-4.09896 0.140625,-4.76563 C0.140625,-5.42188 0.263021,-6.03906 0.507813,-6.61719 C0.752604,-7.19531 1.09115,-7.70052 1.52344,-8.13281 C1.95573,-8.5651 2.45833,-8.90625 3.03125,-9.15625 C3.60417,-9.40625 4.22396,-9.53125 4.89063,-9.53125 C5.54688,-9.53125 6.16406,-9.40625 6.74219,-9.15625 C7.32031,-8.90625 7.82552,-8.5651 8.25781,-8.13281 C8.6901,-7.70052 9.03125,-7.19531 9.28125,-6.61719 C9.53125,-6.03906 9.65625,-5.42188 9.65625,-4.76563 "/>
</g>
</g>
</svg>
