<?xml version="1.0" encoding="UTF-8" standalone="no"?>
<svg viewBox="0 -17.5 17.5 17.5"
 xmlns="http://www.w3.org/2000/svg" xmlns:xlink="http://www.w3.org/1999/xlink"  version="1.2" baseProfile="tiny">
<title>Qt SVG Document</title>
<desc>Generated with Qt</desc>
<defs>
</defs>
<g fill="none" stroke="black" stroke-width="1" fill-rule="evenodd" stroke-linecap="square" stroke-linejoin="bevel" >

<g fill="#000000" fill-opacity="1" stroke="none" transform="matrix(1,0,0,1,0,0)"
font-family="ESRI Default Marker" font-size="18" font-weight="400" font-style="normal" 
>
<path vector-effect="none" fill-rule="nonzero" d="M17.5,-8.75 C17.5,-7.55208 17.2708,-6.41927 16.8125,-5.35156 C16.3542,-4.28385 15.7292,-3.35417 14.9375,-2.5625 C14.1458,-1.77083 13.2161,-1.14583 12.1484,-0.6875 C11.0807,-0.229167 9.94792,0 8.75,0 C7.55208,0 6.41927,-0.229167 5.35156,-0.6875 C4.28385,-1.14583 3.35417,-1.77083 2.5625,-2.5625 C1.77083,-3.35417 1.14583,-4.28385 0.6875,-5.35156 C0.229167,-6.41927 0,-7.55208 0,-8.75 C0,-9.94792 0.229167,-11.0807 0.6875,-12.1484 C1.14583,-13.2161 1.77083,-14.1458 2.5625,-14.9375 C3.35417,-15.7292 4.28385,-16.3542 5.35156,-16.8125 C6.41927,-17.2708 7.55208,-17.5 8.75,-17.5 C9.94792,-17.5 11.0807,-17.2708 12.1484,-16.8125 C13.2161,-16.3542 14.1458,-15.7292 14.9375,-14.9375 C15.7292,-14.1458 16.3542,-13.2161 16.8125,-12.1484 C17.2708,-11.0807 17.5,-9.94792 17.5,-8.75 M17,-8.75 C17,-9.88542 16.7839,-10.9531 16.3516,-11.9531 C15.9193,-12.9531 15.3281,-13.8281 14.5781,-14.5781 C13.8281,-15.3281 12.9531,-15.9193 11.9531,-16.3516 C10.9531,-16.7839 9.88542,-17 8.75,-17 C7.61458,-17 6.54688,-16.7839 5.54688,-16.3516 C4.54688,-15.9193 3.67188,-15.3281 2.92188,-14.5781 C2.17188,-13.8281 1.58073,-12.9531 1.14844,-11.9531 C0.716146,-10.9531 0.5,-9.88542 0.5,-8.75 C0.5,-7.61458 0.716146,-6.54688 1.14844,-5.54688 C1.58073,-4.54688 2.17188,-3.67188 2.92188,-2.92188 C3.67188,-2.17188 4.54688,-1.58073 5.54688,-1.14844 C6.54688,-0.716146 7.61458,-0.5 8.75,-0.5 C9.88542,-0.5 10.9531,-0.716146 11.9531,-1.14844 C12.9531,-1.58073 13.8281,-2.17188 14.5781,-2.92188 C15.3281,-3.67188 15.9193,-4.54688 16.3516,-5.54688 C16.7839,-6.54688 17,-7.61458 17,-8.75 "/>
</g>
</g>
</svg>
