<?xml version="1.0" encoding="UTF-8" standalone="no"?>
<svg viewBox="0 -9.76563 9.8125 9.76563"
 xmlns="http://www.w3.org/2000/svg" xmlns:xlink="http://www.w3.org/1999/xlink"  version="1.2" baseProfile="tiny">
<title>Qt SVG Document</title>
<desc>Generated with Qt</desc>
<defs>
</defs>
<g fill="none" stroke="black" stroke-width="1" fill-rule="evenodd" stroke-linecap="square" stroke-linejoin="bevel" >

<g fill="#000000" fill-opacity="1" stroke="none" transform="matrix(1,0,0,1,0,0)"
font-family="ESRI Default Marker" font-size="10" font-weight="400" font-style="normal" 
>
<path vector-effect="none" fill-rule="nonzero" d="M9.8125,-5.75 L9.8125,-3.98438 L7.04688,-3.98438 L9,-2.04688 L7.73438,-0.78125 L5.79688,-2.73438 L5.79688,0 L4,0 L4,-2.73438 L2.07813,-0.78125 L0.8125,-2.04688 L2.75,-3.98438 L0,-3.98438 L0,-5.75 L2.75,-5.75 L0.796875,-7.6875 L2.0625,-8.95313 L4,-7 L4,-9.76563 L5.79688,-9.76563 L5.79688,-7 L7.75,-8.95313 L9,-7.6875 L7.04688,-5.75 L9.8125,-5.75 M9.5,-5.46875 L6.3125,-5.46875 L8.57813,-7.71875 L7.75,-8.54688 L5.48438,-6.29688 L5.48438,-9.48438 L4.3125,-9.48438 L4.3125,-6.29688 L2.0625,-8.54688 L1.23438,-7.71875 L3.48438,-5.46875 L0.3125,-5.46875 L0.3125,-4.26563 L3.48438,-4.26563 L1.25,-2.03125 L2.07813,-1.20313 L4.3125,-3.45313 L4.3125,-0.28125 L5.48438,-0.28125 L5.48438,-3.45313 L7.73438,-1.20313 L8.5625,-2.03125 L6.3125,-4.26563 L9.5,-4.26563 L9.5,-5.46875"/>
</g>
</g>
</svg>
