<?xml version="1.0" encoding="UTF-8" standalone="no"?>
<svg viewBox="0 -23.1094 23.1094 23.1094"
 xmlns="http://www.w3.org/2000/svg" xmlns:xlink="http://www.w3.org/1999/xlink"  version="1.2" baseProfile="tiny">
<title>Qt SVG Document</title>
<desc>Generated with Qt</desc>
<defs>
</defs>
<g fill="none" stroke="black" stroke-width="1" fill-rule="evenodd" stroke-linecap="square" stroke-linejoin="bevel" >

<g fill="#000000" fill-opacity="1" stroke="none" transform="matrix(1,0,0,1,0,0)"
font-family="ESRI Default Marker" font-size="25" font-weight="400" font-style="normal" 
>
<path vector-effect="none" fill-rule="nonzero" d="M23.1094,-11.5469 C23.1094,-9.96354 22.8047,-8.46875 22.1953,-7.0625 C21.5859,-5.65625 20.7604,-4.42969 19.7188,-3.38281 C18.6771,-2.33594 17.4505,-1.51042 16.0391,-0.90625 C14.6276,-0.302083 13.1302,0 11.5469,0 C9.96354,0 8.46875,-0.302083 7.0625,-0.90625 C5.65625,-1.51042 4.42969,-2.33594 3.38281,-3.38281 C2.33594,-4.42969 1.51042,-5.65625 0.90625,-7.0625 C0.302083,-8.46875 0,-9.96354 0,-11.5469 C0,-13.1302 0.302083,-14.6276 0.90625,-16.0391 C1.51042,-17.4505 2.33594,-18.6771 3.38281,-19.7188 C4.42969,-20.7604 5.65625,-21.5859 7.0625,-22.1953 C8.46875,-22.8047 9.96354,-23.1094 11.5469,-23.1094 C13.1302,-23.1094 14.6276,-22.8047 16.0391,-22.1953 C17.4505,-21.5859 18.6771,-20.7604 19.7188,-19.7188 C20.7604,-18.6771 21.5859,-17.4505 22.1953,-16.0391 C22.8047,-14.6276 23.1094,-13.1302 23.1094,-11.5469 M22.4375,-11.5469 C22.4375,-13.0469 22.1536,-14.4557 21.5859,-15.7734 C21.0182,-17.0911 20.237,-18.2474 19.2422,-19.2422 C18.2474,-20.237 17.0911,-21.0182 15.7734,-21.5859 C14.4557,-22.1536 13.0469,-22.4375 11.5469,-22.4375 C10.0573,-22.4375 8.65104,-22.1536 7.32813,-21.5859 C6.00521,-21.0182 4.84896,-20.237 3.85938,-19.2422 C2.86979,-18.2474 2.08854,-17.0911 1.51563,-15.7734 C0.942708,-14.4557 0.65625,-13.0469 0.65625,-11.5469 C0.65625,-10.0573 0.942708,-8.65104 1.51563,-7.32813 C2.08854,-6.00521 2.86979,-4.84896 3.85938,-3.85938 C4.84896,-2.86979 6.00521,-2.08854 7.32813,-1.51563 C8.65104,-0.942708 10.0573,-0.65625 11.5469,-0.65625 C13.0469,-0.65625 14.4557,-0.942708 15.7734,-1.51563 C17.0911,-2.08854 18.2474,-2.86979 19.2422,-3.85938 C20.237,-4.84896 21.0182,-6.00521 21.5859,-7.32813 C22.1536,-8.65104 22.4375,-10.0573 22.4375,-11.5469 "/>
</g>
</g>
</svg>
