<?xml version="1.0" encoding="UTF-8" standalone="no"?>
<svg viewBox="0 -23.7969 23.7969 23.7969"
 xmlns="http://www.w3.org/2000/svg" xmlns:xlink="http://www.w3.org/1999/xlink"  version="1.2" baseProfile="tiny">
<title>Qt SVG Document</title>
<desc>Generated with Qt</desc>
<defs>
</defs>
<g fill="none" stroke="black" stroke-width="1" fill-rule="evenodd" stroke-linecap="square" stroke-linejoin="bevel" >

<g fill="#000000" fill-opacity="1" stroke="none" transform="matrix(1,0,0,1,0,0)"
font-family="ESRI Default Marker" font-size="25" font-weight="400" font-style="normal" 
>
<path vector-effect="none" fill-rule="nonzero" d="M23.7969,-11.9063 C23.7969,-10.2708 23.4844,-8.72656 22.8594,-7.27344 C22.2344,-5.82031 21.3854,-4.55729 20.3125,-3.48438 C19.2396,-2.41146 17.9766,-1.5625 16.5234,-0.9375 C15.0703,-0.3125 13.5313,0 11.9063,0 C10.2708,0 8.72656,-0.3125 7.27344,-0.9375 C5.82031,-1.5625 4.55729,-2.41146 3.48438,-3.48438 C2.41146,-4.55729 1.5625,-5.82031 0.9375,-7.27344 C0.3125,-8.72656 0,-10.2708 0,-11.9063 C0,-13.5313 0.3125,-15.0703 0.9375,-16.5234 C1.5625,-17.9766 2.41146,-19.2396 3.48438,-20.3125 C4.55729,-21.3854 5.82031,-22.2344 7.27344,-22.8594 C8.72656,-23.4844 10.2708,-23.7969 11.9063,-23.7969 C13.5313,-23.7969 15.0703,-23.4844 16.5234,-22.8594 C17.9766,-22.2344 19.2396,-21.3854 20.3125,-20.3125 C21.3854,-19.2396 22.2344,-17.9766 22.8594,-16.5234 C23.4844,-15.0703 23.7969,-13.5313 23.7969,-11.9063 M23.125,-11.9063 C23.125,-13.4375 22.8281,-14.8854 22.2344,-16.25 C21.6406,-17.6146 20.8359,-18.8047 19.8203,-19.8203 C18.8047,-20.8359 17.6146,-21.6406 16.25,-22.2344 C14.8854,-22.8281 13.4375,-23.125 11.9063,-23.125 C10.3646,-23.125 8.91146,-22.8281 7.54688,-22.2344 C6.18229,-21.6406 4.99219,-20.8359 3.97656,-19.8203 C2.96094,-18.8047 2.15885,-17.6146 1.57031,-16.25 C0.981771,-14.8854 0.6875,-13.4375 0.6875,-11.9063 C0.6875,-10.3646 0.981771,-8.91146 1.57031,-7.54688 C2.15885,-6.18229 2.96094,-4.99219 3.97656,-3.97656 C4.99219,-2.96094 6.18229,-2.15885 7.54688,-1.57031 C8.91146,-0.981771 10.3646,-0.6875 11.9063,-0.6875 C13.4375,-0.6875 14.8854,-0.981771 16.25,-1.57031 C17.6146,-2.15885 18.8047,-2.96094 19.8203,-3.97656 C20.8359,-4.99219 21.6406,-6.18229 22.2344,-7.54688 C22.8281,-8.91146 23.125,-10.3646 23.125,-11.9063 "/>
</g>
</g>
</svg>
