<?xml version="1.0" encoding="UTF-8" standalone="no"?>
<svg viewBox="0 -24.6406 24.6406 24.6406"
 xmlns="http://www.w3.org/2000/svg" xmlns:xlink="http://www.w3.org/1999/xlink"  version="1.2" baseProfile="tiny">
<title>Qt SVG Document</title>
<desc>Generated with Qt</desc>
<defs>
</defs>
<g fill="none" stroke="black" stroke-width="1" fill-rule="evenodd" stroke-linecap="square" stroke-linejoin="bevel" >

<g fill="#267300" fill-opacity="1" stroke="none" transform="matrix(1,0,0,1,0,0)"
font-family="ESRI Enviro Hazard Analysis" font-size="18" font-weight="400" font-style="normal" 
>
<path vector-effect="none" fill-rule="nonzero" d="M2.67188,-18.1875 C2.65104,-18.1875 3.04688,-18.1354 3.85938,-18.0313 L3.92188,-18.2969 C3.99479,-18.8906 4.19792,-19.7552 4.53125,-20.8906 C5.08333,-22.2552 6.02604,-22.9375 7.35938,-22.9375 C8.43229,-22.9375 9.39583,-22.3906 10.25,-21.2969 C10.3958,-21.4635 10.5625,-21.6589 10.75,-21.8828 C10.9375,-22.1068 11.1667,-22.3594 11.4375,-22.6406 C12.625,-23.974 13.875,-24.6406 15.1875,-24.6406 C16.2813,-24.6406 17.1823,-24.1927 17.8906,-23.2969 C18.4948,-22.526 18.8646,-21.526 19,-20.2969 L19.8906,-20.2969 C20.0885,-20.2969 20.2578,-20.2969 20.3984,-20.2969 C20.5391,-20.2969 20.6719,-20.2813 20.7969,-20.25 C21.4635,-20.1563 21.974,-20.0156 22.3281,-19.8281 C22.8698,-19.5677 23.3906,-18.9948 23.8906,-18.1094 C24.3906,-17.276 24.6406,-16.5625 24.6406,-15.9688 C24.6406,-14.4167 23.8073,-12.9896 22.1406,-11.6875 C23.0781,-11.2813 23.7292,-10.75 24.0938,-10.0938 C24.4583,-9.4375 24.6406,-8.58333 24.6406,-7.53125 C24.6406,-6.19792 24.2969,-5.04688 23.6094,-4.07813 C22.8281,-2.97396 21.7813,-2.42188 20.4688,-2.42188 C19.5208,-2.42188 18.5677,-2.75521 17.6094,-3.42188 C17.1823,-2.52604 16.349,-1.71875 15.1094,-1 C13.9948,-0.333333 13.0313,0 12.2188,0 C11.0938,0 10.1406,-0.463542 9.35938,-1.39063 C8.64063,-2.24479 8.17708,-3.32813 7.96875,-4.64063 L7.6875,-4.35938 C7.375,-4.06771 7.11719,-3.83854 6.91406,-3.67188 C6.71094,-3.50521 6.5625,-3.39063 6.46875,-3.32813 C5.98958,-3.03646 5.46354,-2.89063 4.89063,-2.89063 C3.51563,-2.89063 2.34896,-3.31771 1.39063,-4.17188 C0.463542,-5.00521 0,-6.06771 0,-7.35938 C0,-8.14063 0.203125,-8.94792 0.609375,-9.78125 C1.01563,-10.6146 1.57292,-11.3438 2.28125,-11.9688 L0.859375,-13.8281 C0.286458,-14.6615 0,-15.375 0,-15.9688 C0,-17.4479 0.890625,-18.1875 2.67188,-18.1875 "/>
</g>
</g>
</svg>
