<?xml version="1.0" encoding="UTF-8" standalone="no"?>
<svg viewBox="0.328125 -22.4375 22.4063 22.4375"
 xmlns="http://www.w3.org/2000/svg" xmlns:xlink="http://www.w3.org/1999/xlink"  version="1.2" baseProfile="tiny">
<title>Qt SVG Document</title>
<desc>Generated with Qt</desc>
<defs>
</defs>
<g fill="none" stroke="black" stroke-width="1" fill-rule="evenodd" stroke-linecap="square" stroke-linejoin="bevel" >

<g fill="#005ce6" fill-opacity="1" stroke="none" transform="matrix(1,0,0,1,0,0)"
font-family="ESRI Default Marker" font-size="24" font-weight="400" font-style="normal" 
>
<path vector-effect="none" fill-rule="nonzero" d="M22.7344,-11.2188 C22.7344,-9.65625 22.4427,-8.19792 21.8594,-6.84375 C21.276,-5.48958 20.474,-4.30208 19.4531,-3.28125 C18.4323,-2.26042 17.2396,-1.45833 15.875,-0.875 C14.5104,-0.291667 13.0573,0 11.5156,0 C9.95313,0 8.49479,-0.291667 7.14063,-0.875 C5.78646,-1.45833 4.60417,-2.26042 3.59375,-3.28125 C2.58333,-4.30208 1.78646,-5.48958 1.20313,-6.84375 C0.619792,-8.19792 0.328125,-9.65625 0.328125,-11.2188 C0.328125,-12.7604 0.619792,-14.2135 1.20313,-15.5781 C1.78646,-16.9427 2.58333,-18.1354 3.59375,-19.1563 C4.60417,-20.1771 5.78646,-20.9792 7.14063,-21.5625 C8.49479,-22.1458 9.95313,-22.4375 11.5156,-22.4375 C13.0573,-22.4375 14.5104,-22.1458 15.875,-21.5625 C17.2396,-20.9792 18.4323,-20.1771 19.4531,-19.1563 C20.474,-18.1354 21.276,-16.9427 21.8594,-15.5781 C22.4427,-14.2135 22.7344,-12.7604 22.7344,-11.2188 "/>
</g>
</g>
</svg>
