<?xml version="1.0" encoding="UTF-8" standalone="no"?>
<svg viewBox="0 -23.7031 23.7969 23.7031"
 xmlns="http://www.w3.org/2000/svg" xmlns:xlink="http://www.w3.org/1999/xlink"  version="1.2" baseProfile="tiny">
<title>Qt SVG Document</title>
<desc>Generated with Qt</desc>
<defs>
</defs>
<g fill="none" stroke="black" stroke-width="1" fill-rule="evenodd" stroke-linecap="square" stroke-linejoin="bevel" >

<g fill="#000000" fill-opacity="1" stroke="none" transform="matrix(1,0,0,1,0,0)"
font-family="ESRI Default Marker" font-size="25" font-weight="400" font-style="normal" 
>
<path vector-effect="none" fill-rule="nonzero" d="M23.7969,-13.9375 L23.7969,-9.6875 L17.0938,-9.6875 L21.8281,-4.96875 L18.7656,-1.90625 L14.0781,-6.625 L14.0781,0 L9.71875,0 L9.71875,-6.625 L5.03125,-1.90625 L1.96875,-4.96875 L6.65625,-9.6875 L0,-9.6875 L0,-13.9375 L6.65625,-13.9375 L1.9375,-18.6719 L5,-21.7188 L9.71875,-17 L9.71875,-23.7031 L14.0781,-23.7031 L14.0781,-17 L18.7969,-21.7188 L21.8281,-18.6719 L17.0938,-13.9375 L23.7969,-13.9375 M23.0469,-13.2656 L15.3281,-13.2656 L20.8125,-18.7344 L18.7969,-20.7344 L13.3281,-15.2969 L13.3281,-23.0156 L10.4688,-23.0156 L10.4688,-15.2656 L5,-20.7344 L2.98438,-18.7344 L8.46875,-13.2656 L0.75,-13.2656 L0.75,-10.375 L8.46875,-10.375 L3.03125,-4.92188 L5.03125,-2.92188 L10.4688,-8.375 L10.4688,-0.6875 L13.3281,-0.6875 L13.3281,-8.375 L18.7656,-2.92188 L20.7656,-4.92188 L15.3281,-10.375 L23.0469,-10.375 L23.0469,-13.2656"/>
</g>
</g>
</svg>
