<?xml version="1.0" encoding="UTF-8" standalone="no"?>
<svg viewBox="0.21875 -14.9688 14.9375 14.9688"
 xmlns="http://www.w3.org/2000/svg" xmlns:xlink="http://www.w3.org/1999/xlink"  version="1.2" baseProfile="tiny">
<title>Qt SVG Document</title>
<desc>Generated with Qt</desc>
<defs>
</defs>
<g fill="none" stroke="black" stroke-width="1" fill-rule="evenodd" stroke-linecap="square" stroke-linejoin="bevel" >

<g fill="#d4d0c8" fill-opacity="0" stroke="none" transform="matrix(1,0,0,1,0,0)"
font-family="ESRI Default Marker" font-size="16.2" font-weight="400" font-style="normal" 
>
<path vector-effect="none" fill-rule="nonzero" d="M15.1563,-7.48438 C15.1563,-6.44271 14.9635,-5.47135 14.5781,-4.57031 C14.1927,-3.66927 13.6589,-2.8776 12.9766,-2.19531 C12.2943,-1.51302 11.4974,-0.976563 10.5859,-0.585938 C9.67448,-0.195313 8.70313,0 7.67188,0 C6.63021,0 5.65885,-0.195313 4.75781,-0.585938 C3.85677,-0.976563 3.07031,-1.51302 2.39844,-2.19531 C1.72656,-2.8776 1.19531,-3.66927 0.804688,-4.57031 C0.414063,-5.47135 0.21875,-6.44271 0.21875,-7.48438 C0.21875,-8.50521 0.414063,-9.47135 0.804688,-10.3828 C1.19531,-11.2943 1.72656,-12.0911 2.39844,-12.7734 C3.07031,-13.4557 3.85677,-13.9922 4.75781,-14.3828 C5.65885,-14.7734 6.63021,-14.9688 7.67188,-14.9688 C8.70313,-14.9688 9.67448,-14.7734 10.5859,-14.3828 C11.4974,-13.9922 12.2943,-13.4557 12.9766,-12.7734 C13.6589,-12.0911 14.1927,-11.2943 14.5781,-10.3828 C14.9635,-9.47135 15.1563,-8.50521 15.1563,-7.48438 "/>
</g>
</g>
</svg>
