<?xml version="1.0" encoding="UTF-8" standalone="no"?>
<svg viewBox="0 -24 24 24"
 xmlns="http://www.w3.org/2000/svg" xmlns:xlink="http://www.w3.org/1999/xlink"  version="1.2" baseProfile="tiny">
<title>Qt SVG Document</title>
<desc>Generated with Qt</desc>
<defs>
</defs>
<g fill="none" stroke="black" stroke-width="1" fill-rule="evenodd" stroke-linecap="square" stroke-linejoin="bevel" >

<g fill="#000000" fill-opacity="1" stroke="none" transform="matrix(1,0,0,1,0,0)"
font-family="ESRI Enviro Hazard Analysis" font-size="18" font-weight="400" font-style="normal" 
>
<path vector-effect="none" fill-rule="nonzero" d="M3.1875,-11.2188 C2.57292,-10.8021 2.04688,-10.2188 1.60938,-9.46875 C1.20313,-8.70833 1,-7.96354 1,-7.23438 C1,-6.22396 1.36458,-5.40104 2.09375,-4.76563 C2.84375,-4.09896 3.77083,-3.76563 4.875,-3.76563 C5.375,-3.76563 5.91146,-4.00521 6.48438,-4.48438 C6.71354,-4.67188 6.94271,-4.86979 7.17188,-5.07813 C7.40104,-5.28646 7.63021,-5.48958 7.85938,-5.6875 C7.96354,-5.76042 8.08854,-5.79688 8.23438,-5.79688 C8.50521,-5.79688 8.64063,-5.61458 8.64063,-5.25 C8.64063,-4.125 8.9375,-3.16146 9.53125,-2.35938 C10.1667,-1.45313 10.9531,-1 11.8906,-1 C12.651,-1 13.5781,-1.35417 14.6719,-2.0625 C15.776,-2.79167 16.3385,-3.46354 16.3594,-4.07813 C16.3594,-4.42188 16.4948,-4.59375 16.7656,-4.59375 C16.8802,-4.59375 17.0156,-4.54688 17.1719,-4.45313 C18.1094,-3.70313 18.9896,-3.32813 19.8125,-3.32813 C20.7708,-3.32813 21.5521,-3.75 22.1563,-4.59375 C22.7188,-5.34375 23,-6.28125 23,-7.40625 C23,-8.38542 22.8229,-9.13281 22.4688,-9.64844 C22.1146,-10.1641 21.4844,-10.5469 20.5781,-10.7969 C20.276,-10.8698 20.125,-11.0208 20.125,-11.25 C20.125,-11.4063 20.2188,-11.5521 20.4063,-11.6875 C22.1354,-12.8125 23,-14.0833 23,-15.5 C23,-15.8854 22.7969,-16.4219 22.3906,-17.1094 C22.0052,-17.7969 21.5938,-18.2552 21.1563,-18.4844 C20.7188,-18.7135 19.6875,-18.8281 18.0625,-18.8281 C17.7292,-18.8281 17.5625,-19 17.5625,-19.3438 C17.5625,-20.3229 17.3177,-21.1667 16.8281,-21.875 C16.2656,-22.625 15.5729,-23 14.75,-23 C13.875,-23 13.0938,-22.6823 12.4063,-22.0469 C12.1146,-21.724 11.8255,-21.4036 11.5391,-21.0859 C11.2526,-20.7682 10.9714,-20.4479 10.6953,-20.125 C10.4193,-19.8021 10.1823,-19.6406 9.98438,-19.6406 C9.89063,-19.6406 9.5625,-19.9219 9,-20.4844 C8.4375,-21.0469 7.84896,-21.3281 7.23438,-21.3281 C6.36979,-21.3281 5.73958,-20.9271 5.34375,-20.125 C5.22917,-19.8542 5.05729,-19.099 4.82813,-17.8594 C4.65104,-17.0365 4.39063,-16.625 4.04688,-16.625 L2.75,-16.7656 C2.0625,-16.7656 1.59896,-16.6797 1.35938,-16.5078 C1.11979,-16.3359 1,-16 1,-15.5 C1,-15.0208 1.38542,-14.3125 2.15625,-13.375 C2.95833,-12.3854 3.35938,-11.776 3.35938,-11.5469 C3.35938,-11.4115 3.30208,-11.3021 3.1875,-11.2188 M0,-15.5 C0,-17.0313 0.458333,-17.7969 1.375,-17.7969 C2.29167,-17.7969 2.82813,-17.7839 2.98438,-17.7578 C3.14063,-17.7318 3.39063,-17.6979 3.73438,-17.6563 L3.76563,-17.7656 C3.85938,-18.3073 4.05729,-19.151 4.35938,-20.2969 C4.88021,-21.6719 5.83854,-22.3594 7.23438,-22.3594 C8.32813,-22.3594 9.26563,-21.8646 10.0469,-20.875 C10.5677,-21.4688 10.9896,-21.9427 11.3125,-22.2969 C11.6354,-22.651 11.8646,-22.8854 12,-23 C12.8229,-23.6667 13.7396,-24 14.75,-24 C15.8229,-24 16.7344,-23.5521 17.4844,-22.6563 C18.099,-21.8646 18.4531,-20.9167 18.5469,-19.8125 L18.8281,-19.8125 C20.151,-19.8125 21.0885,-19.6667 21.6406,-19.375 C22.2344,-19.0729 22.7708,-18.4896 23.25,-17.625 C23.75,-16.8021 24,-16.0938 24,-15.5 C24,-13.9688 23.2552,-12.6198 21.7656,-11.4531 C23.2552,-10.7448 24,-9.39583 24,-7.40625 C24,-6.10417 23.6667,-4.97396 23,-4.01563 C22.2083,-2.89063 21.1458,-2.32813 19.8125,-2.32813 C18.9063,-2.32813 18.0156,-2.625 17.1406,-3.21875 C16.7344,-2.35417 15.9375,-1.59896 14.75,-0.953125 C13.6667,-0.317708 12.7135,0 11.8906,0 C10.7552,0 9.79688,-0.458333 9.01563,-1.375 C8.32813,-2.14583 7.89583,-3.11458 7.71875,-4.28125 L7.64063,-4.21875 C7.34896,-3.94792 7.09896,-3.72656 6.89063,-3.55469 C6.68229,-3.38281 6.53646,-3.26042 6.45313,-3.1875 C5.99479,-2.91667 5.46875,-2.78125 4.875,-2.78125 C3.47917,-2.78125 2.31771,-3.19792 1.39063,-4.03125 C0.463542,-4.86458 0,-5.93229 0,-7.23438 C0,-8.01563 0.200521,-8.8099 0.601563,-9.61719 C1.0026,-10.4245 1.51042,-11.1146 2.125,-11.6875 C1.89583,-11.9688 1.67188,-12.2578 1.45313,-12.5547 C1.23438,-12.8516 1.01042,-13.1458 0.78125,-13.4375 C0.260417,-14.2188 0,-14.9063 0,-15.5 "/>
</g>
</g>
</svg>
