<?xml version="1.0" encoding="UTF-8" standalone="no"?>
<svg viewBox="0 -18.8906 18.8906 18.8906"
 xmlns="http://www.w3.org/2000/svg" xmlns:xlink="http://www.w3.org/1999/xlink"  version="1.2" baseProfile="tiny">
<title>Qt SVG Document</title>
<desc>Generated with Qt</desc>
<defs>
</defs>
<g fill="none" stroke="black" stroke-width="1" fill-rule="evenodd" stroke-linecap="square" stroke-linejoin="bevel" >

<g fill="#000000" fill-opacity="1" stroke="none" transform="matrix(1,0,0,1,0,0)"
font-family="ESRI Default Marker" font-size="20" font-weight="400" font-style="normal" 
>
<path vector-effect="none" fill-rule="nonzero" d="M18.8906,-9.45313 C18.8906,-8.15104 18.6432,-6.92448 18.1484,-5.77344 C17.6536,-4.6224 16.9792,-3.61979 16.125,-2.76563 C15.2708,-1.91146 14.2682,-1.23698 13.1172,-0.742188 C11.9661,-0.247396 10.7448,0 9.45313,0 C8.15104,0 6.92448,-0.247396 5.77344,-0.742188 C4.6224,-1.23698 3.61979,-1.91146 2.76563,-2.76563 C1.91146,-3.61979 1.23698,-4.6224 0.742188,-5.77344 C0.247396,-6.92448 0,-8.15104 0,-9.45313 C0,-10.7448 0.247396,-11.9661 0.742188,-13.1172 C1.23698,-14.2682 1.91146,-15.2708 2.76563,-16.125 C3.61979,-16.9792 4.6224,-17.6536 5.77344,-18.1484 C6.92448,-18.6432 8.15104,-18.8906 9.45313,-18.8906 C10.7448,-18.8906 11.9661,-18.6432 13.1172,-18.1484 C14.2682,-17.6536 15.2708,-16.9792 16.125,-16.125 C16.9792,-15.2708 17.6536,-14.2682 18.1484,-13.1172 C18.6432,-11.9661 18.8906,-10.7448 18.8906,-9.45313 M17.9531,-9.45313 C17.9531,-10.6198 17.7266,-11.7214 17.2734,-12.7578 C16.8203,-13.7943 16.2135,-14.6927 15.4531,-15.4531 C14.6927,-16.2135 13.7943,-16.8203 12.7578,-17.2734 C11.7214,-17.7266 10.6198,-17.9531 9.45313,-17.9531 C8.27604,-17.9531 7.17188,-17.7266 6.14063,-17.2734 C5.10938,-16.8203 4.20573,-16.2135 3.42969,-15.4531 C2.65365,-14.6927 2.04427,-13.7943 1.60156,-12.7578 C1.15885,-11.7214 0.9375,-10.6198 0.9375,-9.45313 C0.9375,-8.27604 1.15885,-7.17188 1.60156,-6.14063 C2.04427,-5.10938 2.65365,-4.20573 3.42969,-3.42969 C4.20573,-2.65365 5.10938,-2.04427 6.14063,-1.60156 C7.17188,-1.15885 8.27604,-0.9375 9.45313,-0.9375 C10.6198,-0.9375 11.7214,-1.15885 12.7578,-1.60156 C13.7943,-2.04427 14.6927,-2.65365 15.4531,-3.42969 C16.2135,-4.20573 16.8203,-5.10938 17.2734,-6.14063 C17.7266,-7.17188 17.9531,-8.27604 17.9531,-9.45313 M14.1719,-9.45313 C14.1719,-8.79688 14.0495,-8.18229 13.8047,-7.60938 C13.5599,-7.03646 13.2214,-6.53385 12.7891,-6.10156 C12.3568,-5.66927 11.8542,-5.33073 11.2813,-5.08594 C10.7083,-4.84115 10.099,-4.71875 9.45313,-4.71875 C8.79688,-4.71875 8.18229,-4.84115 7.60938,-5.08594 C7.03646,-5.33073 6.53385,-5.66927 6.10156,-6.10156 C5.66927,-6.53385 5.33073,-7.03646 5.08594,-7.60938 C4.84115,-8.18229 4.71875,-8.79688 4.71875,-9.45313 C4.71875,-10.099 4.84115,-10.7083 5.08594,-11.2813 C5.33073,-11.8542 5.66927,-12.3568 6.10156,-12.7891 C6.53385,-13.2214 7.03646,-13.5599 7.60938,-13.8047 C8.18229,-14.0495 8.79688,-14.1719 9.45313,-14.1719 C10.099,-14.1719 10.7083,-14.0495 11.2813,-13.8047 C11.8542,-13.5599 12.3568,-13.2214 12.7891,-12.7891 C13.2214,-12.3568 13.5599,-11.8542 13.8047,-11.2813 C14.0495,-10.7083 14.1719,-10.099 14.1719,-9.45313 M13.2188,-9.45313 C13.2188,-9.97396 13.1198,-10.4635 12.9219,-10.9219 C12.724,-11.3802 12.4557,-11.7786 12.1172,-12.1172 C11.7786,-12.4557 11.3802,-12.724 10.9219,-12.9219 C10.4635,-13.1198 9.97396,-13.2188 9.45313,-13.2188 C8.93229,-13.2188 8.4401,-13.1198 7.97656,-12.9219 C7.51302,-12.724 7.11198,-12.4557 6.77344,-12.1172 C6.4349,-11.7786 6.16667,-11.3802 5.96875,-10.9219 C5.77083,-10.4635 5.67188,-9.97396 5.67188,-9.45313 C5.67188,-8.93229 5.77083,-8.4401 5.96875,-7.97656 C6.16667,-7.51302 6.4349,-7.11198 6.77344,-6.77344 C7.11198,-6.4349 7.51302,-6.16667 7.97656,-5.96875 C8.4401,-5.77083 8.93229,-5.67188 9.45313,-5.67188 C9.97396,-5.67188 10.4635,-5.77083 10.9219,-5.96875 C11.3802,-6.16667 11.7786,-6.4349 12.1172,-6.77344 C12.4557,-7.11198 12.724,-7.51302 12.9219,-7.97656 C13.1198,-8.4401 13.2188,-8.93229 13.2188,-9.45313 "/>
</g>
</g>
</svg>
