<?xml version="1.0" encoding="UTF-8" standalone="no"?>
<svg viewBox="0 -14.6563 14.6719 14.6563"
 xmlns="http://www.w3.org/2000/svg" xmlns:xlink="http://www.w3.org/1999/xlink"  version="1.2" baseProfile="tiny">
<title>Qt SVG Document</title>
<desc>Generated with Qt</desc>
<defs>
</defs>
<g fill="none" stroke="black" stroke-width="1" fill-rule="evenodd" stroke-linecap="square" stroke-linejoin="bevel" >

<g fill="#a80000" fill-opacity="1" stroke="none" transform="matrix(1,0,0,1,0,0)"
font-family="ESRI IGL Font22" font-size="13" font-weight="400" font-style="normal" 
>
<path vector-effect="none" fill-rule="nonzero" d="M14.6719,-7.3125 C14.6719,-5.28125 13.9531,-3.55729 12.5156,-2.14063 C11.0885,-0.713542 9.35938,0 7.32813,0 C6.91146,0 6.45833,-0.0572917 5.96875,-0.171875 C5.47917,-0.286458 5,-0.440104 4.53125,-0.632813 C4.0625,-0.825521 3.61979,-1.04948 3.20313,-1.30469 C2.78646,-1.5599 2.43229,-1.83854 2.14063,-2.14063 C0.713542,-3.56771 0,-5.29167 0,-7.3125 C0,-9.3125 0.713542,-11.0417 2.14063,-12.5 C3.55729,-13.9375 5.28646,-14.6563 7.32813,-14.6563 C9.35938,-14.6563 11.0885,-13.9427 12.5156,-12.5156 C13.9531,-11.0469 14.6719,-9.3125 14.6719,-7.3125 M13.4844,-7.3125 C13.4844,-9.01042 12.875,-10.4635 11.6563,-11.6719 C11.0417,-12.2656 10.375,-12.7161 9.65625,-13.0234 C8.9375,-13.3307 8.15625,-13.4844 7.3125,-13.4844 C5.65625,-13.4844 4.21354,-12.875 2.98438,-11.6563 C2.39063,-11.0625 1.9375,-10.4036 1.625,-9.67969 C1.3125,-8.95573 1.15625,-8.16667 1.15625,-7.3125 C1.15625,-6.47917 1.3125,-5.70313 1.625,-4.98438 C1.9375,-4.26563 2.39583,-3.59896 3,-2.98438 C3.60417,-2.39063 4.26563,-1.9375 4.98438,-1.625 C5.70313,-1.3125 6.47917,-1.15625 7.3125,-1.15625 C8.15625,-1.15625 8.9375,-1.3125 9.65625,-1.625 C10.375,-1.9375 11.0417,-2.39063 11.6563,-2.98438 C12.875,-4.21354 13.4844,-5.65625 13.4844,-7.3125 "/>
</g>
</g>
</svg>
