<?xml version="1.0" encoding="UTF-8" standalone="no"?>
<svg viewBox="0 -16.7969 16.7969 16.7969"
 xmlns="http://www.w3.org/2000/svg" xmlns:xlink="http://www.w3.org/1999/xlink"  version="1.2" baseProfile="tiny">
<title>Qt SVG Document</title>
<desc>Generated with Qt</desc>
<defs>
</defs>
<g fill="none" stroke="black" stroke-width="1" fill-rule="evenodd" stroke-linecap="square" stroke-linejoin="bevel" >

<g fill="#000000" fill-opacity="1" stroke="none" transform="matrix(1,0,0,1,0,0)"
font-family="ESRI Default Marker" font-size="18" font-weight="400" font-style="normal" 
>
<path vector-effect="none" fill-rule="nonzero" d="M16.7969,-8.40625 C16.7969,-7.25 16.5781,-6.15885 16.1406,-5.13281 C15.7031,-4.10677 15.1042,-3.21354 14.3438,-2.45313 C13.5833,-1.69271 12.6901,-1.09375 11.6641,-0.65625 C10.638,-0.21875 9.55208,0 8.40625,0 C7.25,0 6.15885,-0.21875 5.13281,-0.65625 C4.10677,-1.09375 3.21354,-1.69271 2.45313,-2.45313 C1.69271,-3.21354 1.09375,-4.10677 0.65625,-5.13281 C0.21875,-6.15885 0,-7.25 0,-8.40625 C0,-9.55208 0.21875,-10.638 0.65625,-11.6641 C1.09375,-12.6901 1.69271,-13.5833 2.45313,-14.3438 C3.21354,-15.1042 4.10677,-15.7031 5.13281,-16.1406 C6.15885,-16.5781 7.25,-16.7969 8.40625,-16.7969 C9.55208,-16.7969 10.638,-16.5781 11.6641,-16.1406 C12.6901,-15.7031 13.5833,-15.1042 14.3438,-14.3438 C15.1042,-13.5833 15.7031,-12.6901 16.1406,-11.6641 C16.5781,-10.638 16.7969,-9.55208 16.7969,-8.40625 M16.3281,-8.40625 C16.3281,-9.48958 16.1198,-10.5104 15.7031,-11.4688 C15.2865,-12.4271 14.7161,-13.2682 13.9922,-13.9922 C13.2682,-14.7161 12.4271,-15.2865 11.4688,-15.7031 C10.5104,-16.1198 9.48958,-16.3281 8.40625,-16.3281 C7.3125,-16.3281 6.28646,-16.1198 5.32813,-15.7031 C4.36979,-15.2865 3.53125,-14.7161 2.8125,-13.9922 C2.09375,-13.2682 1.52604,-12.4271 1.10938,-11.4688 C0.692708,-10.5104 0.484375,-9.48958 0.484375,-8.40625 C0.484375,-7.3125 0.692708,-6.28646 1.10938,-5.32813 C1.52604,-4.36979 2.09375,-3.53125 2.8125,-2.8125 C3.53125,-2.09375 4.36979,-1.52604 5.32813,-1.10938 C6.28646,-0.692708 7.3125,-0.484375 8.40625,-0.484375 C9.48958,-0.484375 10.5104,-0.692708 11.4688,-1.10938 C12.4271,-1.52604 13.2682,-2.09375 13.9922,-2.8125 C14.7161,-3.53125 15.2865,-4.36979 15.7031,-5.32813 C16.1198,-6.28646 16.3281,-7.3125 16.3281,-8.40625 "/>
</g>
</g>
</svg>
