<?xml version="1.0" encoding="UTF-8" standalone="no"?>
<svg viewBox="0 -17.4688 17.5 17.4375"
 xmlns="http://www.w3.org/2000/svg" xmlns:xlink="http://www.w3.org/1999/xlink"  version="1.2" baseProfile="tiny">
<title>Qt SVG Document</title>
<desc>Generated with Qt</desc>
<defs>
</defs>
<g fill="none" stroke="black" stroke-width="1" fill-rule="evenodd" stroke-linecap="square" stroke-linejoin="bevel" >

<g fill="#ffffff" fill-opacity="1" stroke="none" transform="matrix(1,0,0,1,0,0)"
font-family="ESRI Public1" font-size="18" font-weight="400" font-style="normal" 
>
<path vector-effect="none" fill-rule="nonzero" d="M17.5,-1.15625 C17.5,-0.833333 17.388,-0.565104 17.1641,-0.351563 C16.9401,-0.138021 16.6667,-0.03125 16.3438,-0.03125 L1.17188,-0.03125 C0.838542,-0.03125 0.559896,-0.138021 0.335938,-0.351563 C0.111979,-0.565104 0,-0.833333 0,-1.15625 L0,-16.3281 C0,-16.6406 0.111979,-16.9089 0.335938,-17.1328 C0.559896,-17.3568 0.838542,-17.4688 1.17188,-17.4688 L16.3438,-17.4688 C16.6667,-17.4688 16.9401,-17.3568 17.1641,-17.1328 C17.388,-16.9089 17.5,-16.6406 17.5,-16.3281 L17.5,-1.15625"/>
</g>
</g>
</svg>
