<?xml version="1.0" encoding="UTF-8" standalone="no"?>
<svg viewBox="0.03125 -17.5 17.4688 17.5"
 xmlns="http://www.w3.org/2000/svg" xmlns:xlink="http://www.w3.org/1999/xlink"  version="1.2" baseProfile="tiny">
<title>Qt SVG Document</title>
<desc>Generated with Qt</desc>
<defs>
</defs>
<g fill="none" stroke="black" stroke-width="1" fill-rule="evenodd" stroke-linecap="square" stroke-linejoin="bevel" >

<g fill="#003893" fill-opacity="1" stroke="none" transform="matrix(1,0,0,1,0,0)"
font-family="ESRI Public1" font-size="18" font-weight="400" font-style="normal" 
>
<path vector-effect="none" fill-rule="nonzero" d="M17.5,-1.09375 C17.5,-0.802083 17.388,-0.546875 17.1641,-0.328125 C16.9401,-0.109375 16.6771,0 16.375,0 L1.20313,0 C0.869792,0 0.591146,-0.109375 0.367188,-0.328125 C0.143229,-0.546875 0.03125,-0.802083 0.03125,-1.09375 L0.03125,-16.3438 C0.03125,-16.6667 0.143229,-16.9401 0.367188,-17.1641 C0.591146,-17.388 0.869792,-17.5 1.20313,-17.5 L16.375,-17.5 C16.6771,-17.5 16.9401,-17.388 17.1641,-17.1641 C17.388,-16.9401 17.5,-16.6667 17.5,-16.3438 L17.5,-1.09375 M17.3281,-1.09375 L17.3281,-16.3438 C17.3281,-16.6146 17.2318,-16.8464 17.0391,-17.0391 C16.8464,-17.2318 16.625,-17.3281 16.375,-17.3281 L1.20313,-17.3281 C0.921875,-17.3281 0.684896,-17.2318 0.492188,-17.0391 C0.299479,-16.8464 0.203125,-16.6146 0.203125,-16.3438 L0.203125,-1.09375 C0.203125,-0.84375 0.299479,-0.625 0.492188,-0.4375 C0.684896,-0.25 0.921875,-0.15625 1.20313,-0.15625 L16.375,-0.15625 C16.625,-0.15625 16.8464,-0.25 17.0391,-0.4375 C17.2318,-0.625 17.3281,-0.84375 17.3281,-1.09375 M16.9531,-1.09375 C16.9531,-0.697917 16.7604,-0.5 16.375,-0.5 L1.20313,-0.5 C0.786458,-0.5 0.578125,-0.697917 0.578125,-1.09375 L0.578125,-16.3438 C0.578125,-16.7604 0.786458,-16.9688 1.20313,-16.9688 L16.375,-16.9688 C16.7604,-16.9688 16.9531,-16.7604 16.9531,-16.3438 L16.9531,-1.09375 M15.5156,-4.45313 L15.5156,-4.65625 C15.4323,-5.10417 15.3438,-5.32813 15.25,-5.32813 L15.0469,-5.32813 L15.0469,-5.45313 C15.0469,-5.48438 15.0417,-5.68229 15.0313,-6.04688 C15.0208,-6.41146 15.013,-6.82813 15.0078,-7.29688 C15.0026,-7.76563 14.9948,-8.22396 14.9844,-8.67188 C14.974,-9.11979 14.9688,-9.44271 14.9688,-9.64063 C14.9688,-9.68229 14.9401,-9.82292 14.8828,-10.0625 C14.8255,-10.3021 14.75,-10.5938 14.6563,-10.9375 C14.5625,-11.2813 14.4583,-11.651 14.3438,-12.0469 C14.2292,-12.4427 14.125,-12.8125 14.0313,-13.1563 C13.9375,-13.5 13.8542,-13.7891 13.7813,-14.0234 C13.7083,-14.2578 13.6615,-14.3906 13.6406,-14.4219 C13.526,-14.5677 13.3073,-14.7031 12.9844,-14.8281 C12.6615,-14.9531 12.2734,-15.0625 11.8203,-15.1563 C11.3672,-15.25 10.8698,-15.3177 10.3281,-15.3594 C9.78646,-15.401 9.23438,-15.4219 8.67188,-15.4219 C8.19271,-15.4219 7.75521,-15.4089 7.35938,-15.3828 C6.96354,-15.3568 6.58073,-15.3099 6.21094,-15.2422 C5.84115,-15.1745 5.45573,-15.0755 5.05469,-14.9453 C4.65365,-14.8151 4.20833,-14.6406 3.71875,-14.4219 C3.63542,-14.2865 3.52865,-13.9948 3.39844,-13.5469 C3.26823,-13.099 3.13542,-12.6172 3,-12.1016 C2.86458,-11.5859 2.7474,-11.0885 2.64844,-10.6094 C2.54948,-10.1302 2.48958,-9.80729 2.46875,-9.64063 C2.42708,-9.26563 2.39323,-8.79688 2.36719,-8.23438 C2.34115,-7.67188 2.32813,-7.13542 2.32813,-6.625 L2.32813,-5.32813 L2.15625,-5.32813 C1.96875,-5.32813 1.875,-5.08333 1.875,-4.59375 C1.875,-4.11458 1.96875,-3.875 2.15625,-3.875 L3.32813,-3.875 L3.32813,-3.67188 C3.32813,-3.02604 3.36979,-2.58333 3.45313,-2.34375 C3.59896,-2.11458 3.875,-2 4.28125,-2 C4.64583,-2 4.91667,-2.11458 5.09375,-2.34375 C5.19792,-2.55208 5.25,-2.9375 5.25,-3.5 L5.25,-3.875 L12.1719,-3.875 C12.1719,-3.14583 12.2031,-2.63542 12.2656,-2.34375 C12.349,-2.11458 12.625,-2 13.0938,-2 C13.5833,-2 13.875,-2.11458 13.9688,-2.34375 C14,-2.47917 14.0286,-2.67188 14.0547,-2.92188 C14.0807,-3.17188 14.0938,-3.48958 14.0938,-3.875 L15.25,-3.875 C15.4271,-3.92708 15.5156,-4.11979 15.5156,-4.45313 M14.0781,-9.79688 L8.84375,-9.79688 L8.84375,-13.9531 L13,-13.9531 C13.1146,-13.7656 13.2214,-13.5208 13.3203,-13.2188 C13.4193,-12.9167 13.5104,-12.5781 13.5938,-12.2031 C13.6771,-11.8281 13.7604,-11.4323 13.8438,-11.0156 C13.9271,-10.599 14.0052,-10.1927 14.0781,-9.79688 M8.45313,-13.9531 L8.45313,-9.79688 L3.46875,-9.79688 C3.54167,-10.526 3.60677,-11.1328 3.66406,-11.6172 C3.72135,-12.1016 3.78385,-12.4974 3.85156,-12.8047 C3.91927,-13.112 3.98698,-13.3542 4.05469,-13.5313 C4.1224,-13.7083 4.19792,-13.8542 4.28125,-13.9688 L4.28125,-13.9531 L8.45313,-13.9531 M11.4219,-14.5781 C11.4219,-14.474 11.1146,-14.4219 10.5,-14.4219 L6.79688,-14.4219 C6.51563,-14.4219 6.29688,-14.4297 6.14063,-14.4453 C5.98438,-14.4609 5.90625,-14.5052 5.90625,-14.5781 C5.90625,-14.6719 6.16667,-14.7526 6.6875,-14.8203 C7.20833,-14.888 7.86979,-14.9219 8.67188,-14.9219 C9.44271,-14.9219 10.0938,-14.888 10.625,-14.8203 C11.1563,-14.7526 11.4219,-14.6719 11.4219,-14.5781 M13.6719,-6.76563 C13.6719,-6.55729 13.5964,-6.38281 13.4453,-6.24219 C13.2943,-6.10156 13.1094,-6.03125 12.8906,-6.03125 C12.6823,-6.03125 12.5052,-6.10156 12.3594,-6.24219 C12.2135,-6.38281 12.1406,-6.55729 12.1406,-6.76563 C12.1406,-6.97396 12.2135,-7.14323 12.3594,-7.27344 C12.5052,-7.40365 12.6823,-7.46875 12.8906,-7.46875 C13.1094,-7.46875 13.2943,-7.40365 13.4453,-7.27344 C13.5964,-7.14323 13.6719,-6.97396 13.6719,-6.76563 M5.25,-6.76563 C5.25,-6.56771 5.17969,-6.39844 5.03906,-6.25781 C4.89844,-6.11719 4.71875,-6.04688 4.5,-6.04688 C4.27083,-6.04688 4.08333,-6.11719 3.9375,-6.25781 C3.79167,-6.39844 3.71875,-6.56771 3.71875,-6.76563 C3.71875,-6.98438 3.79167,-7.16146 3.9375,-7.29688 C4.08333,-7.43229 4.27083,-7.5 4.5,-7.5 C4.71875,-7.5 4.89844,-7.43229 5.03906,-7.29688 C5.17969,-7.16146 5.25,-6.98438 5.25,-6.76563 "/>
</g>
</g>
</svg>
