<?xml version="1.0" encoding="UTF-8" standalone="no"?>
<svg viewBox="0.03125 -16.7969 16.7656 16.7969"
 xmlns="http://www.w3.org/2000/svg" xmlns:xlink="http://www.w3.org/1999/xlink"  version="1.2" baseProfile="tiny">
<title>Qt SVG Document</title>
<desc>Generated with Qt</desc>
<defs>
</defs>
<g fill="none" stroke="black" stroke-width="1" fill-rule="evenodd" stroke-linecap="square" stroke-linejoin="bevel" >

<g fill="#003893" fill-opacity="1" stroke="none" transform="matrix(1,0,0,1,0,0)"
font-family="ESRI Public1" font-size="18" font-weight="400" font-style="normal" 
>
<path vector-effect="none" fill-rule="nonzero" d="M16.7969,-1.0625 C16.7969,-0.770833 16.6901,-0.520833 16.4766,-0.3125 C16.263,-0.104167 16.0104,0 15.7188,0 L1.15625,0 C0.833333,0 0.565104,-0.104167 0.351563,-0.3125 C0.138021,-0.520833 0.03125,-0.770833 0.03125,-1.0625 L0.03125,-15.7031 C0.03125,-16.0052 0.138021,-16.263 0.351563,-16.4766 C0.565104,-16.6901 0.833333,-16.7969 1.15625,-16.7969 L15.7188,-16.7969 C16.0104,-16.7969 16.263,-16.6901 16.4766,-16.4766 C16.6901,-16.263 16.7969,-16.0052 16.7969,-15.7031 L16.7969,-1.0625 M16.6406,-1.0625 L16.6406,-15.7031 C16.6406,-15.9531 16.5469,-16.1719 16.3594,-16.3594 C16.1719,-16.5469 15.9583,-16.6406 15.7188,-16.6406 L1.15625,-16.6406 C0.885417,-16.6406 0.65625,-16.5469 0.46875,-16.3594 C0.28125,-16.1719 0.1875,-15.9531 0.1875,-15.7031 L0.1875,-1.0625 C0.1875,-0.822917 0.28125,-0.609375 0.46875,-0.421875 C0.65625,-0.234375 0.885417,-0.140625 1.15625,-0.140625 L15.7188,-0.140625 C15.9583,-0.140625 16.1719,-0.234375 16.3594,-0.421875 C16.5469,-0.609375 16.6406,-0.822917 16.6406,-1.0625 M16.2656,-1.0625 C16.2656,-0.677083 16.0833,-0.484375 15.7188,-0.484375 L1.15625,-0.484375 C0.75,-0.484375 0.546875,-0.677083 0.546875,-1.0625 L0.546875,-15.7031 C0.546875,-16.099 0.75,-16.2969 1.15625,-16.2969 L15.7188,-16.2969 C16.0833,-16.2969 16.2656,-16.099 16.2656,-15.7031 L16.2656,-1.0625 M14.9063,-4.26563 L14.9063,-4.46875 C14.8229,-4.89583 14.7344,-5.10938 14.6406,-5.10938 L14.4531,-5.10938 L14.4531,-5.23438 C14.4531,-5.26563 14.4479,-5.45833 14.4375,-5.8125 C14.4271,-6.16667 14.4193,-6.56771 14.4141,-7.01563 C14.4089,-7.46354 14.401,-7.90365 14.3906,-8.33594 C14.3802,-8.76823 14.375,-9.07813 14.375,-9.26563 C14.375,-9.29688 14.3464,-9.42969 14.2891,-9.66406 C14.2318,-9.89844 14.1589,-10.1797 14.0703,-10.5078 C13.9818,-10.8359 13.8828,-11.1901 13.7734,-11.5703 C13.6641,-11.9505 13.5651,-12.3047 13.4766,-12.6328 C13.388,-12.9609 13.3073,-13.237 13.2344,-13.4609 C13.1615,-13.6849 13.1198,-13.8125 13.1094,-13.8438 C12.9948,-13.9896 12.7813,-14.1224 12.4688,-14.2422 C12.1563,-14.362 11.7839,-14.4661 11.3516,-14.5547 C10.9193,-14.6432 10.4427,-14.7083 9.92188,-14.75 C9.40104,-14.7917 8.86979,-14.8125 8.32813,-14.8125 C7.85938,-14.8125 7.4375,-14.7995 7.0625,-14.7734 C6.6875,-14.7474 6.32031,-14.7031 5.96094,-14.6406 C5.60156,-14.5781 5.22917,-14.4818 4.84375,-14.3516 C4.45833,-14.2214 4.03646,-14.0521 3.57813,-13.8438 C3.49479,-13.7188 3.39063,-13.4401 3.26563,-13.0078 C3.14063,-12.5755 3.01302,-12.112 2.88281,-11.6172 C2.7526,-11.1224 2.64063,-10.6458 2.54688,-10.1875 C2.45313,-9.72917 2.39583,-9.42188 2.375,-9.26563 C2.32292,-8.90104 2.28646,-8.45052 2.26563,-7.91406 C2.24479,-7.3776 2.23438,-6.85938 2.23438,-6.35938 L2.23438,-5.10938 L2.0625,-5.10938 C1.88542,-5.10938 1.79688,-4.88021 1.79688,-4.42188 C1.79688,-3.95313 1.88542,-3.71875 2.0625,-3.71875 L3.1875,-3.71875 L3.1875,-3.53125 C3.1875,-2.90625 3.22917,-2.47917 3.3125,-2.25 C3.45833,-2.03125 3.72396,-1.92188 4.10938,-1.92188 C4.45313,-1.92188 4.71354,-2.03125 4.89063,-2.25 C4.99479,-2.44792 5.04688,-2.81771 5.04688,-3.35938 L5.04688,-3.71875 L11.6875,-3.71875 C11.6875,-3.02083 11.7188,-2.53125 11.7813,-2.25 C11.8646,-2.03125 12.1302,-1.92188 12.5781,-1.92188 C13.0365,-1.92188 13.3177,-2.03125 13.4219,-2.25 C13.4531,-2.38542 13.4792,-2.57292 13.5,-2.8125 C13.5208,-3.05208 13.5313,-3.35417 13.5313,-3.71875 L14.6406,-3.71875 C14.8177,-3.77083 14.9063,-3.95313 14.9063,-4.26563 M13.5156,-9.40625 L8.5,-9.40625 L8.5,-13.3906 L12.4844,-13.3906 C12.599,-13.2135 12.7031,-12.9818 12.7969,-12.6953 C12.8906,-12.4089 12.9766,-12.0859 13.0547,-11.7266 C13.1328,-11.3672 13.2135,-10.987 13.2969,-10.5859 C13.3802,-10.1849 13.4531,-9.79167 13.5156,-9.40625 M8.10938,-13.3906 L8.10938,-9.40625 L3.34375,-9.40625 C3.40625,-10.1146 3.46354,-10.7005 3.51563,-11.1641 C3.56771,-11.6276 3.6276,-12.0078 3.69531,-12.3047 C3.76302,-12.6016 3.82813,-12.8333 3.89063,-13 C3.95313,-13.1667 4.02604,-13.3073 4.10938,-13.4219 L4.10938,-13.3906 L8.10938,-13.3906 M10.9688,-14 C10.9688,-13.8958 10.6719,-13.8438 10.0781,-13.8438 L6.53125,-13.8438 C6.26042,-13.8438 6.04948,-13.8516 5.89844,-13.8672 C5.7474,-13.8828 5.67188,-13.9271 5.67188,-14 C5.67188,-14.0938 5.92188,-14.1719 6.42188,-14.2344 C6.92188,-14.2969 7.55729,-14.3281 8.32813,-14.3281 C9.06771,-14.3281 9.69271,-14.2969 10.2031,-14.2344 C10.7135,-14.1719 10.9688,-14.0938 10.9688,-14 M13.125,-6.5 C13.125,-6.29167 13.0547,-6.11979 12.9141,-5.98438 C12.7734,-5.84896 12.599,-5.78125 12.3906,-5.78125 C12.1823,-5.78125 12.0104,-5.84896 11.875,-5.98438 C11.7396,-6.11979 11.6719,-6.29167 11.6719,-6.5 C11.6719,-6.69792 11.7396,-6.85938 11.875,-6.98438 C12.0104,-7.10938 12.1823,-7.17188 12.3906,-7.17188 C12.599,-7.17188 12.7734,-7.10938 12.9141,-6.98438 C13.0547,-6.85938 13.125,-6.69792 13.125,-6.5 M5.04688,-6.5 C5.04688,-6.3125 4.97656,-6.15104 4.83594,-6.01563 C4.69531,-5.88021 4.52604,-5.8125 4.32813,-5.8125 C4.09896,-5.8125 3.91667,-5.88021 3.78125,-6.01563 C3.64583,-6.15104 3.57813,-6.3125 3.57813,-6.5 C3.57813,-6.70833 3.64583,-6.8776 3.78125,-7.00781 C3.91667,-7.13802 4.09896,-7.20313 4.32813,-7.20313 C4.52604,-7.20313 4.69531,-7.13802 4.83594,-7.00781 C4.97656,-6.8776 5.04688,-6.70833 5.04688,-6.5 "/>
</g>
</g>
</svg>
