<?xml version="1.0" encoding="UTF-8" standalone="no"?>
<svg viewBox="0.484375 -32.6406 32.5938 32.6406"
 xmlns="http://www.w3.org/2000/svg" xmlns:xlink="http://www.w3.org/1999/xlink"  version="1.2" baseProfile="tiny">
<title>Qt SVG Document</title>
<desc>Generated with Qt</desc>
<defs>
</defs>
<g fill="none" stroke="black" stroke-width="1" fill-rule="evenodd" stroke-linecap="square" stroke-linejoin="bevel" >

<g fill="#0070ff" fill-opacity="1" stroke="none" transform="matrix(1,0,0,1,0,0)"
font-family="ESRI Default Marker" font-size="36" font-weight="400" font-style="normal" 
>
<path vector-effect="none" fill-rule="nonzero" d="M33.0781,-16.3281 C33.0781,-14.0469 32.6536,-11.9245 31.8047,-9.96094 C30.9557,-7.9974 29.7865,-6.27083 28.2969,-4.78125 C26.8073,-3.29167 25.0703,-2.1224 23.0859,-1.27344 C21.1016,-0.424479 18.9896,0 16.75,0 C14.4792,0 12.3594,-0.424479 10.3906,-1.27344 C8.42188,-2.1224 6.70313,-3.29167 5.23438,-4.78125 C3.76563,-6.27083 2.60677,-7.9974 1.75781,-9.96094 C0.908854,-11.9245 0.484375,-14.0469 0.484375,-16.3281 C0.484375,-18.5677 0.908854,-20.6797 1.75781,-22.6641 C2.60677,-24.6484 3.76563,-26.3828 5.23438,-27.8672 C6.70313,-29.3516 8.42188,-30.5182 10.3906,-31.3672 C12.3594,-32.2161 14.4792,-32.6406 16.75,-32.6406 C18.9896,-32.6406 21.1016,-32.2161 23.0859,-31.3672 C25.0703,-30.5182 26.8073,-29.3516 28.2969,-27.8672 C29.7865,-26.3828 30.9557,-24.6484 31.8047,-22.6641 C32.6536,-20.6797 33.0781,-18.5677 33.0781,-16.3281 "/>
</g>
</g>
</svg>
