<?xml version="1.0" encoding="UTF-8" standalone="no"?>
<svg
   xmlns:dc="http://purl.org/dc/elements/1.1/"
   xmlns:cc="http://creativecommons.org/ns#"
   xmlns:rdf="http://www.w3.org/1999/02/22-rdf-syntax-ns#"
   xmlns:svg="http://www.w3.org/2000/svg"
   xmlns="http://www.w3.org/2000/svg"
   id="svg9"
   height="6.8918667mm"
   width="6.6209331mm"
   version="1.0">
  <metadata
     id="metadata13">
    <rdf:RDF>
      <cc:Work
         rdf:about="">
        <dc:format>image/svg+xml</dc:format>
        <dc:type
           rdf:resource="http://purl.org/dc/dcmitype/StillImage" />
      </cc:Work>
    </rdf:RDF>
  </metadata>
  <defs
     id="defs3">
    <pattern
       y="0"
       x="0"
       height="6"
       width="6"
       patternUnits="userSpaceOnUse"
       id="EMFhbasepattern" />
  </defs>
  <path
     id="path5"
     d="  M 12.666667,20.666667   C 12.333333,19.666667 11.666667,19.666667 11,19.333333   C 10.333333,19.333333 10.333333,19.333333 10.333333,19.333333   C 10,19 10,19 10,19   C 9.6666667,18.666667 9.6666667,18.666667 9.6666667,18.666667   C 9,18 9,18 9,18   C 8.3333333,17.666667 8.3333333,17.666667 8.3333333,17.666667   C 8,17.333333 8,17.333333 8,17.333333   C 8,17.666667 8,18 8,18.666667   C 7,17.666667 7.3333333,17.666667 7,16.333333   C 7,16 7,14.666667 7,14   C 7.3333333,14.333333 7.3333333,14.333333 7.3333333,14.333333   C 7.6666667,14.666667 7.6666667,14.666667 7.6666667,14.666667   C 8.3333333,15.333333 8.3333333,15.333333 8.3333333,15.333333   C 9,16 9,16 9,16   C 9,16 9,16 9,16   C 9.3333333,16.333333 9.3333333,16.333333 9.3333333,16.333333   C 9.3333333,16.333333 9.3333333,16.333333 9.3333333,16.333333   C 9.3333333,16.333333 9.3333333,16.333333 9.3333333,16.333333   C 9,16.333333 9,16.333333 9,16.333333   C 8.6666667,16.333333 8.6666667,16.333333 8.6666667,16.333333   C 8.6666667,16.666667 8.6666667,16.666667 8.6666667,16.666667   C 9.3333333,17.333333 12,19.333333 12,17   C 12,15.666667 12,14.666667 12,13.333333   C 12.333333,12.666667 12.333333,12.666667 12.333333,12.666667   C 12.333333,11.333333 12.333333,11.333333 12.333333,11.333333   C 12.333333,10.333333 12.333333,10.333333 12.333333,10.333333   C 12.333333,9.6666667 12.333333,9.6666667 12.333333,9.6666667   C 12.333333,8.6666667 12.333333,8.6666667 12.333333,8.6666667   C 12.333333,8.6666667 12.333333,8.6666667 12.333333,8.6666667   C 8.3333333,8.3333333 8.3333333,8.3333333 8.3333333,8.3333333   C 8.3333333,7.6666667 8.3333333,7.6666667 8.3333333,7.6666667   C 12.333333,7.6666667 12.333333,7.6666667 12.333333,7.6666667   C 12.333333,7 12.333333,7 12.333333,7   C 12.333333,7 12.333333,7 12.333333,7   C 12,6.6666667 12,6.6666667 12,6.6666667   C 12,6.6666667 12,6.6666667 12,6.6666667   C 11.666667,6.3333333 11.666667,6.3333333 11.666667,6.3333333   C 11.666667,6.3333333 11.666667,6.3333333 11.666667,6.3333333   C 11.333333,5.6666667 11.333333,5.6666667 11.333333,5.6666667   C 11.333333,5.6666667 11.333333,5.6666667 11.333333,5.6666667   C 11.333333,4.6666667 12,4.3333333 12.666667,4   C 12.666667,5 12.666667,5 12.666667,5   C 12.666667,5 12.666667,5 12.666667,5   C 12.666667,5 12.666667,5 12.666667,5   C 12.333333,5 12.333333,5 12.333333,5   C 12.333333,5.3333333 12.333333,5.3333333 12.333333,5.3333333   C 12,5.3333333 12,5.3333333 12,5.3333333   C 12,5.3333333 12,5.3333333 12,5.3333333   C 12,5.6666667 12,5.6666667 12,5.6666667   C 12,5.6666667 12,5.6666667 12,5.6666667   C 12.333333,6 12.333333,6 12.333333,6   C 12.333333,6.3333333 12.333333,6.3333333 12.333333,6.3333333   C 12.666667,6 12.333333,5.6666667 12.666667,5.6666667   C 13,5.6666667 13,5.6666667 13,5.6666667   C 13.333333,5.6666667 13.333333,5.6666667 13.333333,5.6666667   C 13.333333,6.3333333 13.333333,6.3333333 13.333333,6.3333333   C 13.333333,6 13.333333,6 13.333333,6   C 13.333333,6 13.333333,6 13.333333,6   C 13.666667,5.6666667 13.666667,5.6666667 13.666667,5.6666667   C 13.666667,5.3333333 13.666667,5.3333333 13.666667,5.3333333   C 13.333333,5.3333333 13.333333,5.3333333 13.333333,5.3333333   C 13.333333,5.3333333 13.333333,5.3333333 13.333333,5.3333333   C 13.333333,5 13.333333,5 13.333333,5   C 13,5 13,5 13,5   C 13,5 13,5 13,5   C 12.666667,5 12.666667,5 12.666667,5   C 12.666667,4 12.666667,4 12.666667,4   C 14,4.3333333 14,4.3333333 14.333333,5.6666667   C 14,5.6666667 14,5.6666667 14,5.6666667   C 14,6 14,6 14,6   C 14,6.3333333 14,6.3333333 14,6.3333333   C 14,6.3333333 14,6.3333333 14,6.3333333   C 13.666667,6.6666667 13.666667,6.6666667 13.666667,6.6666667   C 13.666667,6.6666667 13.666667,6.6666667 13.666667,6.6666667   C 13.333333,7 13.333333,7 13.333333,7   C 13,7 13,7 13,7   C 13.333333,7.6666667 13.333333,7.6666667 13.333333,7.6666667   C 17.333333,7.6666667 17.333333,7.6666667 17.333333,7.6666667   C 17.333333,8.3333333 17.333333,8.3333333 17.333333,8.3333333   C 13.333333,8.6666667 13.333333,8.6666667 13.333333,8.6666667   C 13.333333,11.333333 13.666667,14.333333 13.666667,17   C 13.666667,17.333333 13.666667,18.333333 14.666667,18   C 14.666667,18 14.666667,18 14.666667,18   C 15,18 15,18 15,18   C 15.333333,17.666667 15.333333,17.666667 15.333333,17.666667   C 15.666667,17.666667 15.666667,17.666667 15.666667,17.666667   C 16,17.333333 16,17.333333 16,17.333333   C 16.666667,17 16.666667,17 16.666667,17   C 17,16.666667 17,16.666667 17,16.666667   C 17,16.666667 17,16.666667 17,16.666667   C 17,16.333333 17,16.333333 17,16.333333   C 16.666667,16.333333 16.666667,16.333333 16.666667,16.333333   C 16.333333,16.333333 16.333333,16.333333 16.333333,16.333333   C 16.333333,16.333333 16.333333,16.333333 16.333333,16.333333   C 17.333333,15.666667 17.666667,15.333333 18.666667,14   C 18.666667,15.666667 19,17.666667 17.666667,18.666667   C 17.666667,18 17.666667,18 17.666667,18   C 17.666667,17.666667 17.666667,17.666667 17.666667,17.666667   C 17.666667,17.333333 17.666667,17.333333 17.666667,17.333333   C 17.666667,17.333333 17.666667,17.333333 17.666667,17.333333   C 16.666667,18 16.333333,18.666667 15.333333,19.333333   C 14.666667,19.333333 14.666667,19.333333 14.666667,19.333333   C 14.333333,19.666667 14.333333,19.666667 14.333333,19.666667   C 14,19.666667 14,19.666667 14,19.666667   C 14,19.666667 14,19.666667 14,19.666667   C 13.333333,20 13.333333,20 13.333333,20   C 13,20.333333 13,20.333333 13,20.333333   z "
     style="fill:none;stroke:#000000;stroke-width:0.66666669px;stroke-linecap:round;stroke-linejoin:round;stroke-miterlimit:4;stroke-dasharray:none;stroke-opacity:1;" />
  <path
     id="path7"
     d="  M 0.66666667,25.333333   L 0.66666667,0   L 25,0   L 25,25.333333   L 0.66666667,25.333333   L 0.66666667,25.333333  z   "
     style="fill:none;stroke:#000000;stroke-width:0.66666669px;stroke-linecap:round;stroke-linejoin:round;stroke-miterlimit:4;stroke-dasharray:none;stroke-opacity:1;" />
</svg>
