<?xml version="1.0" encoding="UTF-8" standalone="no"?>
<svg viewBox="0.25 -17 16.9688 17"
 xmlns="http://www.w3.org/2000/svg" xmlns:xlink="http://www.w3.org/1999/xlink"  version="1.2" baseProfile="tiny">
<title>Qt SVG Document</title>
<desc>Generated with Qt</desc>
<defs>
</defs>
<g fill="none" stroke="black" stroke-width="1" fill-rule="evenodd" stroke-linecap="square" stroke-linejoin="bevel" >

<g fill="#686868" fill-opacity="1" stroke="none" transform="matrix(1,0,0,1,0,0)"
font-family="ESRI Default Marker" font-size="18" font-weight="400" font-style="normal" 
>
<path vector-effect="none" fill-rule="nonzero" d="M17.2188,-8.5 C17.2188,-7.3125 16.9974,-6.20833 16.5547,-5.1875 C16.112,-4.16667 15.5052,-3.26823 14.7344,-2.49219 C13.9635,-1.71615 13.0599,-1.10677 12.0234,-0.664063 C10.987,-0.221354 9.88542,0 8.71875,0 C7.54167,0 6.4401,-0.221354 5.41406,-0.664063 C4.38802,-1.10677 3.49219,-1.71615 2.72656,-2.49219 C1.96094,-3.26823 1.35677,-4.16667 0.914063,-5.1875 C0.471354,-6.20833 0.25,-7.3125 0.25,-8.5 C0.25,-9.66667 0.471354,-10.7656 0.914063,-11.7969 C1.35677,-12.8281 1.96094,-13.7318 2.72656,-14.5078 C3.49219,-15.2839 4.38802,-15.8932 5.41406,-16.3359 C6.4401,-16.7786 7.54167,-17 8.71875,-17 C9.88542,-17 10.987,-16.7786 12.0234,-16.3359 C13.0599,-15.8932 13.9635,-15.2839 14.7344,-14.5078 C15.5052,-13.7318 16.112,-12.8281 16.5547,-11.7969 C16.9974,-10.7656 17.2188,-9.66667 17.2188,-8.5 "/>
</g>
</g>
</svg>
