<?xml version="1.0" encoding="UTF-8" standalone="no"?>
<svg
   xmlns:ooo="http://xml.openoffice.org/svg/export"
   xmlns:dc="http://purl.org/dc/elements/1.1/"
   xmlns:cc="http://creativecommons.org/ns#"
   xmlns:rdf="http://www.w3.org/1999/02/22-rdf-syntax-ns#"
   xmlns:svg="http://www.w3.org/2000/svg"
   xmlns="http://www.w3.org/2000/svg"
   style="fill-rule:evenodd;stroke-width:28.22200012;stroke-linejoin:round"
   id="svg426"
   xml:space="preserve"
   preserveAspectRatio="xMidYMid"
   viewBox="0 0 814.00003 844.99998"
   height="8.4499998mm"
   width="8.1400003mm"
   version="1.2"><metadata
   id="metadata430"><rdf:RDF><cc:Work
       rdf:about=""><dc:format>image/svg+xml</dc:format><dc:type
         rdf:resource="http://purl.org/dc/dcmitype/StillImage" /></cc:Work></rdf:RDF></metadata>
 <defs
   id="defs8"
   class="ClipPathGroup">
  <clipPath
   clipPathUnits="userSpaceOnUse"
   id="presentation_clip_path">
   <rect
   id="rect2"
   height="29700"
   width="21000"
   y="0"
   x="0" />
  </clipPath>
  <clipPath
   clipPathUnits="userSpaceOnUse"
   id="presentation_clip_path_shrink">
   <rect
   id="rect5"
   height="29641"
   width="20958"
   y="29"
   x="21" />
  </clipPath>
 </defs>
 <defs
   id="defs12"
   class="TextShapeIndex">
  <g
   id="g10"
   ooo:id-list="id3"
   ooo:slide="id1" />
 </defs>
 <defs
   id="defs44"
   class="EmbeddedBulletChars">
  <g
   transform="matrix(4.8828125e-4,0,0,-4.8828125e-4,0,0)"
   id="bullet-char-template-57356">
   <path
   id="path14"
   d="M 580,1141 1163,571 580,0 -4,571 Z" />
  </g>
  <g
   transform="matrix(4.8828125e-4,0,0,-4.8828125e-4,0,0)"
   id="bullet-char-template-57354">
   <path
   id="path17"
   d="M 8,1128 H 1137 V 0 H 8 Z" />
  </g>
  <g
   transform="matrix(4.8828125e-4,0,0,-4.8828125e-4,0,0)"
   id="bullet-char-template-10146">
   <path
   id="path20"
   d="M 174,0 602,739 174,1481 1456,739 Z M 1358,739 309,1346 659,739 Z" />
  </g>
  <g
   transform="matrix(4.8828125e-4,0,0,-4.8828125e-4,0,0)"
   id="bullet-char-template-10132">
   <path
   id="path23"
   d="M 2015,739 1276,0 H 717 l 543,543 H 174 v 393 h 1086 l -543,545 h 557 z" />
  </g>
  <g
   transform="matrix(4.8828125e-4,0,0,-4.8828125e-4,0,0)"
   id="bullet-char-template-10007">
   <path
   id="path26"
   d="m 0,-2 c -7,16 -16,29 -25,39 l 381,530 c -94,256 -141,385 -141,387 0,25 13,38 40,38 9,0 21,-2 34,-5 21,4 42,12 65,25 l 27,-13 111,-251 280,301 64,-25 24,25 c 21,-10 41,-24 62,-43 C 886,937 835,863 770,784 769,783 710,716 594,584 L 774,223 c 0,-27 -21,-55 -63,-84 l 16,-20 C 717,90 699,76 672,76 641,76 570,178 457,381 L 164,-76 c -22,-34 -53,-51 -92,-51 -42,0 -63,17 -64,51 -7,9 -10,24 -10,44 0,9 1,19 2,30 z" />
  </g>
  <g
   transform="matrix(4.8828125e-4,0,0,-4.8828125e-4,0,0)"
   id="bullet-char-template-10004">
   <path
   id="path29"
   d="M 285,-33 C 182,-33 111,30 74,156 52,228 41,333 41,471 c 0,78 14,145 41,201 34,71 87,106 158,106 53,0 88,-31 106,-94 l 23,-176 c 8,-64 28,-97 59,-98 l 735,706 c 11,11 33,17 66,17 42,0 63,-15 63,-46 V 965 c 0,-36 -10,-64 -30,-84 L 442,47 C 390,-6 338,-33 285,-33 Z" />
  </g>
  <g
   transform="matrix(4.8828125e-4,0,0,-4.8828125e-4,0,0)"
   id="bullet-char-template-9679">
   <path
   id="path32"
   d="M 813,0 C 632,0 489,54 383,161 276,268 223,411 223,592 c 0,181 53,324 160,431 106,107 249,161 430,161 179,0 323,-54 432,-161 108,-107 162,-251 162,-431 0,-180 -54,-324 -162,-431 C 1136,54 992,0 813,0 Z" />
  </g>
  <g
   transform="matrix(4.8828125e-4,0,0,-4.8828125e-4,0,0)"
   id="bullet-char-template-8226">
   <path
   id="path35"
   d="m 346,457 c -73,0 -137,26 -191,78 -54,51 -81,114 -81,188 0,73 27,136 81,188 54,52 118,78 191,78 73,0 134,-26 185,-79 51,-51 77,-114 77,-187 0,-75 -25,-137 -76,-188 -50,-52 -112,-78 -186,-78 z" />
  </g>
  <g
   transform="matrix(4.8828125e-4,0,0,-4.8828125e-4,0,0)"
   id="bullet-char-template-8211">
   <path
   id="path38"
   d="M -4,459 H 1135 V 606 H -4 Z" />
  </g>
  <g
   transform="matrix(4.8828125e-4,0,0,-4.8828125e-4,0,0)"
   id="bullet-char-template-61548">
   <path
   id="path41"
   d="m 173,740 c 0,163 58,303 173,419 116,115 255,173 419,173 163,0 302,-58 418,-173 116,-116 174,-256 174,-419 0,-163 -58,-303 -174,-418 C 1067,206 928,148 765,148 601,148 462,206 346,322 231,437 173,577 173,740 Z" />
  </g>
 </defs>
 <defs
   id="defs46"
   class="TextEmbeddedBitmaps" />
 <g
   transform="translate(-10093,-14427)"
   id="g51">
  <g
   class="Master_Slide"
   id="id2">
   <g
   class="Background"
   id="bg-id2" />
   <g
   class="BackgroundObjects"
   id="bo-id2" />
  </g>
 </g>
 <g
   transform="translate(-10093,-14427)"
   id="g424"
   class="SlideGroup">
  <g
   id="g422">
   <g
   id="container-id1">
    <g
   clip-path="url(#presentation_clip_path)"
   class="Slide"
   id="id1">
     <g
   id="g418"
   class="Page">
      <g
   id="g416"
   class="Graphic">
       <g
   id="id3">
        <rect
   style="fill:none;stroke:none"
   id="rect53"
   height="845"
   width="814"
   y="14427"
   x="10093"
   class="BoundingBox" />
        <path
   style="fill:none;stroke:#70c6d8"
   id="path55"
   d="m 10124,15250 v -802 h 761 v 802 z" />
        <path
   style="fill:none;stroke:#70c6d8;stroke-width:31;stroke-linecap:round;stroke-linejoin:round"
   id="path57"
   d="m 10124,15250 v -802 h 761 v 802 z" />
        <path
   style="fill:#70c6d8;stroke:none"
   id="path59"
   d="m 10124,15250 v -802 l 761,802 z" />
        <path
   style="fill:#70c6d8;stroke:none"
   id="path61"
   d="m 10124,14448 761,802 v -802 z" />
        <path
   style="fill:#ffffff;stroke:none"
   id="path63"
   d="m 10155,14479 32,42 666,-42 z" />
        <path
   style="fill:#ffffff;stroke:none"
   id="path65"
   d="m 10187,14521 666,-42 -41,42 z" />
        <path
   style="fill:#ffffff;stroke:none"
   id="path67"
   d="m 10853,14479 -41,42 41,698 z" />
        <path
   style="fill:#ffffff;stroke:none"
   id="path69"
   d="m 10812,14521 41,698 -41,-42 z" />
        <path
   style="fill:#ffffff;stroke:none"
   id="path71"
   d="m 10853,15219 -41,-42 -657,42 z" />
        <path
   style="fill:#ffffff;stroke:none"
   id="path73"
   d="m 10812,15177 -657,42 32,-42 z" />
        <path
   style="fill:#ffffff;stroke:none"
   id="path75"
   d="m 10155,15219 32,-42 -32,-698 z" />
        <path
   style="fill:#ffffff;stroke:none"
   id="path77"
   d="m 10187,15177 -32,-698 32,42 z" />
        <path
   style="fill:#ffffff;stroke:none"
   id="path79"
   d="m 10239,14959 -11,41 32,-31 z" />
        <path
   style="fill:#ffffff;stroke:none"
   id="path81"
   d="m 10228,15000 32,-31 -11,31 z" />
        <path
   style="fill:#ffffff;stroke:none"
   id="path83"
   d="m 10249,15000 11,-31 10,42 z" />
        <path
   style="fill:#ffffff;stroke:none"
   id="path85"
   d="m 10260,14969 10,42 v -42 z" />
        <path
   style="fill:#ffffff;stroke:none"
   id="path87"
   d="m 10270,15011 v -42 l 31,31 z" />
        <path
   style="fill:#ffffff;stroke:none"
   id="path89"
   d="m 10270,14969 31,31 -10,-31 z" />
        <path
   style="fill:#ffffff;stroke:none"
   id="path91"
   d="m 10301,15000 -10,-31 42,21 z" />
        <path
   style="fill:#ffffff;stroke:none"
   id="path93"
   d="m 10291,14969 42,21 -32,-31 z" />
        <path
   style="fill:#ffffff;stroke:none"
   id="path95"
   d="m 10333,14990 -32,-31 42,10 z" />
        <path
   style="fill:#ffffff;stroke:none"
   id="path97"
   d="m 10301,14959 42,10 -31,-21 z" />
        <path
   style="fill:#ffffff;stroke:none"
   id="path99"
   d="m 10458,14948 -32,21 11,-42 z" />
        <path
   style="fill:#ffffff;stroke:none"
   id="path101"
   d="m 10426,14969 11,-42 -21,32 z" />
        <path
   style="fill:#ffffff;stroke:none"
   id="path103"
   d="m 10437,14927 -21,32 -10,-42 z" />
        <path
   style="fill:#ffffff;stroke:none"
   id="path105"
   d="m 10416,14959 -10,-42 -11,31 z" />
        <path
   style="fill:#ffffff;stroke:none"
   id="path107"
   d="m 10406,14917 -11,31 -10,-31 z" />
        <path
   style="fill:#ffffff;stroke:none"
   id="path109"
   d="m 10395,14948 -10,-31 v 31 z" />
        <path
   style="fill:#ffffff;stroke:none"
   id="path111"
   d="m 10385,14917 v 31 l -32,-31 z" />
        <path
   style="fill:#ffffff;stroke:none"
   id="path113"
   d="m 10385,14948 -32,-31 21,31 z" />
        <path
   style="fill:#ffffff;stroke:none"
   id="path115"
   d="m 10353,14917 21,31 -41,-21 z" />
        <path
   style="fill:#ffffff;stroke:none"
   id="path117"
   d="m 10374,14948 -41,-21 20,32 z" />
        <path
   style="fill:#ffffff;stroke:none"
   id="path119"
   d="m 10333,14927 20,32 -41,-11 z" />
        <path
   style="fill:#ffffff;stroke:none"
   id="path121"
   d="m 10353,14959 -41,-11 31,21 z" />
        <path
   style="fill:#ffffff;stroke:none"
   id="path123"
   d="m 10426,14969 32,-21 -11,42 z" />
        <path
   style="fill:#ffffff;stroke:none"
   id="path125"
   d="m 10458,14948 -11,42 21,-31 z" />
        <path
   style="fill:#ffffff;stroke:none"
   id="path127"
   d="m 10447,14990 21,-31 v 52 z" />
        <path
   style="fill:#ffffff;stroke:none"
   id="path129"
   d="m 10468,14959 v 52 l 10,-42 z" />
        <path
   style="fill:#ffffff;stroke:none"
   id="path131"
   d="m 10468,15011 10,-42 21,42 z" />
        <path
   style="fill:#ffffff;stroke:none"
   id="path133"
   d="m 10478,14969 21,42 v -32 z" />
        <path
   style="fill:#ffffff;stroke:none"
   id="path135"
   d="m 10770,15000 -10,-41 v 41 z" />
        <path
   style="fill:#ffffff;stroke:none"
   id="path137"
   d="m 10760,14959 v 41 l -21,-31 z" />
        <path
   style="fill:#ffffff;stroke:none"
   id="path139"
   d="m 10656,14969 31,-21 -11,42 z" />
        <path
   style="fill:#ffffff;stroke:none"
   id="path141"
   d="m 10687,14948 -11,42 21,-31 z" />
        <path
   style="fill:#ffffff;stroke:none"
   id="path143"
   d="m 10676,14990 21,-31 v 41 z" />
        <path
   style="fill:#ffffff;stroke:none"
   id="path145"
   d="m 10697,14959 v 41 l 11,-31 z" />
        <path
   style="fill:#ffffff;stroke:none"
   id="path147"
   d="m 10697,15000 11,-31 20,42 z" />
        <path
   style="fill:#ffffff;stroke:none"
   id="path149"
   d="m 10708,14969 20,42 v -42 z" />
        <path
   style="fill:#ffffff;stroke:none"
   id="path151"
   d="m 10728,15011 v -42 l 32,31 z" />
        <path
   style="fill:#ffffff;stroke:none"
   id="path153"
   d="m 10728,14969 32,31 -21,-31 z" />
        <path
   style="fill:#ffffff;stroke:none"
   id="path155"
   d="m 10687,14948 -31,21 10,-42 z" />
        <path
   style="fill:#ffffff;stroke:none"
   id="path157"
   d="m 10656,14969 10,-42 -21,32 z" />
        <path
   style="fill:#ffffff;stroke:none"
   id="path159"
   d="m 10666,14927 -21,32 v -42 z" />
        <path
   style="fill:#ffffff;stroke:none"
   id="path161"
   d="m 10645,14959 v -42 l -10,31 z" />
        <path
   style="fill:#ffffff;stroke:none"
   id="path163"
   d="m 10645,14917 -10,31 -11,-31 z" />
        <path
   style="fill:#ffffff;stroke:none"
   id="path165"
   d="m 10635,14948 -11,-31 v 31 z" />
        <path
   style="fill:#ffffff;stroke:none"
   id="path167"
   d="m 10624,14917 v 31 l -31,-31 z" />
        <path
   style="fill:#ffffff;stroke:none"
   id="path169"
   d="m 10624,14948 -31,-31 10,31 z" />
        <path
   style="fill:#ffffff;stroke:none"
   id="path171"
   d="m 10593,14917 10,31 -31,-21 z" />
        <path
   style="fill:#ffffff;stroke:none"
   id="path173"
   d="m 10603,14948 -31,-21 21,32 z" />
        <path
   style="fill:#ffffff;stroke:none"
   id="path175"
   d="m 10572,14927 21,32 -42,-11 z" />
        <path
   style="fill:#ffffff;stroke:none"
   id="path177"
   d="m 10593,14959 -42,-11 32,21 z" />
        <path
   style="fill:#ffffff;stroke:none"
   id="path179"
   d="m 10499,15011 v -32 l 32,32 z" />
        <path
   style="fill:#ffffff;stroke:none"
   id="path181"
   d="m 10499,14979 32,32 -11,-42 z" />
        <path
   style="fill:#ffffff;stroke:none"
   id="path183"
   d="m 10531,15011 -11,-42 42,21 z" />
        <path
   style="fill:#ffffff;stroke:none"
   id="path185"
   d="m 10520,14969 42,21 -21,-31 z" />
        <path
   style="fill:#ffffff;stroke:none"
   id="path187"
   d="m 10562,14990 -21,-31 42,10 z" />
        <path
   style="fill:#ffffff;stroke:none"
   id="path189"
   d="m 10541,14959 42,10 -32,-21 z" />
        <path
   style="fill:#ffffff;stroke:none"
   id="path191"
   d="m 10770,15094 -10,-42 v 42 z" />
        <path
   style="fill:#ffffff;stroke:none"
   id="path193"
   d="m 10760,15052 v 42 l -21,-31 z" />
        <path
   style="fill:#ffffff;stroke:none"
   id="path195"
   d="m 10656,15063 31,-21 -11,42 z" />
        <path
   style="fill:#ffffff;stroke:none"
   id="path197"
   d="m 10687,15042 -11,42 21,-32 z" />
        <path
   style="fill:#ffffff;stroke:none"
   id="path199"
   d="m 10676,15084 21,-32 v 42 z" />
        <path
   style="fill:#ffffff;stroke:none"
   id="path201"
   d="m 10697,15052 v 42 l 11,-31 z" />
        <path
   style="fill:#ffffff;stroke:none"
   id="path203"
   d="m 10697,15094 11,-31 20,41 z" />
        <path
   style="fill:#ffffff;stroke:none"
   id="path205"
   d="m 10708,15063 20,41 v -41 z" />
        <path
   style="fill:#ffffff;stroke:none"
   id="path207"
   d="m 10728,15104 v -41 l 32,31 z" />
        <path
   style="fill:#ffffff;stroke:none"
   id="path209"
   d="m 10728,15063 32,31 -21,-31 z" />
        <path
   style="fill:#ffffff;stroke:none"
   id="path211"
   d="m 10687,15042 -31,21 10,-42 z" />
        <path
   style="fill:#ffffff;stroke:none"
   id="path213"
   d="m 10656,15063 10,-42 -21,31 z" />
        <path
   style="fill:#ffffff;stroke:none"
   id="path215"
   d="m 10666,15021 -21,31 v -41 z" />
        <path
   style="fill:#ffffff;stroke:none"
   id="path217"
   d="m 10645,15052 v -41 l -10,41 z" />
        <path
   style="fill:#ffffff;stroke:none"
   id="path219"
   d="m 10645,15011 -10,41 -11,-52 z" />
        <path
   style="fill:#ffffff;stroke:none"
   id="path221"
   d="m 10635,15052 -11,-52 v 42 z" />
        <path
   style="fill:#ffffff;stroke:none"
   id="path223"
   d="m 10624,15000 v 42 l -31,-31 z" />
        <path
   style="fill:#ffffff;stroke:none"
   id="path225"
   d="m 10624,15042 -31,-31 10,41 z" />
        <path
   style="fill:#ffffff;stroke:none"
   id="path227"
   d="m 10593,15011 10,41 -31,-31 z" />
        <path
   style="fill:#ffffff;stroke:none"
   id="path229"
   d="m 10603,15052 -31,-31 21,31 z" />
        <path
   style="fill:#ffffff;stroke:none"
   id="path231"
   d="m 10572,15021 21,31 -42,-10 z" />
        <path
   style="fill:#ffffff;stroke:none"
   id="path233"
   d="m 10593,15052 -42,-10 32,21 z" />
        <path
   style="fill:#ffffff;stroke:none"
   id="path235"
   d="m 10499,15104 v -41 l 32,41 z" />
        <path
   style="fill:#ffffff;stroke:none"
   id="path237"
   d="m 10499,15063 32,41 -11,-41 z" />
        <path
   style="fill:#ffffff;stroke:none"
   id="path239"
   d="m 10531,15104 -11,-41 42,21 z" />
        <path
   style="fill:#ffffff;stroke:none"
   id="path241"
   d="m 10520,15063 42,21 -21,-21 z" />
        <path
   style="fill:#ffffff;stroke:none"
   id="path243"
   d="m 10562,15084 -21,-21 h 42 z" />
        <path
   style="fill:#ffffff;stroke:none"
   id="path245"
   d="m 10541,15063 h 42 l -32,-21 z" />
        <path
   style="fill:#ffffff;stroke:none"
   id="path247"
   d="m 10239,15052 -11,42 32,-31 z" />
        <path
   style="fill:#ffffff;stroke:none"
   id="path249"
   d="m 10228,15094 32,-31 -11,31 z" />
        <path
   style="fill:#ffffff;stroke:none"
   id="path251"
   d="m 10249,15094 11,-31 10,41 z" />
        <path
   style="fill:#ffffff;stroke:none"
   id="path253"
   d="m 10260,15063 10,41 v -41 z" />
        <path
   style="fill:#ffffff;stroke:none"
   id="path255"
   d="m 10270,15104 v -41 l 31,31 z" />
        <path
   style="fill:#ffffff;stroke:none"
   id="path257"
   d="m 10270,15063 31,31 -10,-31 z" />
        <path
   style="fill:#ffffff;stroke:none"
   id="path259"
   d="m 10301,15094 -10,-31 42,21 z" />
        <path
   style="fill:#ffffff;stroke:none"
   id="path261"
   d="m 10291,15063 42,21 -32,-32 z" />
        <path
   style="fill:#ffffff;stroke:none"
   id="path263"
   d="m 10333,15084 -32,-32 42,11 z" />
        <path
   style="fill:#ffffff;stroke:none"
   id="path265"
   d="m 10301,15052 42,11 -31,-21 z" />
        <path
   style="fill:#ffffff;stroke:none"
   id="path267"
   d="m 10458,15042 -32,21 11,-42 z" />
        <path
   style="fill:#ffffff;stroke:none"
   id="path269"
   d="m 10426,15063 11,-42 -21,31 z" />
        <path
   style="fill:#ffffff;stroke:none"
   id="path271"
   d="m 10437,15021 -21,31 -10,-41 z" />
        <path
   style="fill:#ffffff;stroke:none"
   id="path273"
   d="m 10416,15052 -10,-41 -11,41 z" />
        <path
   style="fill:#ffffff;stroke:none"
   id="path275"
   d="m 10406,15011 -11,41 -10,-52 z" />
        <path
   style="fill:#ffffff;stroke:none"
   id="path277"
   d="m 10395,15052 -10,-52 v 42 z" />
        <path
   style="fill:#ffffff;stroke:none"
   id="path279"
   d="m 10385,15000 v 42 l -32,-31 z" />
        <path
   style="fill:#ffffff;stroke:none"
   id="path281"
   d="m 10385,15042 -32,-31 21,41 z" />
        <path
   style="fill:#ffffff;stroke:none"
   id="path283"
   d="m 10353,15011 21,41 -41,-31 z" />
        <path
   style="fill:#ffffff;stroke:none"
   id="path285"
   d="m 10374,15052 -41,-31 20,31 z" />
        <path
   style="fill:#ffffff;stroke:none"
   id="path287"
   d="m 10333,15021 20,31 -41,-10 z" />
        <path
   style="fill:#ffffff;stroke:none"
   id="path289"
   d="m 10353,15052 -41,-10 31,21 z" />
        <path
   style="fill:#ffffff;stroke:none"
   id="path291"
   d="m 10426,15063 32,-21 -11,42 z" />
        <path
   style="fill:#ffffff;stroke:none"
   id="path293"
   d="m 10458,15042 -11,42 21,-21 z" />
        <path
   style="fill:#ffffff;stroke:none"
   id="path295"
   d="m 10447,15084 21,-21 v 41 z" />
        <path
   style="fill:#ffffff;stroke:none"
   id="path297"
   d="m 10468,15063 v 41 l 10,-41 z" />
        <path
   style="fill:#ffffff;stroke:none"
   id="path299"
   d="m 10468,15104 10,-41 21,41 z" />
        <path
   style="fill:#ffffff;stroke:none"
   id="path301"
   d="m 10478,15063 21,41 v -41 z" />
        <path
   style="fill:#ffffff;stroke:none"
   id="path303"
   d="m 10770,14906 -10,-41 v 41 z" />
        <path
   style="fill:#ffffff;stroke:none"
   id="path305"
   d="m 10760,14865 v 41 l -21,-31 z" />
        <path
   style="fill:#ffffff;stroke:none"
   id="path307"
   d="m 10656,14875 31,-21 -11,42 z" />
        <path
   style="fill:#ffffff;stroke:none"
   id="path309"
   d="m 10687,14854 -11,42 21,-31 z" />
        <path
   style="fill:#ffffff;stroke:none"
   id="path311"
   d="m 10676,14896 21,-31 v 41 z" />
        <path
   style="fill:#ffffff;stroke:none"
   id="path313"
   d="m 10697,14865 v 41 l 11,-31 z" />
        <path
   style="fill:#ffffff;stroke:none"
   id="path315"
   d="m 10697,14906 11,-31 20,42 z" />
        <path
   style="fill:#ffffff;stroke:none"
   id="path317"
   d="m 10708,14875 20,42 v -42 z" />
        <path
   style="fill:#ffffff;stroke:none"
   id="path319"
   d="m 10728,14917 v -42 l 32,31 z" />
        <path
   style="fill:#ffffff;stroke:none"
   id="path321"
   d="m 10728,14875 32,31 -21,-31 z" />
        <path
   style="fill:#ffffff;stroke:none"
   id="path323"
   d="m 10687,14854 -31,21 10,-41 z" />
        <path
   style="fill:#ffffff;stroke:none"
   id="path325"
   d="m 10656,14875 10,-41 -21,31 z" />
        <path
   style="fill:#ffffff;stroke:none"
   id="path327"
   d="m 10666,14834 -21,31 v -42 z" />
        <path
   style="fill:#ffffff;stroke:none"
   id="path329"
   d="m 10645,14865 v -42 l -10,42 z" />
        <path
   style="fill:#ffffff;stroke:none"
   id="path331"
   d="m 10645,14823 -10,42 -11,-42 z" />
        <path
   style="fill:#ffffff;stroke:none"
   id="path333"
   d="m 10635,14865 -11,-42 v 31 z" />
        <path
   style="fill:#ffffff;stroke:none"
   id="path335"
   d="m 10624,14823 v 31 l -31,-31 z" />
        <path
   style="fill:#ffffff;stroke:none"
   id="path337"
   d="m 10624,14854 -31,-31 10,42 z" />
        <path
   style="fill:#ffffff;stroke:none"
   id="path339"
   d="m 10593,14823 10,42 -31,-31 z" />
        <path
   style="fill:#ffffff;stroke:none"
   id="path341"
   d="m 10603,14865 -31,-31 21,31 z" />
        <path
   style="fill:#ffffff;stroke:none"
   id="path343"
   d="m 10572,14834 21,31 -42,-11 z" />
        <path
   style="fill:#ffffff;stroke:none"
   id="path345"
   d="m 10593,14865 -42,-11 32,21 z" />
        <path
   style="fill:#ffffff;stroke:none"
   id="path347"
   d="m 10499,14917 v -31 l 32,31 z" />
        <path
   style="fill:#ffffff;stroke:none"
   id="path349"
   d="m 10499,14886 32,31 -11,-42 z" />
        <path
   style="fill:#ffffff;stroke:none"
   id="path351"
   d="m 10531,14917 -11,-42 42,21 z" />
        <path
   style="fill:#ffffff;stroke:none"
   id="path353"
   d="m 10520,14875 42,21 -21,-21 z" />
        <path
   style="fill:#ffffff;stroke:none"
   id="path355"
   d="m 10562,14896 -21,-21 h 42 z" />
        <path
   style="fill:#ffffff;stroke:none"
   id="path357"
   d="m 10541,14875 h 42 l -32,-21 z" />
        <path
   style="fill:#ffffff;stroke:none"
   id="path359"
   d="m 10239,14865 -11,41 32,-31 z" />
        <path
   style="fill:#ffffff;stroke:none"
   id="path361"
   d="m 10228,14906 32,-31 -11,31 z" />
        <path
   style="fill:#ffffff;stroke:none"
   id="path363"
   d="m 10249,14906 11,-31 10,42 z" />
        <path
   style="fill:#ffffff;stroke:none"
   id="path365"
   d="m 10260,14875 10,42 v -42 z" />
        <path
   style="fill:#ffffff;stroke:none"
   id="path367"
   d="m 10270,14917 v -42 l 31,31 z" />
        <path
   style="fill:#ffffff;stroke:none"
   id="path369"
   d="m 10270,14875 31,31 -10,-31 z" />
        <path
   style="fill:#ffffff;stroke:none"
   id="path371"
   d="m 10301,14906 -10,-31 42,21 z" />
        <path
   style="fill:#ffffff;stroke:none"
   id="path373"
   d="m 10291,14875 42,21 -32,-31 z" />
        <path
   style="fill:#ffffff;stroke:none"
   id="path375"
   d="m 10333,14896 -32,-31 42,10 z" />
        <path
   style="fill:#ffffff;stroke:none"
   id="path377"
   d="m 10301,14865 42,10 -31,-21 z" />
        <path
   style="fill:#ffffff;stroke:none"
   id="path379"
   d="m 10458,14854 -32,21 11,-41 z" />
        <path
   style="fill:#ffffff;stroke:none"
   id="path381"
   d="m 10426,14875 11,-41 -21,31 z" />
        <path
   style="fill:#ffffff;stroke:none"
   id="path383"
   d="m 10437,14834 -21,31 -10,-42 z" />
        <path
   style="fill:#ffffff;stroke:none"
   id="path385"
   d="m 10416,14865 -10,-42 -11,42 z" />
        <path
   style="fill:#ffffff;stroke:none"
   id="path387"
   d="m 10406,14823 -11,42 -10,-42 z" />
        <path
   style="fill:#ffffff;stroke:none"
   id="path389"
   d="m 10395,14865 -10,-42 v 31 z" />
        <path
   style="fill:#ffffff;stroke:none"
   id="path391"
   d="m 10385,14823 v 31 l -32,-31 z" />
        <path
   style="fill:#ffffff;stroke:none"
   id="path393"
   d="m 10385,14854 -32,-31 21,42 z" />
        <path
   style="fill:#ffffff;stroke:none"
   id="path395"
   d="m 10353,14823 21,42 -41,-31 z" />
        <path
   style="fill:#ffffff;stroke:none"
   id="path397"
   d="m 10374,14865 -41,-31 20,31 z" />
        <path
   style="fill:#ffffff;stroke:none"
   id="path399"
   d="m 10333,14834 20,31 -41,-11 z" />
        <path
   style="fill:#ffffff;stroke:none"
   id="path401"
   d="m 10353,14865 -41,-11 31,21 z" />
        <path
   style="fill:#ffffff;stroke:none"
   id="path403"
   d="m 10426,14875 32,-21 -11,42 z" />
        <path
   style="fill:#ffffff;stroke:none"
   id="path405"
   d="m 10458,14854 -11,42 21,-21 z" />
        <path
   style="fill:#ffffff;stroke:none"
   id="path407"
   d="m 10447,14896 21,-21 v 42 z" />
        <path
   style="fill:#ffffff;stroke:none"
   id="path409"
   d="m 10468,14875 v 42 l 10,-42 z" />
        <path
   style="fill:#ffffff;stroke:none"
   id="path411"
   d="m 10468,14917 10,-42 21,42 z" />
        <path
   style="fill:#ffffff;stroke:none"
   id="path413"
   d="m 10478,14875 21,42 v -31 z" />
       </g>
      </g>
     </g>
    </g>
   </g>
  </g>
 </g>
</svg>