<?xml version="1.0" encoding="UTF-8" standalone="no"?>
<svg viewBox="0.015625 -1.35938 1.35938 1.35938"
 xmlns="http://www.w3.org/2000/svg" xmlns:xlink="http://www.w3.org/1999/xlink"  version="1.2" baseProfile="tiny">
<title>Qt SVG Document</title>
<desc>Generated with Qt</desc>
<defs>
</defs>
<g fill="none" stroke="black" stroke-width="1" fill-rule="evenodd" stroke-linecap="square" stroke-linejoin="bevel" >

<g fill="#343434" fill-opacity="1" stroke="none" transform="matrix(1,0,0,1,0,0)"
font-family="ESRI Default Marker" font-size="1.5" font-weight="400" font-style="normal" 
>
<path vector-effect="none" fill-rule="nonzero" d="M1.375,-0.671875 C1.375,-0.578125 1.35677,-0.492188 1.32031,-0.414063 C1.28385,-0.335938 1.23438,-0.265625 1.17188,-0.203125 C1.10938,-0.140625 1.03906,-0.0911458 0.960938,-0.0546875 C0.882813,-0.0182292 0.796875,0 0.703125,0 C0.609375,0 0.520833,-0.0182292 0.4375,-0.0546875 C0.354167,-0.0911458 0.28125,-0.140625 0.21875,-0.203125 C0.15625,-0.265625 0.106771,-0.335938 0.0703125,-0.414063 C0.0338542,-0.492188 0.015625,-0.578125 0.015625,-0.671875 C0.015625,-0.765625 0.0338542,-0.854167 0.0703125,-0.9375 C0.106771,-1.02083 0.15625,-1.09375 0.21875,-1.15625 C0.28125,-1.21875 0.354167,-1.26823 0.4375,-1.30469 C0.520833,-1.34115 0.609375,-1.35938 0.703125,-1.35938 C0.796875,-1.35938 0.882813,-1.34115 0.960938,-1.30469 C1.03906,-1.26823 1.10938,-1.21875 1.17188,-1.15625 C1.23438,-1.09375 1.28385,-1.02083 1.32031,-0.9375 C1.35677,-0.854167 1.375,-0.765625 1.375,-0.671875 "/>
</g>
</g>
</svg>
