<?xml version="1.0" encoding="UTF-8" standalone="no"?>
<svg viewBox="0.09375 -6.79688 6.79688 6.79688"
 xmlns="http://www.w3.org/2000/svg" xmlns:xlink="http://www.w3.org/1999/xlink"  version="1.2" baseProfile="tiny">
<title>Qt SVG Document</title>
<desc>Generated with Qt</desc>
<defs>
</defs>
<g fill="none" stroke="black" stroke-width="1" fill-rule="evenodd" stroke-linecap="square" stroke-linejoin="bevel" >

<g fill="#004da8" fill-opacity="1" stroke="none" transform="matrix(1,0,0,1,0,0)"
font-family="ESRI Default Marker" font-size="7" font-weight="400" font-style="normal" 
>
<path vector-effect="none" fill-rule="nonzero" d="M6.89063,-3.39063 C6.89063,-2.92188 6.80208,-2.48177 6.625,-2.07031 C6.44792,-1.65885 6.20313,-1.29948 5.89063,-0.992188 C5.57813,-0.684896 5.21615,-0.442708 4.80469,-0.265625 C4.39323,-0.0885417 3.95313,0 3.48438,0 C3.01563,0 2.57552,-0.0885417 2.16406,-0.265625 C1.7526,-0.442708 1.39323,-0.684896 1.08594,-0.992188 C0.778646,-1.29948 0.536458,-1.65885 0.359375,-2.07031 C0.182292,-2.48177 0.09375,-2.92188 0.09375,-3.39063 C0.09375,-3.85938 0.182292,-4.30208 0.359375,-4.71875 C0.536458,-5.13542 0.778646,-5.4974 1.08594,-5.80469 C1.39323,-6.11198 1.7526,-6.35417 2.16406,-6.53125 C2.57552,-6.70833 3.01563,-6.79688 3.48438,-6.79688 C3.95313,-6.79688 4.39323,-6.70833 4.80469,-6.53125 C5.21615,-6.35417 5.57813,-6.11198 5.89063,-5.80469 C6.20313,-5.4974 6.44792,-5.13542 6.625,-4.71875 C6.80208,-4.30208 6.89063,-3.85938 6.89063,-3.39063 "/>
</g>
</g>
</svg>
