<?xml version="1.0" encoding="UTF-8" standalone="no"?>
<svg viewBox="0 -7 7 7"
 xmlns="http://www.w3.org/2000/svg" xmlns:xlink="http://www.w3.org/1999/xlink"  version="1.2" baseProfile="tiny">
<title>Qt SVG Document</title>
<desc>Generated with Qt</desc>
<defs>
</defs>
<g fill="none" stroke="black" stroke-width="1" fill-rule="evenodd" stroke-linecap="square" stroke-linejoin="bevel" >

<g fill="#00a9e6" fill-opacity="1" stroke="none" transform="matrix(1,0,0,1,0,0)"
font-family="ESRI Default Marker" font-size="7" font-weight="400" font-style="normal" 
>
<path vector-effect="none" fill-rule="nonzero" d="M7,-3.5 C7,-3.02083 6.90885,-2.56771 6.72656,-2.14063 C6.54427,-1.71354 6.29427,-1.34115 5.97656,-1.02344 C5.65885,-0.705729 5.28646,-0.455729 4.85938,-0.273438 C4.43229,-0.0911458 3.97917,0 3.5,0 C3.02083,0 2.56771,-0.0911458 2.14063,-0.273438 C1.71354,-0.455729 1.34115,-0.705729 1.02344,-1.02344 C0.705729,-1.34115 0.455729,-1.71354 0.273438,-2.14063 C0.0911458,-2.56771 0,-3.02083 0,-3.5 C0,-3.97917 0.0911458,-4.43229 0.273438,-4.85938 C0.455729,-5.28646 0.705729,-5.65885 1.02344,-5.97656 C1.34115,-6.29427 1.71354,-6.54427 2.14063,-6.72656 C2.56771,-6.90885 3.02083,-7 3.5,-7 C3.97917,-7 4.43229,-6.90885 4.85938,-6.72656 C5.28646,-6.54427 5.65885,-6.29427 5.97656,-5.97656 C6.29427,-5.65885 6.54427,-5.28646 6.72656,-4.85938 C6.90885,-4.43229 7,-3.97917 7,-3.5 M6.79688,-3.5 C6.79688,-3.94792 6.71094,-4.3724 6.53906,-4.77344 C6.36719,-5.17448 6.13021,-5.52604 5.82813,-5.82813 C5.52604,-6.13021 5.17448,-6.36719 4.77344,-6.53906 C4.3724,-6.71094 3.94792,-6.79688 3.5,-6.79688 C3.04167,-6.79688 2.61458,-6.71094 2.21875,-6.53906 C1.82292,-6.36719 1.47396,-6.13021 1.17188,-5.82813 C0.869792,-5.52604 0.632813,-5.17448 0.460938,-4.77344 C0.289063,-4.3724 0.203125,-3.94792 0.203125,-3.5 C0.203125,-3.04167 0.289063,-2.61458 0.460938,-2.21875 C0.632813,-1.82292 0.869792,-1.47396 1.17188,-1.17188 C1.47396,-0.869792 1.82292,-0.632813 2.21875,-0.460938 C2.61458,-0.289063 3.04167,-0.203125 3.5,-0.203125 C3.94792,-0.203125 4.3724,-0.289063 4.77344,-0.460938 C5.17448,-0.632813 5.52604,-0.869792 5.82813,-1.17188 C6.13021,-1.47396 6.36719,-1.82292 6.53906,-2.21875 C6.71094,-2.61458 6.79688,-3.04167 6.79688,-3.5 "/>
</g>
</g>
</svg>
