<?xml version="1.0" encoding="UTF-8" standalone="no"?>
<svg viewBox="0.046875 -3.40625 3.40625 3.40625"
 xmlns="http://www.w3.org/2000/svg" xmlns:xlink="http://www.w3.org/1999/xlink"  version="1.2" baseProfile="tiny">
<title>Qt SVG Document</title>
<desc>Generated with Qt</desc>
<defs>
</defs>
<g fill="none" stroke="black" stroke-width="1" fill-rule="evenodd" stroke-linecap="square" stroke-linejoin="bevel" >

<g fill="#000000" fill-opacity="1" stroke="none" transform="matrix(1,0,0,1,0,0)"
font-family="ESRI Default Marker" font-size="4" font-weight="400" font-style="normal" 
>
<path vector-effect="none" fill-rule="nonzero" d="M3.45313,-1.70313 C3.45313,-1.46354 3.40885,-1.24219 3.32031,-1.03906 C3.23177,-0.835938 3.10938,-0.65625 2.95313,-0.5 C2.79688,-0.34375 2.61458,-0.221354 2.40625,-0.132813 C2.19792,-0.0442708 1.97917,0 1.75,0 C1.51042,0 1.28906,-0.0442708 1.08594,-0.132813 C0.882813,-0.221354 0.703125,-0.34375 0.546875,-0.5 C0.390625,-0.65625 0.268229,-0.835938 0.179688,-1.03906 C0.0911458,-1.24219 0.046875,-1.46354 0.046875,-1.70313 C0.046875,-1.93229 0.0911458,-2.15104 0.179688,-2.35938 C0.268229,-2.56771 0.390625,-2.75 0.546875,-2.90625 C0.703125,-3.0625 0.882813,-3.1849 1.08594,-3.27344 C1.28906,-3.36198 1.51042,-3.40625 1.75,-3.40625 C1.97917,-3.40625 2.19792,-3.36198 2.40625,-3.27344 C2.61458,-3.1849 2.79688,-3.0625 2.95313,-2.90625 C3.10938,-2.75 3.23177,-2.56771 3.32031,-2.35938 C3.40885,-2.15104 3.45313,-1.93229 3.45313,-1.70313 "/>
</g>
</g>
</svg>
