<?xml version="1.0" encoding="UTF-8" standalone="no"?>
<svg viewBox="0 -5 5 5"
 xmlns="http://www.w3.org/2000/svg" xmlns:xlink="http://www.w3.org/1999/xlink"  version="1.2" baseProfile="tiny">
<title>Qt SVG Document</title>
<desc>Generated with Qt</desc>
<defs>
</defs>
<g fill="none" stroke="black" stroke-width="1" fill-rule="evenodd" stroke-linecap="square" stroke-linejoin="bevel" >

<g fill="#267300" fill-opacity="1" stroke="none" transform="matrix(1,0,0,1,0,0)"
font-family="ESRI Enviro Hazard Analysis" font-size="4" font-weight="400" font-style="normal" 
>
<path vector-effect="none" fill-rule="nonzero" d="M0.671875,-2.32813 C0.536458,-2.24479 0.421875,-2.125 0.328125,-1.96875 C0.244792,-1.8125 0.203125,-1.65625 0.203125,-1.5 C0.203125,-1.29167 0.28125,-1.125 0.4375,-1 C0.59375,-0.854167 0.786458,-0.78125 1.01563,-0.78125 C1.11979,-0.78125 1.22917,-0.833333 1.34375,-0.9375 C1.39583,-0.979167 1.44531,-1.02083 1.49219,-1.0625 C1.53906,-1.10417 1.58854,-1.14583 1.64063,-1.1875 C1.66146,-1.19792 1.6875,-1.20313 1.71875,-1.20313 C1.77083,-1.20313 1.79688,-1.16667 1.79688,-1.09375 C1.79688,-0.864583 1.85938,-0.666667 1.98438,-0.5 C2.11979,-0.302083 2.28646,-0.203125 2.48438,-0.203125 C2.64063,-0.203125 2.83333,-0.276042 3.0625,-0.421875 C3.29167,-0.578125 3.40625,-0.71875 3.40625,-0.84375 C3.40625,-0.916667 3.43229,-0.953125 3.48438,-0.953125 C3.51563,-0.953125 3.54688,-0.942708 3.57813,-0.921875 C3.77604,-0.765625 3.95833,-0.6875 4.125,-0.6875 C4.32292,-0.6875 4.48438,-0.776042 4.60938,-0.953125 C4.73438,-1.10938 4.79688,-1.30729 4.79688,-1.54688 C4.79688,-1.74479 4.76042,-1.89844 4.6875,-2.00781 C4.61458,-2.11719 4.47917,-2.19792 4.28125,-2.25 C4.21875,-2.26042 4.1875,-2.29167 4.1875,-2.34375 C4.1875,-2.375 4.20833,-2.40625 4.25,-2.4375 C4.61458,-2.66667 4.79688,-2.93229 4.79688,-3.23438 C4.79688,-3.30729 4.75,-3.41667 4.65625,-3.5625 C4.58333,-3.70833 4.5,-3.80208 4.40625,-3.84375 C4.3125,-3.89583 4.09896,-3.92188 3.76563,-3.92188 C3.69271,-3.92188 3.65625,-3.95833 3.65625,-4.03125 C3.65625,-4.22917 3.60417,-4.40625 3.5,-4.5625 C3.38542,-4.71875 3.24479,-4.79688 3.07813,-4.79688 C2.89063,-4.79688 2.72396,-4.72917 2.57813,-4.59375 C2.52604,-4.52083 2.46875,-4.45313 2.40625,-4.39063 C2.34375,-4.32813 2.28385,-4.26302 2.22656,-4.19531 C2.16927,-4.1276 2.11979,-4.09375 2.07813,-4.09375 C2.05729,-4.09375 1.98958,-4.15104 1.875,-4.26563 C1.76042,-4.38021 1.63542,-4.4375 1.5,-4.4375 C1.32292,-4.4375 1.19271,-4.35417 1.10938,-4.1875 C1.08854,-4.13542 1.05208,-3.97917 1,-3.71875 C0.96875,-3.55208 0.916667,-3.46875 0.84375,-3.46875 L0.578125,-3.48438 C0.432292,-3.48438 0.333333,-3.46875 0.28125,-3.4375 C0.229167,-3.40625 0.203125,-3.33854 0.203125,-3.23438 C0.203125,-3.13021 0.286458,-2.97917 0.453125,-2.78125 C0.619792,-2.58333 0.703125,-2.45833 0.703125,-2.40625 C0.703125,-2.375 0.692708,-2.34896 0.671875,-2.32813 M0,-3.23438 C0,-3.54688 0.0963542,-3.70313 0.289063,-3.70313 C0.481771,-3.70313 0.59375,-3.70052 0.625,-3.69531 C0.65625,-3.6901 0.708333,-3.68229 0.78125,-3.67188 L0.78125,-3.70313 C0.802083,-3.81771 0.84375,-3.99479 0.90625,-4.23438 C1.02083,-4.51563 1.21875,-4.65625 1.5,-4.65625 C1.72917,-4.65625 1.92708,-4.55208 2.09375,-4.34375 C2.19792,-4.46875 2.28385,-4.56771 2.35156,-4.64063 C2.41927,-4.71354 2.46875,-4.76563 2.5,-4.79688 C2.66667,-4.93229 2.85938,-5 3.07813,-5 C3.29688,-5 3.48438,-4.90625 3.64063,-4.71875 C3.76563,-4.55208 3.83854,-4.35417 3.85938,-4.125 L3.92188,-4.125 C4.19271,-4.125 4.38542,-4.09375 4.5,-4.03125 C4.625,-3.96875 4.73958,-3.84896 4.84375,-3.67188 C4.94792,-3.49479 5,-3.34896 5,-3.23438 C5,-2.91146 4.84375,-2.63021 4.53125,-2.39063 C4.84375,-2.23438 5,-1.95313 5,-1.54688 C5,-1.27604 4.93229,-1.03646 4.79688,-0.828125 C4.63021,-0.598958 4.40625,-0.484375 4.125,-0.484375 C3.9375,-0.484375 3.75521,-0.546875 3.57813,-0.671875 C3.48438,-0.494792 3.31771,-0.338542 3.07813,-0.203125 C2.84896,-0.0677083 2.65104,0 2.48438,0 C2.24479,0 2.04167,-0.09375 1.875,-0.28125 C1.72917,-0.447917 1.64063,-0.651042 1.60938,-0.890625 L1.59375,-0.875 C1.53125,-0.822917 1.47917,-0.778646 1.4375,-0.742188 C1.39583,-0.705729 1.36458,-0.682292 1.34375,-0.671875 C1.25,-0.609375 1.14063,-0.578125 1.01563,-0.578125 C0.723958,-0.578125 0.481771,-0.664063 0.289063,-0.835938 C0.0963542,-1.00781 0,-1.22917 0,-1.5 C0,-1.66667 0.0416667,-1.83333 0.125,-2 C0.208333,-2.16667 0.3125,-2.3125 0.4375,-2.4375 C0.395833,-2.48958 0.351563,-2.54688 0.304688,-2.60938 C0.257813,-2.67188 0.213542,-2.73438 0.171875,-2.79688 C0.0572917,-2.96354 0,-3.10938 0,-3.23438 "/>
</g>
</g>
</svg>
