<?xml version="1.0" encoding="UTF-8" standalone="no"?>
<svg viewBox="0 -14.7031 14.7031 14.7031"
 xmlns="http://www.w3.org/2000/svg" xmlns:xlink="http://www.w3.org/1999/xlink"  version="1.2" baseProfile="tiny">
<title>Qt SVG Document</title>
<desc>Generated with Qt</desc>
<defs>
</defs>
<g fill="none" stroke="black" stroke-width="1" fill-rule="evenodd" stroke-linecap="square" stroke-linejoin="bevel" >

<g fill="#000000" fill-opacity="1" stroke="none" transform="matrix(1,0,0,1,0,0)"
font-family="ESRI Default Marker" font-size="16" font-weight="400" font-style="normal" 
>
<path vector-effect="none" fill-rule="nonzero" d="M14.7031,-7.34375 C14.7031,-6.34375 14.5104,-5.39583 14.125,-4.5 C13.7396,-3.60417 13.2135,-2.82292 12.5469,-2.15625 C11.8802,-1.48958 11.099,-0.963542 10.2031,-0.578125 C9.30729,-0.192708 8.35417,0 7.34375,0 C6.34375,0 5.39583,-0.192708 4.5,-0.578125 C3.60417,-0.963542 2.82292,-1.48958 2.15625,-2.15625 C1.48958,-2.82292 0.963542,-3.60417 0.578125,-4.5 C0.192708,-5.39583 0,-6.34375 0,-7.34375 C0,-8.35417 0.192708,-9.30729 0.578125,-10.2031 C0.963542,-11.099 1.48958,-11.8802 2.15625,-12.5469 C2.82292,-13.2135 3.60417,-13.7396 4.5,-14.125 C5.39583,-14.5104 6.34375,-14.7031 7.34375,-14.7031 C8.35417,-14.7031 9.30729,-14.5104 10.2031,-14.125 C11.099,-13.7396 11.8802,-13.2135 12.5469,-12.5469 C13.2135,-11.8802 13.7396,-11.099 14.125,-10.2031 C14.5104,-9.30729 14.7031,-8.35417 14.7031,-7.34375 M14.2813,-7.34375 C14.2813,-8.30208 14.099,-9.20052 13.7344,-10.0391 C13.3698,-10.8776 12.8724,-11.612 12.2422,-12.2422 C11.612,-12.8724 10.8776,-13.3698 10.0391,-13.7344 C9.20052,-14.099 8.30208,-14.2813 7.34375,-14.2813 C6.39583,-14.2813 5.5026,-14.099 4.66406,-13.7344 C3.82552,-13.3698 3.09115,-12.8724 2.46094,-12.2422 C1.83073,-11.612 1.33333,-10.8776 0.96875,-10.0391 C0.604167,-9.20052 0.421875,-8.30208 0.421875,-7.34375 C0.421875,-6.39583 0.604167,-5.5026 0.96875,-4.66406 C1.33333,-3.82552 1.83073,-3.09115 2.46094,-2.46094 C3.09115,-1.83073 3.82552,-1.33333 4.66406,-0.96875 C5.5026,-0.604167 6.39583,-0.421875 7.34375,-0.421875 C8.30208,-0.421875 9.20052,-0.604167 10.0391,-0.96875 C10.8776,-1.33333 11.612,-1.83073 12.2422,-2.46094 C12.8724,-3.09115 13.3698,-3.82552 13.7344,-4.66406 C14.099,-5.5026 14.2813,-6.39583 14.2813,-7.34375 "/>
</g>
</g>
</svg>
