<?xml version="1.0" encoding="UTF-8" standalone="no"?>
<svg viewBox="0 -10.5 10.5 10.5"
 xmlns="http://www.w3.org/2000/svg" xmlns:xlink="http://www.w3.org/1999/xlink"  version="1.2" baseProfile="tiny">
<title>Qt SVG Document</title>
<desc>Generated with Qt</desc>
<defs>
</defs>
<g fill="none" stroke="black" stroke-width="1" fill-rule="evenodd" stroke-linecap="square" stroke-linejoin="bevel" >

<g fill="#000000" fill-opacity="1" stroke="none" transform="matrix(1,0,0,1,0,0)"
font-family="ESRI Default Marker" font-size="11" font-weight="400" font-style="normal" 
>
<path vector-effect="none" fill-rule="nonzero" d="M10.5,-5.25 C10.5,-4.53125 10.362,-3.85156 10.0859,-3.21094 C9.8099,-2.57031 9.4349,-2.01302 8.96094,-1.53906 C8.48698,-1.0651 7.92969,-0.690104 7.28906,-0.414063 C6.64844,-0.138021 5.96875,0 5.25,0 C4.53125,0 3.85156,-0.138021 3.21094,-0.414063 C2.57031,-0.690104 2.01302,-1.0651 1.53906,-1.53906 C1.0651,-2.01302 0.690104,-2.57031 0.414063,-3.21094 C0.138021,-3.85156 0,-4.53125 0,-5.25 C0,-5.96875 0.138021,-6.64844 0.414063,-7.28906 C0.690104,-7.92969 1.0651,-8.48698 1.53906,-8.96094 C2.01302,-9.4349 2.57031,-9.8099 3.21094,-10.0859 C3.85156,-10.362 4.53125,-10.5 5.25,-10.5 C5.96875,-10.5 6.64844,-10.362 7.28906,-10.0859 C7.92969,-9.8099 8.48698,-9.4349 8.96094,-8.96094 C9.4349,-8.48698 9.8099,-7.92969 10.0859,-7.28906 C10.362,-6.64844 10.5,-5.96875 10.5,-5.25 M10.2031,-5.25 C10.2031,-5.92708 10.0729,-6.5651 9.8125,-7.16406 C9.55208,-7.76302 9.19531,-8.28906 8.74219,-8.74219 C8.28906,-9.19531 7.76302,-9.55208 7.16406,-9.8125 C6.5651,-10.0729 5.92708,-10.2031 5.25,-10.2031 C4.57292,-10.2031 3.9349,-10.0729 3.33594,-9.8125 C2.73698,-9.55208 2.21094,-9.19531 1.75781,-8.74219 C1.30469,-8.28906 0.947917,-7.76302 0.6875,-7.16406 C0.427083,-6.5651 0.296875,-5.92708 0.296875,-5.25 C0.296875,-4.57292 0.427083,-3.9349 0.6875,-3.33594 C0.947917,-2.73698 1.30469,-2.21094 1.75781,-1.75781 C2.21094,-1.30469 2.73698,-0.947917 3.33594,-0.6875 C3.9349,-0.427083 4.57292,-0.296875 5.25,-0.296875 C5.92708,-0.296875 6.5651,-0.427083 7.16406,-0.6875 C7.76302,-0.947917 8.28906,-1.30469 8.74219,-1.75781 C9.19531,-2.21094 9.55208,-2.73698 9.8125,-3.33594 C10.0729,-3.9349 10.2031,-4.57292 10.2031,-5.25 "/>
</g>
</g>
</svg>
