<?xml version="1.0" encoding="UTF-8" standalone="no"?>
<svg viewBox="0.125 -8.84375 8.82813 8.84375"
 xmlns="http://www.w3.org/2000/svg" xmlns:xlink="http://www.w3.org/1999/xlink"  version="1.2" baseProfile="tiny">
<title>Qt SVG Document</title>
<desc>Generated with Qt</desc>
<defs>
</defs>
<g fill="none" stroke="black" stroke-width="1" fill-rule="evenodd" stroke-linecap="square" stroke-linejoin="bevel" >

<g fill="#ff0000" fill-opacity="1" stroke="none" transform="matrix(1,0,0,1,0,0)"
font-family="ESRI Default Marker" font-size="10" font-weight="400" font-style="normal" 
>
<path vector-effect="none" fill-rule="nonzero" d="M8.95313,-4.42188 C8.95313,-3.80729 8.83854,-3.23177 8.60938,-2.69531 C8.38021,-2.15885 8.0651,-1.6901 7.66406,-1.28906 C7.26302,-0.888021 6.79427,-0.572917 6.25781,-0.34375 C5.72135,-0.114583 5.14583,0 4.53125,0 C3.91667,0 3.34375,-0.114583 2.8125,-0.34375 C2.28125,-0.572917 1.8151,-0.888021 1.41406,-1.28906 C1.01302,-1.6901 0.697917,-2.15885 0.46875,-2.69531 C0.239583,-3.23177 0.125,-3.80729 0.125,-4.42188 C0.125,-5.02604 0.239583,-5.59635 0.46875,-6.13281 C0.697917,-6.66927 1.01302,-7.14063 1.41406,-7.54688 C1.8151,-7.95313 2.28125,-8.27083 2.8125,-8.5 C3.34375,-8.72917 3.91667,-8.84375 4.53125,-8.84375 C5.14583,-8.84375 5.72135,-8.72917 6.25781,-8.5 C6.79427,-8.27083 7.26302,-7.95313 7.66406,-7.54688 C8.0651,-7.14063 8.38021,-6.66927 8.60938,-6.13281 C8.83854,-5.59635 8.95313,-5.02604 8.95313,-4.42188 "/>
</g>
</g>
</svg>
