<?xml version="1.0" encoding="UTF-8" standalone="no"?>
<svg viewBox="0.203125 -14.2813 14.2656 14.2813"
 xmlns="http://www.w3.org/2000/svg" xmlns:xlink="http://www.w3.org/1999/xlink"  version="1.2" baseProfile="tiny">
<title>Qt SVG Document</title>
<desc>Generated with Qt</desc>
<defs>
</defs>
<g fill="none" stroke="black" stroke-width="1" fill-rule="evenodd" stroke-linecap="square" stroke-linejoin="bevel" >

<g fill="#bed2ff" fill-opacity="1" stroke="none" transform="matrix(1,0,0,1,0,0)"
font-family="ESRI Default Marker" font-size="16" font-weight="400" font-style="normal" 
>
<path vector-effect="none" fill-rule="nonzero" d="M14.4688,-7.14063 C14.4688,-6.14063 14.2839,-5.21094 13.9141,-4.35156 C13.5443,-3.49219 13.0339,-2.73698 12.3828,-2.08594 C11.7318,-1.4349 10.9714,-0.924479 10.1016,-0.554688 C9.23177,-0.184896 8.30729,0 7.32813,0 C6.33854,0 5.41146,-0.184896 4.54688,-0.554688 C3.68229,-0.924479 2.92969,-1.4349 2.28906,-2.08594 C1.64844,-2.73698 1.14063,-3.49219 0.765625,-4.35156 C0.390625,-5.21094 0.203125,-6.14063 0.203125,-7.14063 C0.203125,-8.11979 0.390625,-9.04427 0.765625,-9.91406 C1.14063,-10.7839 1.64844,-11.5443 2.28906,-12.1953 C2.92969,-12.8464 3.68229,-13.3568 4.54688,-13.7266 C5.41146,-14.0964 6.33854,-14.2813 7.32813,-14.2813 C8.30729,-14.2813 9.23177,-14.0964 10.1016,-13.7266 C10.9714,-13.3568 11.7318,-12.8464 12.3828,-12.1953 C13.0339,-11.5443 13.5443,-10.7839 13.9141,-9.91406 C14.2839,-9.04427 14.4688,-8.11979 14.4688,-7.14063 "/>
</g>
</g>
</svg>
