<?xml version="1.0" encoding="UTF-8" standalone="no"?>
<svg viewBox="0 -9.09375 9.09375 9.09375"
 xmlns="http://www.w3.org/2000/svg" xmlns:xlink="http://www.w3.org/1999/xlink"  version="1.2" baseProfile="tiny">
<title>Qt SVG Document</title>
<desc>Generated with Qt</desc>
<defs>
</defs>
<g fill="none" stroke="black" stroke-width="1" fill-rule="evenodd" stroke-linecap="square" stroke-linejoin="bevel" >

<g fill="#ff0000" fill-opacity="1" stroke="none" transform="matrix(1,0,0,1,0,0)"
font-family="ESRI Default Marker" font-size="10" font-weight="400" font-style="normal" 
>
<path vector-effect="none" fill-rule="nonzero" d="M9.09375,-4.54688 C9.09375,-3.92188 8.97656,-3.33333 8.74219,-2.78125 C8.50781,-2.22917 8.1849,-1.7474 7.77344,-1.33594 C7.36198,-0.924479 6.8776,-0.598958 6.32031,-0.359375 C5.76302,-0.119792 5.17188,0 4.54688,0 C3.92188,0 3.33333,-0.119792 2.78125,-0.359375 C2.22917,-0.598958 1.7474,-0.924479 1.33594,-1.33594 C0.924479,-1.7474 0.598958,-2.22917 0.359375,-2.78125 C0.119792,-3.33333 0,-3.92188 0,-4.54688 C0,-5.17188 0.119792,-5.76302 0.359375,-6.32031 C0.598958,-6.8776 0.924479,-7.36198 1.33594,-7.77344 C1.7474,-8.1849 2.22917,-8.50781 2.78125,-8.74219 C3.33333,-8.97656 3.92188,-9.09375 4.54688,-9.09375 C5.17188,-9.09375 5.76302,-8.97656 6.32031,-8.74219 C6.8776,-8.50781 7.36198,-8.1849 7.77344,-7.77344 C8.1849,-7.36198 8.50781,-6.8776 8.74219,-6.32031 C8.97656,-5.76302 9.09375,-5.17188 9.09375,-4.54688 M8.84375,-4.54688 C8.84375,-5.14063 8.73177,-5.69792 8.50781,-6.21875 C8.28385,-6.73958 7.97656,-7.19531 7.58594,-7.58594 C7.19531,-7.97656 6.73958,-8.28385 6.21875,-8.50781 C5.69792,-8.73177 5.14063,-8.84375 4.54688,-8.84375 C3.96354,-8.84375 3.41146,-8.73177 2.89063,-8.50781 C2.36979,-8.28385 1.91406,-7.97656 1.52344,-7.58594 C1.13281,-7.19531 0.825521,-6.73958 0.601563,-6.21875 C0.377604,-5.69792 0.265625,-5.14063 0.265625,-4.54688 C0.265625,-3.96354 0.377604,-3.41146 0.601563,-2.89063 C0.825521,-2.36979 1.13281,-1.91406 1.52344,-1.52344 C1.91406,-1.13281 2.36979,-0.825521 2.89063,-0.601563 C3.41146,-0.377604 3.96354,-0.265625 4.54688,-0.265625 C5.14063,-0.265625 5.69792,-0.377604 6.21875,-0.601563 C6.73958,-0.825521 7.19531,-1.13281 7.58594,-1.52344 C7.97656,-1.91406 8.28385,-2.36979 8.50781,-2.89063 C8.73177,-3.41146 8.84375,-3.96354 8.84375,-4.54688 "/>
</g>
</g>
</svg>
