<?xml version="1.0" encoding="UTF-8" standalone="no"?>
<svg viewBox="0.171875 -11.5625 11.5469 11.5625"
 xmlns="http://www.w3.org/2000/svg" xmlns:xlink="http://www.w3.org/1999/xlink"  version="1.2" baseProfile="tiny">
<title>Qt SVG Document</title>
<desc>Generated with Qt</desc>
<defs>
</defs>
<g fill="none" stroke="black" stroke-width="1" fill-rule="evenodd" stroke-linecap="square" stroke-linejoin="bevel" >

<g fill="#ff0000" fill-opacity="1" stroke="none" transform="matrix(1,0,0,1,0,0)"
font-family="ESRI Default Marker" font-size="13" font-weight="400" font-style="normal" 
>
<path vector-effect="none" fill-rule="nonzero" d="M11.7188,-5.78125 C11.7188,-4.97917 11.5677,-4.22917 11.2656,-3.53125 C10.9635,-2.83333 10.5495,-2.22135 10.0234,-1.69531 C9.4974,-1.16927 8.88281,-0.755208 8.17969,-0.453125 C7.47656,-0.151042 6.72917,0 5.9375,0 C5.125,0 4.3724,-0.151042 3.67969,-0.453125 C2.98698,-0.755208 2.38021,-1.16927 1.85938,-1.69531 C1.33854,-2.22135 0.927083,-2.83333 0.625,-3.53125 C0.322917,-4.22917 0.171875,-4.97917 0.171875,-5.78125 C0.171875,-6.57292 0.322917,-7.32031 0.625,-8.02344 C0.927083,-8.72656 1.33854,-9.34115 1.85938,-9.86719 C2.38021,-10.3932 2.98698,-10.8073 3.67969,-11.1094 C4.3724,-11.4115 5.125,-11.5625 5.9375,-11.5625 C6.72917,-11.5625 7.47656,-11.4115 8.17969,-11.1094 C8.88281,-10.8073 9.4974,-10.3932 10.0234,-9.86719 C10.5495,-9.34115 10.9635,-8.72656 11.2656,-8.02344 C11.5677,-7.32031 11.7188,-6.57292 11.7188,-5.78125 "/>
</g>
</g>
</svg>
