<?xml version="1.0" encoding="UTF-8" standalone="no"?>
<svg viewBox="0.15625 -10.8906 10.875 10.8906"
 xmlns="http://www.w3.org/2000/svg" xmlns:xlink="http://www.w3.org/1999/xlink"  version="1.2" baseProfile="tiny">
<title>Qt SVG Document</title>
<desc>Generated with Qt</desc>
<defs>
</defs>
<g fill="none" stroke="black" stroke-width="1" fill-rule="evenodd" stroke-linecap="square" stroke-linejoin="bevel" >

<g fill="#ffffbe" fill-opacity="1" stroke="none" transform="matrix(1,0,0,1,0,0)"
font-family="ESRI Default Marker" font-size="12" font-weight="400" font-style="normal" 
>
<path vector-effect="none" fill-rule="nonzero" d="M11.0313,-5.4375 C11.0313,-4.6875 10.8906,-3.98438 10.6094,-3.32813 C10.3281,-2.67188 9.9375,-2.09375 9.4375,-1.59375 C8.9375,-1.09375 8.35677,-0.703125 7.69531,-0.421875 C7.03385,-0.140625 6.33333,0 5.59375,0 C4.83333,0 4.125,-0.140625 3.46875,-0.421875 C2.8125,-0.703125 2.23958,-1.09375 1.75,-1.59375 C1.26042,-2.09375 0.872396,-2.67188 0.585938,-3.32813 C0.299479,-3.98438 0.15625,-4.6875 0.15625,-5.4375 C0.15625,-6.1875 0.299479,-6.89323 0.585938,-7.55469 C0.872396,-8.21615 1.26042,-8.79427 1.75,-9.28906 C2.23958,-9.78385 2.8125,-10.1745 3.46875,-10.4609 C4.125,-10.7474 4.83333,-10.8906 5.59375,-10.8906 C6.33333,-10.8906 7.03385,-10.7474 7.69531,-10.4609 C8.35677,-10.1745 8.9375,-9.78385 9.4375,-9.28906 C9.9375,-8.79427 10.3281,-8.21615 10.6094,-7.55469 C10.8906,-6.89323 11.0313,-6.1875 11.0313,-5.4375 "/>
</g>
</g>
</svg>
