<?xml version="1.0" encoding="UTF-8" standalone="no"?>
<svg viewBox="0.1875 -12.9219 12.9063 12.9219"
 xmlns="http://www.w3.org/2000/svg" xmlns:xlink="http://www.w3.org/1999/xlink"  version="1.2" baseProfile="tiny">
<title>Qt SVG Document</title>
<desc>Generated with Qt</desc>
<defs>
</defs>
<g fill="none" stroke="black" stroke-width="1" fill-rule="evenodd" stroke-linecap="square" stroke-linejoin="bevel" >

<g fill="#e8beff" fill-opacity="1" stroke="none" transform="matrix(1,0,0,1,0,0)"
font-family="ESRI Default Marker" font-size="14" font-weight="400" font-style="normal" 
>
<path vector-effect="none" fill-rule="nonzero" d="M13.0938,-6.45313 C13.0938,-5.55729 12.9245,-4.72135 12.5859,-3.94531 C12.2474,-3.16927 11.7839,-2.48438 11.1953,-1.89063 C10.6068,-1.29688 9.91927,-0.833333 9.13281,-0.5 C8.34635,-0.166667 7.51042,0 6.625,0 C5.72917,0 4.89063,-0.166667 4.10938,-0.5 C3.32813,-0.833333 2.64844,-1.29688 2.07031,-1.89063 C1.49219,-2.48438 1.03385,-3.16927 0.695313,-3.94531 C0.356771,-4.72135 0.1875,-5.55729 0.1875,-6.45313 C0.1875,-7.33854 0.356771,-8.17448 0.695313,-8.96094 C1.03385,-9.7474 1.49219,-10.4349 2.07031,-11.0234 C2.64844,-11.612 3.32813,-12.0755 4.10938,-12.4141 C4.89063,-12.7526 5.72917,-12.9219 6.625,-12.9219 C7.51042,-12.9219 8.34635,-12.7526 9.13281,-12.4141 C9.91927,-12.0755 10.6068,-11.612 11.1953,-11.0234 C11.7839,-10.4349 12.2474,-9.7474 12.5859,-8.96094 C12.9245,-8.17448 13.0938,-7.33854 13.0938,-6.45313 "/>
</g>
</g>
</svg>
