<?xml version="1.0" encoding="UTF-8" standalone="no"?>
<svg viewBox="0 -13.2969 13.2969 13.2969"
 xmlns="http://www.w3.org/2000/svg" xmlns:xlink="http://www.w3.org/1999/xlink"  version="1.2" baseProfile="tiny">
<title>Qt SVG Document</title>
<desc>Generated with Qt</desc>
<defs>
</defs>
<g fill="none" stroke="black" stroke-width="1" fill-rule="evenodd" stroke-linecap="square" stroke-linejoin="bevel" >

<g fill="#000000" fill-opacity="1" stroke="none" transform="matrix(1,0,0,1,0,0)"
font-family="ESRI Default Marker" font-size="14" font-weight="400" font-style="normal" 
>
<path vector-effect="none" fill-rule="nonzero" d="M13.2969,-6.65625 C13.2969,-5.73958 13.1224,-4.875 12.7734,-4.0625 C12.4245,-3.25 11.9505,-2.54427 11.3516,-1.94531 C10.7526,-1.34635 10.0469,-0.872396 9.23438,-0.523438 C8.42188,-0.174479 7.5625,0 6.65625,0 C5.73958,0 4.875,-0.174479 4.0625,-0.523438 C3.25,-0.872396 2.54427,-1.34635 1.94531,-1.94531 C1.34635,-2.54427 0.872396,-3.25 0.523438,-4.0625 C0.174479,-4.875 0,-5.73958 0,-6.65625 C0,-7.5625 0.174479,-8.42188 0.523438,-9.23438 C0.872396,-10.0469 1.34635,-10.7526 1.94531,-11.3516 C2.54427,-11.9505 3.25,-12.4245 4.0625,-12.7734 C4.875,-13.1224 5.73958,-13.2969 6.65625,-13.2969 C7.5625,-13.2969 8.42188,-13.1224 9.23438,-12.7734 C10.0469,-12.4245 10.7526,-11.9505 11.3516,-11.3516 C11.9505,-10.7526 12.4245,-10.0469 12.7734,-9.23438 C13.1224,-8.42188 13.2969,-7.5625 13.2969,-6.65625 M12.3438,-6.65625 C12.3438,-7.375 12.224,-8.04427 11.9844,-8.66406 C11.7448,-9.28385 11.4115,-9.83854 10.9844,-10.3281 L7.28125,-6.67188 L10.9844,-2.92188 C11.4115,-3.43229 11.7448,-4 11.9844,-4.625 C12.224,-5.25 12.3438,-5.92708 12.3438,-6.65625 M10.2813,-2.26563 L6.59375,-5.98438 L2.90625,-2.34375 C3.39583,-1.89583 3.96094,-1.55208 4.60156,-1.3125 C5.24219,-1.07292 5.92708,-0.953125 6.65625,-0.953125 C7.34375,-0.953125 7.99479,-1.07031 8.60938,-1.30469 C9.22396,-1.53906 9.78125,-1.85938 10.2813,-2.26563 M10.2969,-11.0156 C9.80729,-11.4323 9.25,-11.7578 8.625,-11.9922 C8,-12.2266 7.34375,-12.3438 6.65625,-12.3438 C5.95833,-12.3438 5.29948,-12.2266 4.67969,-11.9922 C4.0599,-11.7578 3.5,-11.4323 3,-11.0156 L6.59375,-7.375 L10.2969,-11.0156 M5.90625,-6.6875 L2.29688,-10.3594 C1.88021,-9.84896 1.55208,-9.28385 1.3125,-8.66406 C1.07292,-8.04427 0.953125,-7.375 0.953125,-6.65625 C0.953125,-5.96875 1.0625,-5.31771 1.28125,-4.70313 C1.5,-4.08854 1.8125,-3.53646 2.21875,-3.04688 L5.90625,-6.6875"/>
</g>
</g>
</svg>
