<?xml version="1.0" encoding="UTF-8" standalone="no"?>
<svg viewBox="0.34375 -23.7969 23.7813 23.7969"
 xmlns="http://www.w3.org/2000/svg" xmlns:xlink="http://www.w3.org/1999/xlink"  version="1.2" baseProfile="tiny">
<title>Qt SVG Document</title>
<desc>Generated with Qt</desc>
<defs>
</defs>
<g fill="none" stroke="black" stroke-width="1" fill-rule="evenodd" stroke-linecap="square" stroke-linejoin="bevel" >

<g fill="#ffffff" fill-opacity="1" stroke="none" transform="matrix(1,0,0,1,0,0)"
font-family="ESRI Default Marker" font-size="26" font-weight="400" font-style="normal" 
>
<path vector-effect="none" fill-rule="nonzero" d="M24.125,-11.9063 C24.125,-10.25 23.8151,-8.70313 23.1953,-7.26563 C22.5755,-5.82813 21.7214,-4.56771 20.6328,-3.48438 C19.5443,-2.40104 18.2786,-1.54948 16.8359,-0.929688 C15.3932,-0.309896 13.8542,0 12.2188,0 C10.5625,0 9.01563,-0.309896 7.57813,-0.929688 C6.14063,-1.54948 4.88542,-2.40104 3.8125,-3.48438 C2.73958,-4.56771 1.89323,-5.82813 1.27344,-7.26563 C0.653646,-8.70313 0.34375,-10.25 0.34375,-11.9063 C0.34375,-13.5313 0.653646,-15.0677 1.27344,-16.5156 C1.89323,-17.9635 2.73958,-19.2318 3.8125,-20.3203 C4.88542,-21.4089 6.14063,-22.2604 7.57813,-22.875 C9.01563,-23.4896 10.5625,-23.7969 12.2188,-23.7969 C13.8542,-23.7969 15.3932,-23.4896 16.8359,-22.875 C18.2786,-22.2604 19.5443,-21.4089 20.6328,-20.3203 C21.7214,-19.2318 22.5755,-17.9635 23.1953,-16.5156 C23.8151,-15.0677 24.125,-13.5313 24.125,-11.9063 "/>
</g>
</g>
</svg>
