<?xml version="1.0" encoding="UTF-8" standalone="no"?>
<svg viewBox="0.234375 -16.3281 16.2969 16.3281"
 xmlns="http://www.w3.org/2000/svg" xmlns:xlink="http://www.w3.org/1999/xlink"  version="1.2" baseProfile="tiny">
<title>Qt SVG Document</title>
<desc>Generated with Qt</desc>
<defs>
</defs>
<g fill="none" stroke="black" stroke-width="1" fill-rule="evenodd" stroke-linecap="square" stroke-linejoin="bevel" >

<g fill="#686868" fill-opacity="1" stroke="none" transform="matrix(1,0,0,1,0,0)"
font-family="ESRI Default Marker" font-size="18" font-weight="400" font-style="normal" 
>
<path vector-effect="none" fill-rule="nonzero" d="M16.5313,-8.15625 C16.5313,-7.02083 16.3203,-5.96094 15.8984,-4.97656 C15.4766,-3.99219 14.8932,-3.1276 14.1484,-2.38281 C13.4036,-1.63802 12.5365,-1.05469 11.5469,-0.632813 C10.5573,-0.210938 9.5,0 8.375,0 C7.23958,0 6.17969,-0.210938 5.19531,-0.632813 C4.21094,-1.05469 3.35156,-1.63802 2.61719,-2.38281 C1.88281,-3.1276 1.30208,-3.99219 0.875,-4.97656 C0.447917,-5.96094 0.234375,-7.02083 0.234375,-8.15625 C0.234375,-9.28125 0.447917,-10.3385 0.875,-11.3281 C1.30208,-12.3177 1.88281,-13.1849 2.61719,-13.9297 C3.35156,-14.6745 4.21094,-15.2604 5.19531,-15.6875 C6.17969,-16.1146 7.23958,-16.3281 8.375,-16.3281 C9.5,-16.3281 10.5573,-16.1146 11.5469,-15.6875 C12.5365,-15.2604 13.4036,-14.6745 14.1484,-13.9297 C14.8932,-13.1849 15.4766,-12.3177 15.8984,-11.3281 C16.3203,-10.3385 16.5313,-9.28125 16.5313,-8.15625 "/>
</g>
</g>
</svg>
