<?xml version="1.0" encoding="UTF-8" standalone="no"?>
<svg viewBox="0.109375 -7.48438 7.46875 7.48438"
 xmlns="http://www.w3.org/2000/svg" xmlns:xlink="http://www.w3.org/1999/xlink"  version="1.2" baseProfile="tiny">
<title>Qt SVG Document</title>
<desc>Generated with Qt</desc>
<defs>
</defs>
<g fill="none" stroke="black" stroke-width="1" fill-rule="evenodd" stroke-linecap="square" stroke-linejoin="bevel" >

<g fill="#00734c" fill-opacity="1" stroke="none" transform="matrix(1,0,0,1,0,0)"
font-family="ESRI Default Marker" font-size="8" font-weight="400" font-style="normal" 
>
<path vector-effect="none" fill-rule="nonzero" d="M7.57813,-3.73438 C7.57813,-3.21354 7.48177,-2.72917 7.28906,-2.28125 C7.09635,-1.83333 6.82813,-1.4375 6.48438,-1.09375 C6.14063,-0.75 5.74219,-0.481771 5.28906,-0.289063 C4.83594,-0.0963542 4.35417,0 3.84375,0 C3.32292,0 2.83594,-0.0963542 2.38281,-0.289063 C1.92969,-0.481771 1.53385,-0.75 1.19531,-1.09375 C0.856771,-1.4375 0.591146,-1.83333 0.398438,-2.28125 C0.205729,-2.72917 0.109375,-3.21354 0.109375,-3.73438 C0.109375,-4.25521 0.205729,-4.74219 0.398438,-5.19531 C0.591146,-5.64844 0.856771,-6.04427 1.19531,-6.38281 C1.53385,-6.72135 1.92969,-6.98958 2.38281,-7.1875 C2.83594,-7.38542 3.32292,-7.48438 3.84375,-7.48438 C4.35417,-7.48438 4.83594,-7.38542 5.28906,-7.1875 C5.74219,-6.98958 6.14063,-6.72135 6.48438,-6.38281 C6.82813,-6.04427 7.09635,-5.64844 7.28906,-5.19531 C7.48177,-4.74219 7.57813,-4.25521 7.57813,-3.73438 "/>
</g>
</g>
</svg>
