<?xml version="1.0" encoding="UTF-8" standalone="no"?>
<svg viewBox="0.09375 -6.125 6.10938 6.125"
 xmlns="http://www.w3.org/2000/svg" xmlns:xlink="http://www.w3.org/1999/xlink"  version="1.2" baseProfile="tiny">
<title>Qt SVG Document</title>
<desc>Generated with Qt</desc>
<defs>
</defs>
<g fill="none" stroke="black" stroke-width="1" fill-rule="evenodd" stroke-linecap="square" stroke-linejoin="bevel" >

<g fill="#f040cf" fill-opacity="1" stroke="none" transform="matrix(1,0,0,1,0,0)"
font-family="ESRI Default Marker" font-size="7" font-weight="400" font-style="normal" 
>
<path vector-effect="none" fill-rule="nonzero" d="M6.20313,-3.0625 C6.20313,-2.63542 6.1224,-2.23698 5.96094,-1.86719 C5.79948,-1.4974 5.58073,-1.17448 5.30469,-0.898438 C5.02865,-0.622396 4.70313,-0.403646 4.32813,-0.242188 C3.95313,-0.0807292 3.55729,0 3.14063,0 C2.71354,0 2.3151,-0.0807292 1.94531,-0.242188 C1.57552,-0.403646 1.2526,-0.622396 0.976563,-0.898438 C0.700521,-1.17448 0.484375,-1.4974 0.328125,-1.86719 C0.171875,-2.23698 0.09375,-2.63542 0.09375,-3.0625 C0.09375,-3.47917 0.171875,-3.875 0.328125,-4.25 C0.484375,-4.625 0.700521,-4.95052 0.976563,-5.22656 C1.2526,-5.5026 1.57552,-5.72135 1.94531,-5.88281 C2.3151,-6.04427 2.71354,-6.125 3.14063,-6.125 C3.55729,-6.125 3.95313,-6.04427 4.32813,-5.88281 C4.70313,-5.72135 5.02865,-5.5026 5.30469,-5.22656 C5.58073,-4.95052 5.79948,-4.625 5.96094,-4.25 C6.1224,-3.875 6.20313,-3.47917 6.20313,-3.0625 "/>
</g>
</g>
</svg>
