<?xml version="1.0" encoding="UTF-8" standalone="no"?>
<svg viewBox="0 -3.15625 3.20313 3.15625"
 xmlns="http://www.w3.org/2000/svg" xmlns:xlink="http://www.w3.org/1999/xlink"  version="1.2" baseProfile="tiny">
<title>Qt SVG Document</title>
<desc>Generated with Qt</desc>
<defs>
</defs>
<g fill="none" stroke="black" stroke-width="1" fill-rule="evenodd" stroke-linecap="square" stroke-linejoin="bevel" >

<g fill="#267300" fill-opacity="1" stroke="none" transform="matrix(1,0,0,1,0,0)"
font-family="ESRI Fire Incident NFPA" font-size="3" font-weight="400" font-style="normal" 
>
<path vector-effect="none" fill-rule="nonzero" d="M0,-1.59375 C0,-1.8125 0.0416667,-2.01563 0.125,-2.20313 C0.208333,-2.39063 0.322917,-2.55729 0.46875,-2.70313 C0.614583,-2.84896 0.783854,-2.96094 0.976563,-3.03906 C1.16927,-3.11719 1.375,-3.15625 1.59375,-3.15625 C1.82292,-3.15625 2.03385,-3.11719 2.22656,-3.03906 C2.41927,-2.96094 2.58854,-2.84896 2.73438,-2.70313 C2.88021,-2.55729 2.99479,-2.39063 3.07813,-2.20313 C3.16146,-2.01563 3.20313,-1.8125 3.20313,-1.59375 C3.20313,-1.36458 3.16146,-1.15365 3.07813,-0.960938 C2.99479,-0.768229 2.88021,-0.601563 2.73438,-0.460938 C2.58854,-0.320313 2.41927,-0.208333 2.22656,-0.125 C2.03385,-0.0416667 1.82292,0 1.59375,0 C1.375,0 1.16927,-0.0416667 0.976563,-0.125 C0.783854,-0.208333 0.614583,-0.320313 0.46875,-0.460938 C0.322917,-0.601563 0.208333,-0.768229 0.125,-0.960938 C0.0416667,-1.15365 0,-1.36458 0,-1.59375 M0.09375,-1.57813 C0.09375,-1.38021 0.132813,-1.19271 0.210938,-1.01563 C0.289063,-0.838542 0.398438,-0.682292 0.539063,-0.546875 C0.679688,-0.411458 0.841146,-0.304688 1.02344,-0.226563 C1.20573,-0.148438 1.40104,-0.109375 1.60938,-0.109375 C1.81771,-0.109375 2.01042,-0.148438 2.1875,-0.226563 C2.36458,-0.304688 2.52083,-0.411458 2.65625,-0.546875 C2.79167,-0.682292 2.90104,-0.838542 2.98438,-1.01563 C3.06771,-1.19271 3.10938,-1.38021 3.10938,-1.57813 C3.10938,-1.78646 3.06771,-1.97917 2.98438,-2.15625 C2.90104,-2.33333 2.79167,-2.48958 2.65625,-2.625 C2.52083,-2.76042 2.36458,-2.86458 2.1875,-2.9375 C2.01042,-3.01042 1.81771,-3.04688 1.60938,-3.04688 C1.40104,-3.04688 1.20573,-3.01042 1.02344,-2.9375 C0.841146,-2.86458 0.679688,-2.76042 0.539063,-2.625 C0.398438,-2.48958 0.289063,-2.33333 0.210938,-2.15625 C0.132813,-1.97917 0.09375,-1.78646 0.09375,-1.57813 "/>
</g>
</g>
</svg>
