<?xml version="1.0" encoding="UTF-8" standalone="no"?>
<svg
   xmlns:dc="http://purl.org/dc/elements/1.1/"
   xmlns:cc="http://creativecommons.org/ns#"
   xmlns:rdf="http://www.w3.org/1999/02/22-rdf-syntax-ns#"
   xmlns:svg="http://www.w3.org/2000/svg"
   xmlns="http://www.w3.org/2000/svg"
   height="19.8906"
   width="19.8906"
   id="svg5701"
   version="1.2"
   viewBox="0 -18.8906 19.8906 19.8906">
  <metadata
     id="metadata5705">
    <rdf:RDF>
      <cc:Work
         rdf:about="">
        <dc:format>image/svg+xml</dc:format>
        <dc:type
           rdf:resource="http://purl.org/dc/dcmitype/StillImage" />
        <dc:title>Qt SVG Document</dc:title>
      </cc:Work>
    </rdf:RDF>
  </metadata>
  <title
     id="title5689">Qt SVG Document</title>
  <desc
     id="desc5691">Generated with Qt</desc>
  <defs
     id="defs5693" />
  <g
     transform="translate(0.5,0.5)"
     style="fill:none;fill-rule:evenodd;stroke:#000000;stroke-width:1;stroke-linecap:square;stroke-linejoin:bevel"
     id="g5699">
    <g
       style="font-style:normal;font-weight:400;font-size:20px;font-family:'ESRI Default Marker';fill:#38a800;fill-opacity:1;stroke:#38a800;stroke-opacity:1"
       id="g5697"
       font-style="normal"
       font-weight="400"
       font-size="20">
      <path
         style="vector-effect:none;fill-rule:nonzero;stroke:#38a800;stroke-opacity:1"
         id="path5695"
         d="m 18.8906,-9.45313 c 0,1.30209 -0.2474,2.52865 -0.7422,3.67969 -0.4948,1.15104 -1.1692,2.15365 -2.0234,3.00781 -0.8542,0.85417 -1.8568,1.52865 -3.0078,2.023442 C 11.9661,-0.247396 10.7448,0 9.45313,0 8.15104,0 6.92448,-0.247396 5.77344,-0.742188 4.6224,-1.23698 3.61979,-1.91146 2.76563,-2.76563 1.91146,-3.61979 1.23698,-4.6224 0.742188,-5.77344 0.247396,-6.92448 0,-8.15104 0,-9.45313 c 0,-1.29167 0.247396,-2.51297 0.742188,-3.66407 0.494792,-1.151 1.169272,-2.1536 2.023442,-3.0078 0.85416,-0.8542 1.85677,-1.5286 3.00781,-2.0234 1.15104,-0.4948 2.3776,-0.7422 3.67969,-0.7422 1.29167,0 2.51297,0.2474 3.66407,0.7422 1.151,0.4948 2.1536,1.1692 3.0078,2.0234 0.8542,0.8542 1.5286,1.8568 2.0234,3.0078 0.4948,1.1511 0.7422,2.3724 0.7422,3.66407 m -0.5312,0 c 0,-1.21877 -0.2344,-2.36717 -0.7031,-3.44527 -0.4688,-1.0782 -1.1094,-2.0235 -1.9219,-2.836 -0.8125,-0.8125 -1.7578,-1.4531 -2.836,-1.9219 -1.0781,-0.4687 -2.2265,-0.7031 -3.44527,-0.7031 -1.22917,0 -2.38282,0.2344 -3.46094,0.7031 -1.07813,0.4688 -2.02344,1.1094 -2.83594,1.9219 -0.8125,0.8125 -1.45052,1.7578 -1.91406,2.836 -0.463544,1.0781 -0.695315,2.2265 -0.695315,3.44527 0,1.22917 0.231771,2.38282 0.695315,3.46094 0.46354,1.07813 1.10156,2.02344 1.91406,2.83594 0.8125,0.8125 1.75781,1.45052 2.83594,1.91406 1.07812,0.463544 2.23177,0.695315 3.46094,0.695315 1.21877,0 2.36717,-0.231771 3.44527,-0.695315 1.0782,-0.46354 2.0235,-1.10156 2.836,-1.91406 0.8125,-0.8125 1.4531,-1.75781 1.9219,-2.83594 0.4687,-1.07812 0.7031,-2.23177 0.7031,-3.46094" />
    </g>
  </g>
</svg>
