<?xml version="1.0" encoding="UTF-8" standalone="no"?>
<svg viewBox="0.03125 -2.04688 2.04688 2.04688"
 xmlns="http://www.w3.org/2000/svg" xmlns:xlink="http://www.w3.org/1999/xlink"  version="1.2" baseProfile="tiny">
<title>Qt SVG Document</title>
<desc>Generated with Qt</desc>
<defs>
</defs>
<g fill="none" stroke="black" stroke-width="1" fill-rule="evenodd" stroke-linecap="square" stroke-linejoin="bevel" >

<g fill="param(fill)" fill-opacity="param(fill-opacity)"stroke="param(outline)" stroke-opacity="param(outline-opacity) 1" stroke-width="param(outline-width) 0" transform="matrix(1,0,0,1,0,0)"
font-family="ESRI Default Marker" font-size="2" font-weight="400" font-style="normal" 
>
<path vector-effect="none" fill-rule="nonzero" d="M2.07813,-1.01563 C2.07813,-0.880208 2.04948,-0.75 1.99219,-0.625 C1.9349,-0.5 1.85938,-0.390625 1.76563,-0.296875 C1.67188,-0.203125 1.5651,-0.130208 1.44531,-0.078125 C1.32552,-0.0260417 1.19271,0 1.04688,0 C0.901042,0 0.768229,-0.0260417 0.648438,-0.078125 C0.528646,-0.130208 0.421875,-0.203125 0.328125,-0.296875 C0.234375,-0.390625 0.161458,-0.5 0.109375,-0.625 C0.0572917,-0.75 0.03125,-0.880208 0.03125,-1.01563 C0.03125,-1.16146 0.0572917,-1.29688 0.109375,-1.42188 C0.161458,-1.54688 0.234375,-1.65625 0.328125,-1.75 C0.421875,-1.84375 0.528646,-1.91667 0.648438,-1.96875 C0.768229,-2.02083 0.901042,-2.04688 1.04688,-2.04688 C1.19271,-2.04688 1.32552,-2.02083 1.44531,-1.96875 C1.5651,-1.91667 1.67188,-1.84375 1.76563,-1.75 C1.85938,-1.65625 1.9349,-1.54688 1.99219,-1.42188 C2.04948,-1.29688 2.07813,-1.16146 2.07813,-1.01563 "/>
</g>
</g>
</svg>
