<?xml version="1.0" encoding="UTF-8" standalone="no"?>
<svg viewBox="0.046875 -2.71875 2.70313 2.71875"
 xmlns="http://www.w3.org/2000/svg" xmlns:xlink="http://www.w3.org/1999/xlink"  version="1.2" baseProfile="tiny">
<title>Qt SVG Document</title>
<desc>Generated with Qt</desc>
<defs>
</defs>
<g fill="none" stroke="black" stroke-width="1" fill-rule="evenodd" stroke-linecap="square" stroke-linejoin="bevel" >

<g fill="#000000" fill-opacity="1" stroke="none" transform="matrix(1,0,0,1,0,0)"
font-family="ESRI Default Marker" font-size="3" font-weight="400" font-style="normal" 
>
<path vector-effect="none" fill-rule="nonzero" d="M2.75,-1.35938 C2.75,-1.17188 2.71615,-0.994792 2.64844,-0.828125 C2.58073,-0.661458 2.48438,-0.518229 2.35938,-0.398438 C2.23438,-0.278646 2.08854,-0.182292 1.92188,-0.109375 C1.75521,-0.0364583 1.57813,0 1.39063,0 C1.20313,0 1.02865,-0.0364583 0.867188,-0.109375 C0.705729,-0.182292 0.5625,-0.278646 0.4375,-0.398438 C0.3125,-0.518229 0.216146,-0.661458 0.148438,-0.828125 C0.0807292,-0.994792 0.046875,-1.17188 0.046875,-1.35938 C0.046875,-1.54688 0.0807292,-1.72396 0.148438,-1.89063 C0.216146,-2.05729 0.3125,-2.20052 0.4375,-2.32031 C0.5625,-2.4401 0.705729,-2.53646 0.867188,-2.60938 C1.02865,-2.68229 1.20313,-2.71875 1.39063,-2.71875 C1.57813,-2.71875 1.75521,-2.68229 1.92188,-2.60938 C2.08854,-2.53646 2.23438,-2.4401 2.35938,-2.32031 C2.48438,-2.20052 2.58073,-2.05729 2.64844,-1.89063 C2.71615,-1.72396 2.75,-1.54688 2.75,-1.35938 "/>
</g>
</g>
</svg>
