<?xml version="1.0" encoding="UTF-8" standalone="no"?>
<svg viewBox="0.078125 -5.4375 5.4375 5.4375"
 xmlns="http://www.w3.org/2000/svg" xmlns:xlink="http://www.w3.org/1999/xlink"  version="1.2" baseProfile="tiny">
<title>Qt SVG Document</title>
<desc>Generated with Qt</desc>
<defs>
</defs>
<g fill="none" stroke="black" stroke-width="1" fill-rule="evenodd" stroke-linecap="square" stroke-linejoin="bevel" >

<g fill="#000000" fill-opacity="1" stroke="none" transform="matrix(1,0,0,1,0,0)"
font-family="ESRI Default Marker" font-size="6" font-weight="400" font-style="normal" 
>
<path vector-effect="none" fill-rule="nonzero" d="M5.51563,-2.71875 C5.51563,-2.34375 5.44271,-1.99219 5.29688,-1.66406 C5.15104,-1.33594 4.95573,-1.04688 4.71094,-0.796875 C4.46615,-0.546875 4.17708,-0.351563 3.84375,-0.210938 C3.51042,-0.0703125 3.16146,0 2.79688,0 C2.41146,0 2.05469,-0.0703125 1.72656,-0.210938 C1.39844,-0.351563 1.11198,-0.546875 0.867188,-0.796875 C0.622396,-1.04688 0.429688,-1.33594 0.289063,-1.66406 C0.148438,-1.99219 0.078125,-2.34375 0.078125,-2.71875 C0.078125,-3.09375 0.148438,-3.44531 0.289063,-3.77344 C0.429688,-4.10156 0.622396,-4.39063 0.867188,-4.64063 C1.11198,-4.89063 1.39844,-5.08594 1.72656,-5.22656 C2.05469,-5.36719 2.41146,-5.4375 2.79688,-5.4375 C3.16146,-5.4375 3.51042,-5.36719 3.84375,-5.22656 C4.17708,-5.08594 4.46615,-4.89063 4.71094,-4.64063 C4.95573,-4.39063 5.15104,-4.10156 5.29688,-3.77344 C5.44271,-3.44531 5.51563,-3.09375 5.51563,-2.71875 "/>
</g>
</g>
</svg>
