<?xml version="1.0" encoding="UTF-8" standalone="no"?>
<svg viewBox="0 -7.89063 7.89063 7.89063"
 xmlns="http://www.w3.org/2000/svg" xmlns:xlink="http://www.w3.org/1999/xlink"  version="1.2" baseProfile="tiny">
<title>Qt SVG Document</title>
<desc>Generated with Qt</desc>
<defs>
</defs>
<g fill="none" stroke="black" stroke-width="1" fill-rule="evenodd" stroke-linecap="square" stroke-linejoin="bevel" >

<g fill="#70a800" fill-opacity="1" stroke="none" transform="matrix(1,0,0,1,0,0)"
font-family="ESRI Enviro Hazard Analysis" font-size="6" font-weight="400" font-style="normal" 
>
<path vector-effect="none" fill-rule="nonzero" d="M0.859375,-5.8125 C0.848958,-5.8125 0.973958,-5.79688 1.23438,-5.76563 L1.25,-5.85938 C1.28125,-6.04688 1.34896,-6.32292 1.45313,-6.6875 C1.63021,-7.125 1.93229,-7.34375 2.35938,-7.34375 C2.70313,-7.34375 3.01042,-7.16667 3.28125,-6.8125 C3.32292,-6.86458 3.375,-6.92708 3.4375,-7 C3.5,-7.07292 3.57292,-7.15625 3.65625,-7.25 C4.04167,-7.67708 4.44271,-7.89063 4.85938,-7.89063 C5.21354,-7.89063 5.5,-7.74479 5.71875,-7.45313 C5.91667,-7.20313 6.03646,-6.88021 6.07813,-6.48438 L6.35938,-6.48438 C6.42188,-6.48438 6.47656,-6.48438 6.52344,-6.48438 C6.57031,-6.48438 6.61458,-6.48438 6.65625,-6.48438 C6.86458,-6.45313 7.02604,-6.40625 7.14063,-6.34375 C7.31771,-6.26042 7.48438,-6.07813 7.64063,-5.79688 C7.80729,-5.52604 7.89063,-5.29688 7.89063,-5.10938 C7.89063,-4.60938 7.61979,-4.15104 7.07813,-3.73438 C7.38021,-3.60938 7.59115,-3.44271 7.71094,-3.23438 C7.83073,-3.02604 7.89063,-2.75 7.89063,-2.40625 C7.89063,-1.97917 7.77604,-1.60938 7.54688,-1.29688 C7.29688,-0.953125 6.96354,-0.78125 6.54688,-0.78125 C6.24479,-0.78125 5.94271,-0.885417 5.64063,-1.09375 C5.49479,-0.802083 5.22396,-0.541667 4.82813,-0.3125 C4.47396,-0.104167 4.16667,0 3.90625,0 C3.55208,0 3.25,-0.151042 3,-0.453125 C2.77083,-0.723958 2.61979,-1.06771 2.54688,-1.48438 L2.45313,-1.39063 C2.35938,-1.29688 2.27865,-1.22396 2.21094,-1.17188 C2.14323,-1.11979 2.09375,-1.08333 2.0625,-1.0625 C1.91667,-0.96875 1.75,-0.921875 1.5625,-0.921875 C1.125,-0.921875 0.755208,-1.0625 0.453125,-1.34375 C0.151042,-1.60417 0,-1.94271 0,-2.35938 C0,-2.60938 0.0651042,-2.86719 0.195313,-3.13281 C0.325521,-3.39844 0.505208,-3.63021 0.734375,-3.82813 L0.28125,-4.42188 C0.09375,-4.69271 0,-4.92188 0,-5.10938 C0,-5.57813 0.286458,-5.8125 0.859375,-5.8125 "/>
</g>
</g>
</svg>
