<?xml version="1.0" encoding="UTF-8" standalone="no"?>
<svg viewBox="0 -5.59375 5.59375 5.59375"
 xmlns="http://www.w3.org/2000/svg" xmlns:xlink="http://www.w3.org/1999/xlink"  version="1.2" baseProfile="tiny">
<title>Qt SVG Document</title>
<desc>Generated with Qt</desc>
<defs>
</defs>
<g fill="none" stroke="black" stroke-width="1" fill-rule="evenodd" stroke-linecap="square" stroke-linejoin="bevel" >

<g fill="#000000" fill-opacity="1" stroke="none" transform="matrix(1,0,0,1,0,0)"
font-family="ESRI Default Marker" font-size="6" font-weight="400" font-style="normal" 
>
<path vector-effect="none" fill-rule="nonzero" d="M5.59375,-2.79688 C5.59375,-2.41146 5.52083,-2.04948 5.375,-1.71094 C5.22917,-1.3724 5.02865,-1.07552 4.77344,-0.820313 C4.51823,-0.565104 4.22135,-0.364583 3.88281,-0.21875 C3.54427,-0.0729167 3.18229,0 2.79688,0 C2.41146,0 2.04948,-0.0729167 1.71094,-0.21875 C1.3724,-0.364583 1.07552,-0.565104 0.820313,-0.820313 C0.565104,-1.07552 0.364583,-1.3724 0.21875,-1.71094 C0.0729167,-2.04948 0,-2.41146 0,-2.79688 C0,-3.18229 0.0729167,-3.54427 0.21875,-3.88281 C0.364583,-4.22135 0.565104,-4.51823 0.820313,-4.77344 C1.07552,-5.02865 1.3724,-5.22917 1.71094,-5.375 C2.04948,-5.52083 2.41146,-5.59375 2.79688,-5.59375 C3.18229,-5.59375 3.54427,-5.52083 3.88281,-5.375 C4.22135,-5.22917 4.51823,-5.02865 4.77344,-4.77344 C5.02865,-4.51823 5.22917,-4.22135 5.375,-3.88281 C5.52083,-3.54427 5.59375,-3.18229 5.59375,-2.79688 M5.4375,-2.79688 C5.4375,-3.16146 5.36719,-3.5026 5.22656,-3.82031 C5.08594,-4.13802 4.89583,-4.41667 4.65625,-4.65625 C4.41667,-4.89583 4.13802,-5.08594 3.82031,-5.22656 C3.5026,-5.36719 3.16146,-5.4375 2.79688,-5.4375 C2.43229,-5.4375 2.09115,-5.36719 1.77344,-5.22656 C1.45573,-5.08594 1.17708,-4.89583 0.9375,-4.65625 C0.697917,-4.41667 0.507813,-4.13802 0.367188,-3.82031 C0.226563,-3.5026 0.15625,-3.16146 0.15625,-2.79688 C0.15625,-2.43229 0.226563,-2.09115 0.367188,-1.77344 C0.507813,-1.45573 0.697917,-1.17708 0.9375,-0.9375 C1.17708,-0.697917 1.45573,-0.507813 1.77344,-0.367188 C2.09115,-0.226563 2.43229,-0.15625 2.79688,-0.15625 C3.16146,-0.15625 3.5026,-0.226563 3.82031,-0.367188 C4.13802,-0.507813 4.41667,-0.697917 4.65625,-0.9375 C4.89583,-1.17708 5.08594,-1.45573 5.22656,-1.77344 C5.36719,-2.09115 5.4375,-2.43229 5.4375,-2.79688 "/>
</g>
</g>
</svg>
