<?xml version="1.0" encoding="UTF-8" standalone="no"?>
<svg viewBox="0 -8 8 8"
 xmlns="http://www.w3.org/2000/svg" xmlns:xlink="http://www.w3.org/1999/xlink"  version="1.2" baseProfile="tiny">
<title>Qt SVG Document</title>
<desc>Generated with Qt</desc>
<defs>
</defs>
<g fill="none" stroke="black" stroke-width="1" fill-rule="evenodd" stroke-linecap="square" stroke-linejoin="bevel" >

<g fill="#267300" fill-opacity="1" stroke="none" transform="matrix(1,0,0,1,0,0)"
font-family="ESRI Enviro Hazard Analysis" font-size="6" font-weight="400" font-style="normal" 
>
<path vector-effect="none" fill-rule="nonzero" d="M1.0625,-3.73438 C0.854167,-3.59896 0.677083,-3.40625 0.53125,-3.15625 C0.395833,-2.90625 0.328125,-2.65625 0.328125,-2.40625 C0.328125,-2.07292 0.453125,-1.80208 0.703125,-1.59375 C0.953125,-1.36458 1.26042,-1.25 1.625,-1.25 C1.79167,-1.25 1.96875,-1.33333 2.15625,-1.5 C2.23958,-1.5625 2.31771,-1.6276 2.39063,-1.69531 C2.46354,-1.76302 2.54167,-1.82813 2.625,-1.89063 C2.65625,-1.92188 2.69792,-1.9375 2.75,-1.9375 C2.83333,-1.9375 2.875,-1.875 2.875,-1.75 C2.875,-1.375 2.97396,-1.05208 3.17188,-0.78125 C3.39063,-0.479167 3.65625,-0.328125 3.96875,-0.328125 C4.21875,-0.328125 4.52604,-0.447917 4.89063,-0.6875 C5.25521,-0.927083 5.44271,-1.15104 5.45313,-1.35938 C5.45313,-1.47396 5.5,-1.53125 5.59375,-1.53125 C5.625,-1.53125 5.66667,-1.51563 5.71875,-1.48438 C6.03125,-1.23438 6.32813,-1.10938 6.60938,-1.10938 C6.92188,-1.10938 7.18229,-1.25 7.39063,-1.53125 C7.57813,-1.78125 7.67188,-2.09375 7.67188,-2.46875 C7.67188,-2.79167 7.61198,-3.03906 7.49219,-3.21094 C7.3724,-3.38281 7.16146,-3.51042 6.85938,-3.59375 C6.75521,-3.625 6.70313,-3.67708 6.70313,-3.75 C6.70313,-3.80208 6.73438,-3.84896 6.79688,-3.89063 C7.38021,-4.26563 7.67188,-4.69271 7.67188,-5.17188 C7.67188,-5.29688 7.60417,-5.47396 7.46875,-5.70313 C7.33333,-5.93229 7.19271,-6.08333 7.04688,-6.15625 C6.90104,-6.23958 6.55729,-6.28125 6.01563,-6.28125 C5.91146,-6.28125 5.85938,-6.33854 5.85938,-6.45313 C5.85938,-6.77604 5.77604,-7.05729 5.60938,-7.29688 C5.42188,-7.54688 5.19271,-7.67188 4.92188,-7.67188 C4.63021,-7.67188 4.36979,-7.5625 4.14063,-7.34375 C4.03646,-7.23958 3.9375,-7.13542 3.84375,-7.03125 C3.75,-6.92708 3.65625,-6.82031 3.5625,-6.71094 C3.46875,-6.60156 3.39063,-6.54688 3.32813,-6.54688 C3.29688,-6.54688 3.1875,-6.64063 3,-6.82813 C2.8125,-7.01563 2.61458,-7.10938 2.40625,-7.10938 C2.125,-7.10938 1.91667,-6.97396 1.78125,-6.70313 C1.73958,-6.61979 1.68229,-6.36979 1.60938,-5.95313 C1.54688,-5.68229 1.45833,-5.54688 1.34375,-5.54688 L0.921875,-5.59375 C0.692708,-5.59375 0.536458,-5.5651 0.453125,-5.50781 C0.369792,-5.45052 0.328125,-5.33854 0.328125,-5.17188 C0.328125,-5.00521 0.458333,-4.76563 0.71875,-4.45313 C0.989583,-4.13021 1.125,-3.92708 1.125,-3.84375 C1.125,-3.80208 1.10417,-3.76563 1.0625,-3.73438 M0,-5.17188 C0,-5.68229 0.153646,-5.9375 0.460938,-5.9375 C0.768229,-5.9375 0.947917,-5.93229 1,-5.92188 C1.05208,-5.91146 1.13542,-5.90104 1.25,-5.89063 L1.25,-5.92188 C1.28125,-6.09896 1.34896,-6.38021 1.45313,-6.76563 C1.63021,-7.22396 1.94792,-7.45313 2.40625,-7.45313 C2.77083,-7.45313 3.08333,-7.28646 3.34375,-6.95313 C3.52083,-7.15104 3.66406,-7.3099 3.77344,-7.42969 C3.88281,-7.54948 3.95833,-7.63021 4,-7.67188 C4.27083,-7.89063 4.57813,-8 4.92188,-8 C5.27604,-8 5.57813,-7.84896 5.82813,-7.54688 C6.03646,-7.28646 6.15625,-6.97396 6.1875,-6.60938 L6.28125,-6.60938 C6.71875,-6.60938 7.03125,-6.55729 7.21875,-6.45313 C7.41667,-6.35938 7.59375,-6.16667 7.75,-5.875 C7.91667,-5.60417 8,-5.36979 8,-5.17188 C8,-4.66146 7.75,-4.20833 7.25,-3.8125 C7.75,-3.58333 8,-3.13542 8,-2.46875 C8,-2.03125 7.89063,-1.65625 7.67188,-1.34375 C7.40104,-0.96875 7.04688,-0.78125 6.60938,-0.78125 C6.30729,-0.78125 6.01042,-0.880208 5.71875,-1.07813 C5.58333,-0.786458 5.31771,-0.53125 4.92188,-0.3125 C4.55729,-0.104167 4.23958,0 3.96875,0 C3.58333,0 3.26042,-0.151042 3,-0.453125 C2.77083,-0.713542 2.63021,-1.03646 2.57813,-1.42188 L2.54688,-1.40625 C2.45313,-1.3125 2.36979,-1.23698 2.29688,-1.17969 C2.22396,-1.1224 2.17708,-1.08333 2.15625,-1.0625 C2,-0.96875 1.82292,-0.921875 1.625,-0.921875 C1.15625,-0.921875 0.768229,-1.0625 0.460938,-1.34375 C0.153646,-1.625 0,-1.97917 0,-2.40625 C0,-2.66667 0.0677083,-2.93229 0.203125,-3.20313 C0.338542,-3.47396 0.505208,-3.70313 0.703125,-3.89063 C0.630208,-3.98438 0.557292,-4.08073 0.484375,-4.17969 C0.411458,-4.27865 0.338542,-4.38021 0.265625,-4.48438 C0.0885417,-4.74479 0,-4.97396 0,-5.17188 "/>
</g>
</g>
</svg>
