<?xml version="1.0" encoding="UTF-8" standalone="no"?>
<svg
   xmlns:dc="http://purl.org/dc/elements/1.1/"
   xmlns:cc="http://creativecommons.org/ns#"
   xmlns:rdf="http://www.w3.org/1999/02/22-rdf-syntax-ns#"
   xmlns:svg="http://www.w3.org/2000/svg"
   xmlns="http://www.w3.org/2000/svg"
   xmlns:sodipodi="http://sodipodi.sourceforge.net/DTD/sodipodi-0.dtd"
   xmlns:inkscape="http://www.inkscape.org/namespaces/inkscape"
   height="9.6454334"
   width="9.6454334"
   id="svg423"
   version="1.2"
   viewBox="0 -8.39063 9.6454337 9.6454337"
   sodipodi:docname="P_26_120_0015.svg"
   inkscape:version="0.92.2 2405546, 2018-03-11">
  <sodipodi:namedview
     pagecolor="#ffffff"
     bordercolor="#666666"
     borderopacity="1"
     objecttolerance="10"
     gridtolerance="10"
     guidetolerance="10"
     inkscape:pageopacity="0"
     inkscape:pageshadow="2"
     inkscape:window-width="3434"
     inkscape:window-height="1407"
     id="namedview949"
     showgrid="false"
     inkscape:zoom="4.2741629"
     inkscape:cx="40.480095"
     inkscape:cy="-30.461637"
     inkscape:window-x="1920"
     inkscape:window-y="27"
     inkscape:window-maximized="0"
     inkscape:current-layer="g421" />
  <metadata
     id="metadata427">
    <rdf:RDF>
      <cc:Work
         rdf:about="">
        <dc:format>image/svg+xml</dc:format>
        <dc:type
           rdf:resource="http://purl.org/dc/dcmitype/StillImage" />
        <dc:title>Qt SVG Document</dc:title>
      </cc:Work>
    </rdf:RDF>
  </metadata>
  <title
     id="title411">Qt SVG Document</title>
  <desc
     id="desc413">Generated with Qt</desc>
  <defs
     id="defs415" />
  <g
     transform="translate(0.62740159,0.62740159)"
     style="fill:none;fill-rule:evenodd;stroke:#000000;stroke-width:1;stroke-linecap:square;stroke-linejoin:bevel"
     id="g421">
    <g
       style="font-style:normal;font-weight:400;font-size:9px;font-family:'ESRI Default Marker';fill:#38a800;fill-opacity:1;stroke:#38a800;stroke-width:1.25480315;stroke-miterlimit:4;stroke-dasharray:none;stroke-opacity:1"
       id="g419"
       font-style="normal"
       font-weight="400"
       font-size="9">
      <path
         style="vector-effect:none;fill-rule:nonzero;stroke:#38a800;stroke-width:1.25480315;stroke-miterlimit:4;stroke-dasharray:none;stroke-opacity:1"
         id="path417"
         d="m 8.39063,-4.20313 c 0,0.58334 -0.10938,1.13021 -0.32813,1.64063 C 7.84375,-2.05208 7.54427,-1.60677 7.16406,-1.22656 6.78385,-0.846354 6.33854,-0.546875 5.82813,-0.328125 5.31771,-0.109375 4.77604,0 4.20313,0 3.61979,0 3.07292,-0.109375 2.5625,-0.328125 2.05208,-0.546875 1.60677,-0.846354 1.22656,-1.22656 0.846354,-1.60677 0.546875,-2.05208 0.328125,-2.5625 0.109375,-3.07292 0,-3.61979 0,-4.20313 c 0,-0.57291 0.109375,-1.11458 0.328125,-1.625 0.21875,-0.51041 0.518229,-0.95572 0.898435,-1.33593 0.38021,-0.38021 0.82552,-0.67969 1.33594,-0.89844 0.51042,-0.21875 1.05729,-0.32813 1.64063,-0.32813 0.57291,0 1.11458,0.10938 1.625,0.32813 0.51041,0.21875 0.95572,0.51823 1.33593,0.89844 0.38021,0.38021 0.67969,0.82552 0.89844,1.33593 0.21875,0.51042 0.32813,1.05209 0.32813,1.625 m -0.23438,0 c 0,-0.54166 -0.10417,-1.05208 -0.3125,-1.53125 C 7.63542,-6.21354 7.35156,-6.63281 6.99219,-6.99219 6.63281,-7.35156 6.21354,-7.63542 5.73438,-7.84375 5.25521,-8.05208 4.74479,-8.15625 4.20313,-8.15625 c -0.55209,0 -1.06771,0.10417 -1.54688,0.3125 -0.47917,0.20833 -0.89844,0.49219 -1.25781,0.85156 -0.35938,0.35938 -0.643232,0.77865 -0.851565,1.25781 -0.208333,0.47917 -0.3125,0.98959 -0.3125,1.53125 0,0.55209 0.104167,1.06771 0.3125,1.54688 0.208333,0.47917 0.492185,0.89844 0.851565,1.25781 0.35937,0.35938 0.77864,0.643232 1.25781,0.851565 0.47917,0.208333 0.99479,0.3125 1.54688,0.3125 0.54166,0 1.05208,-0.104167 1.53125,-0.3125 0.47916,-0.208333 0.89843,-0.492185 1.25781,-0.851565 0.35937,-0.35937 0.64323,-0.77864 0.85156,-1.25781 0.20833,-0.47917 0.3125,-0.99479 0.3125,-1.54688"
         inkscape:connector-curvature="0" />
    </g>
  </g>
</svg>
