<?xml version="1.0" encoding="UTF-8" standalone="no"?>
<svg viewBox="0 -13 13 13"
 xmlns="http://www.w3.org/2000/svg" xmlns:xlink="http://www.w3.org/1999/xlink"  version="1.2" baseProfile="tiny">
<title>Qt SVG Document</title>
<desc>Generated with Qt</desc>
<defs>
</defs>
<g fill="none" stroke="black" stroke-width="1" fill-rule="evenodd" stroke-linecap="square" stroke-linejoin="bevel" >

<g fill="#267300" fill-opacity="1" stroke="none" transform="matrix(1,0,0,1,0,0)"
font-family="ESRI Enviro Hazard Analysis" font-size="10" font-weight="400" font-style="normal" 
>
<path vector-effect="none" fill-rule="nonzero" d="M1.73438,-6.07813 C1.39063,-5.84896 1.10417,-5.53125 0.875,-5.125 C0.645833,-4.71875 0.53125,-4.31771 0.53125,-3.92188 C0.53125,-3.36979 0.729167,-2.92188 1.125,-2.57813 C1.54167,-2.22396 2.04688,-2.04688 2.64063,-2.04688 C2.91146,-2.04688 3.20313,-2.17708 3.51563,-2.4375 C3.64063,-2.53125 3.76302,-2.63542 3.88281,-2.75 C4.0026,-2.86458 4.125,-2.97396 4.25,-3.07813 C4.3125,-3.11979 4.38021,-3.14063 4.45313,-3.14063 C4.59896,-3.14063 4.67188,-3.04167 4.67188,-2.84375 C4.67188,-2.23958 4.83333,-1.71875 5.15625,-1.28125 C5.51042,-0.78125 5.9375,-0.53125 6.4375,-0.53125 C6.85417,-0.53125 7.35938,-0.723958 7.95313,-1.10938 C8.54688,-1.50521 8.84896,-1.86979 8.85938,-2.20313 C8.85938,-2.39063 8.93229,-2.48438 9.07813,-2.48438 C9.14063,-2.48438 9.21354,-2.46354 9.29688,-2.42188 C9.80729,-2.00521 10.2865,-1.79688 10.7344,-1.79688 C11.2552,-1.79688 11.6771,-2.02604 12,-2.48438 C12.3021,-2.89063 12.4531,-3.40104 12.4531,-4.01563 C12.4531,-4.54688 12.3594,-4.95052 12.1719,-5.22656 C11.9844,-5.5026 11.6406,-5.70833 11.1406,-5.84375 C10.9844,-5.88542 10.9063,-5.96875 10.9063,-6.09375 C10.9063,-6.17708 10.9531,-6.25521 11.0469,-6.32813 C11.9844,-6.94271 12.4531,-7.63021 12.4531,-8.39063 C12.4531,-8.59896 12.3438,-8.89063 12.125,-9.26563 C11.9167,-9.64063 11.6927,-9.89063 11.4531,-10.0156 C11.224,-10.1302 10.6667,-10.1875 9.78125,-10.1875 C9.60417,-10.1875 9.51563,-10.2813 9.51563,-10.4688 C9.51563,-11 9.38542,-11.4583 9.125,-11.8438 C8.8125,-12.25 8.43229,-12.4531 7.98438,-12.4531 C7.51563,-12.4531 7.09375,-12.2813 6.71875,-11.9375 C6.5625,-11.7708 6.40625,-11.599 6.25,-11.4219 C6.09375,-11.2448 5.94271,-11.0703 5.79688,-10.8984 C5.65104,-10.7266 5.52083,-10.6406 5.40625,-10.6406 C5.35417,-10.6406 5.17708,-10.7917 4.875,-11.0938 C4.57292,-11.3958 4.25521,-11.5469 3.92188,-11.5469 C3.45313,-11.5469 3.10938,-11.3333 2.89063,-10.9063 C2.82813,-10.75 2.73958,-10.3385 2.625,-9.67188 C2.52083,-9.22396 2.375,-9 2.1875,-9 L1.48438,-9.07813 C1.10938,-9.07813 0.856771,-9.03125 0.726563,-8.9375 C0.596354,-8.84375 0.53125,-8.66146 0.53125,-8.39063 C0.53125,-8.13021 0.744792,-7.75 1.17188,-7.25 C1.59896,-6.70833 1.8125,-6.38021 1.8125,-6.26563 C1.8125,-6.18229 1.78646,-6.11979 1.73438,-6.07813 M0,-8.39063 C0,-9.22396 0.247396,-9.64063 0.742188,-9.64063 C1.23698,-9.64063 1.52865,-9.63281 1.61719,-9.61719 C1.70573,-9.60156 1.84375,-9.58333 2.03125,-9.5625 L2.04688,-9.625 C2.08854,-9.91667 2.19271,-10.375 2.35938,-11 C2.64063,-11.7396 3.16146,-12.1094 3.92188,-12.1094 C4.51563,-12.1094 5.02083,-11.8438 5.4375,-11.3125 C5.72917,-11.6354 5.96094,-11.8932 6.13281,-12.0859 C6.30469,-12.2786 6.42708,-12.401 6.5,-12.4531 C6.94792,-12.8177 7.44271,-13 7.98438,-13 C8.56771,-13 9.0625,-12.7604 9.46875,-12.2813 C9.80208,-11.8438 9.99479,-11.3281 10.0469,-10.7344 L10.1875,-10.7344 C10.9063,-10.7344 11.4167,-10.651 11.7188,-10.4844 C12.0417,-10.3281 12.3333,-10.0156 12.5938,-9.54688 C12.8646,-9.09896 13,-8.71354 13,-8.39063 C13,-7.56771 12.599,-6.83854 11.7969,-6.20313 C12.599,-5.81771 13,-5.08854 13,-4.01563 C13,-3.30729 12.8177,-2.69271 12.4531,-2.17188 C12.026,-1.56771 11.4531,-1.26563 10.7344,-1.26563 C10.2344,-1.26563 9.75,-1.42708 9.28125,-1.75 C9.0625,-1.28125 8.63021,-0.869792 7.98438,-0.515625 C7.40104,-0.171875 6.88542,0 6.4375,0 C5.82292,0 5.30729,-0.25 4.89063,-0.75 C4.51563,-1.16667 4.27604,-1.69271 4.17188,-2.32813 L4.14063,-2.28125 C3.98438,-2.13542 3.84896,-2.01563 3.73438,-1.92188 C3.61979,-1.82813 3.53646,-1.76563 3.48438,-1.73438 C3.24479,-1.57813 2.96354,-1.5 2.64063,-1.5 C1.88021,-1.5 1.25,-1.72656 0.75,-2.17969 C0.25,-2.63281 0,-3.21354 0,-3.92188 C0,-4.33854 0.109375,-4.76823 0.328125,-5.21094 C0.546875,-5.65365 0.822917,-6.02604 1.15625,-6.32813 C1.03125,-6.48438 0.908854,-6.64063 0.789063,-6.79688 C0.669271,-6.95313 0.546875,-7.11458 0.421875,-7.28125 C0.140625,-7.69792 0,-8.06771 0,-8.39063 "/>
</g>
</g>
</svg>
