<?xml version="1.0" encoding="UTF-8" standalone="no"?>
<svg viewBox="0 -11.2031 11.2031 11.2031"
 xmlns="http://www.w3.org/2000/svg" xmlns:xlink="http://www.w3.org/1999/xlink"  version="1.2" baseProfile="tiny">
<title>Qt SVG Document</title>
<desc>Generated with Qt</desc>
<defs>
</defs>
<g fill="none" stroke="black" stroke-width="1" fill-rule="evenodd" stroke-linecap="square" stroke-linejoin="bevel" >

<g fill="#000000" fill-opacity="1" stroke="none" transform="matrix(1,0,0,1,0,0)"
font-family="ESRI Default Marker" font-size="12" font-weight="400" font-style="normal" 
>
<path vector-effect="none" fill-rule="nonzero" d="M11.2031,-5.60938 C11.2031,-4.83854 11.0573,-4.11198 10.7656,-3.42969 C10.474,-2.7474 10.0729,-2.15104 9.5625,-1.64063 C9.05208,-1.13021 8.45573,-0.729167 7.77344,-0.4375 C7.09115,-0.145833 6.36979,0 5.60938,0 C4.83854,0 4.11198,-0.145833 3.42969,-0.4375 C2.7474,-0.729167 2.15104,-1.13021 1.64063,-1.64063 C1.13021,-2.15104 0.729167,-2.7474 0.4375,-3.42969 C0.145833,-4.11198 0,-4.83854 0,-5.60938 C0,-6.36979 0.145833,-7.09115 0.4375,-7.77344 C0.729167,-8.45573 1.13021,-9.05208 1.64063,-9.5625 C2.15104,-10.0729 2.7474,-10.474 3.42969,-10.7656 C4.11198,-11.0573 4.83854,-11.2031 5.60938,-11.2031 C6.36979,-11.2031 7.09115,-11.0573 7.77344,-10.7656 C8.45573,-10.474 9.05208,-10.0729 9.5625,-9.5625 C10.0729,-9.05208 10.474,-8.45573 10.7656,-7.77344 C11.0573,-7.09115 11.2031,-6.36979 11.2031,-5.60938 M10.8906,-5.60938 C10.8906,-6.32813 10.75,-7.00781 10.4688,-7.64844 C10.1875,-8.28906 9.80729,-8.84896 9.32813,-9.32813 C8.84896,-9.80729 8.28906,-10.1875 7.64844,-10.4688 C7.00781,-10.75 6.32813,-10.8906 5.60938,-10.8906 C4.88021,-10.8906 4.19531,-10.75 3.55469,-10.4688 C2.91406,-10.1875 2.35417,-9.80729 1.875,-9.32813 C1.39583,-8.84896 1.01563,-8.28906 0.734375,-7.64844 C0.453125,-7.00781 0.3125,-6.32813 0.3125,-5.60938 C0.3125,-4.88021 0.453125,-4.19531 0.734375,-3.55469 C1.01563,-2.91406 1.39583,-2.35417 1.875,-1.875 C2.35417,-1.39583 2.91406,-1.01563 3.55469,-0.734375 C4.19531,-0.453125 4.88021,-0.3125 5.60938,-0.3125 C6.32813,-0.3125 7.00781,-0.453125 7.64844,-0.734375 C8.28906,-1.01563 8.84896,-1.39583 9.32813,-1.875 C9.80729,-2.35417 10.1875,-2.91406 10.4688,-3.55469 C10.75,-4.19531 10.8906,-4.88021 10.8906,-5.60938 "/>
</g>
</g>
</svg>
