<?xml version="1.0" encoding="UTF-8" standalone="no"?>
<svg viewBox="0 -11.1563 11.2031 11.1563"
 xmlns="http://www.w3.org/2000/svg" xmlns:xlink="http://www.w3.org/1999/xlink"  version="1.2" baseProfile="tiny">
<title>Qt SVG Document</title>
<desc>Generated with Qt</desc>
<defs>
</defs>
<g fill="none" stroke="black" stroke-width="1" fill-rule="evenodd" stroke-linecap="square" stroke-linejoin="bevel" >

<g fill="#000000" fill-opacity="1" stroke="none" transform="matrix(1,0,0,1,0,0)"
font-family="ESRI Default Marker" font-size="12" font-weight="400" font-style="normal" 
>
<path vector-effect="none" fill-rule="nonzero" d="M11.2031,-6.5625 L11.2031,-4.5625 L8.04688,-4.5625 L10.2813,-2.34375 L8.82813,-0.890625 L6.625,-3.125 L6.625,0 L4.57813,0 L4.57813,-3.125 L2.375,-0.890625 L0.921875,-2.34375 L3.14063,-4.5625 L0,-4.5625 L0,-6.5625 L3.14063,-6.5625 L0.90625,-8.78125 L2.35938,-10.2344 L4.57813,-8 L4.57813,-11.1563 L6.625,-11.1563 L6.625,-8 L8.85938,-10.2344 L10.2813,-8.78125 L8.04688,-6.5625 L11.2031,-6.5625 M10.8594,-6.25 L7.21875,-6.25 L9.79688,-8.8125 L8.85938,-9.76563 L6.28125,-7.20313 L6.28125,-10.8438 L4.9375,-10.8438 L4.9375,-7.1875 L2.35938,-9.76563 L1.40625,-8.8125 L3.98438,-6.25 L0.359375,-6.25 L0.359375,-4.875 L3.98438,-4.875 L1.42188,-2.3125 L2.375,-1.375 L4.9375,-3.9375 L4.9375,-0.3125 L6.28125,-0.3125 L6.28125,-3.9375 L8.82813,-1.375 L9.78125,-2.3125 L7.21875,-4.875 L10.8594,-4.875 L10.8594,-6.25"/>
</g>
</g>
</svg>
