<?xml version="1.0" encoding="UTF-8" standalone="no"?>
<svg viewBox="0 -11 11 11"
 xmlns="http://www.w3.org/2000/svg" xmlns:xlink="http://www.w3.org/1999/xlink"  version="1.2" baseProfile="tiny">
<title>Qt SVG Document</title>
<desc>Generated with Qt</desc>
<defs>
</defs>
<g fill="none" stroke="black" stroke-width="1" fill-rule="evenodd" stroke-linecap="square" stroke-linejoin="bevel" >

<g fill="#000000" fill-opacity="1" stroke="none" transform="matrix(1,0,0,1,0,0)"
font-family="ESRI Enviro Hazard Analysis" font-size="8.02" font-weight="400" font-style="normal" 
>
<path vector-effect="none" fill-rule="nonzero" d="M1.46875,-5.14063 C1.17708,-4.95313 0.932292,-4.6875 0.734375,-4.34375 C0.546875,-3.98958 0.453125,-3.64583 0.453125,-3.3125 C0.453125,-2.85417 0.619792,-2.47917 0.953125,-2.1875 C1.30729,-1.88542 1.73438,-1.73438 2.23438,-1.73438 C2.46354,-1.73438 2.70833,-1.84375 2.96875,-2.0625 C3.07292,-2.14583 3.17708,-2.23438 3.28125,-2.32813 C3.38542,-2.42188 3.48958,-2.51563 3.59375,-2.60938 C3.64583,-2.64063 3.70313,-2.65625 3.76563,-2.65625 C3.89063,-2.65625 3.95313,-2.57292 3.95313,-2.40625 C3.95313,-1.89583 4.09375,-1.45313 4.375,-1.07813 C4.66667,-0.661458 5.02604,-0.453125 5.45313,-0.453125 C5.79688,-0.453125 6.22396,-0.614583 6.73438,-0.9375 C7.23438,-1.28125 7.48958,-1.59375 7.5,-1.875 C7.5,-2.03125 7.5625,-2.10938 7.6875,-2.10938 C7.73958,-2.10938 7.80208,-2.08854 7.875,-2.04688 C8.30208,-1.70313 8.70313,-1.53125 9.07813,-1.53125 C9.52604,-1.53125 9.88542,-1.72396 10.1563,-2.10938 C10.4167,-2.45313 10.5469,-2.88021 10.5469,-3.39063 C10.5469,-3.84896 10.4661,-4.19531 10.3047,-4.42969 C10.1432,-4.66406 9.85417,-4.83854 9.4375,-4.95313 C9.29167,-4.98438 9.21875,-5.05208 9.21875,-5.15625 C9.21875,-5.22917 9.26042,-5.29688 9.34375,-5.35938 C10.1458,-5.86979 10.5469,-6.45313 10.5469,-7.10938 C10.5469,-7.28646 10.4531,-7.53125 10.2656,-7.84375 C10.0885,-8.15625 9.90104,-8.36458 9.70313,-8.46875 C9.50521,-8.57292 9.03125,-8.625 8.28125,-8.625 C8.125,-8.625 8.04688,-8.70313 8.04688,-8.85938 C8.04688,-9.31771 7.9375,-9.70833 7.71875,-10.0313 C7.45833,-10.375 7.14063,-10.5469 6.76563,-10.5469 C6.35938,-10.5469 6,-10.401 5.6875,-10.1094 C5.55208,-9.96354 5.41927,-9.81771 5.28906,-9.67188 C5.15885,-9.52604 5.03125,-9.3776 4.90625,-9.22656 C4.78125,-9.07552 4.67188,-9 4.57813,-9 C4.53646,-9 4.38542,-9.13021 4.125,-9.39063 C3.86458,-9.65104 3.59375,-9.78125 3.3125,-9.78125 C2.91667,-9.78125 2.63021,-9.59375 2.45313,-9.21875 C2.40104,-9.09375 2.32292,-8.75 2.21875,-8.1875 C2.13542,-7.8125 2.01563,-7.625 1.85938,-7.625 L1.25,-7.6875 C0.9375,-7.6875 0.726563,-7.64844 0.617188,-7.57031 C0.507813,-7.49219 0.453125,-7.33854 0.453125,-7.10938 C0.453125,-6.89063 0.630208,-6.5625 0.984375,-6.125 C1.35938,-5.67708 1.54688,-5.40104 1.54688,-5.29688 C1.54688,-5.23438 1.52083,-5.18229 1.46875,-5.14063 M0,-7.10938 C0,-7.80729 0.208333,-8.15625 0.625,-8.15625 C1.04167,-8.15625 1.28906,-8.15104 1.36719,-8.14063 C1.44531,-8.13021 1.5625,-8.11458 1.71875,-8.09375 L1.73438,-8.14063 C1.77604,-8.39063 1.86458,-8.77604 2,-9.29688 C2.23958,-9.93229 2.67708,-10.25 3.3125,-10.25 C3.82292,-10.25 4.25521,-10.026 4.60938,-9.57813 C4.84896,-9.84896 5.04167,-10.0651 5.1875,-10.2266 C5.33333,-10.388 5.4375,-10.4948 5.5,-10.5469 C5.875,-10.849 6.29688,-11 6.76563,-11 C7.25521,-11 7.67188,-10.7969 8.01563,-10.3906 C8.29688,-10.026 8.45833,-9.58854 8.5,-9.07813 L8.625,-9.07813 C9.23958,-9.07813 9.67188,-9.01042 9.92188,-8.875 C10.1927,-8.73958 10.4375,-8.47396 10.6563,-8.07813 C10.8854,-7.70313 11,-7.38021 11,-7.10938 C11,-6.40104 10.6615,-5.78125 9.98438,-5.25 C10.6615,-4.92708 11,-4.30729 11,-3.39063 C11,-2.79688 10.849,-2.28125 10.5469,-1.84375 C10.1823,-1.32292 9.69271,-1.0625 9.07813,-1.0625 C8.66146,-1.0625 8.25521,-1.20313 7.85938,-1.48438 C7.67188,-1.07813 7.30729,-0.729167 6.76563,-0.4375 C6.26563,-0.145833 5.82813,0 5.45313,0 C4.93229,0 4.49479,-0.208333 4.14063,-0.625 C3.81771,-0.979167 3.61458,-1.42708 3.53125,-1.96875 L3.5,-1.9375 C3.36458,-1.8125 3.25,-1.71094 3.15625,-1.63281 C3.0625,-1.55469 2.99479,-1.5 2.95313,-1.46875 C2.74479,-1.33333 2.50521,-1.26563 2.23438,-1.26563 C1.58854,-1.26563 1.05469,-1.45833 0.632813,-1.84375 C0.210938,-2.22917 0,-2.71875 0,-3.3125 C0,-3.66667 0.0911458,-4.03125 0.273438,-4.40625 C0.455729,-4.78125 0.6875,-5.09896 0.96875,-5.35938 C0.864583,-5.48438 0.763021,-5.61458 0.664063,-5.75 C0.565104,-5.88542 0.463542,-6.02083 0.359375,-6.15625 C0.119792,-6.51042 0,-6.82813 0,-7.10938 "/>
</g>
</g>
</svg>
