<?xml version="1.0" encoding="UTF-8" standalone="no"?>
<svg viewBox="0 -23.6563 23.6563 23.6563"
 xmlns="http://www.w3.org/2000/svg" xmlns:xlink="http://www.w3.org/1999/xlink"  version="1.2" baseProfile="tiny">
<title>Qt SVG Document</title>
<desc>Generated with Qt</desc>
<defs>
</defs>
<g fill="none" stroke="black" stroke-width="1" fill-rule="evenodd" stroke-linecap="square" stroke-linejoin="bevel" >

<g fill="#96cd60" fill-opacity="1" stroke="none" transform="matrix(1,0,0,1,0,0)"
font-family="ESRI Enviro Hazard Analysis" font-size="18" font-weight="400" font-style="normal" 
>
<path vector-effect="none" fill-rule="nonzero" d="M2.57813,-17.4531 C2.54688,-17.4531 2.92188,-17.4063 3.70313,-17.3125 L3.76563,-17.5625 C3.83854,-18.125 4.03646,-18.9583 4.35938,-20.0625 C4.88021,-21.3646 5.78125,-22.0156 7.0625,-22.0156 C8.09375,-22.0156 9.02083,-21.4896 9.84375,-20.4375 C9.97917,-20.5938 10.138,-20.7813 10.3203,-21 C10.5026,-21.2188 10.7188,-21.4635 10.9688,-21.7344 C12.1146,-23.0156 13.3177,-23.6563 14.5781,-23.6563 C15.6302,-23.6563 16.4948,-23.224 17.1719,-22.3594 C17.7448,-21.6198 18.099,-20.6563 18.2344,-19.4688 L19.0938,-19.4688 C19.2813,-19.4688 19.4427,-19.4688 19.5781,-19.4688 C19.7135,-19.4688 19.8385,-19.4583 19.9531,-19.4375 C20.599,-19.3438 21.0885,-19.2083 21.4219,-19.0313 C21.9531,-18.7813 22.4583,-18.2344 22.9375,-17.3906 C23.4167,-16.5885 23.6563,-15.901 23.6563,-15.3281 C23.6563,-13.8385 22.8542,-12.4688 21.25,-11.2188 C22.1458,-10.8229 22.7708,-10.3125 23.125,-9.6875 C23.4792,-9.0625 23.6563,-8.24479 23.6563,-7.23438 C23.6563,-5.95313 23.3229,-4.84375 22.6563,-3.90625 C21.9063,-2.85417 20.901,-2.32813 19.6406,-2.32813 C18.7344,-2.32813 17.8229,-2.65104 16.9063,-3.29688 C16.4896,-2.42188 15.6875,-1.64063 14.5,-0.953125 C13.4271,-0.317708 12.5,0 11.7188,0 C10.6458,0 9.73438,-0.447917 8.98438,-1.34375 C8.29688,-2.16667 7.84896,-3.20313 7.64063,-4.45313 L7.375,-4.1875 C7.07292,-3.90625 6.82552,-3.6875 6.63281,-3.53125 C6.4401,-3.375 6.29688,-3.26042 6.20313,-3.1875 C5.74479,-2.91667 5.24479,-2.78125 4.70313,-2.78125 C3.36979,-2.78125 2.25,-3.19271 1.34375,-4.01563 C0.447917,-4.81771 0,-5.83333 0,-7.0625 C0,-7.8125 0.195313,-8.58854 0.585938,-9.39063 C0.976563,-10.1927 1.51042,-10.8906 2.1875,-11.4844 L0.828125,-13.2656 C0.276042,-14.0677 0,-14.7552 0,-15.3281 C0,-16.7448 0.859375,-17.4531 2.57813,-17.4531 "/>
</g>
</g>
</svg>
