<?xml version="1.0" encoding="UTF-8" standalone="no"?>
<svg viewBox="0.609375 -5.73438 5.64063 5.73438"
 xmlns="http://www.w3.org/2000/svg" xmlns:xlink="http://www.w3.org/1999/xlink"  version="1.2" baseProfile="tiny">
<title>Qt SVG Document</title>
<desc>Generated with Qt</desc>
<defs>
</defs>
<g fill="none" stroke="black" stroke-width="1" fill-rule="evenodd" stroke-linecap="square" stroke-linejoin="bevel" >

<g fill="#000000" fill-opacity="1" stroke="none" transform="matrix(1,0,0,1,0,0)"
font-family="Arial Black" font-size="6" font-weight="400" font-style="normal" 
>
<path vector-effect="none" fill-rule="nonzero" d="M0.609375,0 L0.609375,-5.73438 L3.5625,-5.73438 C4.10417,-5.73438 4.52083,-5.6875 4.8125,-5.59375 C5.10417,-5.5 5.33854,-5.32552 5.51563,-5.07031 C5.69271,-4.8151 5.78125,-4.50521 5.78125,-4.14063 C5.78125,-3.81771 5.71354,-3.54167 5.57813,-3.3125 C5.44271,-3.08333 5.25521,-2.89583 5.01563,-2.75 C4.86979,-2.66667 4.66146,-2.59375 4.39063,-2.53125 C4.60938,-2.45833 4.76563,-2.38542 4.85938,-2.3125 C4.92188,-2.27083 5.01563,-2.17188 5.14063,-2.01563 C5.26563,-1.85938 5.34896,-1.73958 5.39063,-1.65625 L6.25,0 L4.25,0 L3.29688,-1.75 C3.18229,-1.97917 3.07813,-2.125 2.98438,-2.1875 C2.84896,-2.28125 2.70313,-2.32813 2.54688,-2.32813 L2.39063,-2.32813 L2.39063,0 L0.609375,0 M2.39063,-3.40625 L3.14063,-3.40625 C3.21354,-3.40625 3.36979,-3.43229 3.60938,-3.48438 C3.72396,-3.50521 3.81771,-3.5651 3.89063,-3.66406 C3.96354,-3.76302 4,-3.875 4,-4 C4,-4.1875 3.94271,-4.33073 3.82813,-4.42969 C3.71354,-4.52865 3.49479,-4.57813 3.17188,-4.57813 L2.39063,-4.57813 L2.39063,-3.40625"/>
</g>
</g>
</svg>
