<?xml version="1.0" encoding="UTF-8" standalone="no"?>
<svg viewBox="0 -10.8438 10.8438 10.8438"
 xmlns="http://www.w3.org/2000/svg" xmlns:xlink="http://www.w3.org/1999/xlink"  version="1.2" baseProfile="tiny">
<title>Qt SVG Document</title>
<desc>Generated with Qt</desc>
<defs>
</defs>
<g fill="none" stroke="black" stroke-width="1" fill-rule="evenodd" stroke-linecap="square" stroke-linejoin="bevel" >

<g fill="#96cd60" fill-opacity="1" stroke="none" transform="matrix(1,0,0,1,0,0)"
font-family="ESRI Enviro Hazard Analysis" font-size="8.02" font-weight="400" font-style="normal" 
>
<path vector-effect="none" fill-rule="nonzero" d="M1.17188,-8 C1.16146,-8 1.33854,-7.97917 1.70313,-7.9375 L1.73438,-8.04688 C1.76563,-8.30729 1.85417,-8.6875 2,-9.1875 C2.23958,-9.79167 2.65104,-10.0938 3.23438,-10.0938 C3.70313,-10.0938 4.13021,-9.84896 4.51563,-9.35938 C4.57813,-9.44271 4.65104,-9.53385 4.73438,-9.63281 C4.81771,-9.73177 4.91667,-9.84375 5.03125,-9.96875 C5.55208,-10.5521 6.09896,-10.8438 6.67188,-10.8438 C7.16146,-10.8438 7.5625,-10.6458 7.875,-10.25 C8.13542,-9.91667 8.29688,-9.47396 8.35938,-8.92188 L8.75,-8.92188 C8.83333,-8.92188 8.90625,-8.92188 8.96875,-8.92188 C9.03125,-8.92188 9.08854,-8.91667 9.14063,-8.90625 C9.44271,-8.86458 9.67188,-8.80208 9.82813,-8.71875 C10.0677,-8.60417 10.2969,-8.35417 10.5156,-7.96875 C10.7344,-7.60417 10.8438,-7.29167 10.8438,-7.03125 C10.8438,-6.34375 10.4792,-5.71354 9.75,-5.14063 C10.1563,-4.96354 10.4401,-4.72917 10.6016,-4.4375 C10.763,-4.14583 10.8438,-3.77083 10.8438,-3.3125 C10.8438,-2.72917 10.6927,-2.22396 10.3906,-1.79688 C10.0469,-1.30729 9.58333,-1.0625 9,-1.0625 C8.58333,-1.0625 8.16667,-1.21354 7.75,-1.51563 C7.5625,-1.10938 7.19271,-0.75 6.64063,-0.4375 C6.15104,-0.145833 5.72917,0 5.375,0 C4.88542,0 4.46875,-0.203125 4.125,-0.609375 C3.80208,-0.984375 3.59375,-1.46354 3.5,-2.04688 L3.375,-1.92188 C3.23958,-1.79688 3.1276,-1.69792 3.03906,-1.625 C2.95052,-1.55208 2.88542,-1.5 2.84375,-1.46875 C2.63542,-1.33333 2.40625,-1.26563 2.15625,-1.26563 C1.54167,-1.26563 1.02604,-1.45833 0.609375,-1.84375 C0.203125,-2.20833 0,-2.67188 0,-3.23438 C0,-3.57813 0.0885417,-3.9349 0.265625,-4.30469 C0.442708,-4.67448 0.6875,-4.99479 1,-5.26563 L0.375,-6.07813 C0.125,-6.44271 0,-6.76042 0,-7.03125 C0,-7.67708 0.390625,-8 1.17188,-8 "/>
</g>
</g>
</svg>
