<?xml version="1.0" encoding="UTF-8" standalone="no"?>
<svg viewBox="0 -11.9063 11.9063 11.9063"
 xmlns="http://www.w3.org/2000/svg" xmlns:xlink="http://www.w3.org/1999/xlink"  version="1.2" baseProfile="tiny">
<title>Qt SVG Document</title>
<desc>Generated with Qt</desc>
<defs>
</defs>
<g fill="none" stroke="black" stroke-width="1" fill-rule="evenodd" stroke-linecap="square" stroke-linejoin="bevel" >

<g fill="#000000" fill-opacity="1" stroke="none" transform="matrix(1,0,0,1,0,0)"
font-family="ESRI Default Marker" font-size="13" font-weight="400" font-style="normal" 
>
<path vector-effect="none" fill-rule="nonzero" d="M11.9063,-5.95313 C11.9063,-5.13021 11.75,-4.35677 11.4375,-3.63281 C11.125,-2.90885 10.6979,-2.27865 10.1563,-1.74219 C9.61458,-1.20573 8.98177,-0.78125 8.25781,-0.46875 C7.53385,-0.15625 6.76563,0 5.95313,0 C5.13021,0 4.35677,-0.15625 3.63281,-0.46875 C2.90885,-0.78125 2.27865,-1.20573 1.74219,-1.74219 C1.20573,-2.27865 0.78125,-2.90885 0.46875,-3.63281 C0.15625,-4.35677 0,-5.13021 0,-5.95313 C0,-6.76563 0.15625,-7.53385 0.46875,-8.25781 C0.78125,-8.98177 1.20573,-9.61458 1.74219,-10.1563 C2.27865,-10.6979 2.90885,-11.125 3.63281,-11.4375 C4.35677,-11.75 5.13021,-11.9063 5.95313,-11.9063 C6.76563,-11.9063 7.53385,-11.75 8.25781,-11.4375 C8.98177,-11.125 9.61458,-10.6979 10.1563,-10.1563 C10.6979,-9.61458 11.125,-8.98177 11.4375,-8.25781 C11.75,-7.53385 11.9063,-6.76563 11.9063,-5.95313 M11.5625,-5.95313 C11.5625,-6.72396 11.4141,-7.44792 11.1172,-8.125 C10.8203,-8.80208 10.4167,-9.39583 9.90625,-9.90625 C9.39583,-10.4167 8.80208,-10.8203 8.125,-11.1172 C7.44792,-11.4141 6.72396,-11.5625 5.95313,-11.5625 C5.18229,-11.5625 4.45573,-11.4141 3.77344,-11.1172 C3.09115,-10.8203 2.49479,-10.4167 1.98438,-9.90625 C1.47396,-9.39583 1.07292,-8.80208 0.78125,-8.125 C0.489583,-7.44792 0.34375,-6.72396 0.34375,-5.95313 C0.34375,-5.18229 0.489583,-4.45573 0.78125,-3.77344 C1.07292,-3.09115 1.47396,-2.49479 1.98438,-1.98438 C2.49479,-1.47396 3.09115,-1.07292 3.77344,-0.78125 C4.45573,-0.489583 5.18229,-0.34375 5.95313,-0.34375 C6.72396,-0.34375 7.44792,-0.489583 8.125,-0.78125 C8.80208,-1.07292 9.39583,-1.47396 9.90625,-1.98438 C10.4167,-2.49479 10.8203,-3.09115 11.1172,-3.77344 C11.4141,-4.45573 11.5625,-5.18229 11.5625,-5.95313 "/>
</g>
</g>
</svg>
