<?xml version="1.0" encoding="UTF-8" standalone="no"?>
<svg viewBox="0.15625 -10.2031 10.1719 10.2031"
 xmlns="http://www.w3.org/2000/svg" xmlns:xlink="http://www.w3.org/1999/xlink"  version="1.2" baseProfile="tiny">
<title>Qt SVG Document</title>
<desc>Generated with Qt</desc>
<defs>
</defs>
<g fill="none" stroke="black" stroke-width="1" fill-rule="evenodd" stroke-linecap="square" stroke-linejoin="bevel" >

<g fill="#e60000" fill-opacity="1" stroke="none" transform="matrix(1,0,0,1,0,0)"
font-family="ESRI Default Marker" font-size="11" font-weight="400" font-style="normal" 
>
<path vector-effect="none" fill-rule="nonzero" d="M10.3281,-5.09375 C10.3281,-4.38542 10.1979,-3.72396 9.9375,-3.10938 C9.67708,-2.49479 9.3125,-1.95573 8.84375,-1.49219 C8.375,-1.02865 7.83073,-0.664063 7.21094,-0.398438 C6.59115,-0.132813 5.93229,0 5.23438,0 C4.52604,0 3.86458,-0.132813 3.25,-0.398438 C2.63542,-0.664063 2.09635,-1.02865 1.63281,-1.49219 C1.16927,-1.95573 0.807292,-2.49479 0.546875,-3.10938 C0.286458,-3.72396 0.15625,-4.38542 0.15625,-5.09375 C0.15625,-5.80208 0.286458,-6.46615 0.546875,-7.08594 C0.807292,-7.70573 1.16927,-8.2474 1.63281,-8.71094 C2.09635,-9.17448 2.63542,-9.53906 3.25,-9.80469 C3.86458,-10.0703 4.52604,-10.2031 5.23438,-10.2031 C5.93229,-10.2031 6.59115,-10.0703 7.21094,-9.80469 C7.83073,-9.53906 8.375,-9.17448 8.84375,-8.71094 C9.3125,-8.2474 9.67708,-7.70573 9.9375,-7.08594 C10.1979,-6.46615 10.3281,-5.80208 10.3281,-5.09375 "/>
</g>
</g>
</svg>
