<?xml version="1.0" encoding="UTF-8" standalone="no"?>
<svg viewBox="0.265625 -18.3594 18.3281 18.3594"
 xmlns="http://www.w3.org/2000/svg" xmlns:xlink="http://www.w3.org/1999/xlink"  version="1.2" baseProfile="tiny">
<title>Qt SVG Document</title>
<desc>Generated with Qt</desc>
<defs>
</defs>
<g fill="none" stroke="black" stroke-width="1" fill-rule="evenodd" stroke-linecap="square" stroke-linejoin="bevel" >

<g fill="#00a884" fill-opacity="1" stroke="none" transform="matrix(1,0,0,1,0,0)"
font-family="ESRI Default Marker" font-size="20" font-weight="400" font-style="normal" 
>
<path vector-effect="none" fill-rule="nonzero" d="M18.5938,-9.17188 C18.5938,-7.90104 18.3568,-6.71094 17.8828,-5.60156 C17.4089,-4.49219 16.7526,-3.52083 15.9141,-2.6875 C15.0755,-1.85417 14.099,-1.19792 12.9844,-0.71875 C11.8698,-0.239583 10.6823,0 9.42188,0 C8.14063,0 6.94792,-0.239583 5.84375,-0.71875 C4.73958,-1.19792 3.77344,-1.85417 2.94531,-2.6875 C2.11719,-3.52083 1.46354,-4.49219 0.984375,-5.60156 C0.505208,-6.71094 0.265625,-7.90104 0.265625,-9.17188 C0.265625,-10.4323 0.505208,-11.6224 0.984375,-12.7422 C1.46354,-13.862 2.11719,-14.8385 2.94531,-15.6719 C3.77344,-16.5052 4.73958,-17.1615 5.84375,-17.6406 C6.94792,-18.1198 8.14063,-18.3594 9.42188,-18.3594 C10.6823,-18.3594 11.8698,-18.1198 12.9844,-17.6406 C14.099,-17.1615 15.0755,-16.5052 15.9141,-15.6719 C16.7526,-14.8385 17.4089,-13.862 17.8828,-12.7422 C18.3568,-11.6224 18.5938,-10.4323 18.5938,-9.17188 "/>
</g>
</g>
</svg>
