<?xml version="1.0" encoding="UTF-8" standalone="no"?>
<svg viewBox="0 -12.8125 12.8125 12.8125"
 xmlns="http://www.w3.org/2000/svg" xmlns:xlink="http://www.w3.org/1999/xlink"  version="1.2" baseProfile="tiny">
<title>Qt SVG Document</title>
<desc>Generated with Qt</desc>
<defs>
</defs>
<g fill="none" stroke="black" stroke-width="1" fill-rule="evenodd" stroke-linecap="square" stroke-linejoin="bevel" >

<g fill="#70a800" fill-opacity="1" stroke="none" transform="matrix(1,0,0,1,0,0)"
font-family="ESRI Enviro Hazard Analysis" font-size="10" font-weight="400" font-style="normal" 
>
<path vector-effect="none" fill-rule="nonzero" d="M1.39063,-9.45313 C1.38021,-9.45313 1.58333,-9.42708 2,-9.375 L2.04688,-9.51563 C2.07813,-9.81771 2.18229,-10.2656 2.35938,-10.8594 C2.64063,-11.5677 3.13021,-11.9219 3.82813,-11.9219 C4.38021,-11.9219 4.88021,-11.6354 5.32813,-11.0625 C5.40104,-11.1563 5.48698,-11.2604 5.58594,-11.375 C5.6849,-11.4896 5.80208,-11.6198 5.9375,-11.7656 C6.5625,-12.4635 7.21354,-12.8125 7.89063,-12.8125 C8.46354,-12.8125 8.93229,-12.5781 9.29688,-12.1094 C9.60938,-11.7135 9.80208,-11.1927 9.875,-10.5469 L10.3438,-10.5469 C10.4375,-10.5469 10.5234,-10.5469 10.6016,-10.5469 C10.6797,-10.5469 10.75,-10.5417 10.8125,-10.5313 C11.1563,-10.4792 11.4219,-10.4063 11.6094,-10.3125 C11.8906,-10.1771 12.1615,-9.88021 12.4219,-9.42188 C12.6823,-8.98438 12.8125,-8.60938 12.8125,-8.29688 C12.8125,-7.49479 12.3802,-6.75521 11.5156,-6.07813 C11.9948,-5.85938 12.3307,-5.58073 12.5234,-5.24219 C12.7161,-4.90365 12.8125,-4.46354 12.8125,-3.92188 C12.8125,-3.22396 12.6354,-2.61979 12.2813,-2.10938 C11.8646,-1.54688 11.3177,-1.26563 10.6406,-1.26563 C10.1406,-1.26563 9.64583,-1.4375 9.15625,-1.78125 C8.9375,-1.3125 8.50521,-0.890625 7.85938,-0.515625 C7.27604,-0.171875 6.77083,0 6.34375,0 C5.77083,0 5.27604,-0.239583 4.85938,-0.71875 C4.49479,-1.16667 4.25521,-1.73438 4.14063,-2.42188 L4,-2.26563 C3.83333,-2.11979 3.69792,-2.0026 3.59375,-1.91406 C3.48958,-1.82552 3.41146,-1.76563 3.35938,-1.73438 C3.10938,-1.57813 2.83854,-1.5 2.54688,-1.5 C1.82813,-1.5 1.21875,-1.72396 0.71875,-2.17188 C0.239583,-2.60938 0,-3.16146 0,-3.82813 C0,-4.23438 0.104167,-4.65365 0.3125,-5.08594 C0.520833,-5.51823 0.8125,-5.89583 1.1875,-6.21875 L0.453125,-7.1875 C0.151042,-7.625 0,-7.99479 0,-8.29688 C0,-9.06771 0.463542,-9.45313 1.39063,-9.45313 "/>
</g>
</g>
</svg>
