<?xml version="1.0" encoding="UTF-8" standalone="no"?>
<svg viewBox="0.125 -8.15625 8.14063 8.15625"
 xmlns="http://www.w3.org/2000/svg" xmlns:xlink="http://www.w3.org/1999/xlink"  version="1.2" baseProfile="tiny">
<title>Qt SVG Document</title>
<desc>Generated with Qt</desc>
<defs>
</defs>
<g fill="none" stroke="black" stroke-width="1" fill-rule="evenodd" stroke-linecap="square" stroke-linejoin="bevel" >

<g fill="#004c73" fill-opacity="1" stroke="none" transform="matrix(1,0,0,1,0,0)"
font-family="ESRI Default Marker" font-size="9" font-weight="400" font-style="normal" 
>
<path vector-effect="none" fill-rule="nonzero" d="M8.26563,-4.07813 C8.26563,-3.50521 8.15885,-2.97396 7.94531,-2.48438 C7.73177,-1.99479 7.4401,-1.5651 7.07031,-1.19531 C6.70052,-0.825521 6.26823,-0.533854 5.77344,-0.320313 C5.27865,-0.106771 4.75,0 4.1875,0 C3.61458,0 3.08333,-0.106771 2.59375,-0.320313 C2.10417,-0.533854 1.67448,-0.825521 1.30469,-1.19531 C0.934896,-1.5651 0.645833,-1.99479 0.4375,-2.48438 C0.229167,-2.97396 0.125,-3.50521 0.125,-4.07813 C0.125,-4.64063 0.229167,-5.16927 0.4375,-5.66406 C0.645833,-6.15885 0.934896,-6.59115 1.30469,-6.96094 C1.67448,-7.33073 2.10417,-7.6224 2.59375,-7.83594 C3.08333,-8.04948 3.61458,-8.15625 4.1875,-8.15625 C4.75,-8.15625 5.27865,-8.04948 5.77344,-7.83594 C6.26823,-7.6224 6.70052,-7.33073 7.07031,-6.96094 C7.4401,-6.59115 7.73177,-6.15885 7.94531,-5.66406 C8.15885,-5.16927 8.26563,-4.64063 8.26563,-4.07813 "/>
</g>
</g>
</svg>
