<?xml version="1.0" encoding="UTF-8" standalone="no"?>
<svg viewBox="0.3125 -21.7656 21.7344 21.7656"
 xmlns="http://www.w3.org/2000/svg" xmlns:xlink="http://www.w3.org/1999/xlink"  version="1.2" baseProfile="tiny">
<title>Qt SVG Document</title>
<desc>Generated with Qt</desc>
<defs>
</defs>
<g fill="none" stroke="black" stroke-width="1" fill-rule="evenodd" stroke-linecap="square" stroke-linejoin="bevel" >

<g fill="#005ce6" fill-opacity="1" stroke="none" transform="matrix(1,0,0,1,0,0)"
font-family="ESRI Default Marker" font-size="24" font-weight="400" font-style="normal" 
>
<path vector-effect="none" fill-rule="nonzero" d="M22.0469,-10.875 C22.0469,-9.36458 21.763,-7.95313 21.1953,-6.64063 C20.6276,-5.32813 19.849,-4.17708 18.8594,-3.1875 C17.8698,-2.19792 16.7135,-1.41927 15.3906,-0.851563 C14.0677,-0.283854 12.6615,0 11.1719,0 C9.65104,0 8.23438,-0.283854 6.92188,-0.851563 C5.60938,-1.41927 4.46354,-2.19792 3.48438,-3.1875 C2.50521,-4.17708 1.73177,-5.32813 1.16406,-6.64063 C0.596354,-7.95313 0.3125,-9.36458 0.3125,-10.875 C0.3125,-12.375 0.596354,-13.7865 1.16406,-15.1094 C1.73177,-16.4323 2.50521,-17.5885 3.48438,-18.5781 C4.46354,-19.5677 5.60938,-20.3464 6.92188,-20.9141 C8.23438,-21.4818 9.65104,-21.7656 11.1719,-21.7656 C12.6615,-21.7656 14.0677,-21.4818 15.3906,-20.9141 C16.7135,-20.3464 17.8698,-19.5677 18.8594,-18.5781 C19.849,-17.5885 20.6276,-16.4323 21.1953,-15.1094 C21.763,-13.7865 22.0469,-12.375 22.0469,-10.875 "/>
</g>
</g>
</svg>
