<?xml version="1.0" encoding="UTF-8" standalone="no"?>
<svg viewBox="0 -16.7969 16.7969 16.7969"
 xmlns="http://www.w3.org/2000/svg" xmlns:xlink="http://www.w3.org/1999/xlink"  version="1.2" baseProfile="tiny">
<title>Qt SVG Document</title>
<desc>Generated with Qt</desc>
<defs>
</defs>
<g fill="none" stroke="black" stroke-width="1" fill-rule="evenodd" stroke-linecap="square" stroke-linejoin="bevel" >

<g fill="#000000" fill-opacity="1" stroke="none" transform="matrix(1,0,0,1,0,0)"
font-family="ESRI Default Marker" font-size="18" font-weight="400" font-style="normal" 
>
<path vector-effect="none" fill-rule="nonzero" d="M0,-8.40625 C0,-9.55208 0.21875,-10.638 0.65625,-11.6641 C1.09375,-12.6901 1.69271,-13.5833 2.45313,-14.3438 C3.21354,-15.1042 4.10677,-15.7031 5.13281,-16.1406 C6.15885,-16.5781 7.25,-16.7969 8.40625,-16.7969 C9.55208,-16.7969 10.638,-16.5781 11.6641,-16.1406 C12.6901,-15.7031 13.5833,-15.1042 14.3438,-14.3438 C15.1042,-13.5833 15.7031,-12.6901 16.1406,-11.6641 C16.5781,-10.638 16.7969,-9.55208 16.7969,-8.40625 C16.7969,-7.25 16.5781,-6.15885 16.1406,-5.13281 C15.7031,-4.10677 15.1042,-3.21354 14.3438,-2.45313 C13.5833,-1.69271 12.6901,-1.09375 11.6641,-0.65625 C10.638,-0.21875 9.55208,0 8.40625,0 C7.25,0 6.15885,-0.21875 5.13281,-0.65625 C4.10677,-1.09375 3.21354,-1.69271 2.45313,-2.45313 C1.69271,-3.21354 1.09375,-4.10677 0.65625,-5.13281 C0.21875,-6.15885 0,-7.25 0,-8.40625 M3.625,-1.70313 L3.8125,-1.84375 C4.48958,-1.38542 5.20833,-1.03125 5.96875,-0.78125 C6.72917,-0.53125 7.54167,-0.40625 8.40625,-0.40625 C9.28125,-0.40625 10.112,-0.539063 10.8984,-0.804688 C11.6849,-1.07031 12.4115,-1.44271 13.0781,-1.92188 L13.1719,-1.84375 L13.125,-1.96875 C14.1354,-2.6875 14.9323,-3.59896 15.5156,-4.70313 C16.099,-5.80729 16.3906,-7.04167 16.3906,-8.40625 C16.3906,-8.86458 16.3516,-9.3099 16.2734,-9.74219 C16.1953,-10.1745 16.0833,-10.599 15.9375,-11.0156 L16.1719,-11.1875 L15.8906,-11.1875 C15.599,-11.9375 15.2057,-12.6328 14.7109,-13.2734 C14.2161,-13.9141 13.6458,-14.4661 13,-14.9297 C12.3542,-15.3932 11.6432,-15.7526 10.8672,-16.0078 C10.0911,-16.263 9.27083,-16.3906 8.40625,-16.3906 L8.375,-16.3906 C7.51042,-16.3906 6.6901,-16.263 5.91406,-16.0078 C5.13802,-15.7526 4.42708,-15.3932 3.78125,-14.9297 C3.13542,-14.4661 2.56771,-13.9141 2.07813,-13.2734 C1.58854,-12.6328 1.19792,-11.9375 0.90625,-11.1875 L0.765625,-11.1875 L0.859375,-11.0938 C0.557292,-10.2396 0.40625,-9.34375 0.40625,-8.40625 C0.40625,-7.04167 0.703125,-5.80469 1.29688,-4.69531 C1.89063,-3.58594 2.69271,-2.66146 3.70313,-1.92188 L3.625,-1.70313 M8.40625,-16.3906 L8.375,-16.3906 L6.67188,-11.1875 L0.90625,-11.1875 L0.859375,-11.0938 L5.45313,-7.53125 L3.70313,-1.92188 C3.71354,-1.90104 3.75,-1.875 3.8125,-1.84375 L8.40625,-5.29688 L13.0781,-1.92188 L13.125,-1.96875 L11.4531,-7.53125 L15.9375,-11.0156 C15.9167,-11.0365 15.9063,-11.0625 15.9063,-11.0938 C15.9063,-11.1354 15.901,-11.1667 15.8906,-11.1875 L10.1094,-11.1875 L8.40625,-16.3906"/>
</g>
</g>
</svg>
