<?xml version="1.0" encoding="UTF-8" standalone="no"?>
<svg viewBox="0 -13.2969 13.2969 13.2969"
 xmlns="http://www.w3.org/2000/svg" xmlns:xlink="http://www.w3.org/1999/xlink"  version="1.2" baseProfile="tiny">
<title>Qt SVG Document</title>
<desc>Generated with Qt</desc>
<defs>
</defs>
<g fill="none" stroke="black" stroke-width="1" fill-rule="evenodd" stroke-linecap="square" stroke-linejoin="bevel" >

<g fill="#000000" fill-opacity="1" stroke="none" transform="matrix(1,0,0,1,0,0)"
font-family="ESRI Default Marker" font-size="14" font-weight="400" font-style="normal" 
>
<path vector-effect="none" fill-rule="nonzero" d="M13.2969,-6.65625 C13.2969,-5.73958 13.1224,-4.875 12.7734,-4.0625 C12.4245,-3.25 11.9505,-2.54427 11.3516,-1.94531 C10.7526,-1.34635 10.0469,-0.872396 9.23438,-0.523438 C8.42188,-0.174479 7.5625,0 6.65625,0 C5.73958,0 4.875,-0.174479 4.0625,-0.523438 C3.25,-0.872396 2.54427,-1.34635 1.94531,-1.94531 C1.34635,-2.54427 0.872396,-3.25 0.523438,-4.0625 C0.174479,-4.875 0,-5.73958 0,-6.65625 C0,-7.5625 0.174479,-8.42188 0.523438,-9.23438 C0.872396,-10.0469 1.34635,-10.7526 1.94531,-11.3516 C2.54427,-11.9505 3.25,-12.4245 4.0625,-12.7734 C4.875,-13.1224 5.73958,-13.2969 6.65625,-13.2969 C7.5625,-13.2969 8.42188,-13.1224 9.23438,-12.7734 C10.0469,-12.4245 10.7526,-11.9505 11.3516,-11.3516 C11.9505,-10.7526 12.4245,-10.0469 12.7734,-9.23438 C13.1224,-8.42188 13.2969,-7.5625 13.2969,-6.65625 M12.9219,-6.65625 C12.9219,-7.51042 12.7578,-8.31771 12.4297,-9.07813 C12.1016,-9.83854 11.651,-10.5052 11.0781,-11.0781 C10.5052,-11.651 9.83854,-12.1016 9.07813,-12.4297 C8.31771,-12.7578 7.51042,-12.9219 6.65625,-12.9219 C5.79167,-12.9219 4.97917,-12.7578 4.21875,-12.4297 C3.45833,-12.1016 2.79427,-11.651 2.22656,-11.0781 C1.65885,-10.5052 1.20833,-9.83854 0.875,-9.07813 C0.541667,-8.31771 0.375,-7.51042 0.375,-6.65625 C0.375,-5.79167 0.541667,-4.97917 0.875,-4.21875 C1.20833,-3.45833 1.65885,-2.79427 2.22656,-2.22656 C2.79427,-1.65885 3.45833,-1.20833 4.21875,-0.875 C4.97917,-0.541667 5.79167,-0.375 6.65625,-0.375 C7.51042,-0.375 8.31771,-0.541667 9.07813,-0.875 C9.83854,-1.20833 10.5052,-1.65885 11.0781,-2.22656 C11.651,-2.79427 12.1016,-3.45833 12.4297,-4.21875 C12.7578,-4.97917 12.9219,-5.79167 12.9219,-6.65625 "/>
</g>
</g>
</svg>
