<?xml version="1.0" encoding="UTF-8" standalone="no"?>
<svg viewBox="0 -13.8438 13.8594 13.8438"
 xmlns="http://www.w3.org/2000/svg" xmlns:xlink="http://www.w3.org/1999/xlink"  version="1.2" baseProfile="tiny">
<title>Qt SVG Document</title>
<desc>Generated with Qt</desc>
<defs>
</defs>
<g fill="none" stroke="black" stroke-width="1" fill-rule="evenodd" stroke-linecap="square" stroke-linejoin="bevel" >

<g fill="#a80000" fill-opacity="1" stroke="none" transform="matrix(1,0,0,1,0,0)"
font-family="ESRI IGL Font22" font-size="13" font-weight="400" font-style="normal" 
>
<path vector-effect="none" fill-rule="nonzero" d="M13.8594,-6.90625 C13.8594,-4.98958 13.1771,-3.35938 11.8125,-2.01563 C10.4688,-0.671875 8.83854,0 6.92188,0 C6.52604,0 6.09896,-0.0546875 5.64063,-0.164063 C5.18229,-0.273438 4.73177,-0.416667 4.28906,-0.59375 C3.84635,-0.770833 3.42708,-0.981771 3.03125,-1.22656 C2.63542,-1.47135 2.29688,-1.73438 2.01563,-2.01563 C0.671875,-3.36979 0,-5 0,-6.90625 C0,-8.79167 0.671875,-10.4219 2.01563,-11.7969 C3.35938,-13.1615 4.99479,-13.8438 6.92188,-13.8438 C8.83854,-13.8438 10.4688,-13.1667 11.8125,-11.8125 C13.1771,-10.4271 13.8594,-8.79167 13.8594,-6.90625 M12.7344,-6.90625 C12.7344,-8.51042 12.1563,-9.88021 11,-11.0156 C10.4167,-11.5781 9.78646,-12.0052 9.10938,-12.2969 C8.43229,-12.5885 7.69792,-12.7344 6.90625,-12.7344 C5.34375,-12.7344 3.98438,-12.1563 2.82813,-11 C2.25521,-10.4479 1.82292,-9.82813 1.53125,-9.14063 C1.23958,-8.45313 1.09375,-7.70833 1.09375,-6.90625 C1.09375,-6.125 1.23958,-5.39323 1.53125,-4.71094 C1.82292,-4.02865 2.26042,-3.40104 2.84375,-2.82813 C3.40625,-2.25521 4.02865,-1.82292 4.71094,-1.53125 C5.39323,-1.23958 6.125,-1.09375 6.90625,-1.09375 C7.69792,-1.09375 8.43229,-1.23958 9.10938,-1.53125 C9.78646,-1.82292 10.4167,-2.25521 11,-2.82813 C12.1563,-3.98438 12.7344,-5.34375 12.7344,-6.90625 "/>
</g>
</g>
</svg>
