<?xml version="1.0" encoding="UTF-8" standalone="no"?>
<svg viewBox="0 -18.8906 18.8906 18.8906"
 xmlns="http://www.w3.org/2000/svg" xmlns:xlink="http://www.w3.org/1999/xlink"  version="1.2" baseProfile="tiny">
<title>Qt SVG Document</title>
<desc>Generated with Qt</desc>
<defs>
</defs>
<g fill="none" stroke="black" stroke-width="1" fill-rule="evenodd" stroke-linecap="square" stroke-linejoin="bevel" >

<g fill="#000000" fill-opacity="1" stroke="none" transform="matrix(1,0,0,1,0,0)"
font-family="ESRI Default Marker" font-size="20" font-weight="400" font-style="normal" 
>
<path vector-effect="none" fill-rule="nonzero" d="M18.8906,-9.45313 C18.8906,-8.15104 18.6432,-6.92448 18.1484,-5.77344 C17.6536,-4.6224 16.9792,-3.61979 16.125,-2.76563 C15.2708,-1.91146 14.2682,-1.23698 13.1172,-0.742188 C11.9661,-0.247396 10.7448,0 9.45313,0 C8.15104,0 6.92448,-0.247396 5.77344,-0.742188 C4.6224,-1.23698 3.61979,-1.91146 2.76563,-2.76563 C1.91146,-3.61979 1.23698,-4.6224 0.742188,-5.77344 C0.247396,-6.92448 0,-8.15104 0,-9.45313 C0,-10.7448 0.247396,-11.9661 0.742188,-13.1172 C1.23698,-14.2682 1.91146,-15.2708 2.76563,-16.125 C3.61979,-16.9792 4.6224,-17.6536 5.77344,-18.1484 C6.92448,-18.6432 8.15104,-18.8906 9.45313,-18.8906 C10.7448,-18.8906 11.9661,-18.6432 13.1172,-18.1484 C14.2682,-17.6536 15.2708,-16.9792 16.125,-16.125 C16.9792,-15.2708 17.6536,-14.2682 18.1484,-13.1172 C18.6432,-11.9661 18.8906,-10.7448 18.8906,-9.45313 M18.3594,-9.45313 C18.3594,-10.6719 18.125,-11.8203 17.6563,-12.8984 C17.1875,-13.9766 16.5469,-14.9219 15.7344,-15.7344 C14.9219,-16.5469 13.9766,-17.1875 12.8984,-17.6563 C11.8203,-18.125 10.6719,-18.3594 9.45313,-18.3594 C8.22396,-18.3594 7.07031,-18.125 5.99219,-17.6563 C4.91406,-17.1875 3.96875,-16.5469 3.15625,-15.7344 C2.34375,-14.9219 1.70573,-13.9766 1.24219,-12.8984 C0.778646,-11.8203 0.546875,-10.6719 0.546875,-9.45313 C0.546875,-8.22396 0.778646,-7.07031 1.24219,-5.99219 C1.70573,-4.91406 2.34375,-3.96875 3.15625,-3.15625 C3.96875,-2.34375 4.91406,-1.70573 5.99219,-1.24219 C7.07031,-0.778646 8.22396,-0.546875 9.45313,-0.546875 C10.6719,-0.546875 11.8203,-0.778646 12.8984,-1.24219 C13.9766,-1.70573 14.9219,-2.34375 15.7344,-3.15625 C16.5469,-3.96875 17.1875,-4.91406 17.6563,-5.99219 C18.125,-7.07031 18.3594,-8.22396 18.3594,-9.45313 "/>
</g>
</g>
</svg>
