<?xml version="1.0" encoding="UTF-8" standalone="no"?>
<svg viewBox="0 -16.7813 16.7969 16.75"
 xmlns="http://www.w3.org/2000/svg" xmlns:xlink="http://www.w3.org/1999/xlink"  version="1.2" baseProfile="tiny">
<title>Qt SVG Document</title>
<desc>Generated with Qt</desc>
<defs>
</defs>
<g fill="none" stroke="black" stroke-width="1" fill-rule="evenodd" stroke-linecap="square" stroke-linejoin="bevel" >

<g fill="#ffffff" fill-opacity="1" stroke="none" transform="matrix(1,0,0,1,0,0)"
font-family="ESRI Public1" font-size="18" font-weight="400" font-style="normal" 
>
<path vector-effect="none" fill-rule="nonzero" d="M16.7969,-1.10938 C16.7969,-0.796875 16.6901,-0.539063 16.4766,-0.335938 C16.263,-0.132813 16.0052,-0.03125 15.7031,-0.03125 L1.125,-0.03125 C0.802083,-0.03125 0.533854,-0.132813 0.320313,-0.335938 C0.106771,-0.539063 0,-0.796875 0,-1.10938 L0,-15.6719 C0,-15.974 0.106771,-16.2344 0.320313,-16.4531 C0.533854,-16.6719 0.802083,-16.7813 1.125,-16.7813 L15.7031,-16.7813 C16.0052,-16.7813 16.263,-16.6719 16.4766,-16.4531 C16.6901,-16.2344 16.7969,-15.974 16.7969,-15.6719 L16.7969,-1.10938"/>
</g>
</g>
</svg>
