<?xml version="1.0" encoding="UTF-8" standalone="no"?>
<svg viewBox="0 -14 14 14"
 xmlns="http://www.w3.org/2000/svg" xmlns:xlink="http://www.w3.org/1999/xlink"  version="1.2" baseProfile="tiny">
<title>Qt SVG Document</title>
<desc>Generated with Qt</desc>
<defs>
</defs>
<g fill="none" stroke="black" stroke-width="1" fill-rule="evenodd" stroke-linecap="square" stroke-linejoin="bevel" >

<g fill="#000000" fill-opacity="1" stroke="none" transform="matrix(1,0,0,1,0,0)"
font-family="ESRI Default Marker" font-size="15" font-weight="400" font-style="normal" 
>
<path vector-effect="none" fill-rule="nonzero" d="M14,-7 C14,-6.04167 13.8177,-5.13542 13.4531,-4.28125 C13.0885,-3.42708 12.5885,-2.68229 11.9531,-2.04688 C11.3177,-1.41146 10.5729,-0.911458 9.71875,-0.546875 C8.86458,-0.182292 7.95833,0 7,0 C6.04167,0 5.13542,-0.182292 4.28125,-0.546875 C3.42708,-0.911458 2.68229,-1.41146 2.04688,-2.04688 C1.41146,-2.68229 0.911458,-3.42708 0.546875,-4.28125 C0.182292,-5.13542 0,-6.04167 0,-7 C0,-7.95833 0.182292,-8.86458 0.546875,-9.71875 C0.911458,-10.5729 1.41146,-11.3177 2.04688,-11.9531 C2.68229,-12.5885 3.42708,-13.0885 4.28125,-13.4531 C5.13542,-13.8177 6.04167,-14 7,-14 C7.95833,-14 8.86458,-13.8177 9.71875,-13.4531 C10.5729,-13.0885 11.3177,-12.5885 11.9531,-11.9531 C12.5885,-11.3177 13.0885,-10.5729 13.4531,-9.71875 C13.8177,-8.86458 14,-7.95833 14,-7 M13.6094,-7 C13.6094,-7.90625 13.4349,-8.76042 13.0859,-9.5625 C12.737,-10.3646 12.263,-11.0651 11.6641,-11.6641 C11.0651,-12.263 10.3646,-12.737 9.5625,-13.0859 C8.76042,-13.4349 7.90625,-13.6094 7,-13.6094 C6.09375,-13.6094 5.23958,-13.4349 4.4375,-13.0859 C3.63542,-12.737 2.9349,-12.263 2.33594,-11.6641 C1.73698,-11.0651 1.26563,-10.3646 0.921875,-9.5625 C0.578125,-8.76042 0.40625,-7.90625 0.40625,-7 C0.40625,-6.09375 0.578125,-5.23958 0.921875,-4.4375 C1.26563,-3.63542 1.73698,-2.9349 2.33594,-2.33594 C2.9349,-1.73698 3.63542,-1.26563 4.4375,-0.921875 C5.23958,-0.578125 6.09375,-0.40625 7,-0.40625 C7.90625,-0.40625 8.76042,-0.578125 9.5625,-0.921875 C10.3646,-1.26563 11.0651,-1.73698 11.6641,-2.33594 C12.263,-2.9349 12.737,-3.63542 13.0859,-4.4375 C13.4349,-5.23958 13.6094,-6.09375 13.6094,-7 "/>
</g>
</g>
</svg>
