<?xml version="1.0" encoding="UTF-8" standalone="no"?>
<svg viewBox="0.4375 -18.4688 18.0313 18.0313"
 xmlns="http://www.w3.org/2000/svg" xmlns:xlink="http://www.w3.org/1999/xlink"  version="1.2" baseProfile="tiny">
<title>Qt SVG Document</title>
<desc>Generated with Qt</desc>
<defs>
</defs>
<g fill="none" stroke="black" stroke-width="1" fill-rule="evenodd" stroke-linecap="square" stroke-linejoin="bevel" >

<g fill="#000000" fill-opacity="1" stroke="none" transform="matrix(1,0,0,1,0,0)"
font-family="ESRI US MUTCD 3" font-size="20" font-weight="400" font-style="normal" 
>
<path vector-effect="none" fill-rule="nonzero" d="M0.921875,-0.4375 C0.598958,-0.4375 0.4375,-0.598958 0.4375,-0.921875 L0.4375,-17.9844 C0.4375,-18.3073 0.598958,-18.4688 0.921875,-18.4688 L17.9844,-18.4688 C18.3073,-18.4688 18.4688,-18.3073 18.4688,-17.9844 L18.4688,-0.921875 C18.4688,-0.598958 18.3073,-0.4375 17.9844,-0.4375 L0.921875,-0.4375 M16.2969,-8.07813 C16.2865,-8.08854 16.2552,-8.09375 16.2031,-8.09375 C16.1615,-8.09375 16.125,-8.08854 16.0938,-8.07813 L13.6875,-6.78125 L14.5,-6.26563 C14.0104,-5.45313 13.3776,-4.80469 12.6016,-4.32031 C11.8255,-3.83594 10.9792,-3.54688 10.0625,-3.45313 L10.0625,-12.1719 C10.5521,-12.3177 10.9583,-12.5938 11.2813,-13 C11.6042,-13.4063 11.7656,-13.8802 11.7656,-14.4219 C11.7656,-15.0469 11.5417,-15.5833 11.0938,-16.0313 C10.6458,-16.4792 10.099,-16.7031 9.45313,-16.7031 C8.81771,-16.7031 8.27604,-16.4792 7.82813,-16.0313 C7.38021,-15.5833 7.15625,-15.0469 7.15625,-14.4219 C7.15625,-13.8802 7.31771,-13.4063 7.64063,-13 C7.96354,-12.5938 8.36979,-12.3177 8.85938,-12.1719 L8.85938,-3.45313 C7.94271,-3.54688 7.09115,-3.83594 6.30469,-4.32031 C5.51823,-4.80469 4.88542,-5.45313 4.40625,-6.26563 L5.23438,-6.78125 C3.63021,-7.64583 2.82031,-8.08073 2.80469,-8.08594 C2.78906,-8.09115 2.76042,-8.09375 2.71875,-8.09375 C2.66667,-8.09375 2.63542,-8.08854 2.625,-8.07813 C2.5625,-8.03646 2.52604,-7.96875 2.51563,-7.875 L2.51563,-5.15625 L3.375,-5.64063 C4.02083,-4.55729 4.88021,-3.71615 5.95313,-3.11719 C7.02604,-2.51823 8.19271,-2.21875 9.45313,-2.21875 C10.7448,-2.21875 11.9219,-2.51823 12.9844,-3.11719 C14.0469,-3.71615 14.901,-4.55729 15.5469,-5.64063 L16.4063,-5.15625 C16.4063,-6.96875 16.4036,-7.89844 16.3984,-7.94531 C16.3932,-7.99219 16.3594,-8.03646 16.2969,-8.07813 M8.375,-14.4219 C8.375,-14.724 8.47656,-14.9792 8.67969,-15.1875 C8.88281,-15.3958 9.14063,-15.5 9.45313,-15.5 C9.75521,-15.5 10.013,-15.3958 10.2266,-15.1875 C10.4401,-14.9792 10.5469,-14.724 10.5469,-14.4219 C10.5469,-14.1094 10.4401,-13.8464 10.2266,-13.6328 C10.013,-13.4193 9.75521,-13.3125 9.45313,-13.3125 C9.14063,-13.3125 8.88281,-13.4193 8.67969,-13.6328 C8.47656,-13.8464 8.375,-14.1094 8.375,-14.4219 "/>
</g>
</g>
</svg>
