<?xml version="1.0" encoding="UTF-8" standalone="no"?>
<svg
   xmlns:dc="http://purl.org/dc/elements/1.1/"
   xmlns:cc="http://creativecommons.org/ns#"
   xmlns:rdf="http://www.w3.org/1999/02/22-rdf-syntax-ns#"
   xmlns:svg="http://www.w3.org/2000/svg"
   xmlns="http://www.w3.org/2000/svg"
   id="svg11"
   height="6.8918667mm"
   width="6.6209331mm"
   version="1.0">
  <metadata
     id="metadata15">
    <rdf:RDF>
      <cc:Work
         rdf:about="">
        <dc:format>image/svg+xml</dc:format>
        <dc:type
           rdf:resource="http://purl.org/dc/dcmitype/StillImage" />
      </cc:Work>
    </rdf:RDF>
  </metadata>
  <defs
     id="defs3">
    <pattern
       y="0"
       x="0"
       height="6"
       width="6"
       patternUnits="userSpaceOnUse"
       id="EMFhbasepattern" />
  </defs>
  <path
     id="path5"
     d="  M 0.66666667,25.666667   L 0.66666667,0.33333333   L 25,0.33333333   L 25,25.666667   L 0.66666667,25.666667   L 0.66666667,25.666667  z   "
     style="fill:none;stroke:#000000;stroke-width:0.66666669px;stroke-linecap:round;stroke-linejoin:round;stroke-miterlimit:4;stroke-dasharray:none;stroke-opacity:1;" />
  <path
     id="path7"
     d="  M 24.666667,25.666667   L 25,25.666667     M 24.333333,25.666667   L 25,25.333333     M 24.333333,25.666667   L 25,25     M 24,25.666667   L 25,24.666667     M 23.666667,25.666667   L 25,24.333333     M 23.333333,25.666667   L 25,24.333333     M 23,25.666667   L 25,24     M 23,25.666667   L 25,23.666667     M 22.666667,25.666667   L 25,23.333333     M 22.333333,25.666667   L 25,23     M 22,25.666667   L 25,23     M 21.666667,25.666667   L 25,22.666667     M 21.666667,25.666667   L 25,22.333333     M 21.333333,25.666667   L 25,22     M 21,25.666667   L 25,22     M 20.666667,25.666667   L 25,21.666667     M 20.333333,25.666667   L 25,21.333333     M 20.333333,25.666667   L 25,21     M 20,25.666667   L 25,20.666667     M 19.666667,25.666667   L 25,20.333333     M 19.333333,25.666667   L 25,20.333333     M 19,25.666667   L 25,20     M 19,25.666667   L 25,19.666667     M 18.666667,25.666667   L 25,19.333333     M 18.333333,25.666667   L 25,19     M 18,25.666667   L 25,19     M 17.666667,25.666667   L 25,18.666667     M 17.666667,25.666667   L 25,18.333333     M 17.333333,25.666667   L 25,18     M 17,25.666667   L 25,18     M 16.666667,25.666667   L 25,17.666667     M 23.666667,18.666667   L 25,17.333333     M 16.333333,25.666667   L 23.333333,19     M 23.666667,18.333333   L 25,17     M 16.333333,25.666667   L 22.666667,19.333333     M 23.666667,18   L 25,16.666667     M 16,25.666667   L 22,19.666667     M 23.666667,18   L 25,16.333333     M 15.666667,25.666667   L 21.333333,20     M 23.666667,17.666667   L 25,16.333333     M 15.333333,25.666667   L 21,20.333333     M 23.666667,17.333333   L 25,16     M 15,25.666667   L 20.333333,20.666667     M 23.666667,17   L 25,15.666667     M 15,25.666667   L 19.666667,20.666667     M 23.666667,16.666667   L 25,15.333333     M 14.666667,25.666667   L 19.333333,21     M 23.666667,16.333333   L 25,15     M 14.333333,25.666667   L 19,21     M 23.666667,16.333333   L 25,15     M 14,25.666667   L 18.666667,21     M 23.666667,16   L 25,14.666667     M 13.666667,25.666667   L 18.333333,21     M 23.666667,15.666667   L 25,14.333333     M 13.666667,25.666667   L 18,21     M 23.666667,15.333333   L 25,14     M 13.333333,25.666667   L 18,21     M 23.666667,15   L 25,14     M 13,25.666667   L 17.666667,21     M 23.666667,15   L 25,13.666667     M 12.666667,25.666667   L 17.333333,21     M 23.666667,14.666667   L 25,13.333333     M 12.333333,25.666667   L 17.333333,21     M 23.666667,14.333333   L 25,13     M 12.333333,25.666667   L 17,21     M 23.666667,14   L 25,12.666667     M 12,25.666667   L 17,20.666667     M 23.666667,14   L 25,12.333333     M 11.666667,25.666667   L 16.666667,20.666667     M 23.666667,13.666667   L 25,12.333333     M 11.333333,25.666667   L 16.333333,20.666667     M 23.666667,13.333333   L 25,12     M 11,25.666667   L 16.333333,20.666667     M 23.666667,13   L 25,11.666667     M 11,25.666667   L 16,20.333333     M 23.666667,12.666667   L 25,11.333333     M 10.666667,25.666667   L 16,20.333333     M 18,18   L 19.333333,16.666667     M 23.666667,12.333333   L 25,11     M 10.333333,25.666667   L 15.666667,20.333333     M 17.666667,18   L 19.333333,16.333333     M 23.666667,12.333333   L 25,11     M 10,25.666667   L 15.666667,20     M 17.333333,18.333333   L 19.333333,16     M 23.666667,12   L 25,10.666667     M 9.6666667,25.666667   L 15.666667,20     M 17,18.333333   L 19.333333,16     M 23.666667,11.666667   L 25,10.333333     M 9.3333333,25.666667   L 15.333333,20     M 17,18.333333   L 19.333333,15.666667     M 23.666667,11.333333   L 25,10     M 9.3333333,25.666667   L 15.333333,19.666667     M 16.666667,18   L 19.333333,15.333333     M 23.666667,11   L 25,9.6666667     M 9,25.666667   L 15,19.666667     M 16.333333,18   L 19.333333,15     M 23.666667,11   L 25,9.6666667     M 8.6666667,25.666667   L 15,19.666667     M 16.333333,18   L 19,15     M 23.666667,10.666667   L 25,9.3333333     M 8.3333333,25.666667   L 14.666667,19.333333     M 16,18   L 19,14.666667     M 23.666667,10.333333   L 25,9     M 8.3333333,25.666667   L 14.666667,19.333333     M 16,17.666667   L 19,14.666667     M 23.666667,10   L 25,8.6666667     M 8,25.666667   L 14.333333,19.333333     M 15.666667,17.666667   L 19,14.333333     M 23.666667,10   L 25,8.3333333     M 7.6666667,25.666667   L 14.333333,19     M 15.666667,17.666667   L 18.666667,14.333333     M 23.666667,9.6666667   L 25,8.3333333     M 7.3333333,25.666667   L 14,19     M 15.333333,17.333333   L 18.666667,14.333333     M 23.666667,9.3333333   L 25,8     M 7,25.666667   L 14,19     M 15.333333,17.333333   L 18.333333,14     M 23.666667,9   L 25,7.6666667     M 7,25.666667   L 13.666667,18.666667     M 15.333333,17   L 18.333333,14     M 23.666667,8.6666667   L 25,7.3333333     M 6.6666667,25.666667   L 13.666667,18.666667     M 15,17   L 18,14     M 23.666667,8.3333333   L 25,7     M 6.3333333,25.666667   L 13.333333,18.666667     M 15,16.666667   L 18,14     M 23.666667,8.3333333   L 25,7     M 6,25.666667   L 13.333333,18.666667     M 15,16.333333   L 17.666667,13.666667     M 23.666667,8   L 25,6.6666667     M 5.6666667,25.666667   L 13,18.333333     M 15,16.333333   L 17.333333,13.666667     M 23.666667,7.6666667   L 25,6.3333333     M 5.3333333,25.666667   L 13,18.333333     M 15,16   L 17.333333,13.666667     M 23.666667,7.3333333   L 25,6     M 5.3333333,25.666667   L 12.666667,18.333333     M 15,15.666667   L 17,13.666667     M 23.666667,7   L 25,5.6666667     M 5,25.666667   L 12.333333,18.333333     M 15,15.333333   L 16.666667,13.666667     M 23.666667,7   L 25,5.6666667     M 4.6666667,25.666667   L 12.333333,18.333333     M 15,15   L 16.333333,14     M 23.666667,6.6666667   L 25,5.3333333     M 4.3333333,25.666667   L 12,18.333333     M 23.666667,6.3333333   L 25,5     M 4.3333333,25.666667   L 11.666667,18     M 23.666667,6   L 25,4.6666667     M 4,25.666667   L 11.666667,18     M 23,6.3333333   L 25,4.3333333     M 3.6666667,25.666667   L 11.333333,18     M 22.333333,6.6666667   L 25,4.3333333     M 3.3333333,25.666667   L 11,18     M 21.666667,7   L 25,4     M 3,25.666667   L 11,18     M 21,7.3333333   L 25,3.6666667     M 3,25.666667   L 10.666667,18     M 20.666667,7.6666667   L 25,3.3333333     M 2.6666667,25.666667   L 10.333333,18     M 20,8   L 25,3     M 2.3333333,25.666667   L 10,18     M 19.666667,8.3333333   L 25,3     M 2,25.666667   L 10,18     M 19,8.3333333   L 25,2.6666667     M 1.6666667,25.666667   L 9.6666667,18     M 19,8.3333333   L 25,2.3333333     M 1.3333333,25.666667   L 9.3333333,18     M 18.666667,8.3333333   L 25,2     M 1.3333333,25.666667   L 9,18     M 18.333333,8.3333333   L 25,1.6666667     M 1,25.666667   L 8.6666667,18     M 18,8.3333333   L 25,1.6666667     M 0.66666667,25.666667   L 8.3333333,18     M 17.666667,8.3333333   L 25,1.3333333     M 0.66666667,25.333333   L 8.3333333,18     M 17.666667,8.3333333   L 25,1     M 0.66666667,25.333333   L 8,18     M 0.66666667,0.33333333   L 0.66666667,0.33333333     M 0.66666667,0.66666667   L 1,0.33333333     M 0.66666667,1   L 1.3333333,0.33333333     M 0.66666667,1   L 1.6666667,0.33333333     M 0.66666667,1.3333333   L 1.6666667,0.33333333     M 0.66666667,1.6666667   L 2,0.33333333     M 0.66666667,2   L 2.3333333,0.33333333     M 0.66666667,2.3333333   L 2.6666667,0.33333333     M 0.66666667,2.3333333   L 3,0.33333333     M 0.66666667,2.6666667   L 3,0.33333333     M 0.66666667,3   L 3.3333333,0.33333333     M 0.66666667,3.3333333   L 3.6666667,0.33333333     M 0.66666667,3.6666667   L 4,0.33333333     M 0.66666667,3.6666667   L 4.3333333,0.33333333     M 0.66666667,4   L 4.3333333,0.33333333     M 0.66666667,4.3333333   L 4.6666667,0.33333333     M 0.66666667,4.6666667   L 5,0.33333333     M 0.66666667,5   L 5.3333333,0.33333333     M 0.66666667,5   L 5.6666667,0.33333333     M 0.66666667,5.3333333   L 5.6666667,0.33333333     M 0.66666667,5.6666667   L 6,0.33333333     M 0.66666667,6   L 6.3333333,0.33333333     M 0.66666667,6.3333333   L 6.6666667,0.33333333     M 0.66666667,6.3333333   L 7,0.33333333     M 0.66666667,6.6666667   L 7,0.33333333     M 0.66666667,7   L 7.3333333,0.33333333     M 0.66666667,7.3333333   L 7.6666667,0.33333333     M 0.66666667,7.6666667   L 8,0.33333333     M 0.66666667,7.6666667   L 8.3333333,0.33333333     M 0.66666667,8   L 8.3333333,0.33333333     M 2,7   L 8.6666667,0.33333333     M 0.66666667,8.3333333   L 2,7     M 2.6666667,6.6666667   L 9,0.33333333     M 0.66666667,8.6666667   L 2,7.3333333     M 3,6.6666667   L 9.3333333,0.33333333     M 0.66666667,9   L 2,7.6666667     M 3.3333333,6.3333333   L 9.6666667,0.33333333     M 0.66666667,9   L 2,7.6666667     M 3.6666667,6.3333333   L 9.6666667,0.33333333     M 0.66666667,9.3333333   L 2,8     M 4.3333333,6.3333333   L 10,0.33333333     M 0.66666667,9.6666667   L 2,8.3333333     M 4.6666667,6   L 10.333333,0.33333333     M 0.66666667,10   L 2,8.6666667     M 5,6   L 10.666667,0.33333333     M 0.66666667,10.333333   L 2,9     M 5.3333333,6   L 11,0.33333333     M 0.66666667,10.333333   L 2,9     M 5.6666667,5.6666667   L 11,0.33333333     M 0.66666667,10.666667   L 2,9.3333333     M 6,5.6666667   L 11.333333,0.33333333     M 0.66666667,11   L 2,9.6666667     M 6.3333333,5.6666667   L 11.666667,0.33333333     M 0.66666667,11.333333   L 2,10     M 6.6666667,5.6666667   L 12,0.33333333     M 0.66666667,11.666667   L 2,10.333333     M 7,5.3333333   L 12.333333,0.33333333     M 0.66666667,11.666667   L 2,10.333333     M 7.3333333,5.3333333   L 12.666667,0.33333333     M 0.66666667,12   L 2,10.666667     M 7.6666667,5.3333333   L 12.666667,0.33333333     M 0.66666667,12.333333   L 2,11     M 8,5.3333333   L 13,0.33333333     M 0.66666667,12.666667   L 2,11.333333     M 8.3333333,5.3333333   L 13.333333,0.33333333     M 0.66666667,13   L 2,11.666667     M 8.6666667,5.3333333   L 13.666667,0.33333333     M 0.66666667,13   L 2,11.666667     M 9,5.3333333   L 13.666667,0.33333333     M 0.66666667,13.333333   L 2,12     M 9.3333333,5.3333333   L 14,0.33333333     M 0.66666667,13.666667   L 2,12.333333     M 9.3333333,5   L 14.333333,0.33333333     M 0.66666667,14   L 2,12.666667     M 9.6666667,5   L 14.666667,0.33333333     M 0.66666667,14.333333   L 2,13     M 10,5   L 15,0.33333333     M 0.66666667,14.333333   L 2,13     M 10.333333,5.3333333   L 15,0.33333333     M 0.66666667,14.666667   L 2,13.333333     M 10.666667,5.3333333   L 15.333333,0.33333333     M 0.66666667,15   L 2,13.666667     M 10.666667,5.3333333   L 15.666667,0.33333333     M 0.66666667,15.333333   L 2,14     M 11,5.3333333   L 16,0.33333333     M 0.66666667,15.666667   L 2,14.333333     M 7.6666667,9   L 8.3333333,8.3333333     M 11.333333,5.3333333   L 16.333333,0.33333333     M 0.66666667,16   L 2,14.333333     M 7.3333333,9.6666667   L 9,8     M 11.333333,5.3333333   L 16.666667,0.33333333     M 0.66666667,16   L 2,14.666667     M 7,10   L 9.3333333,7.6666667     M 11.666667,5.3333333   L 16.666667,0.33333333     M 0.66666667,16.333333   L 2,15     M 7,10.333333   L 9.6666667,7.6666667     M 12,5.3333333   L 17,0.33333333     M 0.66666667,16.666667   L 2,15.333333     M 7,10.666667   L 10,7.6666667     M 12,5.3333333   L 17.333333,0.33333333     M 0.66666667,17   L 2,15.666667     M 7,10.666667   L 10.333333,7.6666667     M 12.333333,5.6666667   L 17.666667,0.33333333     M 0.66666667,17   L 2,15.666667     M 7,11   L 10.333333,7.6666667     M 12.666667,5.6666667   L 17.666667,0.33333333     M 0.66666667,17.333333   L 2,16     M 7,11.333333   L 10.666667,7.6666667     M 12.666667,5.6666667   L 18,0.33333333     M 0.66666667,17.666667   L 2,16.333333     M 7,11.666667   L 11,7.6666667     M 13,5.6666667   L 18.333333,0.33333333     M 0.66666667,18   L 2,16.666667     M 7.3333333,11.666667   L 11,8     M 13,6   L 18.666667,0.33333333     M 0.66666667,18.333333   L 2,17     M 7.3333333,12   L 11.333333,8     M 13.333333,6   L 19,0.33333333     M 0.66666667,18.333333   L 2,17     M 7.3333333,12   L 11.333333,8     M 13.333333,6   L 19,0.33333333     M 0.66666667,18.666667   L 2,17.333333     M 7.3333333,12.333333   L 11.666667,8     M 13.666667,6   L 19.333333,0.33333333     M 0.66666667,19   L 2,17.666667     M 7.6666667,12.333333   L 11.666667,8.3333333     M 14,6.3333333   L 19.666667,0.33333333     M 0.66666667,19.333333   L 2,18     M 7.6666667,12.666667   L 12,8.3333333     M 14,6.3333333   L 20,0.33333333     M 0.66666667,19.666667   L 2,18.333333     M 8,12.666667   L 12,8.3333333     M 14.333333,6.3333333   L 20.333333,0.33333333     M 0.66666667,20   L 2,18.333333     M 8,12.666667   L 12.333333,8.6666667     M 14.333333,6.3333333   L 20.666667,0.33333333     M 0.66666667,20   L 2,18.666667     M 8,13   L 12.333333,8.6666667     M 14.666667,6.6666667   L 20.666667,0.33333333     M 0.66666667,20.333333   L 2,19     M 8.3333333,13   L 12.333333,9     M 14.666667,6.6666667   L 21,0.33333333     M 0.66666667,20.666667   L 2,19.333333     M 8.3333333,13   L 12.666667,9     M 15,6.6666667   L 21.333333,0.33333333     M 0.66666667,21   L 2,19.666667     M 8.6666667,13.333333   L 12.666667,9.3333333     M 15,7   L 21.666667,0.33333333     M 0.66666667,21   L 2.3333333,19.666667     M 8.6666667,13.333333   L 12.666667,9.3333333     M 15,7   L 22,0.33333333     M 0.66666667,21.333333   L 2.6666667,19.333333     M 9,13.333333   L 13,9.6666667     M 15.333333,7   L 22,0.33333333     M 0.66666667,21.666667   L 3,19.333333     M 9,13.666667   L 13,9.6666667     M 15.333333,7.3333333   L 22.333333,0.33333333     M 0.66666667,22   L 3.6666667,19     M 9.3333333,13.666667   L 13,10     M 15.666667,7.3333333   L 22.666667,0.33333333     M 0.66666667,22.333333   L 4,19     M 9.6666667,13.666667   L 13,10.333333     M 15.666667,7.3333333   L 23,0.33333333     M 0.66666667,22.333333   L 4.3333333,18.666667     M 10,13.666667   L 13,10.333333     M 16,7.6666667   L 23,0.33333333     M 0.66666667,22.666667   L 4.6666667,18.666667     M 10,13.666667   L 13,10.666667     M 16,7.6666667   L 23.333333,0.33333333     M 0.66666667,23   L 5,18.666667     M 10.333333,13.666667   L 13,11     M 16.333333,7.6666667   L 23.666667,0.33333333     M 0.66666667,23.333333   L 5.3333333,18.333333     M 10.666667,13.666667   L 13,11.333333     M 16.333333,8   L 24,0.33333333     M 0.66666667,23.666667   L 6,18.333333     M 11,13.333333   L 12.666667,11.666667     M 16.666667,8   L 24.333333,0.33333333     M 0.66666667,24   L 6.3333333,18.333333     M 11.666667,13   L 12.666667,12.333333     M 16.666667,8   L 24.666667,0.33333333     M 0.66666667,24   L 6.6666667,18.333333     M 17,8.3333333   L 24.666667,0.33333333     M 0.66666667,24.333333   L 7,18.333333     M 17,8.3333333   L 25,0.33333333     M 0.66666667,24.666667   L 7.3333333,18     M 17.333333,8.3333333   L 25,0.66666667     M 0.66666667,25   L 7.6666667,18    "
     style="fill:none;stroke:#e42522;stroke-width:1px;stroke-linecap:round;stroke-linejoin:round;stroke-miterlimit:4;stroke-dasharray:none;stroke-opacity:1;" />
  <path
     id="path9"
     d="  M 23.333333,19   C 23.666667,18.666667 23.666667,18.666667 23.666667,18.666667   M 22.666667,19.333333   C 23.666667,18.333333 23.666667,18.333333 23.666667,18.333333   M 22.333333,19.666667   C 23.666667,18.333333 23.666667,18.333333 23.666667,18.333333   M 21.666667,20   C 23.666667,18 23.666667,18 23.666667,18   M 21,20.333333   C 23.666667,17.666667 23.666667,17.666667 23.666667,17.666667   M 20.333333,20.333333   C 23.666667,17.333333 23.666667,17.333333 23.666667,17.333333   M 20,20.666667   C 23.666667,17 23.666667,17 23.666667,17   M 19.333333,21   C 23.666667,16.666667 23.666667,16.666667 23.666667,16.666667   M 19,21   C 23.666667,16.666667 23.666667,16.666667 23.666667,16.666667   M 18.666667,21   C 23.666667,16.333333 23.666667,16.333333 23.666667,16.333333   M 18.333333,21   C 23.666667,16 23.666667,16 23.666667,16   M 18.333333,21   C 23.666667,15.666667 23.666667,15.666667 23.666667,15.666667   M 18,21   C 23.666667,15.666667 23.666667,15.666667 23.666667,15.666667   M 17.666667,21   C 23.666667,15.333333 23.666667,15.333333 23.666667,15.333333   M 17.333333,21   C 23.666667,15 23.666667,15 23.666667,15   M 17.333333,21   C 23.666667,14.666667 23.666667,14.666667 23.666667,14.666667   M 17,21   C 23.666667,14.333333 23.666667,14.333333 23.666667,14.333333   M 17,20.666667   C 23.666667,14.333333 23.666667,14.333333 23.666667,14.333333   M 16.666667,20.666667   C 23.666667,14 23.666667,14 23.666667,14   M 16.666667,20.666667   C 23.666667,13.666667 23.666667,13.666667 23.666667,13.666667   M 16.333333,20.666667   C 23.666667,13.333333 23.666667,13.333333 23.666667,13.333333   M 16.333333,20.333333   C 23.666667,13 23.666667,13 23.666667,13   M 16,20.333333   C 23.666667,12.666667 23.666667,12.666667 23.666667,12.666667   M 19,17   C 23.666667,12.666667 23.666667,12.666667 23.666667,12.666667   M 16,20.333333   C 18.333333,18 18.333333,18 18.333333,18   M 19.333333,16.333333   C 23.666667,12.333333 23.666667,12.333333 23.666667,12.333333   M 15.666667,20   C 17.666667,18 17.666667,18 17.666667,18   M 19.333333,16.333333   C 23.666667,12 23.666667,12 23.666667,12   M 15.666667,20   C 17.333333,18.333333 17.333333,18.333333 17.333333,18.333333   M 19.333333,16   C 23.666667,11.666667 23.666667,11.666667 23.666667,11.666667   M 15.333333,20   C 17,18.333333 17,18.333333 17,18.333333   M 19.333333,15.666667   C 23.666667,11.666667 23.666667,11.666667 23.666667,11.666667   M 15.333333,19.666667   C 17,18.333333 17,18.333333 17,18.333333   M 19.333333,15.333333   C 23.666667,11.333333 23.666667,11.333333 23.666667,11.333333   M 15,19.666667   C 16.666667,18 16.666667,18 16.666667,18   M 19.333333,15.333333   C 23.666667,11 23.666667,11 23.666667,11   M 15,19.666667   C 16.333333,18 16.333333,18 16.333333,18   M 19.333333,15   C 23.666667,10.666667 23.666667,10.666667 23.666667,10.666667   M 15,19.333333   C 16.333333,18 16.333333,18 16.333333,18   M 19,14.666667   C 23.666667,10.333333 23.666667,10.333333 23.666667,10.333333   M 14.666667,19.333333   C 16,18 16,18 16,18   M 19,14.666667   C 23.666667,10.333333 23.666667,10.333333 23.666667,10.333333   M 14.666667,19.333333   C 16,17.666667 16,17.666667 16,17.666667   M 19,14.333333   C 23.666667,10 23.666667,10 23.666667,10   M 14.333333,19   C 15.666667,17.666667 15.666667,17.666667 15.666667,17.666667   M 18.666667,14.333333   C 23.666667,9.6666667 23.666667,9.6666667 23.666667,9.6666667   M 14,19   C 15.666667,17.666667 15.666667,17.666667 15.666667,17.666667   M 18.666667,14.333333   C 23.666667,9.3333333 23.666667,9.3333333 23.666667,9.3333333   M 14,19   C 15.333333,17.333333 15.333333,17.333333 15.333333,17.333333   M 18.666667,14.333333   C 23.666667,9 23.666667,9 23.666667,9   M 13.666667,18.666667   C 15.333333,17.333333 15.333333,17.333333 15.333333,17.333333   M 18.333333,14   C 23.666667,8.6666667 23.666667,8.6666667 23.666667,8.6666667   M 13.666667,18.666667   C 15.333333,17 15.333333,17 15.333333,17   M 18.333333,14   C 23.666667,8.6666667 23.666667,8.6666667 23.666667,8.6666667   M 13.333333,18.666667   C 15,17 15,17 15,17   M 18,14   C 23.666667,8.3333333 23.666667,8.3333333 23.666667,8.3333333   M 13.333333,18.666667   C 15,16.666667 15,16.666667 15,16.666667   M 17.666667,13.666667   C 23.666667,8 23.666667,8 23.666667,8   M 13,18.333333   C 15,16.666667 15,16.666667 15,16.666667   M 17.666667,13.666667   C 23.666667,7.6666667 23.666667,7.6666667 23.666667,7.6666667   M 13,18.333333   C 15,16.333333 15,16.333333 15,16.333333   M 17.333333,13.666667   C 23.666667,7.3333333 23.666667,7.3333333 23.666667,7.3333333   M 12.666667,18.333333   C 15,16 15,16 15,16   M 17,13.666667   C 23.666667,7.3333333 23.666667,7.3333333 23.666667,7.3333333   M 12.666667,18.333333   C 15,16 15,16 15,16   M 16.666667,13.666667   C 23.666667,7 23.666667,7 23.666667,7   M 12.333333,18.333333   C 15,15.666667 15,15.666667 15,15.666667   M 16.333333,14   C 23.666667,6.6666667 23.666667,6.6666667 23.666667,6.6666667   M 12,18.333333   C 15,15.333333 15,15.333333 15,15.333333   M 16,14   C 23.666667,6.3333333 23.666667,6.3333333 23.666667,6.3333333   M 12,18   C 15.333333,14.666667 15.333333,14.666667 15.333333,14.666667   M 11.666667,18   C 23.666667,6.3333333 23.666667,6.3333333 23.666667,6.3333333   M 11.333333,18   C 23,6.3333333 23,6.3333333 23,6.3333333   M 11,18   C 22.333333,6.6666667 22.333333,6.6666667 22.333333,6.6666667   M 11,18   C 22,7 22,7 22,7   M 10.666667,18   C 21.333333,7.3333333 21.333333,7.3333333 21.333333,7.3333333   M 10.333333,18   C 20.666667,7.6666667 20.666667,7.6666667 20.666667,7.6666667   M 10.333333,18   C 20,8 20,8 20,8   M 10,18   C 19.666667,8.3333333 19.666667,8.3333333 19.666667,8.3333333   M 9.6666667,18   C 19.333333,8.3333333 19.333333,8.3333333 19.333333,8.3333333   M 9.3333333,18   C 19,8.3333333 19,8.3333333 19,8.3333333   M 9,18   C 18.666667,8.3333333 18.666667,8.3333333 18.666667,8.3333333   M 9,18   C 18.333333,8.3333333 18.333333,8.3333333 18.333333,8.3333333   M 8.6666667,18   C 18,8.3333333 18,8.3333333 18,8.3333333   M 8.3333333,18   C 17.666667,8.3333333 17.666667,8.3333333 17.666667,8.3333333   M 8,18   C 17.666667,8.3333333 17.666667,8.3333333 17.666667,8.3333333   M 7.6666667,18   C 17.333333,8.3333333 17.333333,8.3333333 17.333333,8.3333333   M 7.3333333,18   C 17,8.3333333 17,8.3333333 17,8.3333333   M 7,18.333333   C 17,8.3333333 17,8.3333333 17,8.3333333   M 12.333333,12.666667   C 16.666667,8 16.666667,8 16.666667,8   M 6.6666667,18.333333   C 12,12.666667 12,12.666667 12,12.666667   M 12.666667,12   C 16.666667,8 16.666667,8 16.666667,8   M 6.3333333,18.333333   C 11.333333,13.333333 11.333333,13.333333 11.333333,13.333333   M 13,11.333333   C 16.333333,8 16.333333,8 16.333333,8   M 6,18.333333   C 11,13.666667 11,13.666667 11,13.666667   M 13,11   C 16.333333,8 16.333333,8 16.333333,8   M 5.6666667,18.333333   C 10.666667,13.666667 10.666667,13.666667 10.666667,13.666667   M 13,10.666667   C 16,7.6666667 16,7.6666667 16,7.6666667   M 5.3333333,18.666667   C 10.333333,13.666667 10.333333,13.666667 10.333333,13.666667   M 13,10.666667   C 16,7.6666667 16,7.6666667 16,7.6666667   M 5,18.666667   C 10,13.666667 10,13.666667 10,13.666667   M 13,10.333333   C 15.666667,7.6666667 15.666667,7.6666667 15.666667,7.6666667   M 4.6666667,18.666667   C 9.6666667,13.666667 9.6666667,13.666667 9.6666667,13.666667   M 13,10   C 15.666667,7.3333333 15.666667,7.3333333 15.666667,7.3333333   M 4,19   C 9.3333333,13.666667 9.3333333,13.666667 9.3333333,13.666667   M 13,10   C 15.333333,7.3333333 15.333333,7.3333333 15.333333,7.3333333   M 3.6666667,19   C 9.3333333,13.666667 9.3333333,13.666667 9.3333333,13.666667   M 13,9.6666667   C 15.333333,7 15.333333,7 15.333333,7   M 3.3333333,19.333333   C 9,13.333333 9,13.333333 9,13.333333   M 12.666667,9.3333333   C 15.333333,7 15.333333,7 15.333333,7   M 3,19.333333   C 9,13.333333 9,13.333333 9,13.333333   M 12.666667,9.3333333   C 15,7 15,7 15,7   M 2.3333333,19.666667   C 8.6666667,13.333333 8.6666667,13.333333 8.6666667,13.333333   M 12.666667,9   C 15,6.6666667 15,6.6666667 15,6.6666667   M 2,19.666667   C 8.6666667,13.333333 8.6666667,13.333333 8.6666667,13.333333   M 12.333333,9   C 14.666667,6.6666667 14.666667,6.6666667 14.666667,6.6666667   M 2,19.333333   C 8.3333333,13 8.3333333,13 8.3333333,13   M 12.333333,8.6666667   C 14.666667,6.6666667 14.666667,6.6666667 14.666667,6.6666667   M 2,19   C 8.3333333,13 8.3333333,13 8.3333333,13   M 12.333333,8.6666667   C 14.333333,6.3333333 14.333333,6.3333333 14.333333,6.3333333   M 2,18.666667   C 8,13 8,13 8,13   M 12,8.3333333   C 14.333333,6.3333333 14.333333,6.3333333 14.333333,6.3333333   M 2,18.666667   C 8,12.666667 8,12.666667 8,12.666667   M 12,8.3333333   C 14,6.3333333 14,6.3333333 14,6.3333333   M 2,18.333333   C 7.6666667,12.666667 7.6666667,12.666667 7.6666667,12.666667   M 11.666667,8.3333333   C 14,6.3333333 14,6.3333333 14,6.3333333   M 2,18   C 7.6666667,12.333333 7.6666667,12.333333 7.6666667,12.333333   M 11.666667,8.3333333   C 13.666667,6 13.666667,6 13.666667,6   M 2,17.666667   C 7.6666667,12.333333 7.6666667,12.333333 7.6666667,12.333333   M 11.333333,8   C 13.666667,6 13.666667,6 13.666667,6   M 2,17.333333   C 7.3333333,12 7.3333333,12 7.3333333,12   M 11.333333,8   C 13.333333,6 13.333333,6 13.333333,6   M 2,17.333333   C 7.3333333,12 7.3333333,12 7.3333333,12   M 11,8   C 13,6 13,6 13,6   M 2,17   C 7.3333333,11.666667 7.3333333,11.666667 7.3333333,11.666667   M 11,7.6666667   C 13,5.6666667 13,5.6666667 13,5.6666667   M 2,16.666667   C 7,11.666667 7,11.666667 7,11.666667   M 10.666667,7.6666667   C 12.666667,5.6666667 12.666667,5.6666667 12.666667,5.6666667   M 2,16.333333   C 7,11.333333 7,11.333333 7,11.333333   M 10.666667,7.6666667   C 12.666667,5.6666667 12.666667,5.6666667 12.666667,5.6666667   M 2,16.333333   C 7,11 7,11 7,11   M 10.333333,7.6666667   C 12.333333,5.6666667 12.333333,5.6666667 12.333333,5.6666667   M 2,16   C 7,11 7,11 7,11   M 10,7.6666667   C 12.333333,5.6666667 12.333333,5.6666667 12.333333,5.6666667   M 2,15.666667   C 7,10.666667 7,10.666667 7,10.666667   M 9.6666667,7.6666667   C 12,5.3333333 12,5.3333333 12,5.3333333   M 2,15.333333   C 7,10.333333 7,10.333333 7,10.333333   M 9.3333333,7.6666667   C 11.666667,5.3333333 11.666667,5.3333333 11.666667,5.3333333   M 2,15   C 7,10 7,10 7,10   M 9,8   C 11.666667,5.3333333 11.666667,5.3333333 11.666667,5.3333333   M 2,14.666667   C 7,9.6666667 7,9.6666667 7,9.6666667   M 8.6666667,8   C 11.333333,5.3333333 11.333333,5.3333333 11.333333,5.3333333   M 2,14.666667   C 7.3333333,9.3333333 7.3333333,9.3333333 7.3333333,9.3333333   M 2,14.333333   C 11,5.3333333 11,5.3333333 11,5.3333333   M 2,14   C 11,5.3333333 11,5.3333333 11,5.3333333   M 2,13.666667   C 10.666667,5.3333333 10.666667,5.3333333 10.666667,5.3333333   M 2,13.333333   C 10.333333,5.3333333 10.333333,5.3333333 10.333333,5.3333333   M 2,13.333333   C 10,5 10,5 10,5   M 2,13   C 9.6666667,5 9.6666667,5 9.6666667,5   M 2,12.666667   C 9.6666667,5 9.6666667,5 9.6666667,5   M 2,12.333333   C 9.3333333,5.3333333 9.3333333,5.3333333 9.3333333,5.3333333   M 2,12   C 9,5.3333333 9,5.3333333 9,5.3333333   M 2,12   C 8.6666667,5.3333333 8.6666667,5.3333333 8.6666667,5.3333333   M 2,11.666667   C 8.3333333,5.3333333 8.3333333,5.3333333 8.3333333,5.3333333   M 2,11.333333   C 8,5.3333333 8,5.3333333 8,5.3333333   M 2,11   C 7.6666667,5.3333333 7.6666667,5.3333333 7.6666667,5.3333333   M 2,10.666667   C 7.3333333,5.3333333 7.3333333,5.3333333 7.3333333,5.3333333   M 2,10.333333   C 7,5.3333333 7,5.3333333 7,5.3333333   M 2,10.333333   C 7,5.6666667 7,5.6666667 7,5.6666667   M 2,10   C 6.3333333,5.6666667 6.3333333,5.6666667 6.3333333,5.6666667   M 2,9.6666667   C 6,5.6666667 6,5.6666667 6,5.6666667   M 2,9.3333333   C 5.6666667,5.6666667 5.6666667,5.6666667 5.6666667,5.6666667   M 2,9.3333333   C 5.3333333,6 5.3333333,6 5.3333333,6   M 2,9   C 5,6 5,6 5,6   M 2,8.6666667   C 4.6666667,6 4.6666667,6 4.6666667,6   M 2,8.3333333   C 4.3333333,6.3333333 4.3333333,6.3333333 4.3333333,6.3333333   M 2,8   C 4,6.3333333 4,6.3333333 4,6.3333333   M 2,8   C 3.3333333,6.3333333 3.3333333,6.3333333 3.3333333,6.3333333   M 2,7.6666667   C 3,6.6666667 3,6.6666667 3,6.6666667   M 2,7.3333333   C 2.6666667,6.6666667 2.6666667,6.6666667 2.6666667,6.6666667   M 2,7   C 2.3333333,7 2.3333333,7 2.3333333,7   M 0.66666667,25.666667   C 0.66666667,0.33333333 0.66666667,0.33333333 0.66666667,0.33333333   C 25,0.33333333 25,0.33333333 25,0.33333333   C 25,25.666667 25,25.666667 25,25.666667   z  M 15.666667,7.3333333   C 12,4 8,5 3.3333333,6.3333333   M 15.666667,7.3333333   C 16.666667,8 16.666667,8 16.666667,8   C 17.333333,8.3333333 17.333333,8.3333333 17.333333,8.3333333   C 18.333333,8.3333333 18.333333,8.3333333 18.333333,8.3333333   C 19.333333,8.3333333 19.333333,8.3333333 19.333333,8.3333333   C 20,8 20,8 20,8   M 15.666667,20.333333   C 17.333333,21 18.333333,21.333333 20,20.666667   M 15.666667,20.333333   C 14.333333,18.666667 11,17.333333 9,18   M 9,18   C 6,18.333333 6,18.333333 6,18.333333   C 3.3333333,19.333333 3.3333333,19.333333 3.3333333,19.333333   M 2,19.666667   C 3.3333333,19.333333 3.3333333,19.333333 3.3333333,19.333333   M 20,8   C 23.666667,6 23.666667,6 23.666667,6   M 2,19.666667   C 2,7 2,7 2,7   C 3.3333333,6.3333333 3.3333333,6.3333333 3.3333333,6.3333333   M 12.666667,12   C 14.333333,8.6666667 9.3333333,5.6666667 7.3333333,9.3333333   C 5.6666667,13 10.666667,15.333333 12.666667,12   z  M 19,17   C 19.333333,16 19.333333,16 19.333333,16   C 19.333333,15.333333 19.333333,15.333333 19.333333,15.333333   C 19,14.333333 19,14.333333 19,14.333333   C 18.333333,14 18.333333,14 18.333333,14   C 17.333333,13.666667 17.333333,13.666667 17.333333,13.666667   C 16.333333,13.666667 16.333333,13.666667 16.333333,13.666667   C 15.666667,14.333333 15.666667,14.333333 15.666667,14.333333   C 15,15 15,15 15,15   C 14,17.666667 17.666667,19.666667 19,17   z  M 20,20.666667   C 23.666667,18.666667 23.666667,18.666667 23.666667,18.666667   C 23.666667,6 23.666667,6 23.666667,6  "
     style="fill:none;stroke:#ffffff;stroke-width:1px;stroke-linecap:round;stroke-linejoin:round;stroke-miterlimit:4;stroke-dasharray:none;stroke-opacity:1;" />
</svg>
