<?xml version="1.0" encoding="UTF-8" standalone="no"?>
<svg
   xmlns:dc="http://purl.org/dc/elements/1.1/"
   xmlns:cc="http://creativecommons.org/ns#"
   xmlns:rdf="http://www.w3.org/1999/02/22-rdf-syntax-ns#"
   xmlns:svg="http://www.w3.org/2000/svg"
   xmlns="http://www.w3.org/2000/svg"
   id="svg363"
   height="7.1543336mm"
   width="6.8918667mm"
   version="1.0">
  <metadata
     id="metadata367">
    <rdf:RDF>
      <cc:Work
         rdf:about="">
        <dc:format>image/svg+xml</dc:format>
        <dc:type
           rdf:resource="http://purl.org/dc/dcmitype/StillImage" />
      </cc:Work>
    </rdf:RDF>
  </metadata>
  <defs
     id="defs3">
    <pattern
       y="0"
       x="0"
       height="6"
       width="6"
       patternUnits="userSpaceOnUse"
       id="EMFhbasepattern" />
  </defs>
  <path
     id="path5"
     d="  M 1,26.333333   L 1,0.66666667   L 25.333333,0.66666667   L 25.333333,26.333333   L 1,26.333333   L 1,26.333333  z   "
     style="fill:none;stroke:#70c6d8;stroke-width:1px;stroke-linecap:round;stroke-linejoin:round;stroke-miterlimit:4;stroke-dasharray:none;stroke-opacity:1;" />
  <path
     id="path7"
     d="  M 1,26.333333   L 1,0.66666667   L 25.333333,26.333333   L 1,26.333333  z   "
     style="fill:#70c6d8;fill-rule:evenodd;fill-opacity:1;stroke:none;" />
  <path
     id="path9"
     d="  M 1,0.66666667   L 25.333333,26.333333   L 25.333333,0.66666667   L 1,0.66666667  z   "
     style="fill:#70c6d8;fill-rule:evenodd;fill-opacity:1;stroke:none;" />
  <path
     id="path11"
     d="  M 2,1.6666667   L 3,3   L 24.333333,1.6666667   L 2,1.6666667  z   "
     style="fill:#ffffff;fill-rule:evenodd;fill-opacity:1;stroke:none;" />
  <path
     id="path13"
     d="  M 3,3   L 24.333333,1.6666667   L 23,3   L 3,3  z   "
     style="fill:#ffffff;fill-rule:evenodd;fill-opacity:1;stroke:none;" />
  <path
     id="path15"
     d="  M 24.333333,1.6666667   L 23,3   L 24.333333,25.333333   L 24.333333,1.6666667  z   "
     style="fill:#ffffff;fill-rule:evenodd;fill-opacity:1;stroke:none;" />
  <path
     id="path17"
     d="  M 23,3   L 24.333333,25.333333   L 23,24   L 23,3  z   "
     style="fill:#ffffff;fill-rule:evenodd;fill-opacity:1;stroke:none;" />
  <path
     id="path19"
     d="  M 24.333333,25.333333   L 23,24   L 2,25.333333   L 24.333333,25.333333  z   "
     style="fill:#ffffff;fill-rule:evenodd;fill-opacity:1;stroke:none;" />
  <path
     id="path21"
     d="  M 23,24   L 2,25.333333   L 3,24   L 23,24  z   "
     style="fill:#ffffff;fill-rule:evenodd;fill-opacity:1;stroke:none;" />
  <path
     id="path23"
     d="  M 2,25.333333   L 3,24   L 2,1.6666667   L 2,25.333333  z   "
     style="fill:#ffffff;fill-rule:evenodd;fill-opacity:1;stroke:none;" />
  <path
     id="path25"
     d="  M 3,24   L 2,1.6666667   L 3,3   L 3,24  z   "
     style="fill:#ffffff;fill-rule:evenodd;fill-opacity:1;stroke:none;" />
  <path
     id="path27"
     d="  M 4.6666667,17   L 4.3333333,18.333333   L 5.3333333,17.333333   L 4.6666667,17  z   "
     style="fill:#ffffff;fill-rule:evenodd;fill-opacity:1;stroke:none;" />
  <path
     id="path29"
     d="  M 4.3333333,18.333333   L 5.3333333,17.333333   L 5,18.333333   L 4.3333333,18.333333  z   "
     style="fill:#ffffff;fill-rule:evenodd;fill-opacity:1;stroke:none;" />
  <path
     id="path31"
     d="  M 5,18.333333   L 5.3333333,17.333333   L 5.6666667,18.666667   L 5,18.333333  z   "
     style="fill:#ffffff;fill-rule:evenodd;fill-opacity:1;stroke:none;" />
  <path
     id="path33"
     d="  M 5.3333333,17.333333   L 5.6666667,18.666667   L 5.6666667,17.333333   L 5.3333333,17.333333  z   "
     style="fill:#ffffff;fill-rule:evenodd;fill-opacity:1;stroke:none;" />
  <path
     id="path35"
     d="  M 5.6666667,18.666667   L 5.6666667,17.333333   L 6.6666667,18.333333   L 5.6666667,18.666667  z   "
     style="fill:#ffffff;fill-rule:evenodd;fill-opacity:1;stroke:none;" />
  <path
     id="path37"
     d="  M 5.6666667,17.333333   L 6.6666667,18.333333   L 6.3333333,17.333333   L 5.6666667,17.333333  z   "
     style="fill:#ffffff;fill-rule:evenodd;fill-opacity:1;stroke:none;" />
  <path
     id="path39"
     d="  M 6.6666667,18.333333   L 6.3333333,17.333333   L 7.6666667,18   L 6.6666667,18.333333  z   "
     style="fill:#ffffff;fill-rule:evenodd;fill-opacity:1;stroke:none;" />
  <path
     id="path41"
     d="  M 6.3333333,17.333333   L 7.6666667,18   L 6.6666667,17   L 6.3333333,17.333333  z   "
     style="fill:#ffffff;fill-rule:evenodd;fill-opacity:1;stroke:none;" />
  <path
     id="path43"
     d="  M 7.6666667,18   L 6.6666667,17   L 8,17.333333   L 7.6666667,18  z   "
     style="fill:#ffffff;fill-rule:evenodd;fill-opacity:1;stroke:none;" />
  <path
     id="path45"
     d="  M 6.6666667,17   L 8,17.333333   L 7,16.666667   L 6.6666667,17  z   "
     style="fill:#ffffff;fill-rule:evenodd;fill-opacity:1;stroke:none;" />
  <path
     id="path47"
     d="  M 11.666667,16.666667   L 10.666667,17.333333   L 11,16   L 11.666667,16.666667  z   "
     style="fill:#ffffff;fill-rule:evenodd;fill-opacity:1;stroke:none;" />
  <path
     id="path49"
     d="  M 10.666667,17.333333   L 11,16   L 10.333333,17   L 10.666667,17.333333  z   "
     style="fill:#ffffff;fill-rule:evenodd;fill-opacity:1;stroke:none;" />
  <path
     id="path51"
     d="  M 11,16   L 10.333333,17   L 10,15.666667   L 11,16  z   "
     style="fill:#ffffff;fill-rule:evenodd;fill-opacity:1;stroke:none;" />
  <path
     id="path53"
     d="  M 10.333333,17   L 10,15.666667   L 9.6666667,16.666667   L 10.333333,17  z   "
     style="fill:#ffffff;fill-rule:evenodd;fill-opacity:1;stroke:none;" />
  <path
     id="path55"
     d="  M 10,15.666667   L 9.6666667,16.666667   L 9.3333333,15.666667   L 10,15.666667  z   "
     style="fill:#ffffff;fill-rule:evenodd;fill-opacity:1;stroke:none;" />
  <path
     id="path57"
     d="  M 9.6666667,16.666667   L 9.3333333,15.666667   L 9.3333333,16.666667   L 9.6666667,16.666667  z   "
     style="fill:#ffffff;fill-rule:evenodd;fill-opacity:1;stroke:none;" />
  <path
     id="path59"
     d="  M 9.3333333,15.666667   L 9.3333333,16.666667   L 8.3333333,15.666667   L 9.3333333,15.666667  z   "
     style="fill:#ffffff;fill-rule:evenodd;fill-opacity:1;stroke:none;" />
  <path
     id="path61"
     d="  M 9.3333333,16.666667   L 8.3333333,15.666667   L 9,16.666667   L 9.3333333,16.666667  z   "
     style="fill:#ffffff;fill-rule:evenodd;fill-opacity:1;stroke:none;" />
  <path
     id="path63"
     d="  M 8.3333333,15.666667   L 9,16.666667   L 7.6666667,16   L 8.3333333,15.666667  z   "
     style="fill:#ffffff;fill-rule:evenodd;fill-opacity:1;stroke:none;" />
  <path
     id="path65"
     d="  M 9,16.666667   L 7.6666667,16   L 8.3333333,17   L 9,16.666667  z   "
     style="fill:#ffffff;fill-rule:evenodd;fill-opacity:1;stroke:none;" />
  <path
     id="path67"
     d="  M 7.6666667,16   L 8.3333333,17   L 7,16.666667   L 7.6666667,16  z   "
     style="fill:#ffffff;fill-rule:evenodd;fill-opacity:1;stroke:none;" />
  <path
     id="path69"
     d="  M 8.3333333,17   L 7,16.666667   L 8,17.333333   L 8.3333333,17  z   "
     style="fill:#ffffff;fill-rule:evenodd;fill-opacity:1;stroke:none;" />
  <path
     id="path71"
     d="  M 10.666667,17.333333   L 11.666667,16.666667   L 11.333333,18   L 10.666667,17.333333  z   "
     style="fill:#ffffff;fill-rule:evenodd;fill-opacity:1;stroke:none;" />
  <path
     id="path73"
     d="  M 11.666667,16.666667   L 11.333333,18   L 12,17   L 11.666667,16.666667  z   "
     style="fill:#ffffff;fill-rule:evenodd;fill-opacity:1;stroke:none;" />
  <path
     id="path75"
     d="  M 11.333333,18   L 12,17   L 12,18.666667   L 11.333333,18  z   "
     style="fill:#ffffff;fill-rule:evenodd;fill-opacity:1;stroke:none;" />
  <path
     id="path77"
     d="  M 12,17   L 12,18.666667   L 12.333333,17.333333   L 12,17  z   "
     style="fill:#ffffff;fill-rule:evenodd;fill-opacity:1;stroke:none;" />
  <path
     id="path79"
     d="  M 12,18.666667   L 12.333333,17.333333   L 13,18.666667   L 12,18.666667  z   "
     style="fill:#ffffff;fill-rule:evenodd;fill-opacity:1;stroke:none;" />
  <path
     id="path81"
     d="  M 12.333333,17.333333   L 13,18.666667   L 13,17.666667   L 12.333333,17.333333  z   "
     style="fill:#ffffff;fill-rule:evenodd;fill-opacity:1;stroke:none;" />
  <path
     id="path83"
     d="  M 21.666667,18.333333   L 21.333333,17   L 21.333333,18.333333   L 21.666667,18.333333  z   "
     style="fill:#ffffff;fill-rule:evenodd;fill-opacity:1;stroke:none;" />
  <path
     id="path85"
     d="  M 21.333333,17   L 21.333333,18.333333   L 20.666667,17.333333   L 21.333333,17  z   "
     style="fill:#ffffff;fill-rule:evenodd;fill-opacity:1;stroke:none;" />
  <path
     id="path87"
     d="  M 18,17.333333   L 19,16.666667   L 18.666667,18   L 18,17.333333  z   "
     style="fill:#ffffff;fill-rule:evenodd;fill-opacity:1;stroke:none;" />
  <path
     id="path89"
     d="  M 19,16.666667   L 18.666667,18   L 19.333333,17   L 19,16.666667  z   "
     style="fill:#ffffff;fill-rule:evenodd;fill-opacity:1;stroke:none;" />
  <path
     id="path91"
     d="  M 18.666667,18   L 19.333333,17   L 19.333333,18.333333   L 18.666667,18  z   "
     style="fill:#ffffff;fill-rule:evenodd;fill-opacity:1;stroke:none;" />
  <path
     id="path93"
     d="  M 19.333333,17   L 19.333333,18.333333   L 19.666667,17.333333   L 19.333333,17  z   "
     style="fill:#ffffff;fill-rule:evenodd;fill-opacity:1;stroke:none;" />
  <path
     id="path95"
     d="  M 19.333333,18.333333   L 19.666667,17.333333   L 20.333333,18.666667   L 19.333333,18.333333  z   "
     style="fill:#ffffff;fill-rule:evenodd;fill-opacity:1;stroke:none;" />
  <path
     id="path97"
     d="  M 19.666667,17.333333   L 20.333333,18.666667   L 20.333333,17.333333   L 19.666667,17.333333  z   "
     style="fill:#ffffff;fill-rule:evenodd;fill-opacity:1;stroke:none;" />
  <path
     id="path99"
     d="  M 20.333333,18.666667   L 20.333333,17.333333   L 21.333333,18.333333   L 20.333333,18.666667  z   "
     style="fill:#ffffff;fill-rule:evenodd;fill-opacity:1;stroke:none;" />
  <path
     id="path101"
     d="  M 20.333333,17.333333   L 21.333333,18.333333   L 20.666667,17.333333   L 20.333333,17.333333  z   "
     style="fill:#ffffff;fill-rule:evenodd;fill-opacity:1;stroke:none;" />
  <path
     id="path103"
     d="  M 19,16.666667   L 18,17.333333   L 18.333333,16   L 19,16.666667  z   "
     style="fill:#ffffff;fill-rule:evenodd;fill-opacity:1;stroke:none;" />
  <path
     id="path105"
     d="  M 18,17.333333   L 18.333333,16   L 17.666667,17   L 18,17.333333  z   "
     style="fill:#ffffff;fill-rule:evenodd;fill-opacity:1;stroke:none;" />
  <path
     id="path107"
     d="  M 18.333333,16   L 17.666667,17   L 17.666667,15.666667   L 18.333333,16  z   "
     style="fill:#ffffff;fill-rule:evenodd;fill-opacity:1;stroke:none;" />
  <path
     id="path109"
     d="  M 17.666667,17   L 17.666667,15.666667   L 17.333333,16.666667   L 17.666667,17  z   "
     style="fill:#ffffff;fill-rule:evenodd;fill-opacity:1;stroke:none;" />
  <path
     id="path111"
     d="  M 17.666667,15.666667   L 17.333333,16.666667   L 17,15.666667   L 17.666667,15.666667  z   "
     style="fill:#ffffff;fill-rule:evenodd;fill-opacity:1;stroke:none;" />
  <path
     id="path113"
     d="  M 17.333333,16.666667   L 17,15.666667   L 17,16.666667   L 17.333333,16.666667  z   "
     style="fill:#ffffff;fill-rule:evenodd;fill-opacity:1;stroke:none;" />
  <path
     id="path115"
     d="  M 17,15.666667   L 17,16.666667   L 16,15.666667   L 17,15.666667  z   "
     style="fill:#ffffff;fill-rule:evenodd;fill-opacity:1;stroke:none;" />
  <path
     id="path117"
     d="  M 17,16.666667   L 16,15.666667   L 16.333333,16.666667   L 17,16.666667  z   "
     style="fill:#ffffff;fill-rule:evenodd;fill-opacity:1;stroke:none;" />
  <path
     id="path119"
     d="  M 16,15.666667   L 16.333333,16.666667   L 15.333333,16   L 16,15.666667  z   "
     style="fill:#ffffff;fill-rule:evenodd;fill-opacity:1;stroke:none;" />
  <path
     id="path121"
     d="  M 16.333333,16.666667   L 15.333333,16   L 16,17   L 16.333333,16.666667  z   "
     style="fill:#ffffff;fill-rule:evenodd;fill-opacity:1;stroke:none;" />
  <path
     id="path123"
     d="  M 15.333333,16   L 16,17   L 14.666667,16.666667   L 15.333333,16  z   "
     style="fill:#ffffff;fill-rule:evenodd;fill-opacity:1;stroke:none;" />
  <path
     id="path125"
     d="  M 16,17   L 14.666667,16.666667   L 15.666667,17.333333   L 16,17  z   "
     style="fill:#ffffff;fill-rule:evenodd;fill-opacity:1;stroke:none;" />
  <path
     id="path127"
     d="  M 13,18.666667   L 13,17.666667   L 14,18.666667   L 13,18.666667  z   "
     style="fill:#ffffff;fill-rule:evenodd;fill-opacity:1;stroke:none;" />
  <path
     id="path129"
     d="  M 13,17.666667   L 14,18.666667   L 13.666667,17.333333   L 13,17.666667  z   "
     style="fill:#ffffff;fill-rule:evenodd;fill-opacity:1;stroke:none;" />
  <path
     id="path131"
     d="  M 14,18.666667   L 13.666667,17.333333   L 15,18   L 14,18.666667  z   "
     style="fill:#ffffff;fill-rule:evenodd;fill-opacity:1;stroke:none;" />
  <path
     id="path133"
     d="  M 13.666667,17.333333   L 15,18   L 14.333333,17   L 13.666667,17.333333  z   "
     style="fill:#ffffff;fill-rule:evenodd;fill-opacity:1;stroke:none;" />
  <path
     id="path135"
     d="  M 15,18   L 14.333333,17   L 15.666667,17.333333   L 15,18  z   "
     style="fill:#ffffff;fill-rule:evenodd;fill-opacity:1;stroke:none;" />
  <path
     id="path137"
     d="  M 14.333333,17   L 15.666667,17.333333   L 14.666667,16.666667   L 14.333333,17  z   "
     style="fill:#ffffff;fill-rule:evenodd;fill-opacity:1;stroke:none;" />
  <path
     id="path139"
     d="  M 21.666667,21.333333   L 21.333333,20   L 21.333333,21.333333   L 21.666667,21.333333  z   "
     style="fill:#ffffff;fill-rule:evenodd;fill-opacity:1;stroke:none;" />
  <path
     id="path141"
     d="  M 21.333333,20   L 21.333333,21.333333   L 20.666667,20.333333   L 21.333333,20  z   "
     style="fill:#ffffff;fill-rule:evenodd;fill-opacity:1;stroke:none;" />
  <path
     id="path143"
     d="  M 18,20.333333   L 19,19.666667   L 18.666667,21   L 18,20.333333  z   "
     style="fill:#ffffff;fill-rule:evenodd;fill-opacity:1;stroke:none;" />
  <path
     id="path145"
     d="  M 19,19.666667   L 18.666667,21   L 19.333333,20   L 19,19.666667  z   "
     style="fill:#ffffff;fill-rule:evenodd;fill-opacity:1;stroke:none;" />
  <path
     id="path147"
     d="  M 18.666667,21   L 19.333333,20   L 19.333333,21.333333   L 18.666667,21  z   "
     style="fill:#ffffff;fill-rule:evenodd;fill-opacity:1;stroke:none;" />
  <path
     id="path149"
     d="  M 19.333333,20   L 19.333333,21.333333   L 19.666667,20.333333   L 19.333333,20  z   "
     style="fill:#ffffff;fill-rule:evenodd;fill-opacity:1;stroke:none;" />
  <path
     id="path151"
     d="  M 19.333333,21.333333   L 19.666667,20.333333   L 20.333333,21.666667   L 19.333333,21.333333  z   "
     style="fill:#ffffff;fill-rule:evenodd;fill-opacity:1;stroke:none;" />
  <path
     id="path153"
     d="  M 19.666667,20.333333   L 20.333333,21.666667   L 20.333333,20.333333   L 19.666667,20.333333  z   "
     style="fill:#ffffff;fill-rule:evenodd;fill-opacity:1;stroke:none;" />
  <path
     id="path155"
     d="  M 20.333333,21.666667   L 20.333333,20.333333   L 21.333333,21.333333   L 20.333333,21.666667  z   "
     style="fill:#ffffff;fill-rule:evenodd;fill-opacity:1;stroke:none;" />
  <path
     id="path157"
     d="  M 20.333333,20.333333   L 21.333333,21.333333   L 20.666667,20.333333   L 20.333333,20.333333  z   "
     style="fill:#ffffff;fill-rule:evenodd;fill-opacity:1;stroke:none;" />
  <path
     id="path159"
     d="  M 19,19.666667   L 18,20.333333   L 18.333333,19   L 19,19.666667  z   "
     style="fill:#ffffff;fill-rule:evenodd;fill-opacity:1;stroke:none;" />
  <path
     id="path161"
     d="  M 18,20.333333   L 18.333333,19   L 17.666667,20   L 18,20.333333  z   "
     style="fill:#ffffff;fill-rule:evenodd;fill-opacity:1;stroke:none;" />
  <path
     id="path163"
     d="  M 18.333333,19   L 17.666667,20   L 17.666667,18.666667   L 18.333333,19  z   "
     style="fill:#ffffff;fill-rule:evenodd;fill-opacity:1;stroke:none;" />
  <path
     id="path165"
     d="  M 17.666667,20   L 17.666667,18.666667   L 17.333333,20   L 17.666667,20  z   "
     style="fill:#ffffff;fill-rule:evenodd;fill-opacity:1;stroke:none;" />
  <path
     id="path167"
     d="  M 17.666667,18.666667   L 17.333333,20   L 17,18.333333   L 17.666667,18.666667  z   "
     style="fill:#ffffff;fill-rule:evenodd;fill-opacity:1;stroke:none;" />
  <path
     id="path169"
     d="  M 17.333333,20   L 17,18.333333   L 17,19.666667   L 17.333333,20  z   "
     style="fill:#ffffff;fill-rule:evenodd;fill-opacity:1;stroke:none;" />
  <path
     id="path171"
     d="  M 17,18.333333   L 17,19.666667   L 16,18.666667   L 17,18.333333  z   "
     style="fill:#ffffff;fill-rule:evenodd;fill-opacity:1;stroke:none;" />
  <path
     id="path173"
     d="  M 17,19.666667   L 16,18.666667   L 16.333333,20   L 17,19.666667  z   "
     style="fill:#ffffff;fill-rule:evenodd;fill-opacity:1;stroke:none;" />
  <path
     id="path175"
     d="  M 16,18.666667   L 16.333333,20   L 15.333333,19   L 16,18.666667  z   "
     style="fill:#ffffff;fill-rule:evenodd;fill-opacity:1;stroke:none;" />
  <path
     id="path177"
     d="  M 16.333333,20   L 15.333333,19   L 16,20   L 16.333333,20  z   "
     style="fill:#ffffff;fill-rule:evenodd;fill-opacity:1;stroke:none;" />
  <path
     id="path179"
     d="  M 15.333333,19   L 16,20   L 14.666667,19.666667   L 15.333333,19  z   "
     style="fill:#ffffff;fill-rule:evenodd;fill-opacity:1;stroke:none;" />
  <path
     id="path181"
     d="  M 16,20   L 14.666667,19.666667   L 15.666667,20.333333   L 16,20  z   "
     style="fill:#ffffff;fill-rule:evenodd;fill-opacity:1;stroke:none;" />
  <path
     id="path183"
     d="  M 13,21.666667   L 13,20.333333   L 14,21.666667   L 13,21.666667  z   "
     style="fill:#ffffff;fill-rule:evenodd;fill-opacity:1;stroke:none;" />
  <path
     id="path185"
     d="  M 13,20.333333   L 14,21.666667   L 13.666667,20.333333   L 13,20.333333  z   "
     style="fill:#ffffff;fill-rule:evenodd;fill-opacity:1;stroke:none;" />
  <path
     id="path187"
     d="  M 14,21.666667   L 13.666667,20.333333   L 15,21   L 14,21.666667  z   "
     style="fill:#ffffff;fill-rule:evenodd;fill-opacity:1;stroke:none;" />
  <path
     id="path189"
     d="  M 13.666667,20.333333   L 15,21   L 14.333333,20.333333   L 13.666667,20.333333  z   "
     style="fill:#ffffff;fill-rule:evenodd;fill-opacity:1;stroke:none;" />
  <path
     id="path191"
     d="  M 15,21   L 14.333333,20.333333   L 15.666667,20.333333   L 15,21  z   "
     style="fill:#ffffff;fill-rule:evenodd;fill-opacity:1;stroke:none;" />
  <path
     id="path193"
     d="  M 14.333333,20.333333   L 15.666667,20.333333   L 14.666667,19.666667   L 14.333333,20.333333  z   "
     style="fill:#ffffff;fill-rule:evenodd;fill-opacity:1;stroke:none;" />
  <path
     id="path195"
     d="  M 4.6666667,20   L 4.3333333,21.333333   L 5.3333333,20.333333   L 4.6666667,20  z   "
     style="fill:#ffffff;fill-rule:evenodd;fill-opacity:1;stroke:none;" />
  <path
     id="path197"
     d="  M 4.3333333,21.333333   L 5.3333333,20.333333   L 5,21.333333   L 4.3333333,21.333333  z   "
     style="fill:#ffffff;fill-rule:evenodd;fill-opacity:1;stroke:none;" />
  <path
     id="path199"
     d="  M 5,21.333333   L 5.3333333,20.333333   L 5.6666667,21.666667   L 5,21.333333  z   "
     style="fill:#ffffff;fill-rule:evenodd;fill-opacity:1;stroke:none;" />
  <path
     id="path201"
     d="  M 5.3333333,20.333333   L 5.6666667,21.666667   L 5.6666667,20.333333   L 5.3333333,20.333333  z   "
     style="fill:#ffffff;fill-rule:evenodd;fill-opacity:1;stroke:none;" />
  <path
     id="path203"
     d="  M 5.6666667,21.666667   L 5.6666667,20.333333   L 6.6666667,21.333333   L 5.6666667,21.666667  z   "
     style="fill:#ffffff;fill-rule:evenodd;fill-opacity:1;stroke:none;" />
  <path
     id="path205"
     d="  M 5.6666667,20.333333   L 6.6666667,21.333333   L 6.3333333,20.333333   L 5.6666667,20.333333  z   "
     style="fill:#ffffff;fill-rule:evenodd;fill-opacity:1;stroke:none;" />
  <path
     id="path207"
     d="  M 6.6666667,21.333333   L 6.3333333,20.333333   L 7.6666667,21   L 6.6666667,21.333333  z   "
     style="fill:#ffffff;fill-rule:evenodd;fill-opacity:1;stroke:none;" />
  <path
     id="path209"
     d="  M 6.3333333,20.333333   L 7.6666667,21   L 6.6666667,20   L 6.3333333,20.333333  z   "
     style="fill:#ffffff;fill-rule:evenodd;fill-opacity:1;stroke:none;" />
  <path
     id="path211"
     d="  M 7.6666667,21   L 6.6666667,20   L 8,20.333333   L 7.6666667,21  z   "
     style="fill:#ffffff;fill-rule:evenodd;fill-opacity:1;stroke:none;" />
  <path
     id="path213"
     d="  M 6.6666667,20   L 8,20.333333   L 7,19.666667   L 6.6666667,20  z   "
     style="fill:#ffffff;fill-rule:evenodd;fill-opacity:1;stroke:none;" />
  <path
     id="path215"
     d="  M 11.666667,19.666667   L 10.666667,20.333333   L 11,19   L 11.666667,19.666667  z   "
     style="fill:#ffffff;fill-rule:evenodd;fill-opacity:1;stroke:none;" />
  <path
     id="path217"
     d="  M 10.666667,20.333333   L 11,19   L 10.333333,20   L 10.666667,20.333333  z   "
     style="fill:#ffffff;fill-rule:evenodd;fill-opacity:1;stroke:none;" />
  <path
     id="path219"
     d="  M 11,19   L 10.333333,20   L 10,18.666667   L 11,19  z   "
     style="fill:#ffffff;fill-rule:evenodd;fill-opacity:1;stroke:none;" />
  <path
     id="path221"
     d="  M 10.333333,20   L 10,18.666667   L 9.6666667,20   L 10.333333,20  z   "
     style="fill:#ffffff;fill-rule:evenodd;fill-opacity:1;stroke:none;" />
  <path
     id="path223"
     d="  M 10,18.666667   L 9.6666667,20   L 9.3333333,18.333333   L 10,18.666667  z   "
     style="fill:#ffffff;fill-rule:evenodd;fill-opacity:1;stroke:none;" />
  <path
     id="path225"
     d="  M 9.6666667,20   L 9.3333333,18.333333   L 9.3333333,19.666667   L 9.6666667,20  z   "
     style="fill:#ffffff;fill-rule:evenodd;fill-opacity:1;stroke:none;" />
  <path
     id="path227"
     d="  M 9.3333333,18.333333   L 9.3333333,19.666667   L 8.3333333,18.666667   L 9.3333333,18.333333  z   "
     style="fill:#ffffff;fill-rule:evenodd;fill-opacity:1;stroke:none;" />
  <path
     id="path229"
     d="  M 9.3333333,19.666667   L 8.3333333,18.666667   L 9,20   L 9.3333333,19.666667  z   "
     style="fill:#ffffff;fill-rule:evenodd;fill-opacity:1;stroke:none;" />
  <path
     id="path231"
     d="  M 8.3333333,18.666667   L 9,20   L 7.6666667,19   L 8.3333333,18.666667  z   "
     style="fill:#ffffff;fill-rule:evenodd;fill-opacity:1;stroke:none;" />
  <path
     id="path233"
     d="  M 9,20   L 7.6666667,19   L 8.3333333,20   L 9,20  z   "
     style="fill:#ffffff;fill-rule:evenodd;fill-opacity:1;stroke:none;" />
  <path
     id="path235"
     d="  M 7.6666667,19   L 8.3333333,20   L 7,19.666667   L 7.6666667,19  z   "
     style="fill:#ffffff;fill-rule:evenodd;fill-opacity:1;stroke:none;" />
  <path
     id="path237"
     d="  M 8.3333333,20   L 7,19.666667   L 8,20.333333   L 8.3333333,20  z   "
     style="fill:#ffffff;fill-rule:evenodd;fill-opacity:1;stroke:none;" />
  <path
     id="path239"
     d="  M 10.666667,20.333333   L 11.666667,19.666667   L 11.333333,21   L 10.666667,20.333333  z   "
     style="fill:#ffffff;fill-rule:evenodd;fill-opacity:1;stroke:none;" />
  <path
     id="path241"
     d="  M 11.666667,19.666667   L 11.333333,21   L 12,20.333333   L 11.666667,19.666667  z   "
     style="fill:#ffffff;fill-rule:evenodd;fill-opacity:1;stroke:none;" />
  <path
     id="path243"
     d="  M 11.333333,21   L 12,20.333333   L 12,21.666667   L 11.333333,21  z   "
     style="fill:#ffffff;fill-rule:evenodd;fill-opacity:1;stroke:none;" />
  <path
     id="path245"
     d="  M 12,20.333333   L 12,21.666667   L 12.333333,20.333333   L 12,20.333333  z   "
     style="fill:#ffffff;fill-rule:evenodd;fill-opacity:1;stroke:none;" />
  <path
     id="path247"
     d="  M 12,21.666667   L 12.333333,20.333333   L 13,21.666667   L 12,21.666667  z   "
     style="fill:#ffffff;fill-rule:evenodd;fill-opacity:1;stroke:none;" />
  <path
     id="path249"
     d="  M 12.333333,20.333333   L 13,21.666667   L 13,20.333333   L 12.333333,20.333333  z   "
     style="fill:#ffffff;fill-rule:evenodd;fill-opacity:1;stroke:none;" />
  <path
     id="path251"
     d="  M 21.666667,15.333333   L 21.333333,14   L 21.333333,15.333333   L 21.666667,15.333333  z   "
     style="fill:#ffffff;fill-rule:evenodd;fill-opacity:1;stroke:none;" />
  <path
     id="path253"
     d="  M 21.333333,14   L 21.333333,15.333333   L 20.666667,14.333333   L 21.333333,14  z   "
     style="fill:#ffffff;fill-rule:evenodd;fill-opacity:1;stroke:none;" />
  <path
     id="path255"
     d="  M 18,14.333333   L 19,13.666667   L 18.666667,15   L 18,14.333333  z   "
     style="fill:#ffffff;fill-rule:evenodd;fill-opacity:1;stroke:none;" />
  <path
     id="path257"
     d="  M 19,13.666667   L 18.666667,15   L 19.333333,14   L 19,13.666667  z   "
     style="fill:#ffffff;fill-rule:evenodd;fill-opacity:1;stroke:none;" />
  <path
     id="path259"
     d="  M 18.666667,15   L 19.333333,14   L 19.333333,15.333333   L 18.666667,15  z   "
     style="fill:#ffffff;fill-rule:evenodd;fill-opacity:1;stroke:none;" />
  <path
     id="path261"
     d="  M 19.333333,14   L 19.333333,15.333333   L 19.666667,14.333333   L 19.333333,14  z   "
     style="fill:#ffffff;fill-rule:evenodd;fill-opacity:1;stroke:none;" />
  <path
     id="path263"
     d="  M 19.333333,15.333333   L 19.666667,14.333333   L 20.333333,15.666667   L 19.333333,15.333333  z   "
     style="fill:#ffffff;fill-rule:evenodd;fill-opacity:1;stroke:none;" />
  <path
     id="path265"
     d="  M 19.666667,14.333333   L 20.333333,15.666667   L 20.333333,14.333333   L 19.666667,14.333333  z   "
     style="fill:#ffffff;fill-rule:evenodd;fill-opacity:1;stroke:none;" />
  <path
     id="path267"
     d="  M 20.333333,15.666667   L 20.333333,14.333333   L 21.333333,15.333333   L 20.333333,15.666667  z   "
     style="fill:#ffffff;fill-rule:evenodd;fill-opacity:1;stroke:none;" />
  <path
     id="path269"
     d="  M 20.333333,14.333333   L 21.333333,15.333333   L 20.666667,14.333333   L 20.333333,14.333333  z   "
     style="fill:#ffffff;fill-rule:evenodd;fill-opacity:1;stroke:none;" />
  <path
     id="path271"
     d="  M 19,13.666667   L 18,14.333333   L 18.333333,13   L 19,13.666667  z   "
     style="fill:#ffffff;fill-rule:evenodd;fill-opacity:1;stroke:none;" />
  <path
     id="path273"
     d="  M 18,14.333333   L 18.333333,13   L 17.666667,14   L 18,14.333333  z   "
     style="fill:#ffffff;fill-rule:evenodd;fill-opacity:1;stroke:none;" />
  <path
     id="path275"
     d="  M 18.333333,13   L 17.666667,14   L 17.666667,12.666667   L 18.333333,13  z   "
     style="fill:#ffffff;fill-rule:evenodd;fill-opacity:1;stroke:none;" />
  <path
     id="path277"
     d="  M 17.666667,14   L 17.666667,12.666667   L 17.333333,14   L 17.666667,14  z   "
     style="fill:#ffffff;fill-rule:evenodd;fill-opacity:1;stroke:none;" />
  <path
     id="path279"
     d="  M 17.666667,12.666667   L 17.333333,14   L 17,12.666667   L 17.666667,12.666667  z   "
     style="fill:#ffffff;fill-rule:evenodd;fill-opacity:1;stroke:none;" />
  <path
     id="path281"
     d="  M 17.333333,14   L 17,12.666667   L 17,13.666667   L 17.333333,14  z   "
     style="fill:#ffffff;fill-rule:evenodd;fill-opacity:1;stroke:none;" />
  <path
     id="path283"
     d="  M 17,12.666667   L 17,13.666667   L 16,12.666667   L 17,12.666667  z   "
     style="fill:#ffffff;fill-rule:evenodd;fill-opacity:1;stroke:none;" />
  <path
     id="path285"
     d="  M 17,13.666667   L 16,12.666667   L 16.333333,14   L 17,13.666667  z   "
     style="fill:#ffffff;fill-rule:evenodd;fill-opacity:1;stroke:none;" />
  <path
     id="path287"
     d="  M 16,12.666667   L 16.333333,14   L 15.333333,13   L 16,12.666667  z   "
     style="fill:#ffffff;fill-rule:evenodd;fill-opacity:1;stroke:none;" />
  <path
     id="path289"
     d="  M 16.333333,14   L 15.333333,13   L 16,14   L 16.333333,14  z   "
     style="fill:#ffffff;fill-rule:evenodd;fill-opacity:1;stroke:none;" />
  <path
     id="path291"
     d="  M 15.333333,13   L 16,14   L 14.666667,13.666667   L 15.333333,13  z   "
     style="fill:#ffffff;fill-rule:evenodd;fill-opacity:1;stroke:none;" />
  <path
     id="path293"
     d="  M 16,14   L 14.666667,13.666667   L 15.666667,14.333333   L 16,14  z   "
     style="fill:#ffffff;fill-rule:evenodd;fill-opacity:1;stroke:none;" />
  <path
     id="path295"
     d="  M 13,15.666667   L 13,14.666667   L 14,15.666667   L 13,15.666667  z   "
     style="fill:#ffffff;fill-rule:evenodd;fill-opacity:1;stroke:none;" />
  <path
     id="path297"
     d="  M 13,14.666667   L 14,15.666667   L 13.666667,14.333333   L 13,14.666667  z   "
     style="fill:#ffffff;fill-rule:evenodd;fill-opacity:1;stroke:none;" />
  <path
     id="path299"
     d="  M 14,15.666667   L 13.666667,14.333333   L 15,15   L 14,15.666667  z   "
     style="fill:#ffffff;fill-rule:evenodd;fill-opacity:1;stroke:none;" />
  <path
     id="path301"
     d="  M 13.666667,14.333333   L 15,15   L 14.333333,14.333333   L 13.666667,14.333333  z   "
     style="fill:#ffffff;fill-rule:evenodd;fill-opacity:1;stroke:none;" />
  <path
     id="path303"
     d="  M 15,15   L 14.333333,14.333333   L 15.666667,14.333333   L 15,15  z   "
     style="fill:#ffffff;fill-rule:evenodd;fill-opacity:1;stroke:none;" />
  <path
     id="path305"
     d="  M 14.333333,14.333333   L 15.666667,14.333333   L 14.666667,13.666667   L 14.333333,14.333333  z   "
     style="fill:#ffffff;fill-rule:evenodd;fill-opacity:1;stroke:none;" />
  <path
     id="path307"
     d="  M 4.6666667,14   L 4.3333333,15.333333   L 5.3333333,14.333333   L 4.6666667,14  z   "
     style="fill:#ffffff;fill-rule:evenodd;fill-opacity:1;stroke:none;" />
  <path
     id="path309"
     d="  M 4.3333333,15.333333   L 5.3333333,14.333333   L 5,15.333333   L 4.3333333,15.333333  z   "
     style="fill:#ffffff;fill-rule:evenodd;fill-opacity:1;stroke:none;" />
  <path
     id="path311"
     d="  M 5,15.333333   L 5.3333333,14.333333   L 5.6666667,15.666667   L 5,15.333333  z   "
     style="fill:#ffffff;fill-rule:evenodd;fill-opacity:1;stroke:none;" />
  <path
     id="path313"
     d="  M 5.3333333,14.333333   L 5.6666667,15.666667   L 5.6666667,14.333333   L 5.3333333,14.333333  z   "
     style="fill:#ffffff;fill-rule:evenodd;fill-opacity:1;stroke:none;" />
  <path
     id="path315"
     d="  M 5.6666667,15.666667   L 5.6666667,14.333333   L 6.6666667,15.333333   L 5.6666667,15.666667  z   "
     style="fill:#ffffff;fill-rule:evenodd;fill-opacity:1;stroke:none;" />
  <path
     id="path317"
     d="  M 5.6666667,14.333333   L 6.6666667,15.333333   L 6.3333333,14.333333   L 5.6666667,14.333333  z   "
     style="fill:#ffffff;fill-rule:evenodd;fill-opacity:1;stroke:none;" />
  <path
     id="path319"
     d="  M 6.6666667,15.333333   L 6.3333333,14.333333   L 7.6666667,15   L 6.6666667,15.333333  z   "
     style="fill:#ffffff;fill-rule:evenodd;fill-opacity:1;stroke:none;" />
  <path
     id="path321"
     d="  M 6.3333333,14.333333   L 7.6666667,15   L 6.6666667,14   L 6.3333333,14.333333  z   "
     style="fill:#ffffff;fill-rule:evenodd;fill-opacity:1;stroke:none;" />
  <path
     id="path323"
     d="  M 7.6666667,15   L 6.6666667,14   L 8,14.333333   L 7.6666667,15  z   "
     style="fill:#ffffff;fill-rule:evenodd;fill-opacity:1;stroke:none;" />
  <path
     id="path325"
     d="  M 6.6666667,14   L 8,14.333333   L 7,13.666667   L 6.6666667,14  z   "
     style="fill:#ffffff;fill-rule:evenodd;fill-opacity:1;stroke:none;" />
  <path
     id="path327"
     d="  M 11.666667,13.666667   L 10.666667,14.333333   L 11,13   L 11.666667,13.666667  z   "
     style="fill:#ffffff;fill-rule:evenodd;fill-opacity:1;stroke:none;" />
  <path
     id="path329"
     d="  M 10.666667,14.333333   L 11,13   L 10.333333,14   L 10.666667,14.333333  z   "
     style="fill:#ffffff;fill-rule:evenodd;fill-opacity:1;stroke:none;" />
  <path
     id="path331"
     d="  M 11,13   L 10.333333,14   L 10,12.666667   L 11,13  z   "
     style="fill:#ffffff;fill-rule:evenodd;fill-opacity:1;stroke:none;" />
  <path
     id="path333"
     d="  M 10.333333,14   L 10,12.666667   L 9.6666667,14   L 10.333333,14  z   "
     style="fill:#ffffff;fill-rule:evenodd;fill-opacity:1;stroke:none;" />
  <path
     id="path335"
     d="  M 10,12.666667   L 9.6666667,14   L 9.3333333,12.666667   L 10,12.666667  z   "
     style="fill:#ffffff;fill-rule:evenodd;fill-opacity:1;stroke:none;" />
  <path
     id="path337"
     d="  M 9.6666667,14   L 9.3333333,12.666667   L 9.3333333,13.666667   L 9.6666667,14  z   "
     style="fill:#ffffff;fill-rule:evenodd;fill-opacity:1;stroke:none;" />
  <path
     id="path339"
     d="  M 9.3333333,12.666667   L 9.3333333,13.666667   L 8.3333333,12.666667   L 9.3333333,12.666667  z   "
     style="fill:#ffffff;fill-rule:evenodd;fill-opacity:1;stroke:none;" />
  <path
     id="path341"
     d="  M 9.3333333,13.666667   L 8.3333333,12.666667   L 9,14   L 9.3333333,13.666667  z   "
     style="fill:#ffffff;fill-rule:evenodd;fill-opacity:1;stroke:none;" />
  <path
     id="path343"
     d="  M 8.3333333,12.666667   L 9,14   L 7.6666667,13   L 8.3333333,12.666667  z   "
     style="fill:#ffffff;fill-rule:evenodd;fill-opacity:1;stroke:none;" />
  <path
     id="path345"
     d="  M 9,14   L 7.6666667,13   L 8.3333333,14   L 9,14  z   "
     style="fill:#ffffff;fill-rule:evenodd;fill-opacity:1;stroke:none;" />
  <path
     id="path347"
     d="  M 7.6666667,13   L 8.3333333,14   L 7,13.666667   L 7.6666667,13  z   "
     style="fill:#ffffff;fill-rule:evenodd;fill-opacity:1;stroke:none;" />
  <path
     id="path349"
     d="  M 8.3333333,14   L 7,13.666667   L 8,14.333333   L 8.3333333,14  z   "
     style="fill:#ffffff;fill-rule:evenodd;fill-opacity:1;stroke:none;" />
  <path
     id="path351"
     d="  M 10.666667,14.333333   L 11.666667,13.666667   L 11.333333,15   L 10.666667,14.333333  z   "
     style="fill:#ffffff;fill-rule:evenodd;fill-opacity:1;stroke:none;" />
  <path
     id="path353"
     d="  M 11.666667,13.666667   L 11.333333,15   L 12,14.333333   L 11.666667,13.666667  z   "
     style="fill:#ffffff;fill-rule:evenodd;fill-opacity:1;stroke:none;" />
  <path
     id="path355"
     d="  M 11.333333,15   L 12,14.333333   L 12,15.666667   L 11.333333,15  z   "
     style="fill:#ffffff;fill-rule:evenodd;fill-opacity:1;stroke:none;" />
  <path
     id="path357"
     d="  M 12,14.333333   L 12,15.666667   L 12.333333,14.333333   L 12,14.333333  z   "
     style="fill:#ffffff;fill-rule:evenodd;fill-opacity:1;stroke:none;" />
  <path
     id="path359"
     d="  M 12,15.666667   L 12.333333,14.333333   L 13,15.666667   L 12,15.666667  z   "
     style="fill:#ffffff;fill-rule:evenodd;fill-opacity:1;stroke:none;" />
  <path
     id="path361"
     d="  M 12.333333,14.333333   L 13,15.666667   L 13,14.666667   L 12.333333,14.333333  z   "
     style="fill:#ffffff;fill-rule:evenodd;fill-opacity:1;stroke:none;" />
</svg>
