<?xml version="1.0" encoding="UTF-8" standalone="no"?>
<svg viewBox="0 -7.70313 7.70313 7.70313"
 xmlns="http://www.w3.org/2000/svg" xmlns:xlink="http://www.w3.org/1999/xlink"  version="1.2" baseProfile="tiny">
<title>Qt SVG Document</title>
<desc>Generated with Qt</desc>
<defs>
</defs>
<g fill="none" stroke="black" stroke-width="1" fill-rule="evenodd" stroke-linecap="square" stroke-linejoin="bevel" >

<g fill="#267300" fill-opacity="1" stroke="none" transform="matrix(1,0,0,1,0,0)"
font-family="ESRI Default Marker" font-size="8" font-weight="400" font-style="normal" 
>
<path vector-effect="none" fill-rule="nonzero" d="M7.70313,-3.84375 C7.70313,-3.32292 7.60156,-2.82813 7.39844,-2.35938 C7.19531,-1.89063 6.91927,-1.48177 6.57031,-1.13281 C6.22135,-0.783854 5.8125,-0.507813 5.34375,-0.304688 C4.875,-0.101563 4.375,0 3.84375,0 C3.32292,0 2.82813,-0.101563 2.35938,-0.304688 C1.89063,-0.507813 1.48177,-0.783854 1.13281,-1.13281 C0.783854,-1.48177 0.507813,-1.89063 0.304688,-2.35938 C0.101563,-2.82813 0,-3.32292 0,-3.84375 C0,-4.375 0.101563,-4.875 0.304688,-5.34375 C0.507813,-5.8125 0.783854,-6.22135 1.13281,-6.57031 C1.48177,-6.91927 1.89063,-7.19531 2.35938,-7.39844 C2.82813,-7.60156 3.32292,-7.70313 3.84375,-7.70313 C4.375,-7.70313 4.875,-7.60156 5.34375,-7.39844 C5.8125,-7.19531 6.22135,-6.91927 6.57031,-6.57031 C6.91927,-6.22135 7.19531,-5.8125 7.39844,-5.34375 C7.60156,-4.875 7.70313,-4.375 7.70313,-3.84375 M7.48438,-3.84375 C7.48438,-4.34375 7.38802,-4.8151 7.19531,-5.25781 C7.0026,-5.70052 6.74219,-6.08594 6.41406,-6.41406 C6.08594,-6.74219 5.70052,-7.0026 5.25781,-7.19531 C4.8151,-7.38802 4.34375,-7.48438 3.84375,-7.48438 C3.35417,-7.48438 2.88802,-7.38802 2.44531,-7.19531 C2.0026,-7.0026 1.61719,-6.74219 1.28906,-6.41406 C0.960938,-6.08594 0.700521,-5.70052 0.507813,-5.25781 C0.315104,-4.8151 0.21875,-4.34375 0.21875,-3.84375 C0.21875,-3.35417 0.315104,-2.88802 0.507813,-2.44531 C0.700521,-2.0026 0.960938,-1.61719 1.28906,-1.28906 C1.61719,-0.960938 2.0026,-0.700521 2.44531,-0.507813 C2.88802,-0.315104 3.35417,-0.21875 3.84375,-0.21875 C4.34375,-0.21875 4.8151,-0.315104 5.25781,-0.507813 C5.70052,-0.700521 6.08594,-0.960938 6.41406,-1.28906 C6.74219,-1.61719 7.0026,-2.0026 7.19531,-2.44531 C7.38802,-2.88802 7.48438,-3.35417 7.48438,-3.84375 "/>
</g>
</g>
</svg>
