<?xml version="1.0" encoding="UTF-8" standalone="no"?>
<svg viewBox="0 -6.29688 6.29688 6.29688"
 xmlns="http://www.w3.org/2000/svg" xmlns:xlink="http://www.w3.org/1999/xlink"  version="1.2" baseProfile="tiny">
<title>Qt SVG Document</title>
<desc>Generated with Qt</desc>
<defs>
</defs>
<g fill="none" stroke="black" stroke-width="1" fill-rule="evenodd" stroke-linecap="square" stroke-linejoin="bevel" >

<g fill="#000000" fill-opacity="1" stroke="none" transform="matrix(1,0,0,1,0,0)"
font-family="ESRI Default Marker" font-size="7" font-weight="400" font-style="normal" 
>
<path vector-effect="none" fill-rule="nonzero" d="M6.29688,-3.15625 C6.29688,-2.71875 6.21615,-2.30729 6.05469,-1.92188 C5.89323,-1.53646 5.66927,-1.20313 5.38281,-0.921875 C5.09635,-0.640625 4.76042,-0.416667 4.375,-0.25 C3.98958,-0.0833333 3.58333,0 3.15625,0 C2.71875,0 2.30729,-0.0833333 1.92188,-0.25 C1.53646,-0.416667 1.20313,-0.640625 0.921875,-0.921875 C0.640625,-1.20313 0.416667,-1.53646 0.25,-1.92188 C0.0833333,-2.30729 0,-2.71875 0,-3.15625 C0,-3.58333 0.0833333,-3.98958 0.25,-4.375 C0.416667,-4.76042 0.640625,-5.09635 0.921875,-5.38281 C1.20313,-5.66927 1.53646,-5.89323 1.92188,-6.05469 C2.30729,-6.21615 2.71875,-6.29688 3.15625,-6.29688 C3.58333,-6.29688 3.98958,-6.21615 4.375,-6.05469 C4.76042,-5.89323 5.09635,-5.66927 5.38281,-5.38281 C5.66927,-5.09635 5.89323,-4.76042 6.05469,-4.375 C6.21615,-3.98958 6.29688,-3.58333 6.29688,-3.15625 M6.125,-3.15625 C6.125,-3.5625 6.04688,-3.94531 5.89063,-4.30469 C5.73438,-4.66406 5.52083,-4.97917 5.25,-5.25 C4.97917,-5.52083 4.66406,-5.73438 4.30469,-5.89063 C3.94531,-6.04688 3.5625,-6.125 3.15625,-6.125 C2.73958,-6.125 2.35156,-6.04688 1.99219,-5.89063 C1.63281,-5.73438 1.31771,-5.52083 1.04688,-5.25 C0.776042,-4.97917 0.565104,-4.66406 0.414063,-4.30469 C0.263021,-3.94531 0.1875,-3.5625 0.1875,-3.15625 C0.1875,-2.73958 0.263021,-2.35156 0.414063,-1.99219 C0.565104,-1.63281 0.776042,-1.31771 1.04688,-1.04688 C1.31771,-0.776042 1.63281,-0.565104 1.99219,-0.414063 C2.35156,-0.263021 2.73958,-0.1875 3.15625,-0.1875 C3.5625,-0.1875 3.94531,-0.263021 4.30469,-0.414063 C4.66406,-0.565104 4.97917,-0.776042 5.25,-1.04688 C5.52083,-1.31771 5.73438,-1.63281 5.89063,-1.99219 C6.04688,-2.35156 6.125,-2.73958 6.125,-3.15625 "/>
</g>
</g>
</svg>
