<?xml version="1.0" encoding="UTF-8" standalone="no"?>
<svg viewBox="0 -8.82813 8.79688 8.8125"
 xmlns="http://www.w3.org/2000/svg" xmlns:xlink="http://www.w3.org/1999/xlink"  version="1.2" baseProfile="tiny">
<title>Qt SVG Document</title>
<desc>Generated with Qt</desc>
<defs>
</defs>
<g fill="none" stroke="black" stroke-width="1" fill-rule="evenodd" stroke-linecap="square" stroke-linejoin="bevel" >

<g fill="#9c9c9c" fill-opacity="1" stroke="none" transform="matrix(1,0,0,1,0,0)"
font-family="ESRI Fire Incident NFPA" font-size="8" font-weight="400" font-style="normal" 
>
<path vector-effect="none" fill-rule="nonzero" d="M0,-4.4375 C0,-5.05208 0.114583,-5.6276 0.34375,-6.16406 C0.572917,-6.70052 0.885417,-7.16667 1.28125,-7.5625 C1.67708,-7.95833 2.14323,-8.26823 2.67969,-8.49219 C3.21615,-8.71615 3.79167,-8.82813 4.40625,-8.82813 C5.01042,-8.82813 5.58073,-8.71615 6.11719,-8.49219 C6.65365,-8.26823 7.11979,-7.95833 7.51563,-7.5625 C7.91146,-7.16667 8.22396,-6.70052 8.45313,-6.16406 C8.68229,-5.6276 8.79688,-5.05208 8.79688,-4.4375 C8.79688,-3.82292 8.68229,-3.24479 8.45313,-2.70313 C8.22396,-2.16146 7.91146,-1.69271 7.51563,-1.29688 C7.11979,-0.901042 6.65365,-0.588542 6.11719,-0.359375 C5.58073,-0.130208 5.01042,-0.015625 4.40625,-0.015625 C3.79167,-0.015625 3.21615,-0.130208 2.67969,-0.359375 C2.14323,-0.588542 1.67708,-0.901042 1.28125,-1.29688 C0.885417,-1.69271 0.572917,-2.16146 0.34375,-2.70313 C0.114583,-3.24479 0,-3.82292 0,-4.4375 "/>
</g>
</g>
</svg>
