<?xml version="1.0" encoding="UTF-8" standalone="no"?>
<svg viewBox="0 -8.6875 8.79688 8.67188"
 xmlns="http://www.w3.org/2000/svg" xmlns:xlink="http://www.w3.org/1999/xlink"  version="1.2" baseProfile="tiny">
<title>Qt SVG Document</title>
<desc>Generated with Qt</desc>
<defs>
</defs>
<g fill="none" stroke="black" stroke-width="1" fill-rule="evenodd" stroke-linecap="square" stroke-linejoin="bevel" >

<g fill="#000000" fill-opacity="1" stroke="none" transform="matrix(1,0,0,1,0,0)"
font-family="ESRI Fire Incident NFPA" font-size="8" font-weight="400" font-style="normal" 
>
<path vector-effect="none" fill-rule="nonzero" d="M0,-4.375 C0,-4.97917 0.114583,-5.54427 0.34375,-6.07031 C0.572917,-6.59635 0.885417,-7.05208 1.28125,-7.4375 C1.67708,-7.82292 2.14323,-8.1276 2.67969,-8.35156 C3.21615,-8.57552 3.79167,-8.6875 4.40625,-8.6875 C5.01042,-8.6875 5.58073,-8.57552 6.11719,-8.35156 C6.65365,-8.1276 7.11979,-7.82292 7.51563,-7.4375 C7.91146,-7.05208 8.22396,-6.59635 8.45313,-6.07031 C8.68229,-5.54427 8.79688,-4.97917 8.79688,-4.375 C8.79688,-3.76042 8.68229,-3.1901 8.45313,-2.66406 C8.22396,-2.13802 7.91146,-1.67708 7.51563,-1.28125 C7.11979,-0.885417 6.65365,-0.575521 6.11719,-0.351563 C5.58073,-0.127604 5.01042,-0.015625 4.40625,-0.015625 C3.79167,-0.015625 3.21615,-0.127604 2.67969,-0.351563 C2.14323,-0.575521 1.67708,-0.885417 1.28125,-1.28125 C0.885417,-1.67708 0.572917,-2.13802 0.34375,-2.66406 C0.114583,-3.1901 0,-3.76042 0,-4.375 M0.265625,-4.35938 C0.265625,-3.79688 0.372396,-3.27344 0.585938,-2.78906 C0.799479,-2.30469 1.09635,-1.8776 1.47656,-1.50781 C1.85677,-1.13802 2.29688,-0.846354 2.79688,-0.632813 C3.29688,-0.419271 3.83333,-0.3125 4.40625,-0.3125 C4.97917,-0.3125 5.51563,-0.419271 6.01563,-0.632813 C6.51563,-0.846354 6.95313,-1.13802 7.32813,-1.50781 C7.70313,-1.8776 7.9974,-2.30469 8.21094,-2.78906 C8.42448,-3.27344 8.53125,-3.79688 8.53125,-4.35938 C8.53125,-4.91146 8.42448,-5.4349 8.21094,-5.92969 C7.9974,-6.42448 7.70313,-6.85417 7.32813,-7.21875 C6.95313,-7.58333 6.51563,-7.8724 6.01563,-8.08594 C5.51563,-8.29948 4.97917,-8.40625 4.40625,-8.40625 C3.83333,-8.40625 3.29688,-8.29948 2.79688,-8.08594 C2.29688,-7.8724 1.85677,-7.58333 1.47656,-7.21875 C1.09635,-6.85417 0.799479,-6.42448 0.585938,-5.92969 C0.372396,-5.4349 0.265625,-4.91146 0.265625,-4.35938 "/>
</g>
</g>
</svg>
