<?xml version="1.0" encoding="UTF-8" standalone="no"?>
<svg viewBox="0.0625 -4.07813 4.0625 4.07813"
 xmlns="http://www.w3.org/2000/svg" xmlns:xlink="http://www.w3.org/1999/xlink"  version="1.2" baseProfile="tiny">
<title>Qt SVG Document</title>
<desc>Generated with Qt</desc>
<defs>
</defs>
<g fill="none" stroke="black" stroke-width="1" fill-rule="evenodd" stroke-linecap="square" stroke-linejoin="bevel" >

<g fill="#000000" fill-opacity="1" stroke="none" transform="matrix(1,0,0,1,0,0)"
font-family="ESRI Default Marker" font-size="4.5" font-weight="400" font-style="normal" 
>
<path vector-effect="none" fill-rule="nonzero" d="M4.125,-2.03125 C4.125,-1.75 4.07292,-1.48698 3.96875,-1.24219 C3.86458,-0.997396 3.71875,-0.78125 3.53125,-0.59375 C3.34375,-0.40625 3.1276,-0.260417 2.88281,-0.15625 C2.63802,-0.0520833 2.375,0 2.09375,0 C1.8125,0 1.54688,-0.0520833 1.29688,-0.15625 C1.04688,-0.260417 0.830729,-0.40625 0.648438,-0.59375 C0.466146,-0.78125 0.322917,-0.997396 0.21875,-1.24219 C0.114583,-1.48698 0.0625,-1.75 0.0625,-2.03125 C0.0625,-2.3125 0.114583,-2.57813 0.21875,-2.82813 C0.322917,-3.07813 0.466146,-3.29688 0.648438,-3.48438 C0.830729,-3.67188 1.04688,-3.81771 1.29688,-3.92188 C1.54688,-4.02604 1.8125,-4.07813 2.09375,-4.07813 C2.375,-4.07813 2.63802,-4.02604 2.88281,-3.92188 C3.1276,-3.81771 3.34375,-3.67188 3.53125,-3.48438 C3.71875,-3.29688 3.86458,-3.07813 3.96875,-2.82813 C4.07292,-2.57813 4.125,-2.3125 4.125,-2.03125 "/>
</g>
</g>
</svg>
